<?xml version="1.0" encoding="UTF-8" standalone="no"?>
<svg xmlns="http://www.w3.org/2000/svg" width="205.5813mm" height="52.364529mm" viewBox="0 0 205.5813 52.364529">
  <path d="M4.671801 51.99676c-.09564-.24922-.173885-1.14171-.173885-1.98331 0-1.06921-.144517-1.72027-.479722-2.16118-.597662-.78612-1.372361-2.83227-1.372361-3.6247 0-.32713-.20836-.67165-.463021-.76561-.632351-.23331-.851066-.608-.855844-1.4662-.0033-.59864-.12129-.7276-.66551-.7276C.024267 41.26816 0 41.20556 0 39.56151c0-1.1935.112334-1.77026.37361-1.91823.314707-.17822.387707-3.07985.463021-18.40435.07813-15.89684.139496-18.2062.486285-18.29929C3.621169.32273 4.527488.23981 6.018011.5101c1.095649.19868 1.811231.20427 2.301192.018.900919-.34253 4.132178-.35178 5.019632-.0144.410821.15619.886943.71052 1.221375 1.422l.548091 1.16601 2.169287.18238c1.193107.10031 2.466942.17151 2.830744.15821.363802-.0133 2.948689-.0805 5.744194-.14937 5.790917-.14264 5.599731-.20644 6.52146 2.17611.270434.69903.83598 1.9873 1.256771 2.86282l.765075 1.59186v8.71132c0 7.71634.04437 8.65266.388461 8.19773.213651-.28248.392245-.72195.396875-.97661.0046-.25467.127476-.46303.272997-.46303.145521 0 .265316-.14882.266213-.33072.000794-.18191.188124-.68792.416063-1.12448.227938-.43657.832426-1.80578 1.343305-3.04271s1.027753-2.43926 1.148609-2.67184c.120856-.23258.719339-1.6018 1.329965-3.04271.610624-1.4409 1.584105-3.63186 2.163292-4.86879.579186-1.23692 1.2687-2.7252 1.532257-3.30729.263557-.58208.683133-1.50482.932392-2.05052.328313-.71878.617439-.99219 1.049226-.99219.750112 0 3.312427 1.05063 3.312427 1.3582 0 .53689.578144.16777.818886-.52282l.262191-.75212 5.346441-.17322c2.940541-.0953 11.299566-.17292 18.575606-.17253 15.90992.00085 14.83542-.22193 14.74453 3.0568-.038 1.37217.0716 2.37571.31619 2.89424l.37442.79375.0464-1.05834c.0255-.58208.0785-1.47505.11774-1.98437.0392-.50933.0876-2.19152.10739-3.73822l.0361-2.81217.8599-.36119c.81447-.34211 3.38786-.45134 6.41614-.27234.72761.043 2.45401-.002 3.83646-.0999 1.38245-.0979 2.93026-.0697 3.43958.0627l.92604.24073.23094 3.09059.23093 3.0906.8274-.0177c3.36536-.072 8.82403.0749 9.09595.2448.25202.15745.36241 2.66107.46242 10.48712.0723 5.65416.1784 10.32731.23586 10.38478.0575.0575.49255-.58718.96685-1.43256s1.06586-1.77518 1.3146-2.06622c.24873-.29104 1.15337-1.69758 2.01031-3.12563s1.76512-2.91633 2.01818-3.30729c.25306-.39096.54324-.88943.64485-1.10771.10162-.21828.82498-1.32988 1.60748-2.47021.7825-1.14034 1.49834-2.27144 1.59076-2.51355.41755-1.09386 3.64885-4.30684 6.93666-6.89734 1.36572-1.07607 1.52449-1.1339 2.72326-.99192.78545.093 1.72671.45698 2.45768.9503 1.18065.79681 1.18646.79775 1.7085.27571.28811-.2881.52757-.61312.53214-.72226.005-.10914.2853-.39958.62383-.64542.58009-.42127.70894-.41791 2.23925.0584 1.75324.54567 2.28075.48222 2.7135-.32637.39088-.73037 1.83533-1.26939 3.40168-1.26939 1.166 0 1.46655-.12277 2.42895-.99219l1.0983-.99218 6.50923.008c3.58008.004 6.83236.0947 7.22729.20108.71151.19162.71875.21688.79375 2.77042l.0757 2.57705 1.71979-.0847c.94588-.0465 2.25557.0412 2.91041.19498.86034.20206 1.72026.1933 3.09989-.0316 1.33043-.21686 2.464-.23453 3.7391-.0583 1.00641.13911 2.3574.21096 3.0022.15968 1.16958-.093 1.17633-.0995 2.85758-2.73288.92687-1.45181 1.89381-2.75127 2.14875-2.88771.61174-.32739 5.56709-.31972 6.43422.01.61549.23401.67868.39414.67868 1.71979 0 .80397.0721 1.46176.16025 1.46176.0881 0 .8918-.19161 1.78593-.42579 1.89462-.49623 4.8217-.37808 6.33895.25587l.97529.4075v33.62909h1.85208v1.66687c0 1.79396-.27439 2.30188-1.24354 2.30188-.49241 0-.60854.14366-.60854.75274 0 .41672-.23622.96651-.52917 1.23163-.29104.26339-.52917.7599-.52917 1.10335 0 .78012-1.46212 3.40903-2.17288 3.90687-.46921.32865-.50888.55187-.34656 1.95038.1334 1.14939.0927 1.63527-.14969 1.78505-.18314.11319-18.79681.17444-41.36369.13612-22.5669-.0383-44.2454-.0746-48.17446-.0805-3.92906-.006-29.30042.0807-56.380799.19263-46.348978.19155-49.24725.17691-49.410935-.24965zm107.738237-.80683c47.3462-.0553 86.11923-.13743 86.16229-.18252.043-.0451.11962-.43102.17016-.85765l.0919-.77569-92.47186.0294c-50.859532.0162-94.347108.0378-96.639061.0481l-4.167188.0187v1.8409l5.225521.0936c2.874036.0515 7.547239.0469 10.384896-.0103 2.837656-.0572 43.897174-.14922 91.243372-.20452zm-99.908476-2.68867c-.181901-.0734-.479558-.0734-.661459 0-.181901.0734-.03307.13345.330729.13345.363802 0 .512631-.0601.33073-.13345zm144.197906-.00007c-.1819-.0734-.47956-.0734-.66146 0-.1819.0734-.0331.13345.33073.13345.3638 0 .51263-.0601.33073-.13345zm5.41845.0154c-.0879-.0879-.31613-.0973-.50712-.0209-.21107.0845-.14837.14715.15985.15985.27891.0115.43519-.0511.34727-.13897zm2.78363-.0154c-.1819-.0734-.47955-.0734-.66145 0-.18191.0734-.0331.13345.33072.13345.36381 0 .51263-.0601.33073-.13345zm2.24345.0154c-.0879-.0879-.31612-.0973-.50712-.0209-.21106.0845-.14837.14715.15985.15985.27892.0115.43519-.0511.34727-.13897zm2.38125 0c-.0879-.0879-.31612-.0973-.50712-.0209-.21106.0845-.14837.14715.15985.15985.27892.0115.43519-.0511.34727-.13897zm3.24666.0559c0-.251-.792-.37749-.93319-.14905-.086.13917.0888.25303.3884.25303.29963 0 .54479-.0468.54479-.10398zm2.44739-.0712c-.1819-.0734-.47955-.0734-.66146 0-.1819.0734-.0331.13345.33073.13345.36381 0 .51263-.0601.33073-.13345zm9.26042 0c-.1819-.0734-.47956-.0734-.66146 0-.1819.0734-.0331.13345.33073.13345.3638 0 .51263-.0601.33073-.13345zm1.32292 0c-.18191-.0734-.47956-.0734-.66146 0-.1819.0734-.0331.13345.33073.13345.3638 0 .51263-.0601.33073-.13345zm-165.237797-.24924c-.08792-.0879-.316122-.0973-.507118-.0209-.211067.0845-.148372.14715.159852.15985.278915.0115.435184-.0511.347266-.13897zm-6.342549-1.7656c-.416383-.89649-.671647-.9071-1.000713-.0416-.174975.46022-.164314.85397.03311 1.22286.286445.53523.299389.53588.795727.0395.438531-.43853.461019-.59826.171877-1.2208zm3.597088.0372c.414966-.57729.817535-1.51971.894597-2.09425l.140113-1.04462h-2.416087c-2.391907 0-2.416087.007-2.416087.65248 0 .85748.741912 2.4762 1.54205 3.36448.759165.8428 1.119165.70264 2.255414-.87809zm1.643583.98828c.09127-.36363-.0152-.95767-.248949-1.38906-.346698-.63982-.410013-.67175-.419005-.21132-.0058.29832-.139431.67124-.2969.8287-.205353.20536-.187357.44475.06365.84667.455178.72886.704667.7081.901209-.075zm2.816172.1116c1.034822-.96408 1.528845-1.96924 1.53062-3.11427l.0017-1.12448h-4.497873l.01193.72761c.0158.96341.475193 1.94977 1.441792 3.09567.435747.51657.827679.93922.870959.93922.04328 0 .331671-.23568.640867-.52375zm2.846867-.73302c.0046-.1819-.110649-.33073-.25617-.33073s-.264583-.17156-.264583-.38126c0-.778-.421799-.60642-.700835.28509-.232424.74258-.212389.99723.10329 1.31291.345804.34581.433678.33623.750762-.0818.197517-.2604.362905-.62229.367536-.80419zm15.277387.75235c.243853-.39046.243287-.65896-.0024-1.18856-.40136-.8648-.659426-.86728-.98556-.01-.171407.45084-.166084.85067.01585 1.19063.3445.6437.573746.64546.972203.007zm5.624695-.52016c-.0046-.23685-.190585-.66875-.413234-.95979-.400024-.5229-.409329-.52308-.785336-.0156-.488969.65997-.479148.92326.05652 1.51517.492511.54421 1.157094.23009 1.14205-.5398zm2.961587.0569c.640307-.71976 1.168855-2.23708 1.06844-3.06721l-.08801-.72761h-2.231384c-2.215343 0-2.231385.005-2.231385.6746 0 .76793.559557 1.97181 1.501047 3.2295.689026.92043 1.084662.89861 1.981292-.10928zm2.07391-.0907c0-.25541-.159261-.59655-.353912-.75809-.540475-.44856-1.186307.83891-.7092 1.41379.407482.49099 1.063112.0866 1.063112-.6557zm2.906321.26859c.946052-.9248 1.327012-1.8044 1.327012-3.06394v-.90882h-2.38125c-2.330998 0-2.38125.0133-2.38125.62915 0 1.23664 1.678903 4.13335 2.395649 4.13335.127566 0 .595495-.35538 1.039839-.78974zm2.469755.15765c.06893-.17962-.09103-.61342-.355473-.964l-.480798-.63741-.324427.71204c-.25536.56045-.255701.79485-.0016 1.10103.350446.42226.96176.31094 1.162298-.21166zm2.634893.0368c.866436-.81886 1.51403-2.22258 1.51403-3.2818v-.88539h-4.768754l.170606 1.12448c.09383.61846.333364 1.31245.532291 1.54219.19893.22974.361691.51374.361691.63112 0 .20879 1.247769 1.46471 1.455208 1.46471.05777 0 .388482-.26789.734928-.59531zm23.739028-.44412c0-.15592-.11906-.28348-.26458-.28348-.14552 0-.26459-.1786-.26459-.39688 0-.63467-.5123-.45879-.85509.29357-.26835.58896-.24333.74254.17024 1.04496.40624.29705.54392.29541.84942-.0101.20053-.20053.3646-.49216.3646-.64808zm5.29167.13156c0-.17265-.1786-.54502-.39688-.8275-.39286-.50839-.40088-.50839-.79375 0-.50004.64711-.49673.80396.028 1.32873.32806.32806.50897.35514.79375.11879.20287-.16836.36885-.44737.36885-.62002zm28.48832.18027c.75579-.80656 1.67417-2.74168 1.67417-3.52767 0-.46234-.21071-.50723-2.38125-.50723-2.55307 0-2.67708.0845-2.13464 1.45521.15093.38136.0349.73807-.41547 1.27707-.72156.86361-.75771 1.06145-.26817 1.46772.27155.22537.46516.17621.81098-.20591.29744-.32867.35698-.5621.17246-.67614-.15501-.0958-.27804-.37551-.27341-.62158.007-.38529.0634-.37394.40435.0818.6378.85241 1.56507 1.96103 1.65039 1.97317.0433.006.38559-.31622.76059-.7164zm2.57176.22988c.37894-.41872.39359-.5552.0923-.85989-.19694-.1992-.44932-.6003-.56084-.89135-.1939-.50602-.21888-.50023-.57114.1323-.4586.82348-.48045 1.38833-.0696 1.79916.42773.42774.5817.40272 1.10925-.18022zm3.60326-1.30178c.44286-.70516.78294-1.61536.78579-2.1031l.005-.8599h-4.7625v.82867c0 .83886.7112 2.25899 1.66681 3.32829.6839.76526 1.26274.46541 2.30487-1.19396zm1.56721 1.17048c.28659-.5355.26373-.74079-.15373-1.3807-.46145-.70734-.49521-.71819-.5724-.18394-.0451.31225-.24551.70341-.44532.86923-.30513.25324-.29199.37986.082.79092.5925.65117.6946.64222 1.08942-.0955zm4.1485-2.01374c.21586-.50763.3249-1.19224.2423-1.52135-.14121-.56262-.28433-.59839-2.39411-.59839h-2.24391v.73152c0 .91511.90095 2.65457 1.77296 3.42304l.66119.58268.78454-.84726c.4315-.466.96116-1.2626 1.17703-1.77024zm1.42511 1.50925c0-.12218-.20518-.49417-.45596-.82663l-.45596-.60448-.33779.6511c-.41433.79862-.42583 1.19048-.0461 1.57022.21254.21254.42794.17504.79375-.13818.27613-.23643.50206-.52984.50206-.65203zm12.96458.60435c.29104-.29105.52917-.64823.52917-.79375 0-.14553.11347-.26459.25215-.26459.36012 0 .76977-1.65869.61264-2.48066-.13068-.68362-.16696-.69434-2.35084-.69434-2.12742 0-2.21763.0243-2.20619.59531.0174.86761.52711 1.88168 1.55651 3.09669.49884.58877.94533 1.0705.99219 1.0705.0469 0 .32333-.23812.61437-.52916zm7.8098-.27904c.16-.50412-.25951-1.57305-.61735-1.57305-.39043 0-.84626 1.66098-.55285 2.01452.35557.42844.96735.19764 1.1702-.44147zm50.40605-1.18834c.3157-.51081.63993-1.42032.72052-2.02114l.14652-1.0924-1.26796.17379c-.69737.0956-1.72759.17379-2.28936.17379h-1.0214v1.13883c0 .81206.22886 1.4997.7976 2.39652l.79761 1.25769.77124-.54917c.42418-.30204 1.02954-.9671 1.34523-1.47791zM9.077618 47.25742c.06749-.17586-.09691-.73221-.365327-1.23631-.268416-.50411-.493019-.72279-.499118-.48594-.0061.23684-.189684.57884-.407965.76-.500988.41578-.49942.65341.0077 1.16048.430199.4302 1.061576.33124 1.264753-.19823zm3.074664-.21505c.770091-.69992.925275-1.03925 1.02495-2.24121l.11746-1.41641H8.503605l.26675.8599c.146713.47294.346761 1.11765.444551 1.43269.193766.62423 1.516876 2.21008 1.833488 2.19757.108018-.004.604768-.37891 1.103888-.83254zm15.740642-.26566c.52066-.60828.946658-1.24824.946658-1.42213 0-.1739.07441-.68825.165364-1.143l.165365-.82683h-4.564062v.69863c0 1.21026 1.452753 3.7573 2.162196 3.79088.0978.005.603816-.48927 1.124479-1.09755zm2.08158.73001c.426252-.32331.432848-.39974.06615-.76643-.224025-.22403-.407318-.53489-.407318-.69081 0-.47084-.491731-.31864-.79375.24569-.201213.37597-.201213.68236 0 1.05833.330581.6177.493543.6397 1.134922.15322zm2.949834-.34138c.814681-.81468 1.471494-2.22135 1.471494-3.15144 0-.61587-.05025-.62915-2.38125-.62915h-2.38125v.82867c0 .91322.834967 2.48903 1.695757 3.20034.722389.59695.754943.59188 1.595249-.24842zm2.265244.32045c.263797-.31785.258812-.48906-.02503-.85989-.194921-.25466-.382423-.50696-.416671-.56067-.09741-.15275-.881216.69389-.881216.95187 0 .27277.557667.86557.814271.86557.0986 0 .327488-.17859.508646-.39688zm2.756894-.004c.915157-.69245 1.472904-1.8166 1.474695-2.97228l.0017-1.12448h-4.497917v.7813c0 .96896.465032 2.03776 1.300507 2.98901.722026.82209.996992.87425 1.720971.32645zm5.246751.0328c.254661-.19331.463021-.43616.463021-.53965 0-.10349.175448-.36362.389882-.57805.466463-.46646 1.022699-2.38819.79697-2.75342-.08786-.14216-1.164754-.25848-2.393093-.25848h-2.233342v.93535c0 .9595.47254 1.92983 1.437235 2.95127.640392.67805.910111.72063 1.539327.24299zm18.365855-.0464c.08753-.2281.0044-.70379-.184644-1.0571l-.343792-.64238-.449757.72637c-.308084.49756-.367348.83056-.188138 1.0571.362331.45804.975273.4139 1.166331-.084zm2.933102-.0656c.829734-.86074 1.389064-2.09541 1.389064-3.06623v-.95137h-2.381251c-2.317433 0-2.38125.0165-2.38125.61662 0 .664.940422 2.68686 1.5875 3.41474.521494.58661 1.212318.58129 1.785937-.0138zm2.324974.19977c.19539-.31614-.36139-1.83612-.67258-1.83612-.26058 0-.51368 1.31674-.34006 1.76917.16025.41762.77096.45799 1.01264.0669zm3.02462-.54683c.41563-.45507.83199-1.25874.92523-1.78594.0932-.52721.23074-1.16692.30555-1.42158.12243-.41676-.10201-.46302-2.24643-.46302h-2.38245l.15184.99219c.23389 1.52843 1.40884 3.43673 2.14491 3.48368.19011.0121.68571-.35028 1.10135-.80533zm2.07278.40071c.23543-.42069-.15162-1.68356-.51732-1.68793-.36671-.004-.71195 1.52114-.41211 1.82098.40348.40348.64883.36836.92943-.13305zm3.18282-.40413c.916-.9369 1.30006-2.08756 1.13569-3.40253-.0191-.15305-.98116-.26459-2.28203-.26459h-2.24896v.91092c0 .91737.90599 2.79325 1.34905 2.79325.13115 0 .23845.17859.23845.39687 0 .66994.95197.44144 1.8078-.43392zm2.10803.5133c.42279-.42278.40355-.56066-.17061-1.22268l-.48813-.5628-.34078.63676c-.58265 1.08869.18143 1.96681.99952 1.14872zm3.04175-.27781c.89121-.83572 1.2445-1.60066 1.2445-2.69459 0-.93728-.008-.94343-1.15369-.94343-.63453 0-1.7061-.0757-2.38125-.16826-1.13723-.15587-1.22756-.12571-1.22756.41002 0 1.10551 1.81727 3.99157 2.51338 3.99157.20338 0 .65546-.26789 1.00462-.59531zm5.23061 0c.96068-1.00841 1.26107-1.61204 1.34959-2.71198l.0852-1.05834-2.31356-.0249-2.31356-.025v.89417c0 1.2314 1.4858 3.52137 2.28477 3.52137.18725 0 .59566-.26789.90759-.59531zm5.72479-.68324c.64415-.84454.87244-1.41538.87244-2.1816v-1.03777h-2.38125c-2.7029 0-2.76153.063-1.8748 2.0157.63721 1.40319 1.61274 2.52053 2.11602 2.42361.21733-.0418.78775-.59083 1.26759-1.21994zm1.51225 1.11795c.55448-.21277.52785-.53793-.0992-1.21097l-.51771-.5557-.32714.718c-.27048.59363-.261.75984.0547.95958.46126.29184.38176.28387.88936.0891zm2.98728-.43471c.8128-.88891 1.39999-2.18734 1.39999-3.09572v-.80689h-4.49792v.77653c0 1.08519.44319 2.14077 1.25696 2.99378.84212.88274 1.13551.90382 1.84097.1323zm2.45723.19976c.26533-.31971.23785-.53356-.14336-1.11535l-.47162-.71979-.26156.58618c-.14386.32239-.38089.58618-.52672.58618-.14584 0-.0497.23812.21373.52916.57313.6333.75762.65403 1.18953.13362zm3.25148-.71851c.55884-.69097.83011-1.35718.91582-2.24915l.12178-1.26737-2.34243.0936c-1.28834.0515-2.39015.13896-2.44847.19441-.0583.0555.0607.61879.26459 1.25186.44458 1.38077 1.78559 3.13801 2.31491 3.03345.20887-.0413.73708-.51682 1.1738-1.05679zm2.25866.42033c.0468-.0273-.12479-.29485-.38132-.59445-.34906-.40767-.55353-.47242-.81269-.25733-.80914.67152-.13368 1.79845.71205 1.18798.21828-.15757.43516-.30886.48196-.3362zm2.70241-.10961c.90741-.92827 1.52469-2.25745 1.47819-3.18298-.0315-.62759-.0943-.6458-2.47975-.71943l-2.4474-.0755v.91399c0 1.06135.6445 2.37818 1.5875 3.24356.85292.78271.92783.77548 1.86146-.17961zm2.36346-.0849c-.005-.31186-.18322-.79813-.39687-1.0806-.25293-.3344-.38846-.38783-.38846-.15312 0 .19825-.20678.58895-.45951.86821-.43683.48269-.43556.52527.0257.86256.63241.46243 1.22975.21889 1.21913-.49705zm3.09039.16059c1.51306-1.62986 1.77153-3.59007.50531-3.83212-1.35011-.25809-3.81304-.21506-3.98903.0697-.52135.84356 1.44239 4.49003 2.41802 4.49003.21463 0 .6942-.32742 1.0657-.72761zm20.9837-.33077c.5413-.52612 1.24864-2.39376 1.12733-2.97652-.0831-.39919-.42197-.46302-2.45824-.46302-2.27323 0-2.36181.0223-2.36086.59531.001.69089.8156 2.13281 1.79064 3.17017.71272.75827.80128.74309 1.90113-.32594zm1.97917-.56124c-.21662-.4189-.43663-.76163-.48892-.76163-.0523 0-.2967.30772-.54313.68383-.42199.64404-.42126.71345.0125 1.19277.42718.47202.49513.47767.93699.0778.434-.39277.44135-.49892.0825-1.19276zm3.52308.0896c.53187-.77942.85916-1.58451.85916-2.11346v-.85443h-2.38125c-2.67994 0-2.64566-.0359-1.88357 1.97077.52151 1.3732 1.66054 2.59613 2.21857 2.38199.18036-.0692.71456-.69241 1.18709-1.38487zm1.78479.22674c-.0917-.3746-.33747-.85543-.54617-1.06851-.33158-.33854-.37946-.29959-.37946.30868 0 .38286-.14883.74816-.33073.81179-.23796.0832-.18959.2747.17245.68257.65904.74248 1.33356.28539 1.08391-.73453zm5.20219-.15809-.55817-.70961-.31578.69306c-.27177.59647-.24504.74551.19173 1.06933.42792.31724.565.31984.87396.0165.31171-.30599.28306-.46571-.19174-1.06932zm3.0003.97577c.84681-.74893 1.45521-2.11799 1.45521-3.27462v-1.07151l-.99219.164c-.5457.0902-1.61726.16531-2.38125.16691-1.29987.003-1.38906.0449-1.38906.65622 0 .88211.96228 2.67232 1.78378 3.31851.80462.63291.85223.63418 1.52351.0405zm5.09323.005c.86062-.89278 1.38906-2.10959 1.38906-3.19852v-1.08366h-4.56984l.16573 1.20917c.11496.83867.46002 1.56829 1.12617 2.38125 1.07741 1.31483 1.23324 1.3719 1.88888.69176zm2.41106.0255c.17536-.31334.13618-.68376-.12594-1.19062-.47073-.9103-.57648-.91488-.90935-.0394-.48948 1.28745.40705 2.3526 1.03529 1.23zm3.09127-.53735c.79823-.86909.91144-1.16585.91255-2.39195l.001-1.39976-2.18255.0768-2.18255.0769.0899 1.03535c.0813.93623.5289 1.81235 1.6001 3.13184.52998.65281.73125.59234 1.76132-.52917zm1.82096.57641c.50697-.50696.50697-.63189.00003-1.30272-.34219-.45283-.43446-.47164-.64899-.1323-.32301.51094-.33206 1.8508-.0125 1.8508.13513 0 .43278-.1871.66146-.41578zm3.43496-.39827c.37674-.44773.68498-.98351.68498-1.19063 0-.20711.11906-.37657.26458-.37657.14552 0 .26458-.53578.26458-1.19063v-1.19062h-4.7625v.91092c0 .501.26682 1.36313.59292 1.91583 1.26927 2.15125 1.89068 2.3871 2.95544 1.1217zm2.14955.25538c.11321-.3567.024-.71198-.24675-.98274-.38847-.38846-.45956-.38858-.84678-.001-.33675.33675-.36176.53658-.12298.98274.38428.71804.98883.71872 1.21651.001zm3.29241-.6981c.5506-.87679.79073-1.59676.79424-2.38125l.005-1.12448h-2.38125c-2.3779 0-2.38125.001-2.38125.67669 0 1.30788 1.91423 4.05223 2.84378 4.07701.18164.005.68539-.55675 1.11945-1.24797zm1.87543.83841c.27229-.32809.27928-.52713.0324-.92245-.17315-.27725-.31481-.6843-.31481-.90456 0-.67622-.46211-.44434-.74782.37525-.50234 1.44101.20819 2.44226 1.03023 1.45176zm2.92954-.44154c.96401-1.03505 1.28596-1.78458 1.28596-2.99378v-.90882h-4.49791v.80689c0 .96475.60209 2.23098 1.53491 3.228.37442.40019.72472.72761.77846.72761.0537 0 .4581-.38695.89858-.8599zm2.19037.6993c.56214-.21572.53105-1.24304-.0536-1.77217-.43734-.39579-.4977-.38636-.81886.12791-.28104.45-.28337.67356-.0123 1.18002.37794.70619.32571.67878.8848.46424zm2.90902-.76046c.90948-.88323 1.80412-3.07459 1.41435-3.46435-.093-.093-1.18823-.23268-2.43385-.31039-2.19415-.13688-2.26476-.1233-2.26476.43571 0 .66023.86869 2.46753 1.69086 3.51785.30695.39213.57764.71955.60153.7276.0239.008.47023-.39984.99187-.90642zm2.52816.19345c-.008-.69296-.51962-1.65364-.88065-1.65364-.0931 0-.16927.17859-.16927.39687 0 .21829-.11906.39688-.26458.39688-.40405 0-.31558.56345.1733 1.10364.64479.71249 1.15101.60437 1.1412-.24375zm2.81371.12772c.82657-.87767 1.42804-2.17962 1.42804-3.09114v-.80689h-2.38125c-2.34988 0-2.38125.009-2.38125.64746 0 .76687 1.15301 3.04849 1.77868 3.51973.61392.46238.91608.4101 1.55578-.26916zm2.37109-.95472c-.54323-1.05048-.85272-1.04652-1.08562.0139-.14297.65092-.0758.92011.29767 1.19321.40324.29486.54236.29258.84885-.0139.31237-.31237.30337-.48879-.0609-1.19321zm5.40695.84745c0-.21228-.12854-.62614-.28564-.91969-.27226-.50871-.30945-.51217-.79375-.0739-.61384.55552-.62948.74782-.10358 1.27372.46328.46329 1.18297.29285 1.18297-.28014zm2.68043-.0204c1.06021-1.16393 1.5529-2.10534 1.5529-2.96725v-.80306h-2.38125c-2.59174 0-2.56681-.0193-2.07925 1.60807.29209.97488 1.64987 2.88985 2.04901 2.88985.1077 0 .49406-.32742.85859-.72761zm2.34665.16654c0-.13192-.14217-.46752-.31594-.74577-.29119-.46627-.34113-.47146-.63738-.0663-.40444.5531-.001 1.41826.56048 1.2027.21606-.0829.39284-.25869.39284-.39062zM6.543101 47.02284c.628607-.68048 1.394398-2.40558 1.394398-3.14116 0-.44712-.225141-.49686-2.248958-.49686-1.410583 0-2.248958.10476-2.248958.28102 0 .15456.196376.8987.436391 1.65364.734475 2.31023 1.597421 2.86135 2.667127 1.70336zm183.787567.0377c.52903-.61785 1.22765-2.41832 1.22765-3.16383 0-.54355-1.00332-.70818-3.37343-.55354-1.61712.10552-1.68935.29854-.79375 2.12147 1.07918 2.19662 1.99804 2.69548 2.93953 1.5959zm7.11463-4.73207 4.96094-.002v-.74953c0-.58357-.11598-.74099-.52378-.71095-.28807.0212-.60557.12039-.70555.22037-.25901.259-2.21025.22591-2.21025-.0375 0-.12059-1.60735-.22155-3.57188-.22436-1.96453-.003-3.57187.0661-3.57186.15312.00001.087-3.06585.10705-6.81302.0445-6.8223-.11383-44.90185-.14676-61.3172-.053-4.80219.0274-11.74836-.0325-15.43594-.13314-5.62959-.15365-6.74328-.12307-6.94532.19071-.20543.31907-.2787.31568-.50114-.0232-.20882-.3181-.26134-.32388-.26459-.0291-.003.29285-.31388.32954-1.5254.18014-.83675-.10318-1.87854-.18735-2.3151-.18703-.43657.00026-5.19907.007-10.58334.0159-5.38427.008-9.96817.009-10.18646.00053-2.0056-.075-70.618338.13637-71.768221.22108-1.404655.10348-1.521354.16147-1.521354.75602v.64394l94.919265-.13722c52.20559-.0755 97.15169-.13818 99.8802-.13927zm-65.55052-1.97788c39.29063-.0575 71.70539-.1127 72.03281-.12266.51577-.0157.59532-.1604.59532-1.08315v-1.06504l-3.50573.15265c-3.32597.14482-99.81045.37524-143.999473.34389-11.350624-.008-28.555154-.005-38.23229.007l-17.59479.0217-.08419.96942-.08419.96942 20.324813-.17936c12.581145-.11103 20.62723-.084 21.118564.0711.464169.14645 4.364212.20249 9.392708.13497 4.729427-.0635 40.745828-.16251 80.036448-.22001zM7.345099 19.59175l-.06906-17.86657-1.322917-.28333c-.841788-.18028-1.828101-.19922-2.711979-.0521L1.852081 1.621l-.06615 7.18971c-.09473 10.29674-.08161 26.89424.022 27.82722l.08815.79375 2.759034.0133 2.759034.0133-.06906-17.86657zM3.571874 30.42024c.08994-.14552.751808-.26459 1.470824-.26459.719016 0 1.307301.11907 1.307301.26459 0 .14552-.66187.26458-1.470823.26458-.913174 0-1.408825-.10031-1.307302-.26458zm-.396875-1.5875c0-.14925.749653-.26459 1.719792-.26459s1.719792.11534 1.719792.26459-.749653.26458-1.719792.26458-1.719792-.11533-1.719792-.26458zm0-1.70659c0-.44141.02658-.44859 1.927421-.52065 1.016264-.0385 1.250596.0329 1.188054.36202-.113871.59927-3.115475.7521-3.115475.15863zm.661459-15.75591c-.08994-.14552-.0672-.27438.05053-.28634.117728-.012.541474-.0756.941656-.14135.870862-.14313.98187.29783.132292.52551-.813406.21798-.935886.20733-1.124479-.0978zm-.926042-2.2181c0-.44354.80785-.68386 2.315104-.68871.949295-.003 1.124479.0788 1.124479.52556 0 .47489-.176389.52916-1.719791.52916-1.287873 0-1.719792-.0919-1.719792-.36601zm-.693925-2.06777c-.319058-.51624.333238-.74122 2.149133-.74122 1.761478 0 2.826922.35571 1.934999.64601-.693509.22573-3.956458.30179-4.084132.0952zM13.94022 19.66223c-.136032-15.88941-.200621-17.94904-.574579-18.3224-.313726-.31322-.953664-.42063-2.50593-.42063-1.146536 0-2.183775.0992-2.304974.22042-.239644.23971-.401527 34.50565-.168642 35.69676l.14226.72761h5.565126zM9.524999 30.42024c0-.14552.595313-.28244 1.322917-.30427.727604-.0218 1.461823-.0516 1.631597-.0661.169774-.0146.35829.12237.418924.30427.08075.24226-.355718.33073-1.631598.33073-.984838 0-1.74184-.11499-1.74184-.26458zm0-1.5875c0-.14552.595313-.28244 1.322917-.30427.727604-.0218 1.461823-.0516 1.631597-.0661.169774-.0146.35829.12237.418924.30427.08075.24226-.355718.33073-1.631598.33073-.984838 0-1.74184-.11499-1.74184-.26458zm-.264583-1.59155c-.686938-.45095.211998-.78117 2.138715-.78565 1.876615-.004 2.256477.14358 1.795342.69921-.348317.4197-3.326709.48514-3.934057.0864zM8.907638 8.8126c-.464523-.46452-.01693-.61736 1.807986-.61736 1.5875 0 1.984375.0794 1.984375.39687 0 .31406-.377276.39688-1.807986.39688-.994392 0-1.887361-.0794-1.984375-.17639zm-.176389-2.17656c0-.37486.547727-.4868 2.225948-.45491.993053.0189 1.605107.15053 1.675694.36046.08247.24529-.407159.33073-1.895218.33073-1.103533 0-2.006424-.10632-2.006424-.23628zm10.960609 30.63887c.172292-.1723.388069-30.54717.22576-31.78025-.109296-.83033-.264352-1.02542-1.010803-1.27177-.484936-.16004-1.395244-.23387-2.022905-.16407-.627662.0698-1.350512.13608-1.606335.14729-.438992.0192-.463434.95887-.434915 16.72015l.03022 16.69977 2.346099-.11217c1.290354-.0617 2.403151-.16922 2.472882-.23895zm-3.552276-1.29842c0-.14552.654844-.26458 1.455208-.26458.800365 0 1.455209.11906 1.455209.26458 0 .14552-.654844.26458-1.455209.26458-.800364 0-1.455208-.11906-1.455208-.26458zm-.529166-1.30034c0-.23164 3.376826-.52944 3.587752-.3164.05612.0567.03871.2055-.03869.33073-.189276.30625-3.549067.29269-3.549067-.0143zm1.322916-10.25435c0-.54856-.201535-1.20004-.463021-1.49674-.449238-.50976-.443332-.52003.198438-.3452.363802.0991.994168.25281 1.400813.34155l.739356.16134-.810722.49303c-.665035.40443-.780856.61202-.644526 1.1552.10245.4082.05371.66217-.127072.66217-.161378 0-.293266-.43683-.293266-.97135zm.864122-2.8651c.05527-.94475-.002-1.05608-.533393-1.03733-.327422.0116-.595312-.0777-.595312-.19844 0-.12069-.238125-.21944-.529167-.21944-.629694 0-.631045-.008-.160084-.91551.216914-.4181.44152-.59419.544781-.42711.09663.15636.419536.28428.717559.28428.384316 0 .495387.12111.38202.41654-.08791.22909.01841.59478.236276.81265.449933.44993.511391 1.35789.131707 1.94581-.18489.2863-.239053.10199-.194387-.66145zm-1.657872-10.71563c0-.14552.595313-.26458 1.322917-.26458.727604 0 1.322916.11906 1.322916.26458 0 .14552-.595312.26458-1.322916.26458s-1.322917-.11906-1.322917-.26458zm0-1.5875c0-.14552.595313-.26458 1.322917-.26458.727604 0 1.322916.11906 1.322916.26458 0 .14552-.595312.26458-1.322916.26458s-1.322917-.11906-1.322917-.26458zm-.264583-1.32292c0-.14552.647817-.26458 1.439593-.26458.791777 0 1.513178.11906 1.603115.26458.102142.16527-.438225.26459-1.439593.26459-.892355 0-1.603115-.11731-1.603115-.26459zM44.449998 36.9358c0-.34551-.181851-1.14361-.404112-1.77357-.368493-1.04442-.364299-1.25608.04757-2.40145.368848-1.02572.40027-1.48073.171342-2.48115l-.28034-1.22508 1.092669-.8017c.600966-.44094 1.427379-.92175 1.836478-1.06848.547907-.19652.694478-.38043.556506-.69827-.103016-.23732-.23876-1.14586-.301652-2.01899-.151667-2.10556.428983-3.57187 1.414442-3.57187.556207 0 .646898-.0877.478686-.46302-.356245-.79483-.439234-2.89741-.136675-3.46275.203885-.38096.205959-.59137.007-.7143-.308454-.19064-1.30696.59027-1.30696 1.02214 0 .14785-.36993 1.05213-.822068 2.00952-1.775468 3.75949-2.794558 6.04418-3.549857 7.95841-.499607 1.2662-1.105889 2.69704-1.810707 4.27332-.237562.53131-.43194 1.10863-.43194 1.28293 0 .1743-.171157.69208-.380344 1.15064-.727573 1.59487-1.207156 2.88497-1.207156 3.24729 0 .28412.554685.36457 2.513541.36457 2.469229 0 2.513542-.0111 2.513542-.62819zm5.291666.22724c0-.22566-.253317-.40042-.595312-.41071l-.595313-.0179.595313-.28711c.868957-.41908.727384-.74077-.264584-.60119l-.859895.12099.727604-.31097c.746813-.31918 1.063717-1.18817.330729-.90689-.218281.0838-.396875.037-.396875-.10399 0-.14095.119062-.25628.264583-.25628.316908 0 .339709-.53032.04291-.99796-.166597-.26249-.657701-.17994-2.232932.37537-1.110649.39153-1.957993.81117-1.882987.93253.075.12137.359445.10128.63209-.0446.272642-.14591.65237-.26031.843838-.25421.191468.006-.05617.22649-.550301.48974-1.092177.58188-.655172 1.03664.526002.54738.432445-.17913.853569-.25838.935831-.17612.08226.0823-.338275.29573-.934524.47437-.922541.27641-1.084093.43168-1.084093 1.04196v.71715l2.248958.0307c1.826096.0249 2.248958-.0432 2.248958-.36216zm-2.177931-.17279c.15375-.15375.435721-.22748.626602-.16386.19816.0661.07822.18599-.279545.27955-.440095.11509-.543396.0806-.347057-.11569zm-1.393944-.62644c.436563-.1999.972344-.35915 1.190625-.3539.218282.005.03969.17311-.396875.37301-.436562.1999-.972343.35915-1.190625.3539-.218281-.005-.03969-.17311.396875-.37301zm1.455209-1.28506c0-.0572.178593-.17251.396875-.25628.218281-.0838.396875-.037.396875.10399 0 .14095-.178594.25628-.396875.25628-.218282 0-.396875-.0468-.396875-.10399zm-.639961-.94938c.142793-.1428.672621-.32769 1.177395-.41088l.917774-.15126-.890273.41088c-1.025945.47349-1.599083.54544-1.204896.15126zm39.732141 2.71366c.41467-.54981.42425-1.94825.0225-3.28907l-.3082-1.02871-18.14648.16267c-9.980563.0895-18.18811.20317-18.238992.25268-.05088.0495.05239.52908.229492 1.06571.177104.53663.331052 1.5752.342104 2.30794l.02011 1.33225 17.874366-.18248c16.20108-.16539 17.90533-.22353 18.2051-.62099zm-32.988166-1.19727c-.0104-.85024.09812-1.52135.245985-1.52135.318776 0 .318776 1.7717 0 2.51354-.163602.38072-.232608.10239-.245985-.99219zm3.861958 1.21267c-.283543-.28354-.203012-3.26319.08819-3.26319.149251 0 .264583.74965.264583 1.71979 0 1.732-.03054 1.86564-.352777 1.5434zm-2.028473-1.52778c0-.79178.119063-1.51318.264584-1.60312.165269-.10214.264583.43822.264583 1.43959 0 .89236-.117306 1.60312-.264583 1.60312-.145521 0-.264584-.64782-.264584-1.43959zm27.962661 1.24115c-.0629-.10914-.0253-.73422.0836-1.38906l.19796-1.19063.0331 1.38907c.0313 1.31483-.0549 1.64116-.31464 1.19062zm1.49481-1.37811c.0926-1.84819.44044-1.99613.44044-.18734 0 .82462-.11389 1.49931-.2531 1.49931-.1392 0-.22351-.59039-.18734-1.31197zm58.89255-10.52814c.0275-6.863-.0526-11.9724-.18772-11.9724-.12964 0-.37859.26789-.55323.59532-.50853.9534-1.03974 1.79234-4.16455 6.57699-.92855 1.42178-1.68828 2.70145-1.68828 2.84371 0 .14225-.0893.29832-.19844.34683-.22266.099-1.19435 1.4634-1.47598 2.07257-.10092.21828-.39054.71586-.64359 1.10572-.25307.38987-.99589 1.55917-1.65074 2.59845-.65484 1.03928-1.39767 2.20858-1.65073 2.59844-.25306.38987-.54233.88744-.64282 1.10573-.10049.21828-.75664 1.26881-1.45812 2.33452-.70148 1.06571-1.27541 2.04562-1.27541 2.17757 0 .13937 2.68884.20228 6.41614.15011 3.52888-.0494 6.95193-.015 7.60678.0764.92717.12945 1.22692.0773 1.35466-.23568.0902-.22105.18564-5.78949.21203-12.37431zM25.73993 20.94207l.111652-16.22505-.624552-.40922c-.679553-.44526-3.599197-.39598-4.037092.0682-.234017.24803-.416286 14.85487-.332543 26.64953l.04469 6.29378 2.363098-.0761 2.363099-.0761zm-4.044098 15.03442c0-.14552.267891-.27142.595313-.27977.327422-.008 1.101328-.0677 1.719791-.13179.874398-.0907 1.124479-.0284 1.124479.27977 0 .31145-.36845.39637-1.719791.39637-.970139 0-1.719792-.11533-1.719792-.26458zm.05465-1.35456c.120416-.36125 3.649521-.63695 3.649521-.28511 0 .2729-1.491487.57388-2.86632.57842-.534209.002-.843011-.11388-.783201-.29331zm1.049912-9.65487c-.02542-.45264-.343881-1.2616-.707683-1.79769-.773686-1.14009-.790162-1.2158-.264583-1.2158.218281 0 .396875.11533.396875.25628 0 .14095.178594.18775.396875.10399.218281-.0838.396875-.37769.396875-.65316 0-.27547.115326-.50086.256279-.50086.140954 0 .183136.19061.09374.42358-.0894.23297-.0011.52335.19622.64531.295177.18242.281828.30673-.07531.70137-.238743.26381-.481099 1.01522-.538568 1.6698-.07163.81584-.119026.93132-.150713.36718zm.50383-4.40255c-.02434-.53945-.312703-.59454-.761721-.14552-.246945.24694-.3175.24694-.3175 0 0-.17463-.178594-.3175-.396875-.3175-.218281 0-.396875-.1786-.396875-.39688s.105176-.39687.233725-.39687c.128548 0 .301115-.25771.383483-.57268.118921-.45475.225631-.50971.518223-.26688.202656.16819.464387.21754.581624.10966.117238-.10788.141032.0953.05287.45155-.08816.35623-.03495.79871.11824.98329.153188.18458.217136.48843.142107.67523-.08575.21349-.144175.16766-.157306-.1234zm-.15318-9.45886c-.422567-.18158-.326147-.23113.478636-.24598.608506-.0112.943016.0862.844281.24598-.19313.31249-.595714.31249-1.322917 0zm-.926041-1.85208c.524326-.33884 2.910416-.33884 2.910416 0 0 .1486-.724902.26281-1.653645.26053-1.16531-.003-1.536446-.0798-1.256771-.26053zm-.529167-1.5875c0-.26591.244376-.3098 2.315104-.41577.812837-.0416 1.124479.0447 1.124479.3114 0 .27771-.425325.36895-1.719791.36895-.970139 0-1.719792-.11533-1.719792-.26458zm9.520967 13.25594c-.0079-13.61841-.07123-16.42861-.375803-16.68138-.22043-.18294-1.086919-.27262-2.176037-.22521l-1.809752.0788-.02442 14.81666c-.01341 8.14917.03234 15.62034.101698 16.60261l.126105 1.78594h4.167725l-.0095-16.3774zM27.781253 35.879c0-.25842.416586-.37168 1.455208-.39562 1.130038-.0261 1.455208.0548 1.455208.36207 0 .30315-.340127.39562-1.455208.39562-1.054965 0-1.455208-.0996-1.455208-.36207zm0-1.49001c0-.14552.654843-.26458 1.455208-.26458.800364 0 1.455208.11906 1.455208.26458 0 .14552-.654844.26458-1.455208.26458-.800365 0-1.455208-.11906-1.455208-.26458zm.954349-9.67893c-.08833-.23019-.160599-.68368-.160599-1.00777 0-.32408-.174808-.82036-.388462-1.10284-.213651-.28247-.390422-.75171-.392821-1.04275-.0034-.40732.04939-.44427.229084-.1605.133485.2108.464322.3083.772612.22768.727067-.19014.977186.53101.403889 1.1645-.370247.40912-.398245.65186-.163435 1.41694.276608.90128.01844 1.33526-.300268.50474zm.6291-4.23374c-.0033-.6175-.06014-.6924-.284726-.37483-.21122.29866-.313883.31503-.414872.0661-.07381-.1819-.302871-.33073-.509024-.33073-.397063 0-.470961-.54035-.208063-1.52135.17481-.6523.626986-.81583.626986-.22674 0 .20271.166727.43254.370506.51074.382193.14666.863828 2.20788.581803 2.48991-.08721.0872-.160383-.18871-.16261-.61314zm-1.583449-10.40236c0-.13087.535781-.28055 1.190624-.33263.829964-.066 1.190625.006 1.190625.23794 0 .21784-.410874.33263-1.190625.33263-.654843 0-1.190624-.10707-1.190624-.23794zm.330729-1.53906c.400182-.0606 1.055026-.0606 1.455208 0 .400182.0606.07276.11022-.727604.11022-.800365 0-1.127787-.0496-.727604-.11022zm-.595313-1.13341c0-.14552.661871-.26459 1.470824-.26459.913172 0 1.408824.10032 1.307301.26459-.08994.14552-.751808.26458-1.470824.26458-.719016 0-1.307301-.11906-1.307301-.26458zm62.132989 16.94642c-.0566-8.30925-.18467-13.04792-.35735-13.2205-.14803-.14795-.53498-.19949-.85989-.11452-.5206.13614-.59075.32662-.59075 1.60415 0 1.28764.59725 2.98653 1.04992 2.98653.0781 0 .14176 1.30964.14139 2.91032-.00053 2.1816-.0851 2.91035-.33796 2.91042-.36623.0001-.84682 1.04841-.89411 1.9503-.0162.30984.0611 1.18841.17198 1.9524.17695 1.2196.14551 1.38906-.25774 1.38906-.33755 0-.40601.12272-.25835.46302.39506.91044.44678 2.28242.13805 3.66201-.27163 1.21373-.25435 1.49258.12873 2.07723.3388.51707.41795 1.10946.33778 2.52819l-.1047 1.85289h1.7812zm7.66608 11.82702-.0814-1.12448-2.11667-.0758c-1.16417-.0417-2.59292.0225-3.175.14267-.9832.20293-1.06416.28814-1.14045 1.20025l-.0821.98181h6.67695zm7.19468-.0429c0-1.14538-.0187-1.17025-.99219-1.32031-1.65948-.25579-4.58898-.0157-4.85061.39749-.12898.20372-.23634.75735-.23857 1.23029l-.004.8599h6.08542zm5.75755-13.54542c-.10704-12.14028-.1938-14.75441-.49624-14.95086-.20159-.13094-1.19996-.20745-2.2186-.17002l-1.85209.068-.14226 9.39271c-.0782 5.16599-.0898 11.86325-.0256 14.88281l.11667 5.49011h4.74783l-.12972-14.71279zm-3.70703 13.20748c-.96896-.25321-.39749-.4798 1.2568-.49832 1.66011-.0186 2.17194.18599 1.30124.52011-.46317.17774-1.8394.16601-2.55804-.0218zm1.15983-7.37381c-.0195-.44513-.21016-1.04045-.42381-1.32292-.53901-.71264-.54717-1.35759-.0115-.91306.31887.26464.42487.24564.55747-.0999.0901-.23467.32958-.42667.5323-.42667.44789 0 .49393.70786.0555.85399-.17217.0574-.39438.69239-.49382 1.41111-.12286.88799-.19212 1.04741-.21615.49745zm-.65626-3.82216c-.71152-.79857-.89585-1.32164-.46573-1.32164.12995 0 .3048.17859.38857.39687.0838.21828.32188.39688.52916.39688.20728 0 .44541-.1786.52917-.39688.15708-.40933.96265-.56305.96265-.18369 0 .11725-.2794.59189-.6209 1.05476l-.6209.84159zm.66055-2.01356c-.0218-.3078-.28731-.87449-.59001-1.25932-.65632-.83437-.5759-1.51848.0992-.84342.42522.42522.45121.40763.45121-.3055 0-.41619-.23813-1.22377-.52917-1.79463-.68147-1.33668-.67061-1.66375.0343-1.0332l.56349.50403-.18919-2.05052c-.19314-2.09349.0487-2.64433.65976-1.5026.21109.39443.2137.77608.009 1.3624-.15616.44796-.28015 1.12413-.27552 1.5026.008.6599.0242.66721.39414.17827.64049-.84659.72916-.27791.14514.93085-.66026 1.36658-.73227 2.41134-.15082 2.18822.51497-.19761.52693.52534.0157.94962-.20964.17399-.42993.63505-.48952 1.02458-.0806.52665-.11852.56476-.148.14862zm-1.09798-10.68517c0-.14552.20836-.27861.46302-.29577 1.74902-.1178 2.18271-.0722 2.18276.22963.00004.22049-.44089.33073-1.32286.33073-.7276 0-1.32292-.11906-1.32292-.26459zm0-1.55747c0-.29348 1.42969-.51598 2.27599-.3542 1.16376.22247.65312.58876-.82078.58876-.80036 0-1.45521-.10555-1.45521-.23456zm8.53796 12.33925c-.0719-8.04003-.23249-14.72737-.3568-14.86077-.26752-.28707-3.18877-.32765-3.63716-.0505-.3612.22324-.41521 8.79946-.13571 21.54893l.17495 7.9806h4.08549zm-3.48517 13.06115c-.25269-.16607.15671-.2732 1.28261-.33561 1.53109-.0849 2.30917.0984 1.53443.36153-.6683.22694-2.45732.21048-2.81704-.0259zm1.03262-7.43876c0-.14552.11907-.26458.26459-.26458.14552 0 .26458.11906.26458.26458 0 .14552-.11906.26458-.26458.26458-.14552 0-.26459-.11906-.26459-.26458zm0-1.06764c0-.29616-.19228-.83194-.4273-1.19062-.39335-.60033-.39335-.65216 0-.65216.55202 0 .57794-1.20849.0304-1.41859-.21828-.0838-.39688-.2751-.39688-.42519 0-.15008.1786-.27288.39688-.27288.60519 0 .48976-1.32224-.17743-2.03243-.6238-.664-.48566-1.16372.17103-.61871.35142.29164.40327.17741.40327-.88834 0-.67266-.11487-1.22302-.25527-1.22302s-.38875-.24939-.55187-.55421c-.26477-.49471-.23737-.5354.25527-.37904.4945.15695.55187.0688.55187-.84809 0-.56279-.13089-1.15414-.29086-1.31411-.15998-.15998-.2095-.54725-.11004-.8606.14313-.45097.25748-.50611.5486-.2645.27625.22926.32646.7005.20175 1.89359-.16364 1.5657-.15805 1.5834.3917 1.24008.84758-.52933.99641-.0853.21434.63954-.50069.46403-.6909.90512-.6909 1.60216 0 .52901.11906.96184.26458.96184.14552 0 .26458-.11906.26458-.26458 0-.14552.1786-.26458.39688-.26458.56574 0 .48548.30415-.26916 1.01996-.40471.38388-.65688.91714-.65688 1.38906 0 .87892.16089.94183.83906.3281.45135-.40847.48385-.40658.48385.0281 0 .25628-.29765.70009-.66145.98626-.38353.30168-.66146.79228-.66146 1.16759 0 .56546.0872.62541.68994.47413.63386-.15908.666-.12843.39545.3771-.16197.30265-.41291.62346-.55765.71291-.14474.0894-.26316.39374-.26316.67619 0 .28246-.11906.51355-.26458.51355-.14552 0-.26459-.24231-.26459-.53847zm-.26458-15.60111c0-.14552.48328-.26458 1.07395-.26458.64859 0 1.00918.10479.91043.26458-.0899.14552-.57322.26458-1.07395.26458-.50074 0-.91043-.11906-.91043-.26458zm-.52917-1.5875c0-.14552.66187-.26458 1.47083-.26458.91317 0 1.40882.10031 1.3073.26458-.0899.14552-.75181.26458-1.47083.26458-.71901 0-1.3073-.11906-1.3073-.26458zm40.59071 26.78906c.14951-.47706.23263-11.409.19245-25.3134-.0147-5.07893-.12115-8.01532-.29703-8.19119-.29062-.29063-3.87739-.31382-4.769-.0308-.51976.16496-.52754.41712-.52754 17.08294v16.91551h2.628c2.27119 0 2.6477-.0629 2.77312-.46303zm-3.68133-1.65364c.0899-.14552.7518-.26458 1.47082-.26458s1.3073.11906 1.3073.26458c0 .14552-.66187.26458-1.47082.26458-.91317 0-1.40883-.10031-1.3073-.26458zm.2606-13.5599c-.7353-.84431-.71966-3.73172.0233-4.29378.77605-.58711 1.34455-.48028 1.94707.36588 1.04053 1.46128.46105 4.52321-.85602 4.52321-.32772 0-.82917-.26789-1.11431-.59531zm.66544-1.91823c0-.41157.14993-.66146.39687-.66146.24695 0 .39688.24989.39688.66146 0 .3638.11906.66146.26458.66146.34773 0 .34096-1.74416-.009-2.39864-.77193-1.44235-2.30363.36065-1.68218 1.98013.24718.64412.63316.49602.63316-.24295zm-1.3234-10.64948c.00033-.22778.49463-.33073 1.58798-.33073 2.06327 0 2.06288.45533-.00053.57182-1.14198.0645-1.58784-.003-1.5875-.24109zm.39736-1.78492c.68272-.23095 2.77812-.30698 2.77812-.10081 0 .12765-.68461.22269-1.52135.2112-.83675-.0115-1.40229-.0612-1.25677-.11039zm-.39688-1.52046c0-.11019.44649-.20946.99219-.22059.5457-.0111 1.21611-.0624 1.48979-.11396.27368-.0515.39274.006.26458.12689-.30177.28569-2.74656.47053-2.74656.20766zm11.16077 16.93143c.0487-14.75754-.0185-21.39919-.21889-21.61531-.1529-.16495-5.33991-.1483-5.50587.0177-.15997.15997-.34219 32.47192-.19567 34.69452l.1003 1.52135h5.77186l.0483-14.61823zm-4.01702 12.23698c0-.147.70556-.26459 1.5875-.26459s1.5875.11759 1.5875.26459c0 .14699-.70556.26458-1.5875.26458s-1.5875-.11759-1.5875-.26458zm-.79375-2.38125c0-.15098.78855-.26459 1.83647-.26459 1.01006 0 1.91005.11906 1.99999.26459.1035.16747-.57052.26458-1.83647.26458-1.15694 0-1.99999-.11153-1.99999-.26458zm.79375-24.07709c0-.14552.66187-.26458 1.47083-.26458.91317 0 1.40882.10031 1.3073.26458-.0899.14552-.75181.26458-1.47083.26458-.71901 0-1.3073-.11906-1.3073-.26458zm-.26458-1.85208c0-.14699.70555-.26459 1.5875-.26459.88194 0 1.5875.1176 1.5875.26459s-.70556.26458-1.5875.26458c-.88195 0-1.5875-.11759-1.5875-.26458zm-.52917-1.85209c0-.15287.83785-.26458 1.98438-.26458 1.14652 0 1.98437.11171 1.98437.26458 0 .15287-.83785.26459-1.98437.26459-1.14653 0-1.98438-.11172-1.98438-.26459zm12.10654 14.49145.068-17.92002-.72945-.20394c-.95284-.2664-5.08525-.1888-5.36826.10081-.27467.28107-.35419 6.40979-.29913 23.05312l.0431 13.03913 3.10886-.0745 3.10885-.0745zm-4.25004 15.76644c-.38788-.38788.20017-.62455 1.55183-.62455 1.10324 0 1.43959.0927 1.43959.39687 0 .30317-.33318.39688-1.41111.39688-.77612 0-1.48725-.0761-1.58031-.1692zm-.44817-1.81258c0-.25608.52019-.38072 1.85268-.44391 1.01898-.0483 1.85241.005 1.85209.11889-.0008.28497-.41727.3891-2.18341.54595-1.16533.1035-1.52136.0518-1.52136-.22093zm0-24.74114c0-.14699.70556-.26458 1.5875-.26458.88195 0 1.5875.11759 1.5875.26458 0 .14699-.70555.26458-1.5875.26458-.88194 0-1.5875-.11759-1.5875-.26458zm-.13297-1.85098c.20094-.32512 3.83714-.29862 3.83714.028 0 .12954-.9.23552-1.99999.23552-1.26037 0-1.93977-.0974-1.83715-.26348zm-.39619-1.85319c0-.15434.88194-.26458 2.11666-.26458 1.23473 0 2.11667.11024 2.11667.26458 0 .15434-.88194.26459-2.11667.26459-1.23472 0-2.11666-.11025-2.11666-.26459zm12.43541 32.14688c0-.31421-.37807-.39687-1.81515-.39687-2.26962 0-4.27026.26476-4.27026.56512 0 .12575 1.36922.22863 3.04271.22863 2.52824 0 3.0427-.0671 3.0427-.39688zm6.54909.0661c-.0747-.22548-.89636-.35514-2.58189-.40742-2.59731-.0806-3.31487.0307-3.04231.47169.25607.41434 5.76195.35141 5.6242-.0643zm5.88633-.0761c0-.34197-.38664-.39468-2.42599-.33073-1.64891.0517-2.4611.18202-2.53559.40681-.0826.2492.51546.33073 2.42599.33073 2.10497 0 2.53559-.0691 2.53559-.40681zm6.91921-6.27392c.0613-10.2289-.0576-29.11693-.18457-29.3224-.19801-.32039-2.90383-.5444-4.31486-.35722l-1.36145.1806v36.17975h5.82084zm-2.42129 4.62391c-.94589-.0399-1.89505-.13555-2.10925-.21267-.78441-.28243.34388-.63272 2.0514-.63688 1.25651-.003 1.70018.0956 1.81863.40423.20548.53549.23038.52919-1.76078.44532zm-2.38125-2.31994c0-.33887.34385-.39491 2.02928-.33073 1.33014.0506 2.06699.19122 2.13872.40801.0815.24633-.43634.33073-2.02929.33073-1.75062 0-2.13871-.074-2.13871-.40801zm.97014-24.9038c-.42042-.42041-.0969-.61736 1.01423-.61736 1.18087 0 1.57654.32446.77211.63315-.55617.21342-1.56606.2045-1.78634-.0158zm-.44098-1.94028c0-.14728.71076-.26458 1.60312-.26458 1.00137 0 1.54173.0993 1.43959.26458-.0899.14552-.81134.26458-1.60311.26458-.79178 0-1.4396-.11906-1.4396-.26458zm-.14365-1.29018c-.39637-.39638.0811-.5619 1.62091-.5619 1.27608 0 1.71226.0884 1.63122.33073-.10511.31427-2.96569.51761-3.25213.23117zm13.6374 31.07364c0-1.75119-.1178-1.80978-3.63847-1.80978-1.80029 0-2.74813.1276-3.51438.47313-.98917.44606-1.04923.53899-1.04923 1.62358v1.15045h8.20208zm-75.16127.34139c.78945-1.32515 2.26969-3.72522 2.72766-4.42262.2525-.38451.57698-.96699.72106-1.29442.14407-.32742.38397-.59531.53309-.59531.14912 0 .27113-.13088.27113-.29085 0-.27632 1.81007-3.39863 2.13215-3.6779.0839-.0728.62078-.88202 1.19303-1.79835.57225-.91633 1.21904-1.94991 1.43732-2.29685 1.47292-2.34105 2.38125-3.91487 2.38125-4.12584 0-.1351.11104-.24563.24676-.24563.13571 0 .3221-.23742.4142-.5276.0921-.29018.30849-.68034.48085-.86703.58891-.63784 1.50403-2.02313 1.50403-2.27677 0-.13929.0916-.29294.20355-.34144.11196-.0485.91487-1.27882 1.78425-2.73403.86938-1.45521 1.73106-2.80395 1.91484-2.99719.70926-.74579.93399-1.42265.55644-1.67591-1.28049-.85896-2.59362-1.51752-3.33327-1.67169-.75636-.15766-.88944-.0977-1.11793.50323-.14266.3752-.38138.68218-.5305.68218-.14912 0-.27113.16014-.27113.35587 0 .19573-.23813.57137-.52917.83476-.29104.26339-.52917.59075-.52917.72748 0 .13673-.53578 1.04716-1.19062 2.02319-.65485.97603-1.19063 1.90735-1.19063 2.0696 0 .16225-.0893.33469-.19844.3832-.30123.13388-1.38906 1.7486-1.38906 2.06186 0 .15141-.0999.27529-.22211.27529-.12216 0-.35344.28822-.51394.64049-.1605.35227-.95352 1.65568-1.76226 2.89647-.80874 1.24078-1.47044 2.32681-1.47044 2.41339 0 .0866-.12465.30121-.277.47697-.15236.17576-1.07509 1.57241-2.05052 3.10368-.97544 1.53127-1.92407 3.01955-2.10807 3.30729-.184.28775-.46354.8506-.6212 1.25078-.15765.40018-.39406.7276-.52534.7276s-.2387.1254-.2387.27867c0 .15326-.50957 1.076-1.13239 2.05052-1.78908 2.79939-1.92326 3.12953-1.48718 3.65903.20384.2475.84249.7928 1.41924 1.21177 1.26093.916 2.18528.88465 2.76822-.0939zm-1.4356-1.56627c-.43656-.27881-.94189-.58023-1.12296-.66985-.18106-.0896-.26167-.27221-.17911-.40578.0825-.13357.73321.0745 1.44592.46242.71271.38791 1.23277.80732 1.15569.93204-.1932.31261-.38417.26575-1.29954-.31883zm7.22331-13.01431c-.56927-.89614-.12893-2.64437.87988-3.49323 2.43737-2.05091 3.65998 1.02259 1.24786 3.13695-1.26564 1.10941-1.61242 1.16748-2.12774.35628zm2.7135-1.5875c.99374-1.1912.39215-2.24581-1.06389-1.86505-.63866.16701-1.68684 1.84437-1.3014 2.08258.25919.16019 1.00178-.58812 1.01903-1.02689.005-.11773.12791-.1402.27396-.0499.14606.0903.19268.45448.10361.80936-.20747.82663.29896.85274.96869.0499zm4.27727-8.54781c-.91721-.64244-.69062-.9514.338-.46088.92965.44331 1.21899.87275.58804.87275-.1859 0-.60262-.18534-.92604-.41187zm1.39634-1.11249c-.43657-.22544-.83344-.51047-.88195-.63339-.0485-.12292-.25686-.2235-.46302-.2235-.20615 0-.37482-.11906-.37482-.26458 0-.14552.17859-.26458.39687-.26458s.39824.0893.39991.19843c.002.10915.47792.42596 1.05833.70403.58042.27807 1.0553.60549 1.0553.7276 0 .29545-.24203.24585-1.19062-.24401zm.59531-1.69357c-.40018-.14616-.7276-.37489-.7276-.50828 0-.41221.70415-.26834 1.35975.27783.68354.56944.4896.64014-.63215.23045zM36.46477 34.42893c.608335-1.28772 1.110102-2.44858 1.115039-2.57968.0049-.13111.239022-.71464.520189-1.29672s.515252-1.19724.520189-1.36701c.0049-.16978.103963-.34837.220054-.39688.116092-.0485.486397-.8621.822902-1.80799.336505-.94588 1.298578-3.14854 2.137939-4.89479 1.472928-3.06435 2.401935-5.09529 2.965183-6.48229.612539-1.50839.963075-2.31681 1.54228-3.55686.335994-.71934.610896-1.46349.610896-1.65364 0-.19016.09922-.34575.220488-.34575.121267 0 .220485-.12669.220485-.28154 0-.15484.302779-.94348.672844-1.75252.627372-1.37158.643445-1.50347.237836-1.95166-.239252-.26438-.958691-.65912-1.598752-.87721l-1.163746-.39653-.637096 1.37296c-.350403.75513-.898609 1.96827-1.218234 2.69588-.319627.7276-.910524 2.03729-1.313106 2.91041-1.437341 3.11733-2.337662 5.12499-3.559505 7.9375-.189656.43657-.539454 1.24024-.777328 1.78594-.418724.9606-.851638 1.97078-1.672455 3.9026-.216405.50933-.561726 1.26312-.767379 1.67509-.20565.41198-.373911.88652-.373911 1.05454 0 .16802-.287219.90251-.638263 1.6322-.742259 1.54289-1.539057 3.3575-1.99314 4.53912-.384871 1.00152-.04161 1.72503 1.018439 2.14664 1.527551.60754 1.711158.47965 2.888152-2.01181zm-2.399668.33789c-.619545-.33611-.9999-.907-.604289-.907.337248 0 1.993352.91999 1.993352 1.10734 0 .32444-.574474.24158-1.389063-.20034zm.238869-1.39149c-.592307-.65449-.295074-.87099.573585-.41779.389895.20342.857729.37059 1.03963.37149.181901.00079.330729.12069.330729.26621 0 .45601-1.484196.28811-1.943944-.21991zm5.021013-11.02488c.04989-.29105.09233-.79706.09432-1.12448.0021-.32742.122674-.59532.268195-.59532s.264583.1786.264583.39688.178594.39687.396875.39687c.218282 0 .396875-.11906.396875-.26458 0-.14552.10786-.26458.239689-.26458.131831 0 .102066.29673-.06615.65939-.188193.40576-.527362.66019-.881748.66146-.316751.001-.627083.15089-.689628.33279-.06255.1819-.0729.0926-.02302-.19843zm1.253382-2.97657c.109283-.1819.07261-.33073-.0815-.33073-.355637 0-.368393-.97259-.01561-1.19062.145521-.0899.264584-.0247.264584.14498s.178593.23998.396875.15621c.290904-.11163.396875.0339.396875.54496 0 .38349-.07834.61891-.174094.52316-.09575-.0958-.356732-.0263-.579956.15434-.323739.26198-.365657.26151-.207166-.002zm3.871632-8.44086c-.525611-.2364-.778695-.47172-.585288-.5442.187415-.0702.752962.0679 1.256771.30698 1.567146.74366.943986.96381-.671483.23722zm.727604-1.2295c-.400182-.15814-.727604-.39633-.727604-.52933 0-.133.189656-.16904.421455-.0801.231801.089.708051.23366 1.058333.32157.350284.0879.636878.26601.636878.39575 0 .2965-.455107.26115-1.389062-.1079zm.396875-1.03746c-.643147-.31017-.800997-.7423-.264583-.72432.181901.006.747447.23924 1.25677.51808.855078.46814.875353.50646.264584.50017-.363802-.004-.929349-.13602-1.256771-.29393zm76.342671 25.91812c.62417-1.05324 1.27902-2.1486 1.45521-2.43413.17619-.28553.61557-.9999.97639-1.5875.36083-.58759.80265-1.30648.98181-1.59752.17917-.29104.41104-.70776.51528-.92604.10423-.21828.26015-.45641.34649-.52917.0863-.0728.30252-.42995.4804-.79375.36326-.74294.55507-1.05684 2.02085-3.30729.56869-.87313 1.10489-1.64703 1.19155-1.71979.0867-.0728.30023-.37042.4746-.66146 2.07727-3.46731 2.7414-4.54221 3.95564-6.40227.77873-1.19291 1.41587-2.2197 1.41587-2.28174 0-.062.77391-1.27845 1.71979-2.70312.94589-1.42467 1.7198-2.69482 1.7198-2.82255 0-.57479-1.76335-1.85896-2.95554-2.1524-.77275-.19019-1.54238.005-1.54238.39202 0 .22833-2.3367 4.00482-2.84191 4.59298-.125.14552-.45944.6813-.7432 1.19062-.28376.50932-.87312 1.39648-1.30968 1.97146-.80218 1.05651-1.28013 1.80141-1.62108 2.52646-.10265.21828-.49997.81359-.88294 1.32291-.38296.50933-.98806 1.49159-1.34465 2.18282-.35659.69122-.73784 1.25677-.84723 1.25677-.10939 0-.19889.16073-.19889.35717 0 .19645-.33447.82153-.74326 1.38907-.40878.56753-.82681 1.21048-.92895 1.42876-.10214.21828-.42075.75406-.70803 1.19062-.28728.43657-.64287 1.03188-.7902 1.32292-.29435.58144-.56991 1.02833-1.65821 2.68914-.40018.6107-.7276 1.2153-.7276 1.34354 0 .12824-.22236.47184-.49413.76355-.27177.29171-.87194 1.20941-1.3337 2.03934l-.83956 1.50895.87067.81596c.90325.8465 2.16772 1.52923 2.85505 1.54154.21828.004.90756-.85463 1.53174-1.90787zm-2.68627-.6305c-.74362-.48649-.94289-.74811-.73111-.95989.21179-.21178.45899-.13343.907.28745.33873.31822.74245.57858.89715.57858.1547 0 .4295.1786.61066.39688.5452.65693-.50537.46785-1.6837-.30302zm7.13596-12.15404c-.4397-1.14584-.061-2.75419.88263-3.74867.69019-.72737 2.50902-.84367 2.76492-.1768.25099.65406.18931 1.6793-.13781 2.29052-.86666 1.61937-3.11399 2.66625-3.50974 1.63495zm2.88644-1.63201c.86742-.98553.85705-1.85797-.0247-2.07927-.85992-.21583-1.81405.28298-2.21202 1.1564-.44888.9852.0771 1.3636.6596.47455.32223-.49178.54451-.61966.73901-.42516.1945.1945.18267.37367-.0393.59567-.39125.39125-.41582 1.00542-.0402 1.00542.1525 0 .56546-.32742.91768-.72761zm5.58972-10.2526c-.21828-.21828-.52444-.39688-.68036-.39688-.15591 0-.28348-.11906-.28348-.26458 0-.43378.49842-.30455 1.53066.39688.81515.5539.88047.66145.40174.66145-.31443 0-.75028-.17859-.96856-.39687zm1.46709-1.20496c-.72088-.28914-1.49487-1.00992-1.29697-1.20782.16891-.16891 2.03316 1.0097 2.03776 1.2883.004.23046.0459.23503-.74079-.0805zm37.81489 27.03951c.016-.0935.0699-1.97832.1196-4.18853l.0904-4.01857-.95691-.31581c-.94413-.31159-4.52-.20953-5.09429.1454-.16956.1048-.27341 1.76252-.27341 4.36431v4.19533l3.04271-.006c1.67349-.003 3.05582-.0826 3.07186-.17605zm6.33611-1.37162c.0537-5.54698.0176-6.67656-.22132-6.91544-.14691-.14691-.9943-.22613-1.88309-.17605-.96017.0541-1.61744-.0163-1.61956-.17352-.002-.14552-.0944-.12169-.20542.053-.11102.17465-.48856.42361-.83897.55324-.63352.23435-.63721.25825-.65399 4.2348l-.0169 3.99912 2.71198.0008 2.71198.00079.0153-1.57648zm6.16491.60634c.0902-.5457.16531-2.56437.16691-4.48593l.003-3.49374-.95228-.17865c-1.04266-.1956-3.86042-.009-4.33998.28734-.30399.18787-.34989 5.74859-.065 7.87098l.1332.99219h4.89021l.164-.99219zm-91.15107-1.01133c.051-.0429.0142-.20493-.0818-.36013-.22079-.35724-2.9666-.37241-3.18588-.0176-.35938.58148.19929.79067 1.66953.62515.82801-.0932 1.54716-.20456 1.59811-.24743zm-4.26534-.008c-.0879-.0879-.31612-.0973-.50712-.0209-.21107.0845-.14837.14715.15985.15985.27892.0115.43519-.0511.34727-.13897zm10.50106-.00079c.23018-.0883.41851-.31367.41851-.50081 0-.43101-.59542-.66146-1.70903-.66146-.90752 0-1.63619.56884-1.34084 1.04674.18475.29893 1.95133.37653 2.63136.11558zm98.53843-.98507c.57184-.4567-.38435-.67895-2.20847-.51332-1.56132.14177-2.36276.46704-2.1197.86032.17862.28902 3.90596-.01 4.32817-.347zm-154.343872.0874c.08994-.14552.447125-.26458.79375-.26458.346625 0 .698151-.1099.781169-.24423.08302-.13432.496816-.32019.919554-.41304.422735-.0929.834353-.34014.914704-.54953.193771-.50496-.447288-.48932-1.462529.0357-.44286.22901-.870516.35107-.950352.27124-.07983-.0798.407483-.38204 1.082921-.67157.716381-.30707 1.228075-.69957 1.228075-.942 0-.33929-.101312-.36137-.551829-.12026-.303503.16243-.60098.24618-.661058.1861-.06008-.0601.188245-.26844.551828-.46302.363582-.19459.661059-.45273.661059-.57366 0-.31211-.02281-.30467-1.748653.57052-.857252.43472-1.707467.79191-1.889368.79375-.181901.002-.330729.12241-.330729.26794 0 .36869.541202.31457 1.322916-.1323.363802-.20796.780521-.3768.926042-.37518.145521.002-.300964.29734-.992188.65716-1.387731.72238-1.674645 1.27624-.529166 1.02151.71419-.15883.711753-.15168-.132292.38794-.472943.30236-.859896.61104-.859896.68593 0 .24694.759122.14168.926042-.1284zm51.460632-1.09617c.00053-.39418-.18178-.76937-.41769-.8599-.54236-.20812-3.92522-.20212-5.20388.009-.85375.14111-.99219.26119-.99219.86055v.69656l3.30647-.004 3.30647-.004.0008-.6993zm98.29352.39829c1.18094-.63982 4.51968-.78887 5.78915-.25845 1.29555.54132 1.22231.56238 1.22231-.35158 0-1.19047-.81111-1.60251-3.15463-1.60251-1.10135 0-2.65887.20196-3.513.45552-1.46488.43486-1.53445.49484-1.53445 1.32292 0 .99055.0978 1.02619 1.19062.4341zm-94.05936-.22249c.80036-.003 1.78263.0859 2.18281.19781.64889.18146.7276.13443.7276-.43472 0-.84732-.38886-.95938-3.32893-.95938h-2.4919v.82243c0 .77449.0424.80952.7276.60098.40019-.1218 1.38245-.22401 2.18282-.22712zm-15.06052-.93171c.25444-.37963.22981-3.84908-.0286-4.02515-.0684-.0466-8.49549-.0427-18.72676.009l-18.602314.0936.41588.63472c.228735.34909.489001 1.33427.578366 2.18929l.162489 1.55459 17.967459-.0295c15.6542-.0257 18.00171-.0806 18.23346-.4264zm-33.093647-1.32336c0-.7276.119062-1.32292.264583-1.32292s.264583.59532.264583 1.32292c0 .72761-.119062 1.32292-.264583 1.32292s-.264583-.59531-.264583-1.32292zm3.776855-.25248c.03278-.8792.155017-1.59878.271637-1.59908.273669-.00079.161378 2.89317-.118991 3.06644-.116737.0721-.185428-.58816-.152646-1.46736zm-2.189355-.0121c0-1.04196.09084-1.32292.427733-1.32292.314457 0 .385485.15766.268197.59531-.08775.32743-.161165.92274-.163152 1.32292-.0021.40018-.122674.72761-.268195.72761s-.264583-.59532-.264583-1.32292zm28.045827.13229c0-.65484.11472-1.19063.25493-1.19063s.24417.53579.23103 1.19063c-.0131.65484-.12786 1.19063-.25493 1.19063-.12706 0-.23103-.53579-.23103-1.19063zm1.5875-.11668c0-.73619.11907-1.33853.26459-1.33853.14552 0 .26458.52876.26458 1.17501 0 .64626-.11906 1.2486-.26458 1.33853-.16307.10079-.26459-.35003-.26459-1.17501zm9.28206.77814c.93154 0 1.30128-.104 1.30128-.36602 0-.73387-2.19079-.92857-3.12056-.27734-.62967.44104-.53332 1.04679.12625.79369.21546-.0827.97733-.15033 1.69303-.15033zm-46.680072-.79342c.923597-.43638 1.679268-.91263 1.679268-1.05833 0-.35719-.153416-.336-1.09606.15147-.44286.22901-.873509.34807-.957001.26458-.08349-.0835-.04266-.15445.09073-.15769.133395-.003.540192-.24562.903994-.53863l.661458-.53276-.926041.40744c-.509323.22408-1.253464.55211-1.653646.72893-.400182.17683-.727604.41446-.727604.52808 0 .27677.199088.26025.811143-.0673.293593-.15713.511773-.16936.511773-.0287 0 .13487-.297656.31992-.661458.41123-.363802.0913-.661458.28281-.661458.42556 0 .38411.185441.33522 2.024898-.53388zm54.916972.16137c.24007-.37378-.44526-.64839-1.67771-.67227-.9484-.0184-1.7413.52222-1.45215.99007.19985.32337 2.89372.0498 3.12986-.3178zm96.45031-.31329c.91224-.11898 1.38906-.3057 1.38906-.54396 0-.27482-.47735-.36279-1.96876-.36279-1.98331 0-2.44475.20718-2.15326.96678.10474.27296.35854.36308.75105.26671.32606-.0801 1.21792-.22709 1.98191-.32674zm-103.83609-.48727 2.59255.0226-.0479-9.61975c-.0303-6.10157-.14501-9.6798-.31351-9.78395-.46023-.28443-3.71414-.39111-4.95603-.16247l-1.19063.2192-.22889 3.69358c-.12589 2.03148-.14236 6.46261-.0366 9.84696l.19228 6.15336.69807-.19606c.38394-.10784 1.86472-.1859 3.29063-.17347zm-1.93109-8.09239c0-.14552.59531-.26459 1.32291-.26459.72761 0 1.40924-.009 1.51474-.0198.10551-.0109.23449.10815.28663.26458.0607.18207-.48443.28443-1.51474.28443-.89664 0-1.60954-.11719-1.60954-.26458zm.99218-1.25454c-2.66176-.13795-2.23792-.6406.46303-.54911 1.23692.0419 2.24895.15446 2.24895.25015 0 .1626-.78401.5569-.88153.44334-.0245-.0285-.84818-.0935-1.83045-.14438zm-1.25677-2.08737c0-.35138.18422-.40105.99219-.2675.5457.0902 1.26711.16531 1.60312.16691.33936.002.53824.12052.4474.2675-.0899.14552-.81134.26458-1.60311.26458-1.15458 0-1.4396-.0854-1.4396-.43149zm12.13797.3588.0329-7.61332-.67868-.25804c-.90381-.34363-4.06553-.32911-5.07648.0233-1.02925.3588-1.01037.14431-.91842 10.43429l.0733 8.20209 2.17657-.0906c1.19711-.0498 2.59288.018 3.1017.15072l.92514.24134.16558-1.73822c.0911-.95602.18036-5.16422.19844-9.35154zm-3.53901 2.98311c.0899-.14552.57322-.26459 1.07395-.26459.50074 0 .91043.11907.91043.26459 0 .14552-.48328.26458-1.07395.26458-.64859 0-1.00918-.10479-.91043-.26458zm-1.71979-1.39142c0-.31121.4799-.39269 2.42075-.411 2.93266-.0277 2.78424.35453-.23794.6127-1.82684.15605-2.18281.12316-2.18281-.2017zm.67602-1.76003c-.0819-.13257.57751-.28139 1.46543-.33073 1.64948-.0916 2.29264.1207 1.22901.40578-.90112.24152-2.52678.19624-2.69444-.075zm95.98837 10.42749c1.22509-.51188 4.15272-.50999 5.3816.003.52699.22019.99259.36592 1.03467.32384.0792-.0792.16509-7.95821.12796-11.73845l-.0211-2.1507-.8582-.35548c-1.19597-.49539-4.2873-.41973-5.95482.14573l-1.38906.47104-.0127 2.94611c-.007 1.62036-.0772 4.70228-.15617 6.84871-.16157 4.39449-.18282 4.35418 1.84782 3.50573zm1.66461-5.82164c-.13793-.35946.03-.41244 1.09096-.34431 1.54189.099 1.65571.58034.16303.68942-.80879.0591-1.13313-.0302-1.25399-.34511zm-.90726-1.48736c.12378-.37132 3.87602-.44816 3.97982-.0815.0364.12852-.86784.27035-2.00937.31518-1.51746.0596-2.04726-.003-1.97045-.23368zm.27565-1.20068c-.88257-.35592-.12446-.61845 1.78594-.61845 1.23472 0 2.11666.11025 2.11666.26459 0 .14552-.6451.26458-1.43357.26458-.78846 0-1.59213.0501-1.78593.11133-.19381.0612-.5012.0513-.6831-.022zm-18.91771 7.05808c1.76228-.003 2.18281-.0801 2.18281-.40048 0-.32433-.44979-.39688-2.46062-.39688-1.56104 0-2.5767.11608-2.77813.3175-.50453.50454-.36972.81655.27782.64302.32742-.0877 1.57757-.16117 2.77812-.16316zm-4.16741-.46663c.00027-.44898-3.77-.43801-5.06959.0147-.88894.30969-.71998.33661 2.0503.32675 2.23301-.008 3.01913-.0969 3.01929-.34149zm10.51744.0661c2.09688 0 2.65591-.15871 1.76427-.50086-.54604-.20954-3.25437-.20654-4.31091.005-.46746.0935-.82683.33123-.82683.547 0 .28345.15315.32599.59532.16536.32742-.11895 1.57758-.21627 2.77815-.21627zm-99.87258-2.05052c.0724-1.05503.2189-2.18818.32555-2.51811l.19393-.59988-18.35445.16526c-10.094949.0909-18.387911.19587-18.42881.23327-.212841.19465-.366522 2.86494-.21222 3.68744l.178269.95024h36.166101zm-34.681892-.52917c.04398-.76399.190344-1.38906.325245-1.38906.134897 0 .254333.62507.265406 1.38906.01416.97657-.08243 1.38906-.325242 1.38906-.250418 0-.323392-.38193-.265409-1.38906zm1.535181-.0505c0-.80895.119063-1.47083.264584-1.47083.145521 0 .264583.58829.264583 1.30731 0 .71901-.119062 1.38088-.264583 1.47082-.164269.10152-.264584-.39413-.264584-1.3073zm25.639001 1.17501c-.18801-.47268.0992-3.16102.29682-2.77813.0751.14552.0746.91943-.001 1.71979-.0758.80037-.20879 1.27662-.29562 1.05834zm1.87766-1.19063c0-.80036.11907-1.45521.26459-1.45521.14552 0 .26458.65485.26458 1.45521 0 .80037-.11906 1.45521-.26458 1.45521-.14552 0-.26459-.65484-.26459-1.45521zm1.80559 1.05834c-.19285-.58674.10726-3.06624.32024-2.64584.0737.14552.071.91943-.006 1.71979-.0932.96764-.19845 1.27792-.3141.92605zm88.32739.90993c.40605-.15438 1.64849-.27869 2.76098-.27624l2.02272.004.16666-1.21589c.0917-.66874.16666-2.0795.16666-3.13503 0-1.50593-.0901-1.95372-.41852-2.07974-.6756-.25925-5.12874-.18403-5.65096.0955-.42276.22626-.47805.64197-.47507 3.57188.004 3.57244.005 3.57588 1.42753 3.03513zm1.14827-2.49743c0-.29398.30868-.39688 1.19062-.39688.88195 0 1.19063.1029 1.19063.39688s-.30868.39687-1.19063.39687c-.88194 0-1.19062-.10289-1.19062-.39687zm-.37685-1.42281c-.12905-.2088 2.76029-.60943 2.98303-.41363.051.0448.0142.20842-.0818.36363-.20906.33826-2.69662.38113-2.90127.05zm-.4169-1.6199c0-.14552.58557-.26459 1.30127-.26459.71571 0 1.48961-.0723 1.7198-.16059.27463-.10539.41851-.0144.41851.26458 0 .34691-.31659.42518-1.71979.42518-.97014 0-1.71979-.11533-1.71979-.26458zm-83.09699 2.49208c-.17135-.20647-.41603-.3754-.54373-.3754-.3944 0-.2565.58351.23083.97672.42673.34432.41636.36076-.13229.20978-.32743-.0901-.59532-.0549-.59532.0782 0 .13309.26789.37987.59532.54839.58462.30091.58347.30333-.0641.13456-.58867-.15342-.62067-.1252-.29833.26319.30517.36772.30485.43649-.002.44441-.19972.005-.0655.1748.29833.37699l.66146.36762.0807-1.32451c.0456-.74768-.055-1.488-.23084-1.69991zm91.89438 2.69615 2.05052.0288v-6.52988l-.6772-.16996c-.37247-.0935-1.4738-.0979-2.4474-.01-.9736.0881-1.91902.16237-2.10092.16493-.24741.003-.33073.87244-.33073 3.44927v3.44463l.72761-.20348c.40018-.11191 1.65034-.1905 2.77812-.17464zm-.99218-1.48405c-.0995-.16095.28299-.26299.97657-.26053.83359.003 1.0334.073.74322.26053-.51935.33563-1.51237.33563-1.71979 0zm-.39688-1.85208c0-.14552.53578-.26458 1.19063-.26458.65484 0 1.19062.11906 1.19062.26458 0 .14552-.53578.26458-1.19062.26458-.65485 0-1.19063-.11906-1.19063-.26458zm-.46417-1.91823c.0658-.19933.70521-.36225 1.60955-.41008 1.21295-.0641 1.50045-.00079 1.50045.33073 0 .32545-.33219.41008-1.60954.41008-1.16944 0-1.57972-.0904-1.50046-.33073zm10.25375 1.95509v-3.13815l-1.2929-.15313c-.71111-.0842-1.96126-.0841-2.77813.00017l-1.48522.15328v6.27597h5.55625zm-3.175 1.55064c0-.14552.48328-.26458 1.07395-.26458.64859 0 1.00918.10479.91043.26458-.0899.14552-.57322.26458-1.07395.26458-.50074 0-.91043-.11906-.91043-.26458zm.66146-1.85202c.72761-.1066 1.43603-.0907 1.57427.0353.14404.13133-.42078.21408-1.32291.19382l-1.57427-.0353zm-.92604-1.69781c0-.26784.33981-.37482 1.19063-.37482.85081 0 1.19062.10698 1.19062.37482 0 .26785-.33981.37483-1.19062.37483-.85082 0-1.19063-.10698-1.19063-.37483zm-96.30833 2.08632c0-.42653-.7042-.83089-.97515-.55994-.18845.18844.40946.96512.74297.96512.1277 0 .23218-.18233.23218-.40518zm-7.67291-1.7109 6.74687-.002.005-1.653c.003-.90915.0894-1.96024.19222-2.33575l.18702-.68274-2.70577.10292c-1.48816.0566-9.69719.12139-18.24229.14396l-15.536534.041-.170069 1.1341c-.09354.62375-.0869 1.68869.01474 2.36652l.184814 1.23243 11.288455-.17286c6.208654-.0951 14.324554-.17372 18.035334-.17476zM52.122914 18.2494c0-.87312.0893-1.58748.198438-1.58746.10914.00001.203372.71439.209401 1.5875.006.8731-.08327 1.58746-.198437 1.58746-.115171 0-.209402-.71437-.209402-1.5875zm1.76389 1.14653c-.282372-.28237-.203288-2.73403.08819-2.73403.145521 0 .264584.65485.264584 1.45521 0 1.47155-.0346 1.597-.352777 1.27882zm24.195964-1.21267c-.0169-.83675.0617-1.52136.17474-1.52136.11299 0 .16622.50602.11829 1.12448-.14361 1.85342-.26045 2.01166-.29303.39688zm1.82139-.0505c0-.79178.11907-1.51318.26459-1.60312.16527-.10214.26458.43823.26458 1.4396 0 .89235-.1173 1.60311-.26458 1.60311-.14552 0-.26459-.64782-.26459-1.43959zm1.88251.19844c-.0167-.7554.0886-1.44704.23416-1.53697.31217-.19294.31697.39304.0152 1.85208l-.21891 1.05833-.0304-1.37344zm6.31958 1.63803c0-.25189-.25349-.39688-.69386-.39688-.58676 0-.64302.0613-.36448.39688.18116.21828.4934.39687.69386.39687.20046 0 .36448-.17859.36448-.39687zm0-.89774c0-.12995-.18833-.30854-.41852-.39687-.59136-.22693-.63982-.20903-.63982.23627 0 .22049.23519.39688.52917.39688.29104 0 .52917-.10633.52917-.23628zm-.52917-1.08664c-.20985-.12969-.44108-.17628-.51384-.10352-.0728.0728.0394.23841.24926.3681.20985.1297.44108.17628.51384.10352.0728-.0728-.0394-.2384-.24926-.3681zm83.47604.13229c.87312 0 1.97445.0988 2.44739.21946.52085.13293.8599.12033.8599-.032 0-.37605-3.01225-.64391-4.93076-.43846-.9261.0992-1.68383.29498-1.68383.43511 0 .15607.33314.16976.8599.0353.47294-.1207 1.57427-.21946 2.4474-.21946zm9.3927-.38358c0-.31108-1.00185-.53467-2.41432-.53885-1.64716-.005-2.87722.26218-2.87792.62478-.00053.20625.81207.27195 2.64583.21394 1.45553-.0461 2.64641-.18099 2.64641-.29987zm6.26321.119c-.14309-.43618-2.66977-.74693-4.03403-.49614-2.23125.41018-1.61253.76072 1.3427.76072 1.73356 0 2.74549-.0995 2.69133-.26458zm-98.6919-.51207c-.0802-.20888-.004-.43794.17013-.50903.22798-.0933.20895-.2036-.0684-.39651-.42044-.29244-.89801-.13531-.67676.22267.076.12304-.0113.28434-.19412.35845-.25147.10194-.23576.20307.0645.41542.55994.396.87585.3552.70463-.091zm86.28359-4.34474c.0853-4.97134.37963-4.59557-3.58064-4.57134-1.76663.0108-2.59783.11866-2.7452.3562-.1878.30272-.26878 8.07952-.0876 8.41049.0398.0728 1.48281.11067 3.20661.0842l3.1342-.048zm3.11203 3.75356c.58738-.0789 1.49746-.0249 2.02239.12007l.95443.26353.11517-4.0058c.13569-4.71956.16196-4.66903-2.42459-4.66365-3.13884.007-2.92599-.32489-2.92599 4.55603v4.23333l.59531-.18003c.32742-.099 1.0759-.24458 1.66328-.32348zm6.28269.11229c.75933-.0131 1.76754.0651 2.24049.17383l.85989.19772V8.74841l-.95228-.17865c-1.02328-.19197-3.85716-.0111-4.32142.27586-.18069.11168-.28255 1.65384-.28255 4.27788 0 4.0044.013 4.09915.53764 3.93262.2957-.0939 1.1589-.18138 1.91823-.19452zm-102.78978-2.0403c3.91469-.0111 4.03544-.0278 3.77031-.52322-.15064-.28148-.27389-1.35341-.27389-2.38208v-1.87031l-17.39635.16288c-9.567997.0896-17.499112.2582-17.624701.37469-.335881.31158-.525897 2.45842-.316424 3.57502l.181782.96898 13.807535-.14725c7.594148-.081 15.627428-.15241 17.851738-.15871zm-29.929271-.717c-.28289-.28289-.203015-2.99862.08819-2.99862.146992 0 .264583.70556.264583 1.5875 0 1.60175-.03243 1.73147-.352777 1.41112zm24.959021-1.6757c0-.88194.1176-1.5875.26459-1.5875s.26458.70556.26458 1.5875c0 .88195-.11759 1.5875-.26458 1.5875-.14699 0-.26459-.70555-.26459-1.5875zm2.11667 0c0-.87312.11097-1.5875.2466-1.5875.13562 0 .23521.71438.2213 1.5875-.0139.87313-.12487 1.5875-.24659 1.5875-.12172 0-.22131-.71437-.22131-1.5875zm-25.929164 0c0-.7276.119063-1.32292.264583-1.32292.145521 0 .264584.59532.264584 1.32292 0 .72761-.119063 1.32292-.264584 1.32292-.14552 0-.264583-.59531-.264583-1.32292zm27.516664 0c0-1.03868.0913-1.32292.42518-1.32292.27901 0 .36997.14389.26459.41852-.0883.23018-.1606.82549-.1606 1.32292 0 .49742-.11906.9044-.26459.9044-.14552 0-.26458-.59531-.26458-1.32292zm7.33386 1.68994c-.0646-.48233-.34726-.7984-.93509-1.04556-.72275-.30389-.84252-.29965-.84252.0299 0 .21126.17157.3841.38126.3841s.44798.10796.52953.23991c.0816.13195-.10159.17457-.40697.0947-.50864-.13301-.52554-.0976-.20131.42155.19467.31171.62704.56675.96081.56675.50155 0 .5908-.11998.51429-.69131zm111.64081-.92335c.92143-.16046 1.67532-.3944 1.67532-.51986 0-.69921-2.46361-1.03327-3.81923-.51786-.77638.29518-.90278.96752-.21566 1.14708.25466.0666.5128.13481.57364.15169.0608.0169.86451-.10059 1.78593-.26105zm-52.3809-.95999c-.0671-.25743-.12639-.11087-.13178.32569-.005.43657.0495.64719.12197.46806.0725-.17913.0769-.53632.01-.79375zm-59.45002.51927c0-.11182-.32742-.40631-.7276-.65442-.40019-.24812-.58581-.45429-.41249-.45816.17331-.004.3887.11202.47863.25754.0899.14553.27556.26459.41249.26459.47387 0 .24591-.4085-.47863-.85772-.44655-.27686-.56919-.45384-.3175-.45816.22555-.004.55298.13584.7276.31046.17463.17463.31675.20439.31583.0661-.0008-.13825-.35811-.45418-.79375-.70207l-.79208-.45072v1.13789c0 .91857.11474 1.19322.59531 1.42499.73166.35287.99219.38428.99219.11963zm108.94022-.99586c.69391-.48603 5.29-.5859 6.13564-.13333.45963.24599.55736.19291.70137-.38088.27735-1.10506-.0187-1.40661-1.57158-1.60063-1.76326-.22031-3.88585.0239-5.39477.62069-.94097.37216-1.12365.56255-1.12448 1.17195-.001.82231.39463.924 1.25382.3222zM86.166358 9.15274c.0245-.0177-.0849-.59746-.24294-1.28828-.20344-.88906-.20568-1.52237-.008-2.16763.15388-.50137.21001-.98136.12474-1.06663-.23395-.23395-34.81654-.13658-35.197889.0991-.356751.22048-.747321 3.68521-.490784 4.35373.13652.35577 2.190324.38456 17.962083.25182 9.79437-.0824 17.82797-.16439 17.85244-.18212zM52.704399 6.80617c.09844-1.7098.577538-1.60364.595868.13203.0091.86238-.09481 1.2566-.331284 1.25678-.249447.00019-.32248-.38318-.264584-1.38881zm1.270598.34635c0-.5735.119063-1.1163.264584-1.20624.16161-.0999.264583.30593.264583 1.04272 0 .66343-.119063 1.20624-.264583 1.20624-.145521 0-.264584-.46923-.264584-1.04272zm23.894481-.41249c.002-.87313.0509-1.19842.10977-.72287.0589.47555.0577 1.18993-.003 1.5875-.0604.39758-.10855.008-.10707-.86463zm1.7701 0c0-1.06087.0989-1.45521.36512-1.45521.27033 0 .35619.37766.33072 1.45473-.0229.96878-.14486 1.4549-.36511 1.45521-.22455.00033-.33073-.4667-.33073-1.45473zm1.76389 1.01424c-.097-.097-.17639-.69233-.17639-1.32292 0-.83617.10606-1.14653.39181-1.14653.31413 0 .3592.24919.22731 1.25677-.18577 1.41929-.19924 1.45617-.44273 1.21268zm21.17937 1.34832c.3878-.0787.53482-.25231.43472-.51317-.22098-.57586-3.59895-.55693-4.08013.0229-.68566.82617.9249 1.04279 3.64541.49031zm43.64789-.4278c-.0845-.21106-.14715-.14837-.15985.15986-.0115.27891.0511.43518.13897.34726.0879-.0879.0973-.31612.0209-.50712zm-51.84063.0525c1.02521-.003 1.15799-.57591.23151-.99804-.76489-.3485-2.69401-.12634-3.09464.35639-.49356.59471.002.97557 1.04468.8031.52721-.0872 1.34551-.15985 1.81845-.16145zm104.77499.0949c.68729-.18418.78962-.76039.1768-.99555-1.03332-.39652-3.55023.15495-3.55023.77788 0 .28784.34904.38353 1.38906.38082.76398-.002 1.65695-.0754 1.98437-.16315zm-111.39902-1.2255c0-.62024.0847-1.39473.18833-1.72109.13466-.42428.0668-.64003-.2382-.75706-.57202-.21951-.88661.13095-.39604.4412.21407.13538.25441.24797.0897.2502-.37925.005-.36222 1.91797.0194 2.18281.18249.12663.1594.1958-.0662.19844-.19048.002-.27275.12311-.18281.26863.34917.56497.58586.21627.58586-.86313zm83.81621.15606c.87313.0816 1.85539.22839 2.18281.32626.42516.12708.59532.0685.59532-.20508 0-.84977-2.68361-1.43178-5.16966-1.12117-1.11946.13987-1.44493.28293-1.44493.63512 0 .69546.21654.77798 1.27462.48571.53589-.14803 1.68872-.2024 2.56184-.12084zm9.12813-.2819c0-.32919-.0298-.60062-.0661-.60318-.0364-.003-.86234-.0767-1.83548-.16485-2.46847-.22351-3.65465.0286-3.65453.7768.00008.56413.0915.58343 2.77812.58654 2.70991.003 2.77804-.0115 2.77804-.59531zm6.03037.0734c-.0672-.4697-.29998-.55018-1.79704-.6214-2.30511-.10966-3.43969.11768-3.4392.68911.00027.39432.33441.45235 2.65694.46146 2.52535.01 2.65273-.0162 2.5793-.52917zm-84.67776.065 2.18281.0516v-.76276c0-.96112-.32831-1.08488-2.86591-1.08036-2.89993.005-3.21951.12814-3.21951 1.23889 0 .89986.0154.9125.8599.70866.47294-.11415 1.84216-.18434 3.04271-.15599zm94.78697-.25641c1.42397-.26892 4.74998-.14252 5.68432.21602.42691.16382.45979.0295.35328-1.44296-.0646-.89298-.19289-1.69906-.28511-1.79128-.0922-.0922-.87955-.31623-1.7496-.49779-1.52861-.31899-2.62393-.24906-5.32581.34003l-.92604.20191-.079 1.80922c-.072 1.65014-.0371 1.79298.39687 1.62445.26173-.10163 1.13071-.30845 1.93108-.4596zm-102.92291-.33225c.3638-.001 1.22701.0815 1.91823.18415 1.12646.16727 1.25677.13413 1.25677-.31965 0-.68732-.82914-.9257-3.05166-.87737-2.13371.0464-3.29834.4018-3.29834 1.00656 0 .35305.19939.38704 1.25677.21421.69123-.11298 1.55443-.20653 1.91823-.2079zm.4806-1.62892c.40331-.0828.58335-.28085.52651-.57932-.12626-.66297-3.36167-.813-3.8264-.17744-.17565.24022-.25439.60608-.17498.81302.13953.36361 1.53896.34096 3.47487-.0563zm7.83213-.26745c.69697-.26745.47015-.82126-.4083-.99695-1.31181-.26236-1.9204-.19721-2.59925.27828-.60061.42069-.60708.45396-.12502.64286.62788.24605 2.56668.29296 3.13257.0758zm-4.87315-2.65499c0-.91824-.0965-1.11863-.59531-1.23671-1.28485-.30414-4.08217-.43938-4.96094-.23984-.87154.19789-.93063.27978-1.00398 1.39131l-.0779 1.18104h6.63817zm6.87917-.209c0-1.11122-.0246-1.14358-.99219-1.3035-1.46782-.24262-3.38054-.20432-4.13573.0828-.4712.17915-.71469.52043-.8372 1.17345-.095.50646-.11311 1.01786-.0402 1.13644.0729.11859 1.45391.17842 3.06894.13296l2.93641-.0827z"/>
</svg>