<?xml version="1.0" encoding="UTF-8" standalone="no"?>
<svg
   xmlns:dc="http://purl.org/dc/elements/1.1/"
   xmlns:cc="http://creativecommons.org/ns#"
   xmlns:rdf="http://www.w3.org/1999/02/22-rdf-syntax-ns#"
   xmlns:svg="http://www.w3.org/2000/svg"
   xmlns="http://www.w3.org/2000/svg"
   xmlns:sodipodi="http://sodipodi.sourceforge.net/DTD/sodipodi-0.dtd"
   xmlns:inkscape="http://www.inkscape.org/namespaces/inkscape"
   width="279.75049mm"
   height="87.251678mm"
   viewBox="0 0 279.75049 87.251678"
   version="1.1"
   id="svg1315"
   inkscape:version="1.0.2 (e86c870879, 2021-01-15, custom)"
   sodipodi:docname="Bookman Ornaments 8401 (hourglass and book).svg">
  <defs
     id="defs1309" />
  <sodipodi:namedview
     id="base"
     pagecolor="#ffffff"
     bordercolor="#666666"
     borderopacity="1.0"
     inkscape:pageopacity="0.0"
     inkscape:pageshadow="2"
     inkscape:zoom="1.4"
     inkscape:cx="581.10988"
     inkscape:cy="94.661688"
     inkscape:document-units="mm"
     inkscape:current-layer="layer1"
     inkscape:document-rotation="0"
     showgrid="false"
     inkscape:window-width="1920"
     inkscape:window-height="1057"
     inkscape:window-x="-8"
     inkscape:window-y="-8"
     inkscape:window-maximized="1" />
  <metadata
     id="metadata1312">
    <rdf:RDF>
      <cc:Work
         rdf:about="">
        <dc:format>image/svg+xml</dc:format>
        <dc:type
           rdf:resource="http://purl.org/dc/dcmitype/StillImage" />
        <dc:title></dc:title>
      </cc:Work>
    </rdf:RDF>
  </metadata>
  <g
     inkscape:label="Layer 1"
     inkscape:groupmode="layer"
     id="layer1"
     transform="translate(-21.896199,-139.14627)">
    <path
       style="fill:#000000;stroke-width:0.264583"
       d="m 157.35149,225.90612 c -1.96453,-0.24622 -4.28625,-0.59694 -5.15938,-0.77938 -1.56696,-0.32742 -8.39309,-2.52388 -10.23358,-3.29288 -1.00951,-0.4218 -2.33413,-1.7952 -2.33413,-2.42009 0,-0.20786 -0.26671,-0.38605 -0.59531,-0.39774 -0.32742,-0.0116 -1.66687,-0.0668 -2.97656,-0.12269 -1.30969,-0.0559 -5.06016,0.0737 -8.33438,0.28793 -3.27422,0.2142 -6.42937,0.41824 -7.01145,0.45342 -0.71632,0.0433 -1.06985,0.19222 -1.09396,0.46084 -0.0196,0.21828 -0.0641,0.51594 -0.099,0.66146 -0.0348,0.14552 -0.0384,0.87637 -0.008,1.62411 0.0363,0.8904 -0.0649,1.43384 -0.29314,1.5749 -0.19166,0.11846 -6.30376,0.23951 -13.58242,0.26901 -12.017488,0.0487 -49.601862,0.34156 -58.340073,0.4546 -3.381038,0.0437 -3.570811,0.0186 -3.648323,-0.48304 -0.246994,-1.5985 -0.237392,-1.58897 -1.570872,-1.5587 -0.697628,0.0159 -5.293451,0.0754 -10.21294,0.13229 l -8.944527,0.1035 -0.508444,-0.66146 c -0.752864,-0.97944 -0.664584,-2.14393 0.227311,-2.99842 0.967373,-0.9268 2.093659,-1.23398 4.542398,-1.2389 2.715638,-0.005 5.205188,-0.9956 5.803193,-2.30808 0.149944,-0.32909 0.394241,-0.59835 0.542881,-0.59835 0.148641,0 0.270256,-0.47862 0.270256,-1.06359 0,-0.65985 0.235954,-1.43823 0.621585,-2.05052 0.341871,-0.54281 0.590756,-1.19376 0.553077,-1.44655 -0.0381,-0.25561 0.302553,-0.75583 0.767478,-1.12696 0.459792,-0.36703 1.133641,-0.94349 1.497443,-1.28101 0.363802,-0.33753 0.98888,-0.81541 1.389063,-1.06196 0.406936,-0.25071 0.727604,-0.68459 0.727604,-0.98448 0,-0.68377 0.608855,-1.84555 1.246009,-2.37756 0.271664,-0.22683 1.263307,-0.62177 2.20365,-0.87763 0.940344,-0.25586 2.111768,-0.64857 2.603166,-0.87268 0.491397,-0.22412 1.027178,-0.44203 1.190625,-0.48424 2.022525,-0.52244 4.934203,-2.06428 6.159192,-3.26154 0.835621,-0.8167 1.169012,-1.39866 1.389063,-2.42472 0.445344,-2.07658 0.369824,-3.28606 -0.239623,-3.8376 -0.337724,-0.30564 -0.532212,-0.82301 -0.53758,-1.43007 -0.0046,-0.52315 -0.183224,-1.1823 -0.396875,-1.46477 -0.213654,-0.28248 -0.388461,-0.85718 -0.388461,-1.27713 0,-0.4916 -0.276201,-1.03973 -0.775542,-1.53907 -0.781965,-0.78196 -1.870292,-3.24684 -1.870292,-4.23589 0,-1.22974 0.634799,-2.8849 1.590948,-4.14819 0.699482,-0.92417 1.013219,-1.60367 0.997397,-2.16019 -0.0127,-0.44655 0.159136,-1.01991 0.381849,-1.27413 0.698286,-0.79709 0.813721,-2.09451 0.914879,-10.28269 l 0.09844,-7.96838 -0.6579,-0.43107 c -0.369522,-0.24212 -0.798999,-0.90202 -0.979802,-1.50548 -0.186984,-0.6241 -0.630979,-1.2945 -1.059336,-1.59951 -0.498629,-0.35506 -0.786969,-0.84287 -0.890384,-1.50635 -0.331369,-2.12597 -0.68593,-2.92686 -1.7022,-3.845 -1.04014,-0.93971 -2.441776,-1.49764 -3.769293,-1.5004 -0.729851,-0.002 -0.808937,-0.12561 -1.145919,-1.79807 -0.188449,-0.93527 0.0388,-3.17443 0.377839,-3.72301 0.237516,-0.38431 4.16021,-0.44519 62.25746,-0.96615 l 12.89002,-0.11559 0.30251,1.11786 c 0.29949,1.10671 0.21201,4.09851 -0.13632,4.66212 -0.0993,0.16071 -0.63269,0.2922 -1.18526,0.2922 -1.22694,0 -3.09164,1.31907 -3.84668,2.7211 -0.3297,0.61222 -0.7511,0.98532 -1.21842,1.07879 -0.5756,0.11512 -0.75035,0.33451 -0.89944,1.12924 -0.11007,0.58673 -0.53533,1.33665 -1.04965,1.85096 -0.54363,0.54363 -0.95333,1.2873 -1.10361,2.00319 -0.20037,0.95455 -0.4005,1.21749 -1.23811,1.62671 l -0.99911,0.48812 0.022,7.66839 c 0.021,7.31542 0.17221,8.95017 0.8281,8.95017 0.12216,0 0.22285,0.32742 0.22374,0.7276 8e-4,0.40018 0.17949,1.06864 0.39688,1.48545 0.21738,0.41682 0.39524,1.0853 0.39524,1.4855 0,0.41899 0.30865,1.07485 0.72761,1.54615 l 0.7276,0.8185 3.04271,-1.48163 c 1.67349,-0.8149 3.3999,-1.63611 3.83646,-1.82492 0.43656,-0.18881 1.32953,-0.57699 1.98437,-0.86263 1.73192,-0.75546 4.37962,-1.61753 6.35,-2.06752 0.94589,-0.21602 2.4937,-0.56977 3.43959,-0.78612 1.8007,-0.41187 9.55344,-0.92801 10.95878,-0.72958 0.44835,0.0633 1.70814,0.16836 2.79955,0.23347 2.31189,0.13792 4.45997,0.4501 5.95312,0.86519 0.58209,0.16181 1.83224,0.48697 2.77813,0.72257 0.94589,0.23561 2.16628,0.59898 2.71199,0.80749 0.5457,0.20851 0.99218,0.32945 0.99218,0.26875 0,-0.15549 4.38417,1.76419 6.92778,3.03345 2.09225,1.04403 4.76501,2.68944 5.46656,3.36533 0.19569,0.18853 0.7017,0.52166 1.12448,0.74028 0.42277,0.21863 0.76868,0.50549 0.76868,0.63746 0,0.13198 0.21714,0.30888 0.48253,0.39311 0.49057,0.1557 1.00311,0.56882 2.73634,2.20551 l 0.9699,0.91588 1.54364,-0.86128 c 3.24383,-1.80993 9.91053,-5.02343 10.42157,-5.02343 0.14784,0 0.53251,-0.16638 0.85481,-0.36973 0.9973,-0.62924 7.44841,-2.68987 11.43392,-3.65225 1.93724,-0.46778 2.10702,-0.50161 3.80083,-0.75733 0.92629,-0.13985 1.75973,-0.29858 1.85208,-0.35275 0.8276,-0.48539 20.22672,-0.79377 23.58355,-0.3749 6.55559,0.81803 11.53571,1.74971 14.2875,2.67292 0.65484,0.21969 2.14312,0.6645 3.30729,0.98845 2.73956,0.76234 6.13553,1.93226 8.46666,2.91678 1.01865,0.43021 1.9384,0.78191 2.0439,0.78155 0.5157,-0.002 4.79019,2.06037 7.74927,3.73846 1.18862,0.67406 2.41821,1.30716 2.73242,1.40689 0.31421,0.0997 0.57129,0.29236 0.57129,0.42807 0,0.13572 0.14243,0.24676 0.31651,0.24676 0.17408,0 0.76939,0.29765 1.32291,0.66145 2.52068,1.65671 3.11983,2.01269 5.10745,3.03458 4.2139,2.16646 8.80097,3.3446 11.70782,3.00701 1.33183,-0.15467 1.3893,-0.13529 1.39488,0.47042 0.01,1.04629 0.97594,2.85716 1.7009,3.18748 0.371,0.16903 0.67453,0.38437 0.67453,0.47852 0,0.28358 1.91643,1.03756 2.96778,1.16763 0.54088,0.0669 1.08627,0.18524 1.212,0.26294 0.12573,0.0777 1.75615,0.2055 3.62312,0.284 1.86701,0.0785 3.43356,0.18173 3.48123,0.2294 0.0795,0.0795 0.20588,2.67483 0.80735,16.58532 0.22675,5.24423 0.23638,9.45616 0.022,9.67044 -0.0725,0.0725 -1.72643,0.004 -3.67532,-0.15297 -1.9489,-0.15666 -5.56753,-0.38656 -8.04138,-0.51088 -7.49943,-0.37687 -13.66881,-0.80968 -15.37634,-1.07873 -0.8899,-0.14022 -2.67584,-0.25617 -3.96875,-0.25768 -1.29291,-0.002 -3.71996,-0.11734 -5.39345,-0.25742 -2.54671,-0.21317 -6.67929,-0.46086 -15.74271,-0.94355 -0.7276,-0.0387 -1.62057,-0.13452 -1.98437,-0.21283 -0.3638,-0.0783 -2.03068,-0.20219 -3.70417,-0.27531 -1.67349,-0.0731 -4.94771,-0.31399 -7.27604,-0.53529 -4.96984,-0.47237 -15.69412,-1.14587 -23.54792,-1.47884 -3.05593,-0.12956 -8.56423,-0.47369 -12.24066,-0.76473 -5.77766,-0.45739 -9.94364,-0.62853 -13.89957,-0.57099 -0.7329,0.0107 -1.17907,0.20262 -1.64869,0.70936 -0.35413,0.3821 -0.57863,0.8003 -0.49889,0.92932 0.24803,0.40133 -1.95453,2.34994 -3.40872,3.01569 -1.72288,0.78876 -4.18828,1.35146 -8.12326,1.85405 -8.32629,1.06344 -9.83004,1.09958 -15.61041,0.37511 z m 13.22917,-1.10783 c 1.23692,-0.13011 2.5325,-0.22946 2.87906,-0.22078 0.34657,0.009 1.23138,-0.16278 1.96626,-0.38102 0.73487,-0.21823 1.61999,-0.39679 1.96691,-0.39679 0.88513,0 4.35407,-1.64796 5.05686,-2.40232 0.43873,-0.47093 0.57017,-0.90469 0.52698,-1.73905 -0.0316,-0.6114 0.087,-1.28574 0.26357,-1.49854 0.60077,-0.72389 1.21277,-0.72798 9.03619,-0.0604 0.65484,0.0559 2.97656,0.17188 5.15937,0.25777 2.18282,0.0859 5.27844,0.26921 6.87917,0.40738 6.12682,0.52887 10.50364,0.79795 15.61042,0.9597 2.91041,0.0922 5.38125,0.22064 5.49075,0.28545 0.1095,0.0648 2.37169,0.22787 5.02708,0.36236 2.6554,0.13449 5.89956,0.35982 7.20925,0.50073 5.20364,0.55987 16.39909,1.39251 23.54791,1.75133 1.74625,0.0876 3.82985,0.21758 4.63021,0.28872 0.80037,0.0711 3.00302,0.19334 4.89479,0.27155 1.89177,0.0782 3.5527,0.24864 3.69094,0.37874 0.13825,0.1301 1.26374,0.23654 2.5011,0.23654 1.23737,0 4.458,0.1708 7.15699,0.37954 8.89037,0.68762 16.45748,1.00833 16.75566,0.71014 0.19026,-0.19025 0.17918,-2.01063 -0.0359,-5.90785 -0.171,-3.09808 -0.30916,-7.19061 -0.30702,-9.0945 0.003,-1.9039 -0.0628,-3.5283 -0.14425,-3.60978 -0.0815,-0.0815 -0.17076,-1.22272 -0.19844,-2.5361 -0.0277,-1.31338 -0.11576,-2.4532 -0.19577,-2.53293 -0.14983,-0.14929 -3.6722,-0.63194 -6.45763,-0.88485 -0.8668,-0.0787 -1.74416,-0.31127 -1.94971,-0.51681 -0.20556,-0.20555 -0.42696,-0.32049 -0.49202,-0.25543 -0.0651,0.0651 0.51102,0.72173 1.28019,1.45927 0.99075,0.95 1.88298,1.51201 3.06022,1.92761 l 1.66171,0.58663 -0.0114,2.39847 c -0.0204,4.33279 -0.46649,15.79671 -0.62071,15.95093 -0.14029,0.14029 -3.29677,-0.0431 -12.86177,-0.74731 -2.11005,-0.15535 -5.80099,-0.39021 -8.20208,-0.52191 -7.24078,-0.39716 -8.43195,-0.46794 -12.7,-0.75463 -2.25558,-0.15152 -6.00604,-0.40324 -8.33438,-0.5594 -2.32833,-0.15615 -4.70958,-0.3256 -5.29166,-0.37655 -0.58209,-0.051 -2.78474,-0.17073 -4.8948,-0.26619 -2.11005,-0.0955 -5.42539,-0.34461 -7.36742,-0.55367 -1.94203,-0.20905 -4.70852,-0.3801 -6.14776,-0.3801 -1.43925,0 -3.12453,-0.12198 -3.74508,-0.27107 -0.62045,-0.1491 -3.74755,-0.38132 -6.949,-0.51606 -3.20146,-0.13474 -6.41615,-0.30441 -7.14375,-0.37704 -0.72761,-0.0726 -3.58511,-0.21368 -6.35,-0.31344 -2.7649,-0.0998 -5.14615,-0.27305 -5.29167,-0.38508 -0.14552,-0.11204 -1.72236,-0.24478 -3.50408,-0.29499 -1.78172,-0.0502 -3.24023,-0.16328 -3.24114,-0.25128 -8e-4,-0.088 -1.75783,-0.23017 -3.90426,-0.31594 -4.00421,-0.16 -5.54608,-0.46041 -6.65026,-1.29569 -0.832,-0.62938 -1.91387,-0.60468 -2.76278,0.0631 -0.63108,0.49641 -0.69321,0.72568 -0.76328,2.8167 -0.0697,2.07972 -0.13341,2.31785 -0.73774,2.75748 -0.3638,0.26465 -0.99795,0.53871 -1.40923,0.60902 -0.41127,0.0703 -1.12564,0.25227 -1.5875,0.40434 -0.46185,0.15207 -1.19692,0.32264 -1.63348,0.37904 -0.43656,0.0564 -1.38906,0.26564 -2.11667,0.46497 -1.43334,0.39268 -14.76121,0.534 -16.53645,0.17534 -4.15779,-0.84002 -5.11447,-1.06645 -7.80522,-1.84739 -3.74921,-1.08814 -3.91695,-1.25774 -3.81274,-3.85497 0.066,-1.64584 -0.33561,-2.70994 -1.38764,-3.67633 -0.69562,-0.63901 -2.42033,-1.41443 -3.146,-1.41443 -0.74093,0 -2.0029,1.21219 -2.46543,2.36819 -0.53243,1.33065 -1.39515,1.59204 -5.19953,1.57535 -3.07867,-0.0135 -15.17199,0.46262 -16.00324,0.63007 -0.71424,0.14387 -0.78831,0.75541 -0.1769,1.46038 0.39629,0.45692 0.79282,0.5806 1.86158,0.5806 0.99524,0 1.35803,0.10013 1.35803,0.37482 0,0.20616 0.14883,0.42917 0.33073,0.49558 0.35069,0.12804 5.63389,0.0201 10.91406,-0.22291 1.74625,-0.0804 4.06714,-0.15179 5.15754,-0.15869 2.15993,-0.0137 3.44142,-0.47408 3.44142,-1.23643 0,-0.64053 0.51486,-1.10446 1.22571,-1.10446 0.8362,0 1.0302,0.88198 0.4996,2.27133 -0.42867,1.12246 -0.42511,1.18696 0.10686,1.93404 0.36,0.50558 1.22588,1.05409 2.50378,1.58608 2.38692,0.99368 7.18433,2.58011 8.3988,2.77736 0.49021,0.0796 1.54614,0.28406 2.3465,0.45432 3.25703,0.69286 11.58653,0.92104 16.13959,0.44213 z m -65.2198,-1.40993 c 6.2574,-0.0466 11.67474,-0.13655 12.03854,-0.19983 0.36381,-0.0633 0.75076,-0.13024 0.8599,-0.14881 0.30347,-0.0516 0.23624,-4.4771 -0.0709,-4.66692 -0.33142,-0.20483 -32.459291,-0.18098 -37.036908,0.0275 -1.81901,0.0828 -10.593953,0.17074 -19.499873,0.19532 -12.600003,0.0348 -16.266345,0.11849 -16.525047,0.37725 -0.465439,0.46555 -0.395544,4.28843 0.08408,4.59884 0.31064,0.20104 14.285193,0.15845 60.150218,-0.18335 z m -64.778273,-1.78239 c 1.334239,-0.0304 2.513181,-0.14277 2.619874,-0.24976 0.201557,-0.20212 0.248682,-3.06589 0.05366,-3.26091 -0.06101,-0.061 -1.709583,0.0135 -3.663504,0.16553 -1.95392,0.15204 -4.266958,0.2493 -5.140083,0.21612 -1.664761,-0.0633 -7.706282,0.21776 -9.532623,0.44341 -1.239037,0.1531 -2.593191,1.18806 -2.459917,1.88009 0.05004,0.25983 0.38758,0.63239 0.750093,0.82792 0.658701,0.35528 0.790467,0.35511 17.372503,-0.0224 z M 294.78636,219.853 c 0.43471,-0.85211 0.94221,-3.20121 0.94221,-4.36122 0,-1.85173 -0.99904,-3.31528 -1.41777,-2.07698 -1.02706,3.03723 -1.22082,3.83472 -1.22418,5.03826 -0.006,2.01809 0.97314,2.82422 1.69974,1.39994 z m -3.57275,-0.33739 c 0.57206,-0.35727 0.98163,-2.01352 1.23055,-4.97633 0.18021,-2.14471 0.24509,-2.72734 0.47133,-4.23333 0.0987,-0.65671 0.47329,-4.28859 0.57309,-5.55625 0.0286,-0.3638 -0.0626,-0.88371 -0.2027,-1.15535 -0.21458,-0.41591 -0.30969,-0.4368 -0.60245,-0.13229 -0.19122,0.19888 -0.40294,0.79554 -0.47051,1.32592 -0.0675,0.53038 -0.18537,1.06616 -0.26176,1.19062 -0.0764,0.12447 -0.20843,0.88115 -0.29337,1.68152 -0.16637,1.56771 -0.78128,5.90839 -1.24653,8.79948 -0.28268,1.7566 -0.83555,2.5776 -1.7358,2.5776 -0.17642,0 -0.65595,0.13577 -1.0656,0.30171 l -0.74483,0.30171 0.66145,0.21373 c 0.81265,0.26259 3.05396,0.0567 3.68713,-0.33874 z m -131.56016,-0.30476 c 0.13863,-0.23294 1.3393,-0.47577 3.48234,-0.7043 2.66455,-0.28415 3.36361,-0.44847 3.77177,-0.88657 0.27556,-0.29578 0.40806,-0.63073 0.29444,-0.74435 -0.11361,-0.11362 -1.85465,-0.11916 -3.86897,-0.0123 -3.34145,0.17722 -7.43144,0.0347 -8.75967,-0.30532 -2.32805,-0.59591 -3.7514,-1.34567 -4.92029,-2.59179 -0.52335,-0.55792 -1.19804,-1.01441 -1.49931,-1.01441 -0.30127,0 -0.59701,-0.14776 -0.65721,-0.32836 -0.0796,-0.2388 -0.22996,-0.20787 -0.55122,0.11339 -0.73233,0.73233 -0.52521,1.79616 0.4174,2.14392 0.25426,0.0938 0.72016,0.70132 1.03533,1.35004 0.50804,1.0457 0.75572,1.2465 2.18355,1.77027 3.66666,1.34503 8.59982,2.00292 9.07184,1.20981 z m 14.55875,-0.8209 c 0.61491,-0.57018 1.19747,-2.79233 0.73204,-2.79233 -0.11221,0 -0.80635,0.37061 -1.54253,0.82359 -0.73619,0.45298 -1.9051,0.99186 -2.59759,1.1975 -1.37049,0.407 -1.6785,0.69257 -1.43404,1.32963 0.2557,0.66633 3.98513,0.23626 4.84212,-0.55839 z m 5.04647,0.16747 c 0.83843,-0.64515 0.53735,-1.48354 -0.44565,-1.24097 -0.93332,0.23031 -1.09875,0.43421 -0.9168,1.13 0.18528,0.70852 0.54754,0.73802 1.36245,0.11097 z m 107.17903,-0.0548 c 1.07466,-0.13951 2.11561,-0.38783 2.3132,-0.55182 0.34036,-0.28247 0.81634,-1.69379 1.06132,-3.14695 0.14288,-0.84753 0.5729,-3.14969 0.71662,-3.83646 0.0952,-0.45473 0.48297,-2.90426 0.58643,-3.70417 0.0188,-0.14552 0.10885,-0.44318 0.20005,-0.66146 0.29932,-0.71646 0.63203,-2.53609 0.60415,-3.30417 -0.0502,-1.38305 -0.73832,-1.06743 -1.07395,0.49262 -0.0353,0.1639 -0.13099,0.47661 -0.21275,0.69489 -0.0817,0.21828 -0.52641,1.64703 -0.98816,3.175 -0.46173,1.52797 -0.96364,3.03651 -1.11535,3.35231 -0.32198,0.67024 -1.13763,0.53118 -0.85231,-0.14531 0.42074,-0.99756 2.71563,-7.90476 2.87296,-8.64703 0.12705,-0.59946 0.0479,-0.92176 -0.30457,-1.24075 -0.45116,-0.40831 -0.52228,-0.31023 -1.35448,1.86815 -0.48307,1.2645 -0.97745,2.53721 -1.0986,2.82825 -0.12118,0.29104 -0.5483,1.48167 -0.94917,2.64583 -0.40089,1.16417 -0.80901,2.23573 -0.90696,2.38125 -0.0979,0.14553 -0.44215,1.09803 -0.76491,2.11667 -0.91787,2.89677 -0.86598,2.8613 -3.912,2.67554 -7.8109,-0.47633 -12.96181,-1.23512 -18.73586,-2.76001 -1.16417,-0.30745 -2.9501,-0.75 -3.96875,-0.98344 -1.01864,-0.23344 -2.38786,-0.59128 -3.04271,-0.7952 -0.65484,-0.20392 -2.08359,-0.62011 -3.175,-0.92487 -1.0914,-0.30476 -3.35359,-1.08396 -5.02708,-1.73156 -1.67349,-0.6476 -3.1237,-1.17555 -3.22269,-1.17322 -0.099,0.002 -0.95168,-0.35297 -1.89487,-0.78953 -0.9432,-0.43656 -1.85625,-0.79375 -2.029,-0.79375 -0.17275,0 -0.68927,-0.16436 -1.14783,-0.36524 -0.45855,-0.20088 -1.48858,-0.62398 -2.28894,-0.94022 -0.80037,-0.31623 -1.69334,-0.68188 -1.98438,-0.81254 -0.87408,-0.3924 -4.44096,-1.61805 -5.29007,-1.81776 -0.45714,-0.10753 -0.83103,-0.38819 -0.88408,-0.66367 -0.0775,-0.4023 0.0497,-0.45826 0.80892,-0.35594 0.49547,0.0668 1.13143,0.23878 1.41325,0.38225 0.28182,0.14346 2.00068,0.7626 3.81969,1.37586 1.81901,0.61326 3.54542,1.22006 3.83646,1.34843 0.4734,0.2088 1.60126,0.65665 6.08541,2.41636 0.72761,0.28554 1.56105,0.6265 1.85209,0.7577 1.07203,0.48327 2.67431,1.10525 3.70416,1.43789 0.58209,0.18801 1.83224,0.59276 2.77813,0.89944 1.82727,0.59244 6.3075,1.78796 8.06979,2.15338 0.58208,0.12069 1.9513,0.39707 3.04271,0.61418 4.00624,0.79694 5.02708,1.05613 5.02708,1.27636 0,0.1238 0.26789,0.21718 0.59531,0.20752 0.32743,-0.01 1.60735,0.11818 2.84428,0.28409 1.23692,0.16592 3.02286,0.36638 3.96875,0.44549 0.94588,0.0791 1.83885,0.22159 1.98437,0.31665 0.4183,0.27325 5.15938,0.03 5.15938,-0.26471 0,-0.14452 0.28125,-0.88021 0.62499,-1.63487 0.34378,-0.75466 0.71552,-1.66976 0.82614,-2.03357 0.11062,-0.3638 0.28622,-0.78052 0.39023,-0.92604 0.10401,-0.14552 0.4708,-1.03849 0.81505,-1.98437 0.34428,-0.94589 0.77968,-2.01745 0.96753,-2.38125 0.18785,-0.36381 0.34229,-0.86352 0.34316,-1.11048 0,-0.24696 0.30134,-1.01268 0.66765,-1.70159 0.90028,-1.6932 1.12694,-3.1379 0.52835,-3.3676 -0.57121,-0.2192 -0.92998,0.002 -0.92903,0.57289 0,0.24607 -0.23172,0.92365 -0.51586,1.50573 -0.85548,1.75263 -1.60155,3.46225 -1.60155,3.66993 0,0.10756 -0.22458,0.69505 -0.49903,1.30553 -1.10244,2.45206 -1.56739,3.54764 -2.01337,4.74423 -0.25689,0.68916 -0.63344,1.39111 -0.83683,1.5599 -0.41851,0.34735 -5.30802,0.159 -8.26901,-0.31854 -5.06205,-0.81639 -6.86902,-1.13078 -7.82863,-1.36212 -0.58209,-0.14032 -1.44639,-0.31681 -1.92068,-0.3922 -0.4743,-0.0754 -0.92781,-0.24298 -1.00781,-0.37242 -0.08,-0.12944 -0.41296,-0.23535 -0.73992,-0.23535 -0.32696,0 -1.3022,-0.22409 -2.1672,-0.49797 -0.865,-0.27389 -2.10851,-0.64917 -2.76335,-0.83395 -2.0311,-0.57313 -7.97623,-2.66313 -9.39271,-3.302 -0.43656,-0.19689 -1.54155,-0.62132 -2.45552,-0.94316 -0.91398,-0.32184 -1.72468,-0.68694 -1.80155,-0.81133 -0.0769,-0.1244 -0.31788,-0.22617 -0.53554,-0.22617 -0.21767,0 -2.26447,-0.87694 -4.54845,-1.94875 -3.7099,-1.74095 -4.91216,-2.28323 -5.34331,-2.4101 -0.0728,-0.0214 -0.59332,-0.24005 -1.15679,-0.48587 -0.56348,-0.24582 -1.12855,-0.44695 -1.25572,-0.44695 -0.12717,0 -0.9163,-0.22285 -1.75363,-0.49522 -2.46436,-0.80164 -4.29659,-1.29741 -6.54949,-1.7722 -1.16416,-0.24535 -2.35479,-0.53606 -2.64583,-0.64604 -1.08676,-0.41064 -7.2474,-1.08612 -10.12031,-1.10963 -1.63711,-0.0134 -2.97657,-0.11155 -2.97657,-0.21812 0,-0.34893 4.849,-0.54173 6.87917,-0.27352 3.26209,0.43096 5.31572,0.75539 7.34219,1.15992 1.05502,0.21061 1.91823,0.31341 1.91823,0.22845 0,-0.085 0.14287,-0.0116 0.3175,0.16303 0.17462,0.17462 0.55111,0.3175 0.83664,0.3175 0.28553,0 1.12492,0.17519 1.86531,0.38931 0.7404,0.21411 2.23914,0.64653 3.33055,0.96091 1.0914,0.31439 2.10343,0.64339 2.24896,0.73112 0.14552,0.0877 0.32411,0.16642 0.39687,0.17485 0.38987,0.0452 2.35573,0.78056 3.04271,1.13819 0.43656,0.22726 0.91281,0.43589 1.05833,0.46362 0.14552,0.0277 0.91943,0.3485 1.71979,0.71282 0.80037,0.36432 2.11006,0.9227 2.91042,1.24085 0.80036,0.31815 1.8124,0.74403 2.24896,0.9464 0.43656,0.20238 1.44859,0.61335 2.24896,0.91328 0.80036,0.29993 1.69333,0.64882 1.98437,0.77531 1.20495,0.52368 3.43958,1.41052 3.69467,1.46629 0.15075,0.0329 0.60925,0.19726 1.01891,0.36514 0.40965,0.16788 0.89186,0.30524 1.07156,0.30524 0.1797,0 0.43985,0.10185 0.57809,0.22634 0.27408,0.2468 2.78861,1.05353 4.61698,1.48126 0.0728,0.017 0.40018,0.17974 0.7276,0.36161 0.32743,0.18186 0.59532,0.27222 0.59532,0.2008 0,-0.0714 0.50601,0.0507 1.12447,0.27143 0.61847,0.22071 1.60073,0.50185 2.18282,0.62474 0.58208,0.1229 1.74549,0.41244 2.58535,0.64342 0.83986,0.23098 1.61376,0.40191 1.71979,0.37984 0.10602,-0.0221 0.37137,0.0236 0.58965,0.10137 0.55149,0.19661 5.28454,0.90583 9.525,1.42727 0.3638,0.0447 1.4427,0.16019 2.39756,0.25656 l 1.7361,0.17523 0.8417,-1.88239 c 0.46291,-1.03531 0.99057,-2.3595 1.17258,-2.94264 0.182,-0.58314 0.42097,-1.06025 0.53107,-1.06025 0.11009,0 0.20016,-0.2311 0.20016,-0.51355 0,-0.28246 0.12943,-0.59355 0.28762,-0.69133 0.51028,-0.31535 -0.17359,-0.68591 -0.92006,-0.49856 -0.58274,0.14626 -1.68397,1.51161 -1.42502,1.76681 0.0384,0.0379 -0.33239,0.99165 -0.82412,2.11944 -0.87883,2.01563 -0.91032,2.05049 -1.85051,2.04852 -0.52605,-0.001 -1.67083,-0.11171 -2.54396,-0.2458 -0.87312,-0.13409 -2.24234,-0.31418 -3.0427,-0.4002 -0.80037,-0.086 -2.11006,-0.26071 -2.91042,-0.38821 -0.80037,-0.1275 -1.53628,-0.1827 -1.63536,-0.12266 -0.0991,0.06 -0.25495,-0.0118 -0.34635,-0.15973 -0.0914,-0.1479 -0.45549,-0.2689 -0.80908,-0.2689 -0.5609,0 -1.73883,-0.27366 -5.67588,-1.31865 -1.92097,-0.50987 -11.29877,-3.52103 -12.55821,-4.03237 -0.72239,-0.2933 -1.43676,-0.56054 -1.5875,-0.59387 -0.43481,-0.0961 -1.21036,-0.41616 -2.98676,-1.23243 -0.9099,-0.4181 -1.76345,-0.76018 -1.89679,-0.76018 -0.13334,0 -0.57951,-0.16758 -0.99148,-0.3724 -0.80335,-0.3994 -0.85197,-0.42012 -4.45322,-1.89803 -1.30968,-0.53748 -2.97656,-1.24351 -3.70416,-1.56895 -0.72761,-0.32545 -1.79917,-0.74145 -2.38125,-0.92446 -0.58208,-0.183 -1.1774,-0.40457 -1.32292,-0.49237 -0.14552,-0.0878 -0.32411,-0.16635 -0.39687,-0.17455 -0.29378,-0.0331 -3.07825,-0.97379 -3.57188,-1.2067 -1.11099,-0.52419 -5.93851,-1.83983 -7.40833,-2.01899 -0.58208,-0.071 -1.17144,-0.23587 -1.30969,-0.36648 -0.13824,-0.13062 -0.63647,-0.23749 -1.10718,-0.23749 -0.47071,0 -1.72682,-0.19387 -2.79135,-0.43082 -2.92897,-0.65196 -14.45983,-0.66195 -18.07511,-0.0157 -4.81514,0.86078 -6.86701,1.2868 -7.9375,1.64803 -0.58209,0.19642 -1.53459,0.43546 -2.11667,0.53121 -1.92637,0.31685 -6.26438,1.99661 -10.29693,3.98717 -2.21488,1.09331 -2.53536,1.34428 -2.53536,1.9854 0,0.78254 0.96971,0.61403 3.31229,-0.57558 3.51668,-1.78587 7.86919,-3.5045 9.95817,-3.9321 0.63213,-0.12939 2.0423,-0.49216 3.1337,-0.80615 1.09141,-0.31399 2.69875,-0.67226 3.57188,-0.79616 0.87312,-0.12389 2.21472,-0.35225 2.98132,-0.50747 0.7666,-0.15521 2.79067,-0.351 4.49792,-0.43508 1.70725,-0.0841 3.34321,-0.20087 3.63546,-0.25952 0.29225,-0.0587 0.70897,0.006 0.92604,0.14288 0.32306,0.20424 0.29735,0.25025 -0.1417,0.25357 -2.65965,0.0201 -6.25046,0.28389 -7.0025,0.51444 -0.50836,0.15585 -1.35853,0.28336 -1.88926,0.28336 -0.97808,0 -4.50038,0.84535 -7.63749,1.83299 -0.94588,0.29779 -1.89838,0.5458 -2.11666,0.55113 -0.21829,0.005 -1.11125,0.31061 -1.98438,0.6784 -0.87312,0.36779 -1.79046,0.71427 -2.03852,0.76997 -0.43685,0.0981 -7.08518,3.36173 -8.40229,4.12466 -0.88378,0.51193 -1.33315,0.94486 -1.33315,1.28437 0,0.48903 0.80327,0.31277 2.48081,-0.54437 3.87049,-1.97762 10.02324,-4.28819 12.29641,-4.61772 0.67654,-0.0981 1.44635,-0.29059 1.71069,-0.42781 0.26434,-0.13722 1.09778,-0.36646 1.85208,-0.50942 3.52063,-0.66727 5.20793,-0.93905 5.20793,-0.83887 0,0.06 0.14883,0.0136 0.33073,-0.10315 0.37744,-0.24227 0.45383,-0.25132 4.03489,-0.47778 3.24429,-0.20517 2.93237,0.28075 -0.35627,0.55502 -1.1865,0.0989 -2.15727,0.25234 -2.15727,0.34088 0,0.0885 -0.32742,0.17843 -0.7276,0.19976 -1.14305,0.0609 -3.44819,0.52553 -5.75469,1.15981 -1.16417,0.32015 -2.47385,0.66912 -2.91042,0.7755 -1.0775,0.26256 -4.52119,1.44666 -5.82083,2.00147 -1.53103,0.65359 -2.3667,0.96111 -2.48396,0.91407 -0.0565,-0.0226 -0.18747,0.096 -0.29107,0.26357 -0.1036,0.16763 -0.35504,0.33527 -0.55875,0.37253 -0.20371,0.0373 -1.14429,0.4563 -2.09018,0.9312 -3.60732,1.81112 -4.29628,2.3862 -3.31147,2.76411 0.39195,0.1504 1.77358,-0.46008 2.4584,-1.08626 0.19894,-0.18191 0.50203,-0.33123 0.67353,-0.33184 0.17151,-5.3e-4 0.86238,-0.28046 1.53528,-0.62188 1.11861,-0.56759 2.0586,-0.93522 2.7453,-1.07369 0.14552,-0.0294 0.44318,-0.12325 0.66146,-0.20866 0.21828,-0.0854 1.23031,-0.40821 2.24896,-0.71731 1.01865,-0.30911 2.24837,-0.68998 2.73273,-0.84639 0.48435,-0.15641 1.79404,-0.4402 2.91041,-0.63065 1.11638,-0.19044 2.68462,-0.46841 3.48498,-0.61771 0.80037,-0.1493 2.64584,-0.4016 4.10105,-0.56067 1.4552,-0.15907 3.09231,-0.36185 3.63802,-0.45062 0.57289,-0.0932 0.99218,-0.0534 0.99218,0.0941 0,0.22132 -1.40377,0.53815 -4.36562,0.98531 -5.01586,0.75726 -10.8022,2.24464 -13.53374,3.47884 -0.45855,0.20719 -0.96425,0.37671 -1.12377,0.37671 -0.15952,0 -1.04602,0.35718 -1.97001,0.79375 -0.92399,0.43656 -1.74325,0.79375 -1.82059,0.79375 -0.0773,0 -1.10924,0.53578 -2.29311,1.19062 -1.18387,0.65485 -2.27842,1.19063 -2.43235,1.19063 -0.15392,0 -0.4661,0.18624 -0.69374,0.41388 -0.3036,0.3036 -0.33552,0.49225 -0.1198,0.70797 0.27925,0.27924 1.4556,-0.16893 4.05189,-1.54373 0.38626,-0.20453 0.95678,-0.37187 1.26784,-0.37187 0.31105,0 0.82114,-0.23813 1.13354,-0.52917 0.3124,-0.29104 0.70361,-0.52917 0.86936,-0.52917 0.16576,0 1.06604,-0.31144 2.00063,-0.69209 2.8111,-1.14492 8.50522,-2.48291 10.56664,-2.48291 0.5628,0 1.09063,-0.10898 1.17294,-0.24217 0.0823,-0.1332 1.01208,-0.31003 2.06614,-0.39297 1.05405,-0.0829 2.7499,-0.22836 3.76855,-0.32315 2.90009,-0.26988 5.53106,-0.31057 5.82083,-0.09 0.14552,0.11076 1.77278,0.24311 3.61613,0.29412 3.12394,0.0865 3.99204,0.24568 3.5809,0.65683 -0.092,0.092 -1.61961,0.18126 -3.39475,0.19844 -4.65792,0.0451 -4.46518,0.91013 0.29876,1.3409 0.94589,0.0855 2.43417,0.23858 3.30729,0.34011 0.87313,0.10153 1.70656,0.19173 1.85209,0.20044 0.14552,0.009 0.38364,0.0885 0.52916,0.17718 0.22123,0.1349 3.10951,0.54451 3.76734,0.53427 0.11078,-0.002 0.35024,0.12038 0.53214,0.27135 0.1819,0.15096 0.33073,0.216 0.33073,0.14452 0,-0.0715 0.68461,0.0378 1.52135,0.24289 0.83675,0.20507 1.80585,0.4329 2.15356,0.5063 0.34772,0.0734 1.04687,0.30671 1.55367,0.51846 0.5068,0.21176 1.10929,0.38501 1.33885,0.38501 0.42546,0 4.29701,1.34357 5.7357,1.99049 0.95636,0.43004 0.36103,0.50116 -0.92779,0.11083 -0.50837,-0.15396 -1.22195,-0.33955 -1.58576,-0.41243 -0.3638,-0.0729 -1.00717,-0.3041 -1.42971,-0.51382 -0.42254,-0.20973 -0.96688,-0.38132 -1.20964,-0.38132 -0.24276,0 -0.96861,-0.16558 -1.61299,-0.36795 -2.31693,-0.72765 -8.47709,-1.80529 -13.07786,-2.28781 -2.85169,-0.29908 -9.76041,-0.36031 -10.92699,-0.0968 -1.9736,0.44572 -2.69372,1.14155 -1.70687,1.6493 0.25466,0.13102 2.43809,0.30815 4.85207,0.3936 8.76089,0.31015 19.55996,1.78522 25.50887,3.48431 0.7276,0.20781 3.10885,0.86277 5.29167,1.45545 2.18281,0.59268 4.20687,1.1903 4.49791,1.32804 0.72654,0.34385 4.48165,1.34305 6.04588,1.60876 0.70585,0.1199 1.65835,0.33544 2.11666,0.47898 0.45831,0.14354 1.66673,0.34187 2.68538,0.44075 1.01864,0.0989 1.97114,0.26991 2.11666,0.38008 0.14553,0.11017 1.09803,0.28692 2.11667,0.39278 1.01865,0.10585 2.09021,0.25193 2.38125,0.32461 0.29104,0.0727 1.42214,0.23696 2.51354,0.36507 1.09141,0.12811 2.2225,0.29922 2.51354,0.38025 0.29105,0.081 1.48167,0.20887 2.64584,0.2841 1.16416,0.0752 2.83104,0.25064 3.70416,0.38982 0.87313,0.13917 3.31391,0.3269 5.42396,0.41718 2.11005,0.0903 3.88607,0.20744 3.9467,0.26037 0.22277,0.19447 5.23998,0.0723 7.13535,-0.17374 z m -10.60577,-1.19402 c -0.0776,-0.0776 -1.02046,-0.18909 -2.09526,-0.24775 -1.0748,-0.0587 -2.13249,-0.16398 -2.35041,-0.23401 -0.21793,-0.07 -0.93201,-0.20157 -1.58686,-0.29229 -5.60015,-0.77586 -8.32577,-1.23757 -11.59407,-1.964 -1.35627,-0.30145 -2.54689,-0.53197 -2.64583,-0.51227 -0.0989,0.0197 -0.35848,-0.0308 -0.57676,-0.11215 -1.20143,-0.44796 -4.39421,-1.37082 -4.56407,-1.31923 -0.10914,0.0332 -0.19843,-0.0588 -0.19843,-0.2043 0,-0.14552 -0.23563,-0.26459 -0.52361,-0.26459 -0.57464,0 -3.83384,-0.96063 -4.56603,-1.34581 -0.25269,-0.13293 -0.60988,-0.24242 -0.79375,-0.24332 -0.18388,-7.9e-4 -0.64899,-0.16581 -1.03359,-0.36648 -0.3846,-0.20067 -1.45616,-0.62012 -2.38125,-0.93212 -0.92509,-0.312 -1.92011,-0.6755 -2.21115,-0.80778 -2.1846,-0.99288 -5.1906,-2.14932 -7.54062,-2.90094 -1.52797,-0.4887 -3.4925,-1.15224 -4.36563,-1.47453 -0.87312,-0.3223 -2.71859,-0.79089 -4.10104,-1.04131 -4.50546,-0.81615 -6.35,-1.25505 -6.35,-1.51096 0,-0.14318 0.59784,-0.19604 1.38906,-0.12282 0.76399,0.0707 1.38907,0.14878 1.38907,0.1735 0,0.0247 0.89296,0.20316 1.98437,0.39653 2.92189,0.51771 4.212,0.81588 5.68854,1.31471 0.72761,0.2458 1.56852,0.48176 1.86869,0.52435 0.74436,0.1056 4.65627,1.39151 6.59798,2.16887 1.66444,0.66635 1.83761,0.73703 3.96875,1.61987 0.7276,0.30142 2.03729,0.79628 2.91041,1.09971 0.87313,0.30342 1.82563,0.66504 2.11667,0.80361 0.85786,0.40843 4.57005,1.56539 7.27604,2.26769 2.45067,0.63604 4.75603,1.31479 5.55625,1.63588 0.21828,0.0876 1.23032,0.30235 2.24896,0.47725 1.01865,0.17491 2.56646,0.4482 3.43958,0.60732 0.87313,0.15911 1.85233,0.32892 2.176,0.37733 0.32367,0.0484 0.67094,0.17048 0.7717,0.27124 0.10076,0.10077 0.79836,0.18321 1.55022,0.18321 0.75186,0 1.45578,0.0893 1.56427,0.19844 0.2949,0.29666 6.58547,0.84598 11.46641,1.0013 3.60928,0.11485 4.43068,0.0689 5.11712,-0.28602 0.44971,-0.23256 0.98552,-0.35843 1.19068,-0.27971 0.60515,0.23223 0.42695,0.94607 -0.3057,1.22462 -0.69607,0.26465 -10.23266,0.37101 -10.48671,0.11696 z m -50.29304,-16.87463 c -1.00864,-0.39802 -0.85335,-1.1408 0.2123,-1.01549 1.02963,0.12107 1.18571,0.23282 1.18571,0.8489 0,0.56662 -0.29518,0.6018 -1.39801,0.16659 z m -2.94159,-0.64125 c -0.11132,-0.11133 -0.28179,-0.2065 -0.3788,-0.21148 -0.097,-0.005 -1.18842,-0.21035 -2.42535,-0.45636 -4.63029,-0.92092 -7.72431,-1.27878 -11.3556,-1.31342 -2.52456,-0.0241 -3.7079,-0.12765 -3.64493,-0.31903 0.0513,-0.15586 0.79824,-0.35615 1.65991,-0.4451 1.69818,-0.1753 9.45389,0.14996 9.8818,0.41442 0.14423,0.0891 1.01123,0.26492 1.92667,0.39063 3.09759,0.42537 4.97176,0.86711 4.96769,1.17088 -0.007,0.49282 -0.41289,0.98795 -0.63139,0.76946 z m -129.539561,17.7863 c 11.714421,-0.0914 21.503201,-0.22416 21.752821,-0.29499 0.39665,-0.11255 0.35466,-0.26574 -0.33299,-1.21501 -1.33019,-1.83628 -1.33169,-1.8367 -6.35542,-1.76511 -2.47919,0.0353 -4.57177,0.16805 -4.65019,0.29493 -0.0784,0.12689 -0.28081,0.13562 -0.44976,0.0194 -0.36958,-0.25421 -9.606602,-0.24839 -26.765502,0.0169 -13.326023,0.20601 -17.024721,0.23909 -17.4625,0.15617 -0.145521,-0.0276 -0.341987,-0.04 -0.436594,-0.0276 -0.0946,0.0124 -1.791245,0.0375 -3.770313,0.0559 -1.979064,0.0184 -3.598301,0.13288 -3.598301,0.25449 0,0.12162 -0.148828,0.38063 -0.330729,0.57559 -0.181901,0.19496 -0.544867,0.73764 -0.806593,1.20594 l -0.475861,0.85147 8.810235,0.0734 c 4.845633,0.0404 9.881802,0.049 11.191489,0.0191 1.309688,-0.0299 11.965781,-0.12914 23.680208,-0.22056 z m -53.398585,-0.65559 c 3.271218,-0.002 4.229536,-0.0842 4.532563,-0.38719 0.211352,-0.21135 0.457983,-0.31057 0.548066,-0.22049 0.09008,0.0901 0.16379,0.0431 0.16379,-0.1044 0,-0.14751 0.24868,-0.55431 0.55262,-0.904 l 0.552619,-0.6358 -2.184149,-0.0776 c -1.201281,-0.0427 -2.372694,-6e-5 -2.60314,0.0947 -0.413805,0.17009 -0.979746,0.20889 -4.696891,0.32203 -1.843726,0.0561 -1.912017,0.0826 -2.447395,0.94885 -0.748127,1.2105 -0.705254,1.32032 0.441441,1.13079 0.545703,-0.0902 2.858917,-0.16531 5.140476,-0.16691 z m 202.725466,-0.38362 c -0.14136,-0.36838 -1.26403,-0.76212 -2.35084,-0.82448 -0.29104,-0.0167 -0.70776,-0.099 -0.92604,-0.1828 -0.76543,-0.294 -4.80533,-1.17214 -6.61459,-1.43779 -0.50932,-0.0748 -1.57613,-0.30301 -2.37069,-0.50718 -0.79456,-0.20417 -1.7698,-0.37121 -2.1672,-0.37121 -0.3974,0 -0.78952,-0.10838 -0.87139,-0.24084 -0.25372,-0.41053 -6.84342,-1.31796 -12.51343,-1.72316 -0.90797,-0.0649 -1.74635,-0.177 -1.86308,-0.24914 -0.52081,-0.32188 -18.10507,-0.66323 -20.63842,-0.40064 -1.95553,0.20269 -1.34693,-0.23978 1.03163,-0.75002 1.49815,-0.32139 3.68247,-0.42543 9.36238,-0.44593 4.07458,-0.0147 8.3013,0.0689 9.3927,0.18579 1.09141,0.11688 3.05594,0.31194 4.36563,0.43345 1.30969,0.12151 3.51234,0.42196 4.89479,0.66766 1.38245,0.2457 2.8112,0.49505 3.175,0.55413 3.65346,0.5932 6.94947,1.34821 8.16005,1.86921 0.90484,0.38941 1.74501,0.60707 6.12745,1.58738 2.29405,0.51315 5.30163,1.09016 7.40833,1.42128 0.94589,0.14867 2.02607,0.39405 2.40042,0.54529 0.85408,0.34506 2.94655,0.21609 3.0819,-0.18996 0.12537,-0.37609 -1.17786,-0.80288 -3.10107,-1.01555 -0.80036,-0.0885 -1.83019,-0.27882 -2.2885,-0.42292 -0.45831,-0.14411 -1.41081,-0.36886 -2.11666,-0.49946 -2.17053,-0.40159 -4.68139,-1.06606 -5.5567,-1.4705 -0.45855,-0.21188 -1.00426,-0.38524 -1.21267,-0.38524 -0.20842,0 -0.46138,-0.0824 -0.56215,-0.18321 -0.10076,-0.10076 -0.44802,-0.22284 -0.7717,-0.27128 -0.84732,-0.12681 -3.67063,-0.87858 -4.29266,-1.14301 -0.29104,-0.12372 -1.15411,-0.3023 -1.91793,-0.39684 -0.76382,-0.0945 -1.45546,-0.27981 -1.53697,-0.4117 -0.0815,-0.13189 -0.60967,-0.23979 -1.1737,-0.23979 -0.56402,0 -1.30113,-0.1046 -1.63803,-0.23245 -0.33689,-0.12785 -1.32691,-0.30902 -2.20003,-0.4026 -0.87313,-0.0936 -2.89719,-0.33749 -4.49792,-0.54201 -4.09555,-0.52327 -8.53471,-0.96644 -9.92847,-0.99117 -7.9306,-0.14073 -13.03856,0.0384 -15.20695,0.5332 -1.70077,0.38812 -1.84445,0.43418 -1.99873,0.6408 -0.0807,0.10802 -0.7355,0.26631 -1.45521,0.35175 -1.39493,0.16559 -1.66471,0.24968 -3.62366,1.12949 -0.81058,0.36405 -1.25678,0.73005 -1.25681,1.0309 -4e-5,0.43755 0.64368,0.46679 10.38489,0.47173 10.16113,0.005 12.19466,0.1328 16.58998,1.04145 0.35684,0.0738 1.90465,0.20447 3.43959,0.29045 1.53493,0.086 3.14797,0.2036 3.58454,0.26138 3.57697,0.47343 5.26552,0.7121 6.74687,0.95365 0.94589,0.15423 3.32714,0.50152 5.29167,0.77174 1.96453,0.27022 4.7625,0.71755 6.2177,0.99405 3.41815,0.64949 5.19746,0.71931 4.99668,0.1961 z m -63.42375,-0.3048 c 0.0888,-0.23151 -0.0275,-0.81736 -0.25858,-1.30189 -0.44252,-0.92799 -0.88184,-0.98999 -1.86348,-0.263 -0.47285,0.35018 -0.47314,0.38831 -0.009,1.17387 0.35466,0.60041 0.67372,0.81194 1.22463,0.81194 0.43707,0 0.81177,-0.17398 0.90653,-0.42092 z m 104.39843,-1.07723 c -0.1819,-0.0734 -0.47956,-0.0734 -0.66146,0 -0.1819,0.0734 -0.0331,0.13346 0.33073,0.13346 0.3638,0 0.51263,-0.0601 0.33073,-0.13346 z m -117.7044,-0.47143 c 0.45359,-0.0472 1.00331,-0.1503 1.22159,-0.22903 0.21828,-0.0787 0.95965,-0.21844 1.64748,-0.31047 0.68783,-0.092 1.32816,-0.29282 1.42296,-0.4462 0.25847,-0.41822 -0.43413,-0.73217 -1.07647,-0.48795 -0.31005,0.11788 -2.10593,0.29521 -3.99083,0.39406 -4.86418,0.25509 -8.2574,-0.52427 -8.7272,-2.00449 -0.23912,-0.75339 -1.57641,-1.33728 -2.85071,-1.24468 -1.36166,0.0989 -1.49449,0.70487 -0.2725,1.24307 0.74883,0.3298 0.82229,0.45993 0.69668,1.23398 -0.12315,0.75891 -0.0424,0.916 0.65694,1.27763 1.43117,0.74009 6.96944,1.02215 11.27206,0.57408 z M 41.728574,214.02711 c 0.800364,-0.15344 2.110051,-0.29056 2.910416,-0.30472 0.800365,-0.0141 1.890498,-0.22309 2.42252,-0.46432 1.817684,-0.82418 2.546477,-3.69383 0.959442,-3.77786 -1.657313,-0.0877 -5.561139,0.31352 -5.938732,0.61043 -0.339158,0.26669 -2.734896,0.21883 -2.734896,-0.0546 0,-0.0941 -0.148828,-0.17154 -0.330729,-0.17214 -0.181901,-5.3e-4 -0.761095,-0.0824 -1.287098,-0.18166 -0.729731,-0.13777 -1.100233,-0.0641 -1.563452,0.31103 -0.718027,0.58142 -0.546327,0.98639 0.621845,1.46667 l 0.839642,0.34521 -1.02476,0.19455 c -1.366258,0.25939 -2.017948,0.6985 -2.017948,1.35971 0,1.06703 0.492567,1.23558 3.175,1.08646 1.382448,-0.0769 3.168385,-0.26528 3.96875,-0.41872 z M 177.38227,212.888 c -0.0197,-0.26123 -0.36541,-0.79077 -0.7683,-1.17676 -0.70004,-0.67069 -0.75503,-0.68145 -1.23988,-0.24266 -0.51649,0.46742 -0.97294,1.60606 -0.53543,1.33566 0.13195,-0.0816 0.23991,-0.002 0.23991,0.17588 0,0.17828 0.20699,0.52066 0.45997,0.76084 0.41768,0.39655 0.52524,0.39924 1.16974,0.0294 0.39234,-0.22517 0.69377,-0.61976 0.67399,-0.88231 z m -105.421554,0.72918 c 0.838666,-0.10894 1.589834,-0.30322 1.669259,-0.43174 0.07942,-0.12851 0.37551,-0.23366 0.657963,-0.23366 0.282454,0 0.513551,-0.11906 0.513551,-0.26458 0,-0.14552 0.178594,-0.26458 0.396875,-0.26458 0.218282,0 0.396875,-0.11907 0.396875,-0.26459 0,-0.14552 0.178594,-0.26458 0.396875,-0.26458 0.218282,0 0.396875,-0.11906 0.396875,-0.26458 0,-0.14552 0.173956,-0.26459 0.386567,-0.26459 0.540427,0 1.506844,-1.09817 1.342745,-1.5258 -0.07466,-0.19457 -0.01804,-0.28102 0.125801,-0.19212 0.143854,0.0889 0.261554,0.0356 0.261554,-0.11854 0,-0.46036 -0.519163,-0.32476 -1.999573,0.52224 -2.23833,1.28064 -3.893243,1.68079 -6.863969,1.65966 -1.455208,-0.0103 -2.987738,-0.15441 -3.405621,-0.32011 -0.915016,-0.36284 -1.503693,-0.006 -1.296514,0.78653 0.175901,0.67265 0.892908,1.05544 2.717761,1.45095 1.50056,0.32522 1.727054,0.3247 4.302976,-0.01 z m -9.263914,-0.60219 c 0.657635,-0.58205 0.573863,-1.26053 -0.234119,-1.89609 -0.633299,-0.49815 -1.052476,-0.54837 -4.577459,-0.54837 -4.071852,0 -5.169817,0.23396 -5.410096,1.15279 -0.182981,0.69971 0.252068,1.6889 0.81394,1.8507 0.262927,0.0757 2.383047,0.0731 4.71138,-0.006 3.294988,-0.11164 4.335965,-0.23427 4.696354,-0.55324 z m 32.687503,-0.13301 c 0.980045,-0.48308 1.197644,-1.33875 0.54987,-2.16226 -0.531646,-0.67588 -0.548532,-0.67835 -4.628571,-0.67835 -4.340817,0 -5.451541,0.24715 -5.719733,1.27271 -0.179316,0.68571 0.574448,1.60729 1.525074,1.86462 1.165215,0.3154 7.491828,0.0885 8.27336,-0.29672 z m 14.634405,-0.006 c 0.61083,-0.46523 0.82024,-1.3351 0.51481,-2.13844 -0.25513,-0.67106 -0.34085,-0.6964 -2.35559,-0.6964 -2.46124,0 -2.80865,0.24214 -2.53348,1.76588 0.10053,0.55673 0.23371,1.10154 0.29595,1.21068 0.1863,0.32672 3.61992,0.20741 4.07831,-0.14172 z m 16.70726,0.16493 c -0.1819,-0.0734 -0.47956,-0.0734 -0.66146,0 -0.1819,0.0734 -0.0331,0.13345 0.33073,0.13345 0.3638,0 0.51263,-0.0601 0.33073,-0.13345 z m 6.54843,-0.35335 c 0.80037,0.10631 1.4949,0.0901 1.54341,-0.0359 0.0485,-0.12607 0.25686,-0.22922 0.46302,-0.22922 0.58685,0 0.43909,-0.74074 -0.21789,-1.09235 -0.88004,-0.47098 -5.57188,-0.63368 -6.90021,-0.23928 -1.89356,0.56223 -2.29666,0.777 -2.29666,1.22367 0,0.37942 0.34128,0.41992 2.77813,0.32972 1.78662,-0.0661 2.77957,-0.006 2.78217,0.16843 0.002,0.16475 0.0804,0.15551 0.19844,-0.0235 0.13049,-0.19789 0.67274,-0.23125 1.64959,-0.10151 z m 12.67365,-1.16316 c 0.52002,-0.55354 0.55117,-0.70365 0.24706,-1.19062 -0.41528,-0.66496 -0.54338,-0.6776 -1.55676,-0.15356 -0.889,0.45972 -0.96778,0.80306 -0.34273,1.49373 0.5815,0.64255 0.93866,0.61022 1.65243,-0.14955 z m 28.38208,-0.33365 c 0.70585,-0.63877 0.59975,-1.00407 -0.45625,-1.57097 l -0.94011,-0.50469 -0.50921,0.66146 c -0.65399,0.84951 -0.65337,0.8537 0.20662,1.38689 0.91321,0.5662 1.10018,0.5692 1.69895,0.0273 z m -74.32708,-0.7048 c 0.83843,-0.35307 0.99219,-0.54291 0.99219,-1.22506 0,-0.95762 0.0171,-0.95533 -1.993547,-0.26661 -0.868082,0.29735 -1.731322,0.59286 -1.918311,0.6567 -0.268859,0.0918 -0.255524,0.27939 0.06375,0.89679 0.441608,0.85398 0.694169,0.84851 2.855918,-0.0618 z m 17.79323,0.31977 c 1.16417,-0.1606 3.30729,-0.58018 4.7625,-0.93242 1.45521,-0.35223 3.00302,-0.70412 3.43958,-0.78196 4.38315,-0.78159 5.65566,-0.92823 8.0158,-0.92371 1.49828,0.003 2.83728,0.0751 2.97557,0.16061 0.13829,0.0855 0.46024,0.20616 0.71545,0.26821 0.25521,0.062 1.11886,0.27351 1.91922,0.46991 1.43038,0.35101 3.175,0.17808 3.175,-0.3147 0,-0.69459 -2.746,-1.98491 -4.89479,-2.30002 -0.58208,-0.0854 -1.52557,-0.25715 -2.09663,-0.38175 -1.56428,-0.34133 -7.50357,0.21521 -11.13253,1.04317 -5.87537,1.34048 -9.20958,1.86974 -11.77887,1.86974 -1.01595,0 -1.84718,0.068 -1.84718,0.15119 0,0.0832 0.1786,0.32979 0.39688,0.54807 0.21828,0.21828 0.39687,0.61859 0.39687,0.88957 0,0.76305 1.64871,0.82788 5.95313,0.23409 z m -45.6225,-0.13254 c 3.647747,-1.08206 7.654792,-4.06321 7.654792,-5.69498 0,-1.00437 -0.510971,-0.96987 -1.510921,0.102 -0.970778,1.0406 -1.862791,1.78594 -2.137397,1.78594 -0.111479,0 -0.497073,0.20761 -0.856871,0.46136 -1.377628,0.97156 -3.214288,1.41413 -5.835523,1.40615 -2.670561,-0.008 -3.696502,-0.25817 -5.998795,-1.46201 -0.751488,-0.39294 -1.490181,-0.6379 -1.641541,-0.54436 -0.349248,0.21585 -0.362593,1.46177 -0.01566,1.46177 0.142748,0 0.334248,0.29766 0.425558,0.66146 0.120738,0.48107 0.343329,0.66146 0.816184,0.66146 0.357593,0 0.910233,0.14146 1.228088,0.31435 0.858318,0.46687 4.125989,1.23137 5.358542,1.25367 0.59205,0.0107 1.723144,-0.17235 2.513542,-0.40681 z m 76.88664,-1.71154 c -0.33429,-0.88566 -0.56551,-0.93349 -1.72245,-0.35633 -0.9529,0.47537 -0.92647,0.41511 -0.54726,1.24739 0.2796,0.61365 0.31702,0.62038 1.42424,0.25587 1.11151,-0.36593 1.13053,-0.39173 0.84547,-1.14693 z m 22.52565,0.762 c 0.57678,-0.57678 0.32569,-1.13088 -0.7449,-1.6438 -0.58098,-0.27835 -1.11175,-0.45066 -1.1795,-0.38291 -0.0678,0.0678 -0.15658,0.52528 -0.19741,1.01673 -0.0628,0.75611 0.0275,0.92286 0.58723,1.08414 0.98514,0.28385 1.18628,0.27413 1.53458,-0.0742 z M 60.948769,209.11196 c 0.325609,-0.84852 -0.322046,-1.0755 -2.867242,-1.00486 -1.354281,0.0376 -2.73022,0.0714 -3.057642,0.0753 -0.577786,0.007 -0.84098,0.73139 -0.418922,1.15345 0.09701,0.097 1.5295,0.17639 3.183302,0.17639 2.439988,0 3.035874,-0.0755 3.160504,-0.40024 z m 91.122731,-0.30648 c 0.11671,-0.12063 0.14598,-0.55702 0.065,-0.96977 -0.13774,-0.70246 -0.20819,-0.73899 -1.1021,-0.57129 -1.28783,0.2416 -1.35587,0.30382 -1.35587,1.2399 0,0.79972 0.0178,0.81059 1.09037,0.66672 0.5997,-0.0804 1.18585,-0.24494 1.30256,-0.36556 z M 280.48777,208.267 c 0.24108,-0.50556 0.85172,-2.00978 1.35697,-3.34272 0.50525,-1.33295 1.09739,-2.76061 1.31583,-3.17258 0.21844,-0.41198 0.39717,-0.85016 0.39717,-0.97373 0,-0.12358 0.36475,-1.03666 0.81055,-2.02908 1.95879,-4.36064 2.14706,-3.86479 -1.66982,-4.3976 -1.78297,-0.24889 -3.45014,-0.47736 -3.7048,-0.50771 -0.25466,-0.0304 -0.46302,-0.14874 -0.46302,-0.26308 0,-0.11433 -0.21576,-0.20788 -0.47947,-0.20788 -0.26371,0 -0.97233,-0.23813 -1.57472,-0.52917 -0.60238,-0.29104 -1.27257,-0.52917 -1.48929,-0.52917 -0.21672,0 -0.45908,-0.10523 -0.53857,-0.23386 -0.0795,-0.12862 -0.7116,-0.49986 -1.40468,-0.82496 -1.15556,-0.54205 -3.08698,-1.70608 -4.88745,-2.94557 -0.39429,-0.27144 -0.77058,-0.49352 -0.83621,-0.49352 -0.0656,0 -0.97146,-0.48288 -2.01296,-1.07307 -2.91554,-1.65213 -8.48322,-4.3921 -9.66311,-4.75542 -0.58208,-0.17924 -1.17739,-0.416 -1.32291,-0.52614 -0.29326,-0.22194 -9.14235,-3.13919 -11.64167,-3.83786 -0.87312,-0.24408 -1.82562,-0.53579 -2.11667,-0.64825 -0.93841,-0.36263 -6.47548,-1.39746 -9.3927,-1.75542 -0.65485,-0.0804 -2.38125,-0.30803 -3.83646,-0.50594 -5.57543,-0.75826 -20.44794,-0.13398 -25.92917,1.0884 -5.77173,1.28716 -8.4363,2.05721 -11.37708,3.28792 -0.29104,0.1218 -1.21113,0.46539 -2.04464,0.76354 -0.83352,0.29814 -1.72648,0.65644 -1.98438,0.79622 -1.01567,0.5505 -4.05704,1.87435 -4.30606,1.87435 -0.14513,0 -0.26388,0.12609 -0.26388,0.2802 0,0.15411 -0.10659,0.21432 -0.23686,0.13381 -0.3402,-0.21026 -0.62451,0.68253 -0.3157,0.99135 0.29702,0.29701 1.72175,-0.18974 2.49857,-0.85362 0.26994,-0.2307 0.5384,-0.38832 0.59657,-0.35028 0.0582,0.038 0.5517,-0.12042 1.0967,-0.35214 0.54501,-0.23171 1.64577,-0.66026 2.44614,-0.95233 0.80036,-0.29206 1.83039,-0.69915 2.28894,-0.90463 0.45856,-0.20549 0.91681,-0.37361 1.01835,-0.37361 0.10154,0 0.55979,-0.16193 1.01835,-0.35983 1.25426,-0.54133 3.7114,-1.22767 4.39511,-1.22767 1.03905,0 0.16867,0.67454 -1.51402,1.17336 -1.87346,0.55538 -3.72744,1.17436 -4.42861,1.47857 -0.29104,0.12628 -1.06789,0.46498 -1.72634,0.75267 -1.291,0.56407 -2.29666,1.47596 -1.89888,1.7218 0.13514,0.0835 1.12516,-0.0321 2.20005,-0.25692 2.337,-0.48882 4.68278,-0.60607 4.78682,-0.23927 0.0413,0.14552 -1.05539,0.47611 -2.43705,0.73463 -3.14846,0.58912 -6.08397,1.52792 -6.08397,1.94569 0,0.17506 -0.14014,0.365 -0.31143,0.4221 -0.45916,0.15305 -0.003,0.73404 0.57601,0.73404 0.27387,0 0.56207,0.10376 0.64045,0.23059 0.1379,0.22312 -1.16582,0.58462 -3.98068,1.10377 -0.74572,0.13753 -1.69822,0.42861 -2.11667,0.64684 -0.41844,0.21824 -0.882,0.39752 -1.03012,0.39842 -0.52146,0.003 -2.25582,1.35631 -2.0875,1.62867 0.18286,0.29587 2.2473,0.0843 2.99101,-0.30651 0.8968,-0.47128 2.99988,-0.99014 3.49182,-0.8615 0.35049,0.0917 -0.18444,0.38707 -1.67311,0.92397 -1.20358,0.43408 -2.45621,0.85014 -2.78364,0.92458 -0.32742,0.0744 -0.59531,0.22069 -0.59531,0.325 0,0.1043 -0.16659,0.18964 -0.3702,0.18964 -0.44422,0 -5.14456,2.13829 -5.45063,2.47961 -0.0728,0.0811 -0.71872,0.48649 -1.43547,0.90078 -2.55087,1.47443 -4.27545,4.11614 -2.68712,4.11614 0.33206,0 3.58864,-1.5691 3.85801,-1.85888 0.0728,-0.0783 0.96572,-0.53821 1.98437,-1.02207 1.01865,-0.48386 2.41716,-1.16558 3.10781,-1.51494 0.69065,-0.34936 1.34549,-0.64946 1.45521,-0.66688 0.28371,-0.0451 0.85384,-0.2496 1.91927,-0.68853 1.43373,-0.59065 3.20212,-1.15428 4.36563,-1.39143 0.58208,-0.11864 1.29646,-0.27828 1.5875,-0.35477 5.72678,-1.50498 8.28689,-1.96331 14.46106,-2.58891 2.83186,-0.28695 5.59053,-0.24073 11.07123,0.1855 1.99879,0.15544 8.66751,1.52765 10.98694,2.26076 0.87683,0.27714 1.82933,0.55117 2.11667,0.60894 0.28733,0.0578 0.87962,0.24526 1.31618,0.41662 0.43656,0.17137 0.97234,0.35452 1.19062,0.407 0.55274,0.13289 3.72363,1.18982 4.36563,1.45517 1.91839,0.79289 2.83571,1.17906 6.74687,2.84027 6.85017,2.90951 11.58421,4.80258 12.43542,4.97275 0.0728,0.0146 0.4883,0.17322 0.92342,0.35261 0.89251,0.36796 10.59301,3.48421 11.24741,3.6132 1.14785,0.22624 2.111,0.3984 2.64584,0.47295 0.3638,0.0507 0.84005,0.15829 1.05833,0.23907 0.94325,0.34909 4.76933,1.01983 5.00092,0.87669 0.1398,-0.0864 0.32897,-0.0361 0.42037,0.11181 0.0914,0.1479 0.78424,0.27933 1.53964,0.29208 0.75539,0.0127 1.96876,0.11194 2.69636,0.22043 2.73184,0.40732 3.19277,0.32019 3.67691,-0.69506 z m -89.66649,-21.77355 c 0.0899,-0.14552 0.27556,-0.26458 0.41249,-0.26458 0.13693,0 0.24897,0.11906 0.24897,0.26458 0,0.14552 -0.18562,0.26458 -0.41249,0.26458 -0.22687,0 -0.33891,-0.11906 -0.24897,-0.26458 z m 6.76892,-3.79924 c 0.31172,-0.26882 1.59366,-0.42919 1.43972,-0.18011 -0.0935,0.15135 -0.48055,0.27518 -0.86002,0.27518 -0.37947,0 -0.64033,-0.0428 -0.5797,-0.0951 z m 4.54705,-5.11536 c 0.25743,-0.0671 0.61462,-0.0627 0.79375,0.01 0.17913,0.0725 -0.0315,0.12736 -0.46805,0.12197 -0.43657,-0.005 -0.58313,-0.0647 -0.3257,-0.13177 z m 4.23334,-0.52917 c 0.25743,-0.0671 0.61461,-0.0627 0.79375,0.01 0.17913,0.0725 -0.0315,0.12736 -0.46806,0.12197 -0.43656,-0.005 -0.58313,-0.0647 -0.32569,-0.13178 z m 3.70416,-0.26458 c 0.25743,-0.0671 0.61462,-0.0627 0.79375,0.01 0.17913,0.0725 -0.0315,0.12736 -0.46805,0.12197 -0.43657,-0.005 -0.58313,-0.0647 -0.3257,-0.13177 z m 3.728,1.4e-4 c 0.30038,-0.30037 1.27617,-0.37353 1.0961,-0.0822 -0.0902,0.14596 -0.41495,0.26538 -0.72166,0.26538 -0.3067,0 -0.4752,-0.0824 -0.37444,-0.18321 z M 93.96214,208.82243 c 0.465788,-0.17874 0.528566,-0.57886 0.177739,-1.13285 -0.323755,-0.51124 -5.16713,-0.72744 -6.023922,-0.2689 -0.681201,0.36457 -0.776745,0.76508 -0.296968,1.24485 0.332994,0.333 5.350319,0.46114 6.143151,0.1569 z m 14.4036,-0.075 c 0.22526,-0.14273 0.29256,-0.43697 0.18061,-0.7897 -0.15552,-0.48998 -0.38007,-0.5622 -1.74811,-0.5622 -1.46803,0 -1.56967,0.04 -1.56967,0.61736 0,0.33955 0.0794,0.69674 0.17639,0.79375 0.25492,0.25493 2.53704,0.20928 2.96078,-0.0592 z m 60.21325,-0.45116 c 0.24459,-0.97453 -0.268,-1.47331 -1.41527,-1.37714 -0.7892,0.0662 -0.96162,0.19073 -1.02558,0.74099 -0.0549,0.47206 0.0966,0.74685 0.52917,0.9597 1.08644,0.53464 1.72334,0.42685 1.91168,-0.32355 z m -69.725268,-0.46121 c 1.312138,-0.63832 1.813698,-1.5233 1.207118,-2.12988 -0.399747,-0.39974 -0.96186,-0.29595 -2.942046,0.54326 -0.458555,0.19434 -1.091655,0.35334 -1.406893,0.35334 -0.468696,0 -0.54197,0.1085 -0.40204,0.59532 0.09411,0.32742 0.232741,0.81475 0.308063,1.08296 0.113805,0.40526 0.299447,0.45717 1.09865,0.30724 0.528939,-0.0992 1.490655,-0.43774 2.137148,-0.75224 z m 20.000888,-0.22834 c 2.84038,-0.51662 5.63133,-1.07769 7.05983,-1.41927 0.82214,-0.19658 1.1871,-0.85722 0.59837,-1.08314 -0.44524,-0.17085 -6.26566,0.0408 -7.17125,0.26075 -0.31425,0.0763 -1.14769,0.21923 -1.85208,0.31755 -0.70439,0.0983 -2.11414,0.43005 -3.13278,0.73718 -1.01865,0.30713 -1.92996,0.53705 -2.02515,0.51095 -0.0952,-0.0261 -0.30932,0.11673 -0.47587,0.3174 -0.37614,0.45322 -0.0273,0.70724 1.3014,0.94757 1.08764,0.19674 1.75936,0.12729 5.69753,-0.58899 z m 35.87269,0.58256 c 0.70029,0 0.77211,-0.0829 0.77211,-0.89133 v -0.89133 l -1.12448,0.12347 c -1.39275,0.15294 -1.63628,0.37153 -1.41153,1.267 0.1236,0.49248 0.29969,0.65778 0.58435,0.54854 0.22409,-0.086 0.75488,-0.15635 1.17955,-0.15635 z m 10.14317,0.10399 c 0.44326,-0.1701 0.58978,-1.55441 0.19064,-1.80109 -0.12533,-0.0775 -0.64834,-0.19299 -1.16225,-0.25673 -0.86392,-0.10715 -0.94648,-0.0553 -1.09503,0.68746 -0.28074,1.40371 -0.21893,1.53096 0.74373,1.53096 0.49742,0 1.09273,-0.0723 1.32291,-0.1606 z M 73.453077,207.329 c 0.4953,-0.25445 1.060847,-0.46263 1.256771,-0.46263 0.195924,0 0.356225,-0.11104 0.356225,-0.24676 0,-0.13571 0.227676,-0.31901 0.505946,-0.40733 1.568001,-0.49767 4.229756,-3.61134 4.2472,-4.96831 0.0136,-1.05806 -0.558823,-0.90311 -1.477258,0.39988 -1.053672,1.49486 -3.398843,3.44277 -4.802598,3.98907 -1.529095,0.59508 -4.601945,0.57918 -6.146207,-0.0318 -0.654843,-0.25908 -1.964531,-0.87829 -2.910416,-1.37601 -2.10284,-1.1065 -2.489156,-1.14113 -2.594415,-0.23254 -0.135734,1.17167 0.816409,1.91434 4.314206,3.36507 1.715609,0.71156 5.841437,0.69527 7.250546,-0.0286 z m 71.396843,0.15158 c 0.43523,-0.41036 0.41872,-0.54791 -0.13229,-1.10169 -1.52118,-1.52883 -5.21923,-2.81927 -10.03957,-3.50332 -3.47393,-0.49298 -4.59085,-0.53463 -9.87032,-0.36812 -3.27422,0.10327 -6.25078,0.23324 -6.61459,0.28884 -2.16802,0.3313 -5.82083,0.41904 -5.82083,0.1398 0,-0.24614 2.00651,-0.47619 2.9612,-0.33951 0.10069,0.0144 0.75554,-0.10384 1.45521,-0.26279 0.69967,-0.15895 4.42729,-0.365 8.28359,-0.4579 6.72868,-0.16209 7.01146,-0.1898 7.01146,-0.68722 0,-0.79915 -1.17848,-0.93475 -8.23496,-0.94757 -6.46015,-0.0118 -8.15901,0.0698 -11.74108,0.5636 -1.09141,0.15046 -2.34156,0.31215 -2.77813,0.35932 -0.43656,0.0472 -0.88304,0.0993 -0.99218,0.11593 -0.28718,0.0437 -0.23635,2.7355 0.0605,3.20517 0.36722,0.58097 9.69233,0.65111 12.30874,0.0926 2.17139,-0.46353 10.96219,-0.36575 14.63829,0.16282 2.1035,0.30246 5.47187,1.46876 7.45442,2.58113 1.0333,0.57976 1.56081,0.62064 2.05052,0.15892 z m 13.44925,0.17954 c 0.24211,0 0.37524,-0.28701 0.37524,-0.80897 0,-0.78809 -0.029,-0.80686 -1.12448,-0.7276 -0.99672,0.0721 -1.13375,0.16149 -1.20604,0.78659 -0.0828,0.71608 0.43779,1.07687 1.22768,0.85082 0.1938,-0.0555 0.52122,-0.10084 0.7276,-0.10084 z m 3.65327,-0.15146 c 0.0878,-0.22883 0.0443,-0.63155 -0.0966,-0.89494 -0.2938,-0.54896 -1.71333,-0.845 -2.11687,-0.44146 -0.43816,0.43816 -0.31581,1.43729 0.19225,1.57005 1.02017,0.26661 1.86685,0.16873 2.02126,-0.23365 z m -74.980118,-0.89027 c 0,-0.20347 -1.723287,-1.07494 -2.125644,-1.07494 -0.140583,0 -0.255606,0.24387 -0.255606,0.54194 0,0.67532 1.536176,1.41747 2.050521,0.99064 0.181901,-0.15095 0.330729,-0.35689 0.330729,-0.45764 z m -39.370258,-0.0317 c 0.478441,-0.13721 1.243089,-0.24948 1.69922,-0.24948 1.223685,0 2.721978,-0.71604 3.062605,-1.46364 0.388157,-0.85191 0.196834,-1.00764 -0.742892,-0.60468 -0.503483,0.21589 -2.51461,0.34578 -5.89345,0.38064 -5.350461,0.0552 -5.572722,0.10428 -5.582422,1.23318 -0.004,0.46013 0.989713,1.03745 1.385011,0.80469 0.109141,-0.0643 0.198438,0.0256 0.198438,0.19961 0,0.36002 4.34582,0.13781 5.87349,-0.30032 z m 11.608871,0.40562 c 0.27676,-0.0878 0.388112,-0.37555 0.331518,-0.85668 -0.04687,-0.39845 -0.115337,-3.70102 -0.152152,-7.33905 l -0.06694,-6.61458 h -1.785728 c -0.99173,0 -1.800648,0.11765 -1.81928,0.26458 -0.180449,1.42303 -0.136525,12.92721 0.05215,13.65765 0.24317,0.94141 0.270883,0.95817 1.635527,0.98896 0.763492,0.0172 1.5757,-0.0282 1.804905,-0.10088 z m 33.638143,-7.07105 c -0.04201,-3.52899 -0.127567,-6.56518 -0.190135,-6.74708 -0.07651,-0.22244 -0.722903,-0.33073 -1.974152,-0.33073 h -1.860386 v 6.74687 6.74688 l 2.050521,2.1e-4 2.050521,2.1e-4 z m 13.652332,6.18791 c 0.27318,-0.17325 0.33454,-1.59063 0.28905,-6.67668 -0.0318,-3.55121 -0.15719,-6.7301 -0.27872,-7.06419 -0.20496,-0.56346 -0.35043,-0.60178 -2.00884,-0.52917 l -1.78787,0.0783 -0.024,3.43958 c -0.0243,3.4801 0.0205,3.73978 1.38245,8.01289 0.19874,0.62355 0.36134,1.36094 0.36134,1.63865 0,0.49615 0.91429,1.33257 1.44794,1.32462 0.14952,-0.002 0.42792,-0.10302 0.61865,-0.22398 z m -32.404453,-2.01201 c 3.216309,-1.52156 3.547954,-3.28279 0.352012,-1.86939 -1.845709,0.81626 -4.573418,0.91353 -6.322853,0.22549 -1.169641,-0.46002 -4.766808,-2.69208 -4.922195,-3.05425 -0.15911,-0.37085 -1.04221,-0.21496 -1.206415,0.21296 -0.299093,0.77942 -0.162828,1.14134 0.771273,2.04853 0.940089,0.913 3.55772,2.4414 4.850556,2.83218 0.384924,0.11634 1.689502,0.22177 2.899061,0.23428 1.819034,0.0188 2.437638,-0.0901 3.578561,-0.6298 z m 81.667033,-0.21647 c 0,-0.31684 -1.66482,-1.82927 -3.70333,-3.36432 -0.48311,-0.36381 -1.01377,-0.79443 -1.17923,-0.95696 -0.36884,-0.36228 -4.64443,-2.99073 -6.09765,-3.74857 -2.27096,-1.18428 -5.49111,-2.36481 -8.7974,-3.22518 -0.84088,-0.21882 -1.12448,-0.4234 -1.12448,-0.81116 0,-0.61506 0.38642,-0.64525 1.90899,-0.14914 0.62354,0.20317 1.60997,0.45195 2.19205,0.55284 0.58209,0.10089 1.1774,0.271 1.32292,0.37802 0.14552,0.10702 0.80037,0.34804 1.45521,0.5356 1.4297,0.40949 3.53734,1.36389 3.66007,1.65739 0.0485,0.116 0.2271,0.21113 0.39687,0.21141 0.84136,0.001 6.52816,3.84003 8.85497,5.97719 0.61569,0.56551 1.2486,0.89941 1.70632,0.90021 0.40018,7.9e-4 0.72429,-0.088 0.72025,-0.19717 -0.0184,-0.49659 -1.68562,-2.33526 -3.21089,-3.54113 -0.9221,-0.729 -1.90141,-1.50848 -2.17623,-1.73217 -1.40222,-1.1413 -6.14325,-4.0534 -7.36522,-4.52397 -1.61164,-0.62062 -2.39878,-0.92006 -2.58614,-0.98383 -0.0728,-0.0248 -0.48071,-0.1889 -0.90655,-0.36477 -1.14348,-0.47222 -4.55346,-1.52999 -6.36949,-1.97579 -6.50499,-1.59686 -10.47103,-2.05352 -16.69948,-1.92279 -4.42016,0.0928 -5.12898,0.1671 -5.62239,0.58957 -0.31053,0.26588 -0.56459,0.63555 -0.56459,0.82149 0,0.18594 -0.13891,0.33807 -0.30868,0.33807 -0.16977,0 -0.23259,0.0761 -0.13958,0.1691 0.093,0.093 2.28574,0.21032 4.87274,0.26071 6.41083,0.12484 10.93435,0.32916 11.64896,0.52614 0.41586,0.11464 0.59531,0.36449 0.59531,0.82888 0,0.65972 -0.0126,0.6633 -1.65365,0.47115 -0.9095,-0.10649 -4.01007,-0.27505 -6.89014,-0.37458 -7.34734,-0.2539 -11.56454,0.38597 -11.56454,1.75467 0,0.33319 0.34184,0.36957 2.14781,0.22855 1.18129,-0.0922 2.2479,-0.22958 2.37025,-0.30519 0.50103,-0.30966 8.46711,-0.13968 13.6059,0.29032 3.07184,0.25705 10.92428,2.14578 11.62843,2.79697 0.13825,0.12785 0.4359,0.23318 0.66146,0.23408 0.22556,7.9e-4 0.75114,0.17949 1.16795,0.39687 0.41682,0.21739 0.86983,0.39525 1.00671,0.39525 0.41035,0 6.04594,2.5889 6.30524,2.89653 0.0728,0.0863 0.48026,0.33312 0.90555,0.54844 1.48632,0.7525 1.74028,0.91531 1.74028,1.11569 0,0.11101 0.12182,0.20184 0.27071,0.20184 0.39641,0 4.32278,2.63747 4.57109,3.07055 0.26574,0.46349 1.24362,0.48644 1.24362,0.0292 z m -25.0933,-12.55335 c -0.81071,-0.0995 -0.86919,-0.16719 -0.7061,-0.81701 0.23674,-0.94323 0.2105,-0.9305 1.51165,-0.73374 1.49738,0.22642 1.81037,0.44948 1.62507,1.1581 -0.1584,0.60568 -0.39016,0.64313 -2.43062,0.39265 z m -78.83002,12.08935 c 1.591757,-0.44458 2.587903,-1.44783 2.587903,-2.60634 0,-1.68082 -0.797287,-2.03772 -2.200465,-0.98504 -0.700326,0.5254 -3.424733,2.03689 -3.884951,2.15536 -1.23217,0.31718 -1.847014,0.52618 -2.466118,0.83826 -0.638458,0.32185 -0.696415,0.43636 -0.400992,0.79233 0.289039,0.34827 0.755785,0.38873 2.862995,0.24818 1.38471,-0.0924 2.960444,-0.29159 3.501628,-0.44275 z m 44.750336,0.14216 c 0.415327,-0.21661 0.861284,-0.32824 0.991018,-0.24806 0.129733,0.0802 0.534138,-0.17605 0.898681,-0.5694 0.509775,-0.55005 0.594196,-0.79784 0.365646,-1.07322 -0.323302,-0.38956 -1.084945,-0.47642 -1.399582,-0.15962 -0.108398,0.10914 -0.872382,0.38596 -1.697744,0.61515 -1.302862,0.36178 -1.511697,0.50999 -1.584381,1.12448 -0.07595,0.64212 -0.0024,0.70762 0.79375,0.70614 0.482608,-7.9e-4 1.217285,-0.17886 1.632612,-0.39547 z m 46.361014,-0.1961 c 0.0881,-0.27776 0.11964,-0.53463 0.07,-0.57083 -0.43939,-0.32027 -2.96975,-1.19895 -3.88255,-1.34824 -1.08827,-0.17798 -1.14195,-0.15674 -1.05833,0.41861 0.0716,0.49283 0.45893,0.73496 2.07245,1.29561 2.40013,0.83397 2.59426,0.84818 2.79845,0.20485 z m -55.185948,-0.74322 c 0,-0.55886 -1.085752,-1.16938 -2.628323,-1.47789 -0.68965,-0.13793 -0.737828,-0.0958 -0.616548,0.53859 0.07236,0.37852 0.296273,0.68822 0.497591,0.68822 0.201317,0 0.36603,0.11033 0.36603,0.24518 0,0.28262 0.610722,0.47389 1.653646,0.51788 0.567224,0.0239 0.727604,-0.0889 0.727604,-0.51198 z m 73.876078,-0.33148 c 0.47779,-0.48078 1.21233,-1.37375 1.6323,-1.98437 0.41997,-0.61063 0.86646,-1.11023 0.99219,-1.11023 0.12573,0 0.2286,-0.1357 0.2286,-0.30156 0,-0.16586 0.15946,-0.43375 0.35435,-0.59531 0.19489,-0.16157 1.53434,-1.82562 2.97656,-3.69789 1.44222,-1.87228 3.12823,-4.05563 3.74669,-4.85189 0.80801,-1.04031 1.12448,-1.69575 1.12448,-2.32891 0,-0.48464 0.067,-1.05562 0.14877,-1.26884 0.21176,-0.55184 -2.10001,-2.95069 -2.64284,-2.74239 -0.5567,0.21362 -0.52538,0.76344 0.0835,1.46545 0.76642,0.8837 1.16695,2.06321 0.96875,2.85289 l -0.17886,0.71266 -1.22015,-1.22015 c -1.06441,-1.06441 -1.17451,-1.27513 -0.86264,-1.65091 0.30373,-0.36598 0.28306,-0.55748 -0.13747,-1.27331 -0.27223,-0.4634 -0.62071,-0.96869 -0.7744,-1.12287 -0.5992,-0.60112 -2.13103,-1.17542 -3.16435,-1.18636 -0.67376,-0.007 -1.48425,-0.25855 -2.14216,-0.66451 -0.58209,-0.35916 -1.71318,-0.96281 -2.51354,-1.34144 -0.80037,-0.37862 -2.31137,-1.10233 -3.35778,-1.60823 -1.04641,-0.50591 -2.57085,-1.1266 -3.38764,-1.37932 -0.81679,-0.25272 -1.50844,-0.56781 -1.53702,-0.7002 -0.10711,-0.49631 0.96069,-0.40053 3.1973,0.2868 1.26885,0.38994 2.84279,0.87225 3.49764,1.07182 0.65484,0.19957 1.42875,0.3252 1.71979,0.27919 0.74875,-0.11839 0.79366,-0.80409 0.0759,-1.15928 -2.69167,-1.33203 -6.79678,-2.84755 -8.23486,-3.04014 -0.37653,-0.0504 -0.76848,-0.17556 -0.871,-0.27807 -0.10252,-0.10252 -0.49397,-0.18769 -0.8699,-0.18926 -0.37593,-0.002 -1.2573,-0.17696 -1.9586,-0.38974 -3.1517,-0.95624 -13.97348,-1.32166 -16.65532,-0.5624 -0.76129,0.21554 -2.3962,0.58795 -3.63313,0.82758 -2.48281,0.48101 -4.75811,1.13917 -5.14615,1.48859 -0.13824,0.12448 -0.48239,0.22633 -0.76477,0.22633 -0.55087,0 -1.48993,0.41039 -5.53345,2.4182 -1.41946,0.70483 -2.649,1.2684 -2.73231,1.25236 -0.0833,-0.016 -0.73996,0.35216 -1.4592,0.81821 -1.22898,0.79636 -1.30157,0.90577 -1.20564,1.81732 0.11873,1.1281 -0.40098,3.06644 -0.99949,3.72779 -0.22838,0.25236 -0.41524,0.5436 -0.41524,0.64721 0,0.10362 2.88727,0.12748 6.41615,0.053 3.66847,-0.0774 7.60586,-0.0161 9.19427,0.14309 1.52797,0.15315 3.04593,0.2985 3.37325,0.32302 0.32732,0.0245 0.59521,0.10953 0.59531,0.18892 1e-4,0.0794 0.44667,0.17309 0.99237,0.2082 1.60368,0.10317 6.97321,1.58435 10.3229,2.84756 2.95245,1.1134 7.71647,3.37852 7.9995,3.80347 0.0728,0.10924 0.50797,0.39105 0.96712,0.62625 0.45916,0.23519 0.99494,0.57923 1.19063,0.76452 0.19568,0.18529 1.03867,0.84546 1.8733,1.46704 0.83463,0.62158 2.85869,2.4933 4.49792,4.15937 1.63922,1.66606 3.06574,3.03273 3.17003,3.03704 0.10428,0.004 0.58053,-0.38555 1.05833,-0.86633 z m 6.11999,-11.43883 c -0.0858,-0.2237 0.0442,-0.62803 0.28897,-0.89851 0.42071,-0.46487 0.40107,-0.54187 -0.35876,-1.40728 -0.78661,-0.8959 -0.81825,-1.25623 -0.1103,-1.25623 0.59864,0 2.20486,1.87398 2.20486,2.57241 0,0.18591 -0.24928,0.33801 -0.55394,0.33801 -0.33142,0 -0.60952,0.21256 -0.69232,0.52916 -0.16454,0.6292 -0.56017,0.69142 -0.77851,0.12244 z m -31.35867,10.51324 c 0.0827,-0.58334 0.0212,-0.60574 -1.45264,-0.52917 -1.19341,0.062 -1.55805,0.18012 -1.62385,0.52604 -0.0649,0.34132 0.15195,0.47173 0.92347,0.55529 1.72627,0.18696 2.06038,0.10127 2.15302,-0.55216 z m -63.381946,0.23244 c 0.548989,-0.12746 1.311476,-0.43704 1.694415,-0.68796 0.570151,-0.37357 0.624462,-0.49638 0.29986,-0.67803 -0.223496,-0.12508 -0.846566,-0.0975 -1.428483,0.0631 -2.238113,0.61797 -5.469188,-0.40211 -7.560558,-2.38693 -1.599912,-1.5184 -2.139749,-1.726 -2.441752,-0.93899 -0.336008,0.87562 -0.128508,1.41396 0.831588,2.15746 3.058721,2.3687 5.735653,3.13751 8.60493,2.47131 z m 24.20137,-0.69934 c 0.810001,-0.53073 0.722474,-1.53332 -0.144592,-1.65624 -0.335307,-0.0475 -1.138531,0.13105 -1.784945,0.39687 -1.035905,0.42598 -1.17542,0.58124 -1.176293,1.30904 l -0.0011,0.82574 1.238528,-0.23139 c 0.681191,-0.12726 1.521923,-0.41707 1.868294,-0.64402 z m -9.460873,-0.83801 c -0.0058,-0.67463 -0.303096,-0.98367 -1.04771,-1.08926 -0.360188,-0.0511 -0.892693,-0.25944 -1.183349,-0.46302 -0.74286,-0.52032 -0.93989,-0.46436 -0.93989,0.26695 0,0.73015 1.264354,1.60688 2.447396,1.69708 0.54125,0.0413 0.726567,-0.0642 0.723553,-0.41175 z m 57.653629,-0.27964 c 0.21494,-0.40163 0.0523,-0.56625 -1.06704,-1.07973 -1.28449,-0.58927 -2.07837,-0.60322 -2.07837,-0.0365 0,0.15321 0.32742,0.42241 0.7276,0.59823 0.40018,0.17582 0.78714,0.39354 0.8599,0.48382 0.13613,0.16892 0.7799,0.45017 1.11517,0.48719 0.10402,0.0115 0.30325,-0.19235 0.44274,-0.45298 z m -60.896235,0.0494 c -0.08792,-0.0879 -0.316124,-0.0973 -0.507119,-0.0209 -0.211066,0.0845 -0.148373,0.14716 0.159854,0.15985 0.278913,0.0115 0.435184,-0.051 0.347265,-0.13896 z m 55.406835,-0.69358 c -0.25347,-0.26578 -4.11837,-1.22038 -5.7258,-1.41423 -0.72761,-0.0877 -1.68027,-0.26773 -2.11702,-0.39995 -2.76004,-0.83559 -17.39637,-1.36754 -21.21073,-0.7709 -2.84294,0.4447 -2.77222,0.39704 -2.68116,1.80701 l 0.0797,1.23462 1.85208,-0.0677 c 1.01865,-0.0372 2.68553,-0.18807 3.70417,-0.33517 4.82954,-0.69741 19.42222,-0.4614 23.93834,0.38717 1.22748,0.23064 1.80267,0.24099 2.0284,0.0365 0.17328,-0.15697 0.23267,-0.37179 0.13198,-0.47737 z m -64.234395,-2.0175 c 0.165142,-0.13162 0.580876,-0.32547 0.923856,-0.43079 1.097605,-0.33703 4.006611,-3.0316 4.006611,-3.71128 0,-0.21743 0.109604,-0.39533 0.24356,-0.39533 0.133959,0 0.326303,-0.38696 0.427429,-0.8599 0.101126,-0.47294 0.313108,-1.01999 0.471067,-1.21566 0.157961,-0.19566 0.319783,-1.44481 0.359603,-2.77588 0.03982,-1.33107 0.177136,-2.45504 0.305152,-2.49771 0.128013,-0.0427 0.353586,1.20648 0.501271,2.77589 0.366604,3.89583 0.60057,4.79737 1.586347,6.1127 0.779499,1.04009 2.688418,2.48015 3.017792,2.27659 0.417116,-0.2578 0.2589,-3.26171 -0.219101,-4.1599 -0.247846,-0.46572 -0.420516,-0.99865 -0.383712,-1.1843 0.03681,-0.18565 -0.177128,-0.68028 -0.475411,-1.09918 -0.336611,-0.47273 -0.54233,-1.17688 -0.54233,-1.85633 0,-0.74634 -0.175538,-1.28062 -0.551619,-1.67895 -0.30339,-0.32134 -0.734036,-0.94144 -0.95699,-1.378 -0.585335,-1.14613 -1.420503,-1.98437 -1.977094,-1.98437 -0.374531,0 -0.483047,-0.20551 -0.483047,-0.91477 0,-0.72831 0.188749,-1.06536 0.926034,-1.65364 0.509317,-0.40639 0.926036,-0.82818 0.926041,-0.93732 6e-6,-0.10914 -0.477406,-0.19844 -1.060915,-0.19844 -0.787101,0 -1.179759,-0.15355 -1.521354,-0.59491 -1.061773,-1.3719 -2.964466,-3.01976 -4.18274,-3.62255 -3.55228,-1.75762 -7.065698,-4.17578 -10.537793,-7.2528 -2.43323,-2.15636 -2.347529,-2.55565 0.289626,-1.34938 4.390223,2.00812 11.129457,3.29464 17.258556,3.29464 2.617002,0 3.164242,-0.0694 3.298195,-0.41852 0.209876,-0.54692 0.203028,-5.09399 -0.01484,-9.85667 -0.16678,-3.6458 -0.197239,-3.80192 -0.785394,-4.02554 -0.570794,-0.21701 -1.080503,-1.30554 -0.940917,-2.0094 0.03303,-0.16656 -0.287017,-0.59488 -0.711221,-0.95183 -0.424201,-0.35694 -0.951007,-0.99457 -1.170678,-1.41695 -0.489225,-0.94068 -1.706462,-2.11292 -1.945648,-1.87373 -0.09632,0.0963 -0.318069,0.0565 -0.492762,-0.0885 -0.400161,-0.3321 -16.002936,-0.0149 -16.002936,0.32533 0,0.73698 -1.192723,2.64921 -2.131785,3.41778 -1.824107,1.49293 -2.200217,2.51872 -2.218278,6.05009 -0.01331,2.60167 0.07789,3.29199 0.629145,4.7625 0.354589,0.94589 0.718061,1.77933 0.807715,1.85209 0.08966,0.0728 0.418637,0.55339 0.73107,1.06806 1.274175,2.09897 6.682954,6.51604 11.045674,9.02043 4.80736,2.75964 5.421087,3.37042 5.422969,5.3969 0.0016,1.72402 -0.889961,2.73929 -3.041719,3.46377 -2.008865,0.67636 -5.648095,2.68806 -6.817143,3.76839 -1.904434,1.7599 -2.505162,3.23693 -2.34687,5.77034 0.04128,0.66059 1.982227,2.73294 2.559653,2.73294 0.212659,0 0.386652,0.11152 0.386652,0.24782 0,0.53519 4.725466,0.58453 5.388282,0.0563 z m 64.609585,0.0844 c -0.28248,-0.21365 -0.6812,-0.38846 -0.88606,-0.38846 -0.20485,0 -0.74764,-0.159 -1.2062,-0.35334 -2.35489,-0.99801 -4.43887,-1.59273 -8.37436,-2.38983 -5.20621,-1.05448 -9.7211,-1.29979 -16.66875,-0.90568 -4.37105,0.24795 -4.87116,0.3993 -4.97944,1.50687 l -0.0847,0.86585 1.80444,-0.17291 c 2.90362,-0.27823 15.62429,-0.18969 18.07632,0.12583 1.23693,0.15916 2.78474,0.35118 3.43959,0.42669 0.65484,0.0755 1.78593,0.29758 2.51354,0.49348 0.7276,0.19589 1.8587,0.43966 2.51354,0.54169 0.65484,0.10204 1.36922,0.28755 1.5875,0.41226 0.21828,0.12471 0.93266,0.22658 1.5875,0.22638 1.10372,-2.6e-4 1.15314,-0.0287 0.67703,-0.38883 z m -44.006762,-1.40714 c 0.351641,-0.38561 0.768839,-1.1501 0.927107,-1.69887 0.335172,-1.16216 -0.05853,-2.20266 -1.309224,-3.46011 -0.944134,-0.94924 -1.531906,-0.77075 -1.531906,0.4652 0,0.5053 -0.119062,0.99231 -0.264583,1.08225 -0.274563,0.16969 -0.372584,3.51173 -0.12214,4.16438 0.220327,0.57416 1.568416,0.25023 2.300746,-0.55285 z M 63.28595,192.92432 c 0.491702,-0.4083 0.902597,-0.81746 0.913103,-0.90924 0.04833,-0.42223 4.723662,-4.71049 6.186824,-5.67461 2.310484,-1.52246 5.782476,-3.28663 6.46826,-3.28663 0.126281,0 0.564383,-0.34944 0.973564,-0.77653 0.573018,-0.59811 0.704961,-0.93194 0.574222,-1.45284 -0.176196,-0.70203 -1.542221,-2.09708 -2.59675,-2.65193 -2.182741,-1.14848 -4.40736,-2.4224 -4.972434,-2.84747 -0.363802,-0.27366 -1.62353,-1.19528 -2.7994,-2.04803 -2.748235,-1.99306 -6.880577,-6.03611 -7.325698,-7.16742 -0.17934,-0.4558 -0.336333,2.23034 -0.238676,4.08376 0.03752,0.71211 0.241594,1.54227 0.453496,1.8448 0.211902,0.30254 0.385278,0.8845 0.385278,1.29325 0,0.40875 0.168648,0.8079 0.374775,0.887 0.212241,0.0814 0.450937,0.69758 0.550394,1.42072 0.116922,0.85013 0.389604,1.47794 0.815851,1.87838 0.352126,0.3308 0.640231,0.74938 0.640231,0.93017 0,0.18079 0.139197,0.37511 0.309324,0.43181 0.191132,0.0637 0.35523,0.97771 0.429464,2.39203 0.104354,1.98822 0.04322,2.43814 -0.465326,3.42467 -0.322003,0.62466 -0.851656,1.43341 -1.177007,1.79721 -0.325347,0.3638 -0.610129,0.97833 -0.632846,1.36563 -0.02273,0.38729 -0.264427,1.10167 -0.537133,1.5875 -0.602181,1.0728 -1.234054,3.72808 -1.019943,4.28605 0.214247,0.55831 1.515462,0.16739 2.690427,-0.80828 z m 38.50304,0.71285 c 0,-0.44097 -0.17639,-0.52917 -1.05834,-0.52917 -1.183182,0 -1.234149,0.051 -0.64255,0.64256 0.61707,0.61707 1.70089,0.54482 1.70089,-0.11339 z m -0.26459,-1.71048 c 0,-0.59311 -0.98542,-0.98949 -2.068838,-0.83217 -0.535625,0.0778 -1.076352,0.14591 -1.201613,0.15141 -0.125265,0.006 0.05333,0.24415 0.396875,0.53035 0.773321,0.64425 2.873576,0.75417 2.873576,0.15041 z m -8.219763,-0.54785 c 0.328795,-0.32172 0.314555,-0.44245 -0.107153,-0.90843 -0.392481,-0.43369 -0.813697,-0.53741 -2.182522,-0.53741 -0.932897,0 -1.926476,0.12325 -2.20795,0.27389 -0.691364,0.37001 -0.646875,1.17113 0.08354,1.50427 0.806453,0.36783 3.939612,0.13194 4.414085,-0.33232 z M 59.79962,191.01782 c 0.458044,-0.45804 -0.01852,-1.01979 -0.958218,-1.12949 -0.505714,-0.059 -1.555416,-0.0434 -2.33267,0.0348 -1.067644,0.10741 -1.434838,0.2557 -1.501732,0.60646 -0.05326,0.27924 0.12773,0.54428 0.454123,0.66502 0.739417,0.27353 4.021933,0.13975 4.338497,-0.17681 z m 47.15021,-0.2934 c 0.0907,-0.14683 0.0878,-0.51001 -0.007,-0.80708 -0.15375,-0.48442 -0.36704,-0.53483 -2.0676,-0.48866 -1.0429,0.0283 -2.045,0.10658 -2.2269,0.17393 -0.3507,0.12985 -0.45077,0.91594 -0.15434,1.21237 0.2837,0.2837 4.2741,0.20259 4.45528,-0.0906 z m -5.95459,-1.02511 c 0,-0.7667 -1.96063,-1.05239 -4.082358,-0.59487 -0.738251,0.15919 -0.753063,0.18913 -0.31183,0.63016 0.35801,0.35784 0.909688,0.46302 2.428711,0.46302 1.748517,0 1.965477,-0.055 1.965477,-0.49831 z m -7.206619,-0.89076 c 0.160475,-0.19914 0.176758,-0.56758 0.04092,-0.92604 -0.212881,-0.56178 -0.371353,-0.59511 -2.813801,-0.5917 -1.423517,0.002 -2.856103,0.0754 -3.183525,0.16315 -0.710835,0.1905 -0.774983,0.82914 -0.132292,1.31701 0.627481,0.47633 5.709865,0.5077 6.088695,0.0376 z m -33.03788,-0.56177 c 0.165849,-0.19984 0.227222,-0.55703 0.13638,-0.79375 -0.138973,-0.36216 -0.636651,-0.43041 -3.138556,-0.43041 -2.535539,0 -3.037343,0.0707 -3.407664,0.47986 -0.779034,0.86082 -0.07692,1.10764 3.150901,1.10764 2.184699,0 3.036181,-0.0949 3.258939,-0.36334 z m 47.006469,-0.36352 c 0.63861,-0.87334 -0.0122,-1.12523 -2.90734,-1.12523 -2.99073,0 -4.01785,0.35636 -3.34923,1.162 0.54079,0.65161 5.77571,0.62085 6.25657,-0.0368 z m -49.227595,-1.92875 c 1.309687,-0.025 2.568484,-0.14492 2.797328,-0.26658 0.228843,-0.12165 0.731681,-0.6766 1.11742,-1.23322 1.268968,-1.83112 0.959168,-4.30808 -0.752967,-6.02022 -0.655585,-0.65558 -0.763791,-0.67229 -4.354126,-0.67229 -3.475138,0 -3.713411,0.0334 -4.244348,0.59531 -2.097807,2.22013 -2.067753,5.18903 0.0721,7.12228 0.637389,0.57585 0.984718,0.68898 1.88247,0.61313 0.605478,-0.0512 2.172433,-0.11344 3.482121,-0.13841 z m 36.339723,-0.48428 c 0.313309,-0.27173 0.569651,-0.619 0.569651,-0.7717 0,-0.15271 0.128505,-0.32048 0.285567,-0.37284 0.383344,-0.12778 1.058937,-3.07934 0.748723,-3.27106 -0.132297,-0.0818 -0.24054,-0.44104 -0.24054,-0.79839 0,-0.36644 -0.374923,-1.054 -0.859896,-1.57694 l -0.859896,-0.92721 -3.905549,-0.0109 c -4.169566,-0.0116 -4.136199,-0.0211 -5.096232,1.44677 -0.363029,0.55506 -0.499872,1.24466 -0.499872,2.51898 0,1.54733 0.101743,1.90258 0.860933,3.00602 l 0.860933,1.25132 h 3.783264 c 3.313874,0 3.853939,-0.0613 4.352914,-0.49405 z m 13.276922,-0.22141 c 0.92756,-0.63929 1.24015,-1.09687 1.72509,-2.52525 0.54912,-1.61738 0.33631,-2.54089 -0.89626,-3.88929 l -0.97997,-1.07208 h -3.48866 -3.48866 l -0.73889,0.92601 c -0.406383,0.50931 -0.744732,1.01533 -0.751887,1.12448 -0.0071,0.10916 -0.106667,0.47327 -0.221141,0.80914 -0.300175,0.88072 0.281371,2.96066 1.086858,3.88724 0.5814,0.66881 0.94344,0.81864 2.2999,0.95185 3.24573,0.31873 4.76942,0.25947 5.45362,-0.2121 z m -10.061438,-5.93763 c 0,-0.14952 0.372517,-0.79058 0.82782,-1.42458 0.4553,-0.63399 0.762659,-1.32252 0.683017,-1.53006 -0.07964,-0.20754 0.08362,-0.75295 0.362807,-1.21203 0.279184,-0.45908 0.507604,-1.17442 0.507604,-1.58965 0,-0.41523 0.17859,-0.90318 0.39688,-1.08434 0.44125,-0.3662 0.58624,-3.96875 0.15973,-3.96875 -0.25733,0 -2.178784,1.68983 -4.451703,3.91504 l -1.431542,1.4015 0.186606,1.50892 c 0.125626,1.01582 0.369112,1.68204 0.74509,2.03869 0.307165,0.29137 0.789996,0.9687 1.072954,1.50517 0.470239,0.89154 0.940737,1.11164 0.940737,0.44009 z m -14.12867,-0.95773 c 0.160115,-0.10691 0.432194,-0.46228 0.60462,-0.7897 0.311111,-0.59077 0.299236,-0.59531 -1.555811,-0.59531 h -1.869313 l 0.586844,0.79375 c 0.577969,0.78175 1.559335,1.04152 2.23366,0.59126 z m 23.780928,-2.30069 c -0.0329,-0.29674 -0.0749,-0.6326 -0.0935,-0.74636 -0.0186,-0.11376 -1.43275,-0.17329 -3.14262,-0.1323 -2.90238,0.0696 -3.10886,0.10952 -3.10886,0.60112 0,0.6532 0.68934,0.79288 3.98172,0.80682 2.28453,0.01 2.41956,-0.0206 2.36325,-0.52928 z m -47.068362,0.0856 c 0.102341,-0.1656 -0.06778,-0.49277 -0.378323,-0.72761 -0.464783,-0.35147 -1.050972,-0.40339 -3.324399,-0.29442 -1.518063,0.0728 -2.843781,0.21645 -2.94604,0.31931 -0.102256,0.10287 -0.115419,0.37076 -0.02925,0.59532 0.129138,0.33653 0.713367,0.40828 3.324362,0.40828 2.081194,0 3.23147,-0.1032 3.353647,-0.30088 z m 24.510938,0.15327 c 0.08119,-0.0812 0.08997,-0.36803 0.01953,-0.63743 -0.111678,-0.42706 -0.472411,-0.50311 -2.815495,-0.5935 -1.478071,-0.057 -2.779511,-0.0293 -2.892092,0.0616 -0.330112,0.26656 0.665187,0.99816 1.527607,1.12287 1.240419,0.17938 3.996761,0.21016 4.160459,0.0465 z m 8.656788,-0.10207 c 0.306123,-0.19369 0.3218,-0.37334 0.07906,-0.90609 -0.29714,-0.65216 -0.355751,-0.66406 -3.152772,-0.64035 -2.886482,0.0245 -3.525829,0.2228 -3.525829,1.09372 0,0.21655 0.148828,0.45378 0.330729,0.52717 0.588608,0.23751 5.874977,0.17472 6.268809,-0.0744 z m -7.999743,-2.00678 c 0.235318,-0.17207 0.361683,-0.48528 0.280811,-0.69602 -0.116758,-0.30428 -0.902012,-0.39716 -3.813302,-0.45105 -2.016445,-0.0373 -4.4997,-0.2392 -5.518346,-0.44861 -2.797421,-0.5751 -3.111796,-0.49761 -1.665671,0.41059 1.33314,0.83724 3.978974,1.40934 5.956543,1.28796 0.61373,-0.0377 1.20423,0.0199 1.31222,0.12787 0.300921,0.30092 2.964436,0.12267 3.447745,-0.23074 z m 20.951539,-0.22354 c 0.16585,-0.19984 0.22722,-0.55703 0.13638,-0.79375 -0.13411,-0.34949 -0.5766,-0.43041 -2.35342,-0.43041 -1.52796,0 -2.27885,0.10916 -2.4885,0.36177 -0.58353,0.70311 0.39915,1.04014 3.4442,1.18125 0.541,0.0251 1.09137,-0.11406 1.26134,-0.31886 z m -47.332584,-0.16232 c 0.308227,-0.19649 0.330922,-0.35811 0.101613,-0.72355 -0.236574,-0.37703 -0.636846,-0.46583 -2.013839,-0.44679 -2.097174,0.029 -2.58569,0.19789 -2.58569,0.89397 0,0.49436 0.164499,0.53715 2.05052,0.53342 1.127787,-0.002 2.229115,-0.1179 2.447396,-0.25705 z m 33.183409,-0.3517 c 0.261919,-0.19152 0.431874,-0.57847 0.377676,-0.85989 -0.08807,-0.45729 -0.334152,-0.51168 -2.31504,-0.51168 -1.78082,0 -2.271157,0.0866 -2.494574,0.44084 -0.201797,0.31991 -0.182676,0.5558 0.0697,0.8599 0.444092,0.53509 3.655991,0.58725 4.362233,0.0708 z m -6.01921,-1.38756 c 0.193857,-0.26511 0.352205,-0.54857 0.351885,-0.62989 -2.64e-4,-0.0813 -1.399307,-0.15719 -3.108854,-0.16856 -3.28495,-0.0219 -10.182161,-0.78708 -11.002287,-1.22064 -0.267124,-0.14121 -0.550138,-0.1923 -0.628918,-0.11352 -0.07878,0.0788 -0.563115,-0.0322 -1.076298,-0.24662 -1.800849,-0.75244 -1.247698,0.0862 0.838136,1.27074 0.448437,0.25466 1.070483,0.46302 1.382324,0.46302 0.311843,0 1.385263,0.1781 2.385377,0.39577 2.02107,0.43989 7.194698,0.885 9.204989,0.79196 0.903208,-0.0418 1.40898,-0.20766 1.653646,-0.54226 z m 19.704705,-5.0111 c -0.0521,-2.61937 -0.18584,-4.86056 -0.2973,-4.98042 -0.11147,-0.11986 -0.54513,0.33868 -0.9637,1.01897 -0.41856,0.6803 -1.17766,1.71862 -1.68688,2.30737 -0.86117,0.99569 -0.93244,1.21577 -1.0203,3.15047 -0.052,1.144 -0.0187,2.38178 0.0739,2.75063 0.16313,0.64998 0.22715,0.66825 2.07864,0.59306 l 1.91032,-0.0776 z m -47.320815,-3.107 c -0.06471,-4.25546 -0.151146,-7.7707 -0.192085,-7.81164 -0.04094,-0.0409 -0.865288,-0.14829 -1.831887,-0.23855 l -1.75745,-0.16412 -0.007,0.76587 c -0.0038,0.42122 -0.04819,3.78758 -0.09858,7.48078 -0.05039,3.69321 -0.03336,6.93766 0.03783,7.2099 0.111445,0.42617 0.396131,0.49497 2.048116,0.49497 h 1.918676 l -0.11765,-7.73721 z m 33.581493,5.33491 c -0.01408,-0.78879 -0.03829,-4.12818 -0.05383,-7.42087 l -0.02825,-5.98671 -0.979482,-0.16194 c -0.538713,-0.0891 -1.418056,-0.16325 -1.954094,-0.16485 -1.221208,-0.004 -1.16265,-0.46358 -1.067519,8.38466 l 0.07453,6.93236 1.512967,0.0791 c 2.364697,0.12362 2.525611,0.0165 2.495674,-1.66175 z m 3.430735,-1.7044 c 2.635377,-1.30244 4.936447,-3.00716 6.601117,-4.89038 1.48149,-1.67599 2.60225,-3.68689 2.60808,-4.67949 0.002,-0.31883 0.10855,-0.64468 0.23706,-0.72411 0.29006,-0.17926 0.69509,-2.91447 0.59052,-3.98786 -0.12272,-1.2598 -1.17878,-3.12201 -2.13815,-3.77031 -0.70305,-0.4751 -1.25057,-0.59531 -2.7113,-0.59531 -2.463153,0 -3.275612,0.46344 -4.282015,2.44256 -0.276146,0.54304 -0.767641,1.16135 -1.092213,1.37401 -0.336688,0.22061 -0.66503,0.78592 -0.76453,1.31629 -0.100856,0.53761 -0.464391,1.15773 -0.862094,1.47057 l -0.6877,0.54094 0.164291,5.3575 c 0.09036,2.94663 0.166126,5.74445 0.16837,6.2174 0.0021,0.47294 0.06691,0.85989 0.143708,0.85989 0.0768,0 0.987981,-0.41926 2.024856,-0.9317 z M 60.352779,154.39722 c 0.235593,-0.3841 0.189987,-0.55536 -0.231151,-0.86798 -0.403611,-0.29961 -1.197152,-0.37234 -3.439583,-0.31523 -2.797955,0.0712 -2.918333,0.0982 -2.999692,0.67118 -0.12001,0.84519 0.642752,1.05217 3.75426,1.01873 2.226794,-0.0239 2.666968,-0.10041 2.916166,-0.5067 z m 33.243866,-0.1987 c 0.119856,-0.19393 0.102978,-0.56737 -0.03751,-0.82988 -0.223126,-0.41691 -0.634977,-0.47727 -3.256434,-0.47727 -2.425615,0 -3.068227,0.081 -3.35163,0.42248 -0.297585,0.35856 -0.272465,0.46864 0.166042,0.7276 1.142899,0.67495 6.085416,0.79476 6.479532,0.15707 z m 15.342955,-0.38938 c 0.27803,-0.335 0.24928,-0.47088 -0.16604,-0.78479 -0.67697,-0.51169 -1.01475,-0.36547 -1.11517,0.48273 -0.0654,0.55273 0.0286,0.7072 0.43063,0.7072 0.28289,0 0.66565,-0.18231 0.85058,-0.40514 z m -46.908723,-2.04225 c 0.528434,-0.67539 0.548447,-1.4858 0.04788,-1.9388 -0.427339,-0.38674 -1.115118,-0.44325 -5.064529,-0.41613 -2.513518,0.0173 -4.64022,0.0333 -4.726001,0.0356 -0.08578,0.002 -0.29469,0.30868 -0.464238,0.6808 -0.328141,0.72019 -0.07608,1.54037 0.551027,1.79302 0.183568,0.0739 2.373011,0.14386 4.865428,0.15535 3.33185,0.0153 4.600175,-0.0667 4.790429,-0.30984 z m 33.355195,-0.25136 c 0.539184,-0.53918 0.381331,-1.74409 -0.277813,-2.12058 -0.900165,-0.51417 -9.101303,-0.5275 -9.613177,-0.0156 -0.471239,0.47124 -0.283562,1.67263 0.331555,2.12242 0.624435,0.45659 9.104397,0.46883 9.559435,0.0138 z m 14.870828,-0.53854 c 0.30307,-0.3253 0.42677,-0.63288 0.27489,-0.68351 -0.15187,-0.0506 -0.27614,-0.25653 -0.27614,-0.45756 0,-0.20104 -0.23029,-0.48877 -0.51177,-0.63941 -0.6648,-0.35579 -3.72156,-0.35912 -3.72156,-0.004 0,0.14841 0.29915,0.74372 0.66478,1.32291 0.6125,0.97027 0.75733,1.05308 1.84177,1.05308 0.8776,0 1.31717,-0.15045 1.72803,-0.59146 z M 91.073364,147.9778 c 11.787186,-0.0819 21.635766,-0.20725 21.885726,-0.2786 0.37498,-0.10704 2.05906,-2.24684 2.05906,-2.61625 0,-0.12332 -46.121179,0.11967 -47.757285,0.25161 -0.582084,0.0469 -4.948217,0.10499 -9.70252,0.12901 l -8.644183,0.0437 0.909531,0.98009 c 0.500243,0.53905 1.101273,1.20358 1.335622,1.47673 0.406686,0.47403 0.837266,0.48904 9.454444,0.32963 4.965597,-0.0919 18.672418,-0.23401 30.459605,-0.31588 z m -14.419791,-3.69164 c 24.624607,-0.17121 41.595227,-0.39379 41.846077,-0.54882 0.41405,-0.2559 0.25189,-2.66318 -0.20492,-3.0423 -0.47261,-0.39223 -1.6375,-0.39539 -38.767772,-0.10518 -11.298232,0.0883 -20.882763,0.20517 -21.298958,0.25968 -0.416195,0.0545 -3.515688,0.10732 -6.887763,0.11735 l -6.131043,0.0182 -0.288949,0.87552 c -0.209294,0.63417 -0.208741,1.10561 0.0021,1.71016 l 0.290954,0.83464 2.424872,0.10542 c 1.333677,0.058 4.687056,0.057 7.451952,-0.002 2.764896,-0.0592 12.468489,-0.15932 21.563541,-0.22255 z"
       id="path1331" />
  </g>
</svg>
