<svg xmlns="http://www.w3.org/2000/svg" width="777" height="197.913" viewBox="0 0 205.581 52.365"><path d="M4.672 51.997c-.096-.25-.174-1.142-.174-1.984 0-1.069-.145-1.72-.48-2.16-.597-.787-1.372-2.833-1.372-3.625 0-.328-.209-.672-.463-.766-.633-.233-.851-.608-.856-1.466-.003-.599-.121-.728-.666-.728-.637 0-.661-.062-.661-1.706 0-1.194.112-1.77.374-1.919.314-.178.387-3.08.463-18.404.078-15.897.14-18.206.486-18.3C3.62.324 4.527.24 6.018.51 7.114.71 7.829.714 8.319.528 9.22.186 12.451.176 13.34.514c.41.156.887.71 1.221 1.422l.548 1.166 2.17.182c1.193.1 2.467.172 2.83.158.364-.013 2.949-.08 5.745-.15 5.79-.142 5.6-.206 6.521 2.177.27.7.836 1.987 1.257 2.863l.765 1.592v8.711c0 7.716.044 8.653.388 8.198.214-.283.393-.722.397-.977.005-.255.128-.463.273-.463.146 0 .265-.149.266-.33.001-.182.189-.689.416-1.125.228-.437.833-1.806 1.344-3.043s1.027-2.439 1.148-2.672c.121-.232.72-1.601 1.33-3.042.61-1.441 1.584-3.632 2.164-4.87a389.581 389.581 0 0 0 2.464-5.357c.329-.719.618-.992 1.05-.992.75 0 3.312 1.05 3.312 1.358 0 .537.578.168.819-.523l.262-.752 5.346-.173c2.941-.095 11.3-.173 18.576-.173 15.91.001 14.835-.222 14.745 3.057-.038 1.372.071 2.376.316 2.894l.374.794.047-1.058c.025-.582.078-1.475.117-1.985.04-.509.088-2.191.108-3.738l.036-2.812.86-.361c.814-.342 3.388-.451 6.416-.272.727.043 2.454-.002 3.836-.1 1.383-.098 2.93-.07 3.44.062l.926.241.23 3.09.232 3.091.827-.017c3.366-.072 8.824.074 9.096.244.252.158.363 2.661.463 10.487.072 5.655.178 10.328.235 10.385.058.058.493-.587.967-1.432s1.066-1.775 1.315-2.067c.249-.29 1.153-1.697 2.01-3.125s1.765-2.916 2.018-3.307c.253-.391.544-.89.645-1.108.102-.218.825-1.33 1.608-2.47.782-1.14 1.498-2.272 1.59-2.514.418-1.094 3.65-4.307 6.937-6.897 1.366-1.076 1.525-1.134 2.723-.992.786.093 1.727.457 2.458.95 1.18.797 1.187.798 1.709.276.288-.288.527-.613.532-.722.005-.11.285-.4.624-.646.58-.421.708-.418 2.239.059 1.753.545 2.28.482 2.713-.327.391-.73 1.836-1.27 3.402-1.27 1.166 0 1.467-.122 2.429-.991l1.098-.993 6.51.008c3.58.004 6.832.095 7.227.202.711.191.718.216.793 2.77l.076 2.577 1.72-.085c.946-.046 2.256.041 2.91.195.86.202 1.72.194 3.1-.031 1.33-.217 2.464-.235 3.74-.059 1.006.14 2.357.211 3.002.16 1.17-.093 1.176-.1 2.857-2.733.927-1.452 1.894-2.751 2.149-2.888.612-.327 5.567-.32 6.434.01.616.234.679.395.679 1.72 0 .804.072 1.462.16 1.462.088 0 .892-.192 1.786-.426 1.895-.496 4.822-.378 6.339.256l.975.408V37.3h1.852v1.667c0 1.794-.274 2.301-1.243 2.301-.493 0-.609.144-.609.753 0 .417-.236.967-.529 1.232-.291.263-.53.76-.53 1.103 0 .78-1.461 3.41-2.172 3.907-.47.329-.509.552-.347 1.95.134 1.15.093 1.636-.15 1.785-.182.114-18.796.175-41.363.137-22.567-.039-44.245-.075-48.174-.08-3.93-.007-29.3.08-56.381.192-46.35.191-49.247.177-49.411-.25zm107.738-.807c47.346-.055 86.12-.137 86.162-.183.043-.045.12-.43.17-.857l.092-.776-92.471.03c-50.86.016-94.348.037-96.64.048l-4.167.018v1.841l5.226.094c2.874.051 7.547.047 10.385-.01 2.837-.058 43.897-.15 91.243-.205zM12.502 48.5a1.021 1.021 0 0 0-.662 0c-.182.074-.033.134.33.134.365 0 .513-.06.332-.134zm144.197 0a1.021 1.021 0 0 0-.661 0c-.182.074-.033.134.33.134.365 0 .513-.06.331-.134zm5.419.016c-.088-.088-.316-.098-.507-.021-.211.084-.149.147.16.16.279.011.435-.052.347-.14zm2.784-.016a1.021 1.021 0 0 0-.662 0c-.182.074-.033.134.33.134.365 0 .513-.06.332-.134zm2.243.016c-.088-.088-.316-.098-.507-.021-.211.084-.148.147.16.16.279.011.435-.052.347-.14zm2.381 0c-.088-.088-.316-.098-.507-.021-.21.084-.148.147.16.16.279.011.435-.052.347-.14zm3.247.055c0-.25-.792-.377-.933-.149-.086.14.089.253.388.253.3 0 .545-.046.545-.104zm2.447-.07a1.021 1.021 0 0 0-.661 0c-.182.073-.033.133.33.133.364 0 .513-.06.331-.134zm9.26 0a1.021 1.021 0 0 0-.66 0c-.183.073-.034.133.33.133s.513-.06.33-.134zm1.324 0a1.021 1.021 0 0 0-.662 0c-.182.073-.033.133.33.133.365 0 .514-.06.332-.134zm-165.238-.25c-.088-.088-.316-.097-.507-.02-.211.084-.149.146.16.159.278.012.435-.051.347-.139zm-6.343-1.766c-.416-.896-.671-.907-1-.041-.175.46-.165.854.033 1.223.286.535.3.536.795.04.439-.44.461-.6.172-1.222zm3.597.038c.415-.578.818-1.52.895-2.095l.14-1.044H16.44c-2.392 0-2.416.007-2.416.652 0 .858.742 2.476 1.542 3.365.76.843 1.12.702 2.255-.878zm1.644.988c.091-.364-.015-.958-.249-1.39-.347-.639-.41-.67-.419-.21-.006.298-.14.67-.297.828-.205.206-.187.445.064.847.455.729.704.708.901-.075zm2.816.112c1.035-.965 1.529-1.97 1.53-3.115l.002-1.124h-4.497l.012.727c.015.964.475 1.95 1.441 3.096.436.517.828.94.871.94.044 0 .332-.236.641-.524zm2.847-.733c.005-.182-.11-.331-.256-.331s-.265-.172-.265-.381c0-.778-.422-.607-.7.285-.233.742-.213.997.103 1.313.346.345.433.336.75-.082.198-.26.363-.623.368-.804zm15.277.752c.244-.39.244-.66-.002-1.189-.401-.864-.66-.867-.986-.01-.171.451-.166.851.016 1.19.345.645.574.646.972.008zm5.625-.52c-.005-.237-.19-.669-.413-.96-.4-.523-.41-.523-.785-.016-.49.66-.48.924.056 1.515.493.545 1.157.23 1.142-.54zm2.962.057c.64-.72 1.169-2.237 1.068-3.068l-.088-.727H47.74c-2.216 0-2.232.005-2.232.674 0 .768.56 1.972 1.501 3.23.69.92 1.085.898 1.982-.11zm2.074-.091c0-.256-.16-.597-.354-.758-.54-.449-1.187.839-.71 1.414.408.49 1.064.086 1.064-.656zm2.906.268c.946-.924 1.327-1.804 1.327-3.063v-.91h-2.381c-2.331 0-2.382.014-2.382.63 0 1.237 1.68 4.133 2.396 4.133.128 0 .596-.355 1.04-.79zm2.47.158c.069-.18-.091-.613-.356-.964l-.48-.637-.325.712c-.255.56-.256.795-.002 1.1.35.423.962.312 1.163-.21zm2.635.037c.866-.819 1.514-2.223 1.514-3.282v-.885h-4.77l.171 1.124c.094.619.334 1.313.533 1.542.199.23.361.514.361.632 0 .208 1.248 1.464 1.456 1.464.057 0 .388-.268.735-.595zm23.739-.444c0-.156-.12-.284-.265-.284-.146 0-.265-.178-.265-.397 0-.634-.512-.458-.855.294-.268.589-.243.743.17 1.045.407.297.544.295.85-.01.2-.2.365-.492.365-.648zm5.291.131c0-.172-.178-.545-.397-.827-.392-.509-.4-.509-.793 0-.5.647-.497.804.028 1.329.328.328.509.355.793.118.203-.168.37-.447.37-.62zm28.489.18c.755-.806 1.674-2.741 1.674-3.527 0-.462-.211-.507-2.382-.507-2.553 0-2.677.084-2.134 1.455.15.381.035.738-.416 1.277-.721.864-.757 1.061-.268 1.468.272.225.465.176.811-.206.298-.329.357-.562.173-.676-.155-.096-.278-.376-.274-.622.007-.385.064-.374.405.082.637.852 1.565 1.961 1.65 1.973.043.006.386-.316.76-.716zm2.571.23c.38-.418.394-.555.093-.86-.197-.199-.45-.6-.561-.89-.194-.507-.22-.5-.571.132-.459.823-.48 1.388-.07 1.799.428.427.582.402 1.11-.18zm3.604-1.301c.442-.705.783-1.616.785-2.103l.005-.86h-4.762v.828c0 .84.711 2.26 1.667 3.329.684.765 1.262.465 2.305-1.194zm1.567 1.17c.286-.535.264-.74-.154-1.38-.461-.708-.495-.719-.572-.184-.045.312-.246.703-.446.869-.305.253-.292.38.082.79.593.652.695.643 1.09-.095zm4.148-2.014c.216-.507.325-1.192.243-1.52-.142-.563-.285-.6-2.395-.6h-2.243v.732c0 .915.9 2.655 1.773 3.423l.66.583.785-.847c.432-.466.961-1.263 1.177-1.77zm1.425 1.51c0-.122-.205-.494-.456-.827l-.456-.604-.337.65c-.415.8-.426 1.191-.046 1.571.212.212.428.175.793-.138.276-.237.502-.53.502-.652zm12.965.604c.291-.291.53-.648.53-.794a.26.26 0 0 1 .251-.264c.36 0 .77-1.659.613-2.48-.13-.685-.167-.695-2.35-.695-2.128 0-2.219.024-2.207.595.017.868.527 1.882 1.556 3.097.5.589.946 1.07.993 1.07.047 0 .323-.238.614-.529zm7.81-.279c.16-.504-.26-1.573-.618-1.573-.39 0-.846 1.661-.552 2.015.355.428.967.197 1.17-.442zm50.406-1.188c.316-.511.64-1.42.72-2.021l.147-1.093-1.268.174c-.697.096-1.728.174-2.29.174h-1.02v1.139c0 .812.228 1.5.797 2.396l.797 1.258.772-.55c.424-.301 1.03-.966 1.345-1.477zM9.078 47.257c.067-.175-.097-.732-.366-1.236-.268-.504-.493-.723-.499-.486-.006.237-.19.579-.408.76-.5.416-.5.654.008 1.16.43.43 1.061.332 1.265-.198zm3.074-.215c.77-.7.926-1.039 1.025-2.24l.118-1.417H8.504l.266.86.445 1.432c.194.625 1.517 2.21 1.833 2.198.108-.004.605-.379 1.104-.833zm15.74-.265c.522-.609.948-1.249.948-1.422 0-.174.074-.689.165-1.143l.165-.827h-4.564v.698c0 1.21 1.453 3.758 2.162 3.791.098.005.604-.489 1.125-1.097zm2.083.73c.426-.324.432-.4.066-.767-.224-.224-.408-.535-.408-.69 0-.471-.491-.32-.793.245-.202.376-.202.683 0 1.059.33.617.493.64 1.135.153zm2.95-.342c.814-.814 1.47-2.221 1.47-3.151 0-.616-.05-.63-2.38-.63h-2.382v.83c0 .913.835 2.488 1.696 3.2.722.597.755.592 1.595-.249zm2.265.32c.263-.317.258-.488-.025-.86a16.52 16.52 0 0 1-.417-.56c-.098-.153-.881.694-.881.952 0 .273.557.866.814.866.099 0 .327-.179.509-.397zm2.756-.003a3.775 3.775 0 0 0 1.475-2.972l.002-1.125h-4.498v.781c0 .97.465 2.038 1.3 2.99.722.821.997.874 1.721.326zm5.247.033c.255-.194.463-.437.463-.54 0-.104.176-.364.39-.578.467-.467 1.023-2.388.797-2.754-.088-.142-1.165-.258-2.393-.258h-2.233v.935c0 .96.472 1.93 1.437 2.952.64.678.91.72 1.54.243zm18.366-.047c.088-.228.004-.704-.185-1.057l-.343-.642-.45.726c-.308.498-.367.83-.188 1.057.362.458.975.414 1.166-.084zm2.933-.065c.83-.861 1.39-2.096 1.39-3.067v-.951H63.5c-2.317 0-2.381.016-2.381.617 0 .664.94 2.686 1.587 3.414.522.587 1.213.582 1.786-.013zm2.325.2c.196-.317-.361-1.837-.672-1.837-.261 0-.514 1.317-.34 1.77.16.417.77.457 1.012.066zm3.025-.547c.415-.456.832-1.26.925-1.786.093-.528.23-1.167.306-1.422.122-.417-.102-.463-2.247-.463h-2.382l.152.992c.233 1.529 1.408 3.437 2.144 3.484.19.012.686-.35 1.102-.805zm2.073.4c.235-.42-.152-1.683-.518-1.688-.366-.004-.712 1.521-.412 1.821.404.404.649.369.93-.133zm3.182-.404c.916-.937 1.3-2.087 1.136-3.402-.019-.153-.981-.265-2.282-.265h-2.249v.91c0 .918.906 2.794 1.35 2.794.13 0 .238.179.238.397 0 .67.952.441 1.807-.434zm2.108.513c.423-.422.404-.56-.17-1.222l-.488-.563-.341.637c-.583 1.088.181 1.967 1 1.148zm3.042-.277c.891-.836 1.245-1.601 1.245-2.695 0-.937-.008-.943-1.154-.943-.635 0-1.706-.076-2.381-.169-1.138-.156-1.228-.125-1.228.41 0 1.106 1.817 3.992 2.514 3.992.203 0 .655-.268 1.004-.595zm5.23 0c.961-1.009 1.262-1.612 1.35-2.712l.086-1.059-2.314-.025-2.314-.025v.895c0 1.231 1.486 3.52 2.285 3.52.187 0 .596-.267.908-.594zm5.726-.684c.644-.844.872-1.415.872-2.181v-1.038h-2.381c-2.703 0-2.762.063-1.875 2.016.637 1.403 1.613 2.52 2.116 2.423.217-.041.788-.59 1.268-1.22zm1.512 1.118c.554-.212.528-.538-.1-1.21l-.517-.556-.327.718c-.27.593-.261.76.054.96.462.291.382.283.89.088zm2.987-.434c.813-.89 1.4-2.188 1.4-3.096v-.807h-4.498v.777c0 1.085.443 2.14 1.257 2.993.842.883 1.136.904 1.841.133zm2.457.2c.266-.32.238-.534-.143-1.116l-.472-.72-.261.586c-.144.323-.381.587-.527.587-.146 0-.05.238.214.529.573.633.757.654 1.19.133zm3.252-.72c.559-.69.83-1.356.916-2.248l.121-1.268-2.342.094c-1.288.051-2.39.139-2.449.194-.058.056.061.62.265 1.252.445 1.381 1.786 3.138 2.315 3.034.209-.042.737-.517 1.174-1.057zm2.258.421c.047-.027-.124-.295-.38-.594-.35-.408-.554-.473-.814-.258-.809.672-.133 1.799.712 1.188.219-.157.436-.308.482-.336zm2.703-.11c.907-.928 1.525-2.257 1.478-3.182-.031-.628-.094-.646-2.48-.72l-2.447-.075v.914c0 1.061.644 2.378 1.587 3.243.853.783.928.776 1.862-.18zm2.363-.084c-.005-.312-.183-.798-.397-1.08-.252-.335-.388-.389-.388-.154 0 .198-.207.589-.46.868-.436.483-.435.525.026.863.633.462 1.23.219 1.22-.497zm3.09.16c1.514-1.63 1.772-3.59.506-3.832-1.35-.258-3.813-.215-3.989.07-.521.843 1.442 4.49 2.418 4.49.215 0 .694-.328 1.066-.728zm20.984-.33c.542-.527 1.25-2.394 1.128-2.977-.083-.4-.422-.463-2.458-.463-2.274 0-2.362.022-2.361.595 0 .691.815 2.133 1.79 3.17.713.759.802.744 1.901-.326zm1.98-.562c-.217-.419-.437-.761-.49-.761-.052 0-.296.307-.542.683-.422.644-.422.714.012 1.193.427.472.495.478.937.078.434-.393.441-.499.083-1.193zm3.523.09c.532-.78.859-1.585.859-2.114v-.854h-2.381c-2.68 0-2.646-.036-1.884 1.97.522 1.374 1.66 2.597 2.219 2.383.18-.07.714-.693 1.187-1.385zm1.784.227c-.091-.375-.337-.856-.546-1.069-.331-.338-.38-.3-.38.309 0 .383-.148.748-.33.812-.238.083-.19.274.173.682.659.743 1.333.286 1.083-.734zm5.203-.159-.559-.71-.315.694c-.272.596-.245.745.191 1.07.428.317.565.32.874.016.312-.306.283-.466-.191-1.07zm3 .976c.847-.749 1.455-2.118 1.455-3.274V43.05l-.992.164c-.546.09-1.617.165-2.381.167-1.3.003-1.39.045-1.39.656 0 .882.963 2.673 1.784 3.319.805.633.853.634 1.524.04zm5.093.005c.86-.893 1.39-2.11 1.39-3.198V43.12h-4.57l.165 1.21c.115.838.46 1.568 1.126 2.38 1.078 1.315 1.234 1.372 1.89.692zm2.411.026c.176-.314.136-.684-.126-1.19-.47-.911-.576-.916-.91-.04-.489 1.287.408 2.352 1.036 1.23zm3.092-.538c.798-.869.91-1.165.912-2.392l.001-1.4-2.182.078-2.183.076.09 1.036c.081.936.529 1.812 1.6 3.132.53.652.731.592 1.761-.53zm1.82.577c.507-.507.507-.632 0-1.303-.342-.453-.434-.472-.648-.132-.324.51-.333 1.85-.013 1.85.135 0 .433-.186.661-.415zm3.435-.398c.377-.448.685-.984.685-1.191 0-.207.12-.377.265-.377.146 0 .265-.535.265-1.19v-1.19h-4.763v.91c0 .501.267 1.363.593 1.916 1.27 2.151 1.89 2.387 2.955 1.122zm2.15.255a.944.944 0 0 0-.247-.983c-.388-.388-.46-.388-.847 0-.336.336-.361.536-.123.982.385.718.99.719 1.217 0zm3.292-.698c.551-.877.791-1.597.795-2.381l.005-1.125h-2.382c-2.378 0-2.38.001-2.38.677 0 1.308 1.913 4.052 2.843 4.077.182.005.685-.557 1.12-1.248zm1.876.838c.272-.328.28-.527.032-.922-.173-.277-.315-.684-.315-.905 0-.676-.462-.444-.747.375-.503 1.442.208 2.443 1.03 1.452zm2.93-.441c.963-1.035 1.285-1.785 1.285-2.994v-.909h-4.498v.807c0 .965.602 2.231 1.535 3.228.375.4.725.728.779.728.053 0 .458-.387.898-.86zm2.19.699c.562-.216.53-1.243-.054-1.772-.437-.396-.498-.387-.819.128-.28.45-.283.673-.012 1.18.378.706.326.679.885.464zm2.909-.76c.91-.884 1.804-3.075 1.414-3.465-.093-.093-1.188-.232-2.434-.31-2.194-.137-2.265-.123-2.265.436 0 .66.87 2.467 1.691 3.517.307.393.578.72.602.728.024.008.47-.4.992-.906zm2.528.193c-.008-.693-.52-1.654-.88-1.654-.094 0-.17.179-.17.397 0 .219-.12.397-.265.397-.404 0-.315.564.174 1.104.644.712 1.15.604 1.14-.244zm2.814.128c.826-.878 1.428-2.18 1.428-3.091v-.807h-2.382c-2.35 0-2.38.009-2.38.647 0 .767 1.152 3.049 1.778 3.52.614.462.916.41 1.556-.27zm2.37-.955c-.543-1.05-.852-1.047-1.085.014-.143.65-.076.92.298 1.193.403.295.542.293.849-.014.312-.312.303-.489-.061-1.193zm5.408.847c0-.212-.129-.626-.286-.92-.272-.508-.31-.511-.794-.073-.614.555-.63.748-.103 1.274.463.463 1.183.292 1.183-.28zm2.68-.02c1.06-1.164 1.553-2.105 1.553-2.967v-.803h-2.381c-2.592 0-2.567-.02-2.08 1.608.293.975 1.65 2.89 2.05 2.89.107 0 .494-.328.858-.728zm2.347.167c0-.132-.142-.468-.316-.746-.291-.466-.341-.472-.638-.066-.404.553 0 1.418.56 1.202.217-.083.394-.258.394-.39zm-191.1-.3c.628-.68 1.393-2.405 1.393-3.14 0-.447-.225-.497-2.248-.497-1.411 0-2.25.105-2.25.28 0 .155.197.9.437 1.654.734 2.31 1.597 2.862 2.667 1.704zm183.787.039c.529-.618 1.227-2.419 1.227-3.164 0-.544-1.003-.708-3.373-.554-1.617.106-1.69.299-.794 2.122 1.08 2.196 1.998 2.695 2.94 1.596zm7.114-4.733 4.961-.002v-.75c0-.583-.116-.74-.524-.71-.288.021-.605.12-.705.22-.26.26-2.21.226-2.21-.037 0-.12-1.608-.222-3.572-.224-1.965-.003-3.572.066-3.572.153s-3.066.107-6.813.044c-6.822-.114-44.902-.147-61.317-.053-4.802.028-11.749-.032-15.436-.133-5.63-.154-6.744-.123-6.946.19-.205.32-.278.316-.5-.023-.21-.318-.262-.323-.265-.029-.003.293-.314.33-1.526.18-.836-.103-1.878-.187-2.315-.186l-10.583.015c-5.384.008-9.968.01-10.187 0-2.005-.074-70.618.137-71.768.222-1.404.103-1.521.161-1.521.756v.644l94.92-.137c52.205-.076 97.15-.138 99.88-.14zm-65.55-1.977c39.29-.058 71.705-.113 72.033-.123.515-.016.595-.16.595-1.083V38.08l-3.506.152c-3.326.145-99.81.376-144 .344-11.35-.008-28.554-.005-38.232.007l-17.594.022-.085.97-.084.969 20.325-.18c12.581-.11 20.627-.084 21.119.072.464.146 4.364.202 9.392.135 4.73-.064 40.746-.163 80.037-.22zM7.345 19.59 7.276 1.726l-1.323-.283a7.535 7.535 0 0 0-2.712-.052l-1.389.231-.066 7.19c-.095 10.296-.082 26.894.022 27.827l.088.794 2.76.013 2.758.013-.069-17.866zm-3.773 10.83c.09-.146.752-.265 1.47-.265.72 0 1.308.119 1.308.264 0 .146-.662.265-1.47.265-.914 0-1.41-.1-1.308-.265zm-.397-1.588c0-.15.75-.265 1.72-.265s1.72.115 1.72.265-.75.264-1.72.264-1.72-.115-1.72-.264zm0-1.707c0-.441.027-.448 1.927-.52 1.017-.039 1.251.032 1.188.362-.113.599-3.115.752-3.115.158zm.661-15.756c-.09-.145-.067-.274.051-.286.118-.012.541-.076.942-.141.87-.144.982.297.132.525-.813.218-.936.207-1.125-.098zM2.91 9.152c0-.443.808-.684 2.316-.689.949-.003 1.124.08 1.124.526 0 .475-.176.53-1.72.53-1.288 0-1.72-.093-1.72-.367zm-.694-2.068c-.319-.516.334-.74 2.15-.74 1.761 0 2.827.355 1.935.645-.694.226-3.957.302-4.085.095zM13.94 19.662c-.136-15.89-.2-17.949-.574-18.322-.314-.313-.954-.42-2.506-.42-1.147 0-2.184.098-2.305.22-.24.24-.402 34.505-.169 35.696l.142.728h5.565zM9.525 30.42c0-.145.595-.282 1.323-.304a54.333 54.333 0 0 0 1.632-.066c.17-.015.358.122.418.304.081.242-.355.33-1.631.33-.985 0-1.742-.114-1.742-.264zm0-1.587c0-.146.595-.283 1.323-.305a54.333 54.333 0 0 0 1.632-.066c.17-.014.358.123.418.305.081.242-.355.33-1.631.33-.985 0-1.742-.115-1.742-.264zM9.26 27.24c-.687-.45.212-.781 2.14-.785 1.876-.004 2.256.143 1.794.699-.348.42-3.326.485-3.934.086zM8.908 8.813c-.465-.465-.017-.618 1.808-.618 1.587 0 1.984.08 1.984.397 0 .314-.377.397-1.808.397-.994 0-1.887-.08-1.984-.176zM8.73 6.636c0-.375.548-.487 2.226-.455.993.019 1.605.15 1.676.36.082.246-.407.331-1.895.331-1.104 0-2.007-.106-2.007-.236zm10.96 30.639c.173-.172.389-30.547.227-31.78-.11-.83-.265-1.026-1.011-1.272-.485-.16-1.395-.234-2.023-.164-.628.07-1.35.136-1.606.147-.44.02-.464.959-.435 16.72l.03 16.7 2.346-.112c1.29-.062 2.403-.17 2.473-.24zm-3.551-1.299c0-.145.654-.264 1.455-.264.8 0 1.455.119 1.455.264 0 .146-.655.265-1.455.265s-1.455-.119-1.455-.265zm-.53-1.3c0-.231 3.377-.53 3.588-.316.056.056.039.205-.039.33-.189.307-3.549.293-3.549-.014zm1.323-10.254c0-.549-.201-1.2-.463-1.497-.449-.51-.443-.52.199-.345.364.099.994.253 1.4.341l.74.162-.81.493c-.666.404-.782.612-.645 1.155.102.408.053.662-.127.662-.162 0-.294-.437-.294-.971zm.864-2.865c.056-.945-.002-1.056-.533-1.038-.327.012-.595-.077-.595-.198 0-.12-.238-.22-.53-.22-.63 0-.63-.008-.16-.915.217-.418.442-.594.545-.427.097.156.42.284.718.284.384 0 .495.121.382.417-.088.229.018.594.236.812.45.45.512 1.358.132 1.946-.185.286-.24.102-.195-.661zM16.14 10.84c0-.145.595-.265 1.322-.265.728 0 1.323.12 1.323.265 0 .146-.595.265-1.323.265s-1.322-.12-1.322-.265zm0-1.587c0-.146.595-.265 1.322-.265.728 0 1.323.119 1.323.265 0 .145-.595.264-1.323.264S16.14 9.4 16.14 9.254zm-.265-1.323c0-.146.648-.265 1.44-.265.791 0 1.513.12 1.603.265.102.165-.439.264-1.44.264-.892 0-1.603-.117-1.603-.264zM44.45 36.936c0-.346-.182-1.144-.404-1.774-.369-1.044-.364-1.256.047-2.401.37-1.026.4-1.48.172-2.481l-.28-1.225 1.092-.802c.601-.441 1.428-.922 1.837-1.069.548-.196.694-.38.556-.698-.103-.237-.239-1.146-.302-2.019-.151-2.105.43-3.572 1.415-3.572.556 0 .647-.087.479-.463-.357-.795-.44-2.897-.137-3.463.204-.38.206-.59.007-.714-.309-.19-1.307.59-1.307 1.022 0 .148-.37 1.052-.822 2.01-1.776 3.76-2.795 6.044-3.55 7.958-.5 1.266-1.106 2.697-1.81 4.274-.238.53-.433 1.108-.433 1.282 0 .175-.17.693-.38 1.151-.728 1.595-1.207 2.885-1.207 3.247 0 .285.555.365 2.513.365 2.47 0 2.514-.011 2.514-.628zm5.292.227c0-.226-.254-.4-.596-.41l-.595-.019.595-.287c.87-.419.728-.74-.264-.6l-.86.12.727-.31c.747-.32 1.064-1.189.331-.908-.218.084-.397.037-.397-.104 0-.14.12-.256.265-.256.317 0 .34-.53.043-.998-.167-.262-.658-.18-2.233.375-1.11.392-1.958.812-1.883.933.075.121.36.101.632-.045.273-.146.652-.26.844-.254.191.006-.056.227-.55.49-1.093.582-.656 1.036.526.547.432-.179.853-.258.935-.176.083.082-.338.296-.934.474-.923.277-1.084.432-1.084 1.042v.718l2.249.03c1.826.025 2.249-.043 2.249-.362zm-2.178-.173c.153-.153.435-.227.626-.164.198.066.079.186-.28.28-.44.115-.543.08-.346-.116zm-1.394-.626c.436-.2.972-.36 1.19-.354.219.005.04.173-.396.373-.437.2-.973.36-1.191.354-.218-.005-.04-.173.397-.373zm1.455-1.285c0-.057.179-.173.397-.257.218-.083.397-.037.397.104s-.179.257-.397.257c-.218 0-.397-.047-.397-.104zm-.64-.95c.143-.142.673-.327 1.177-.41l.918-.152-.89.411c-1.026.474-1.6.546-1.205.151zm39.732 2.714c.415-.55.424-1.948.023-3.289l-.309-1.029-18.146.163c-9.98.09-18.188.203-18.239.253-.05.05.052.529.23 1.065.177.537.33 1.576.342 2.308l.02 1.333 17.874-.183c16.201-.165 17.905-.224 18.205-.621zM53.73 35.646c-.01-.85.098-1.522.246-1.522.319 0 .319 1.772 0 2.514-.164.38-.233.102-.246-.992zm3.862 1.212c-.284-.283-.203-3.263.088-3.263.15 0 .265.75.265 1.72 0 1.732-.03 1.866-.353 1.543zm-2.029-1.527c0-.792.12-1.514.265-1.603.165-.103.265.438.265 1.44 0 .891-.118 1.602-.265 1.602-.145 0-.265-.648-.265-1.44zm27.963 1.24c-.063-.108-.025-.733.084-1.388l.198-1.19.033 1.388c.031 1.315-.055 1.641-.315 1.19zm1.495-1.377c.093-1.849.44-1.996.44-.188 0 .825-.113 1.5-.253 1.5-.139 0-.223-.59-.187-1.312zm58.893-10.528c.027-6.863-.053-11.973-.188-11.973-.13 0-.379.268-.553.595-.509.954-1.04 1.793-4.165 6.577-.929 1.422-1.688 2.702-1.688 2.844 0 .142-.09.298-.199.347-.222.099-1.194 1.463-1.476 2.073-.1.218-.39.715-.643 1.105s-.996 1.56-1.651 2.599a335.099 335.099 0 0 1-1.65 2.598c-.254.39-.543.888-.644 1.106-.1.218-.756 1.269-1.458 2.334-.701 1.066-1.275 2.046-1.275 2.178 0 .14 2.689.202 6.416.15 3.529-.05 6.952-.015 7.607.077.927.129 1.227.077 1.354-.236.09-.221.186-5.79.213-12.374zM25.74 20.942l.112-16.225-.625-.41c-.68-.444-3.6-.395-4.037.069-.234.248-.416 14.855-.333 26.65l.045 6.293 2.363-.076 2.363-.076zm-4.044 15.034c0-.145.268-.27.595-.28a28.96 28.96 0 0 0 1.72-.131c.874-.09 1.124-.028 1.124.28 0 .311-.368.396-1.72.396-.97 0-1.72-.115-1.72-.265zm.054-1.354c.12-.361 3.65-.637 3.65-.285 0 .273-1.491.574-2.866.578-.535.002-.843-.114-.784-.293zm1.05-9.655c-.025-.453-.343-1.262-.707-1.798-.774-1.14-.79-1.215-.265-1.215.218 0 .397.115.397.256 0 .14.179.188.397.104.218-.084.397-.378.397-.653 0-.276.115-.501.256-.501.141 0 .183.19.094.423-.09.233-.001.524.196.646.295.182.282.306-.075.701-.24.264-.481 1.015-.539 1.67-.072.816-.119.931-.15.367zm.504-4.402c-.024-.54-.312-.595-.761-.146-.247.247-.318.247-.318 0 0-.175-.179-.318-.397-.318-.218 0-.397-.178-.397-.396s.105-.397.234-.397.301-.258.383-.573c.12-.455.226-.51.519-.267.202.168.464.218.581.11.118-.108.141.095.053.451-.088.357-.035.8.118.984.154.184.218.488.143.675-.086.213-.145.168-.158-.123zm-.153-9.46c-.423-.18-.326-.23.479-.245.608-.012.943.086.844.246-.193.312-.596.312-1.323 0zm-.926-1.851c.524-.34 2.91-.34 2.91 0 0 .148-.724.262-1.653.26-1.166-.003-1.537-.08-1.257-.26zm-.53-1.588c0-.266.245-.31 2.316-.416.813-.041 1.124.045 1.124.312 0 .277-.425.369-1.72.369-.97 0-1.72-.116-1.72-.265zm9.522 13.256c-.008-13.618-.071-16.429-.376-16.681-.22-.183-1.087-.273-2.176-.226l-1.81.08-.024 14.816c-.014 8.149.032 15.62.101 16.602l.127 1.786h4.167l-.01-16.377zM27.78 35.879c0-.258.417-.372 1.455-.396 1.13-.026 1.456.055 1.456.362 0 .304-.34.396-1.456.396-1.055 0-1.455-.1-1.455-.362zm0-1.49c0-.146.655-.265 1.455-.265s1.456.12 1.456.265c0 .146-.655.265-1.456.265-.8 0-1.455-.12-1.455-.265zm.955-9.679c-.089-.23-.161-.684-.161-1.008 0-.324-.175-.82-.388-1.103-.214-.282-.39-.751-.393-1.042-.004-.408.05-.445.229-.16.133.21.464.307.772.227.727-.19.978.53.404 1.164-.37.41-.398.652-.163 1.417.276.902.018 1.336-.3.505zm.629-4.234c-.004-.617-.06-.692-.285-.375-.211.3-.314.316-.415.067a.589.589 0 0 0-.509-.331c-.397 0-.47-.54-.208-1.521.175-.653.627-.816.627-.227 0 .202.167.432.37.51.383.147.864 2.208.582 2.49-.087.088-.16-.188-.162-.613zM27.78 10.074c0-.13.536-.28 1.19-.333.83-.066 1.192.006 1.192.238 0 .218-.411.333-1.191.333-.655 0-1.19-.107-1.19-.238zm.331-1.54c.4-.06 1.055-.06 1.455 0 .4.061.073.111-.727.111-.8 0-1.128-.05-.728-.11zm-.595-1.133c0-.145.662-.264 1.47-.264.914 0 1.41.1 1.308.264-.09.146-.752.265-1.471.265-.719 0-1.307-.119-1.307-.265zM89.65 24.348c-.057-8.31-.185-13.048-.358-13.22-.148-.149-.535-.2-.86-.115-.52.136-.59.327-.59 1.604 0 1.288.597 2.987 1.05 2.987.078 0 .141 1.31.141 2.91 0 2.181-.085 2.91-.338 2.91-.366 0-.847 1.049-.894 1.95-.016.31.061 1.189.172 1.953.177 1.22.145 1.39-.258 1.39-.337 0-.406.122-.258.462.395.91.447 2.283.138 3.662-.272 1.214-.255 1.493.129 2.077.338.517.418 1.11.337 2.529l-.104 1.852h1.78zm7.666 11.827-.082-1.125-2.116-.075c-1.165-.042-2.593.022-3.175.142-.984.203-1.064.288-1.14 1.2l-.083.982h6.677zm7.194-.043c0-1.145-.018-1.17-.992-1.32-1.66-.256-4.589-.016-4.85.397-.13.204-.237.758-.239 1.23l-.004.86h6.085zm5.758-13.545c-.107-12.14-.194-14.755-.496-14.951-.202-.131-1.2-.208-2.219-.17l-1.852.068-.142 9.392c-.078 5.166-.09 11.864-.026 14.883l.117 5.49h4.748l-.13-14.712zm-3.707 13.207c-.969-.253-.398-.48 1.257-.498 1.66-.019 2.172.186 1.301.52-.463.178-1.84.166-2.558-.022zm1.16-7.374c-.02-.445-.21-1.04-.424-1.323-.54-.712-.547-1.357-.012-.913.32.265.425.246.558-.1.09-.234.33-.426.532-.426.448 0 .494.708.056.854-.172.057-.395.692-.494 1.41-.123.889-.192 1.048-.216.498zm-.656-3.822c-.712-.798-.896-1.322-.466-1.322.13 0 .305.18.388.397.084.219.322.397.53.397.207 0 .445-.178.529-.397.157-.409.962-.563.962-.183 0 .117-.28.592-.62 1.054l-.621.842zm.66-2.013c-.022-.308-.287-.875-.59-1.26-.656-.834-.576-1.518.1-.843.424.425.45.407.45-.306 0-.416-.238-1.223-.529-1.794-.681-1.337-.67-1.664.035-1.034l.563.505-.19-2.051c-.192-2.093.05-2.644.66-1.503.212.395.214.776.01 1.363-.157.448-.28 1.124-.276 1.502.008.66.024.668.394.179.64-.847.73-.278.145.93-.66 1.367-.732 2.412-.15 2.189.515-.198.527.525.015.95-.21.173-.43.634-.49 1.024-.08.527-.118.565-.147.149zm-1.098-10.686c0-.145.208-.278.463-.295 1.75-.118 2.183-.073 2.183.23 0 .22-.441.33-1.323.33-.728 0-1.323-.12-1.323-.265zm0-1.557c0-.294 1.43-.516 2.276-.354 1.164.222.653.588-.82.588-.801 0-1.456-.105-1.456-.234zm8.538 12.34c-.072-8.04-.232-14.728-.357-14.862-.267-.287-3.189-.327-3.637-.05-.361.223-.415 8.8-.136 21.549l.175 7.98h4.086zm-3.485 13.06c-.253-.166.157-.273 1.282-.335 1.532-.085 2.31.098 1.535.361-.668.227-2.457.21-2.817-.026zm1.032-7.438a.265.265 0 0 1 .53 0 .265.265 0 0 1-.53 0zm0-1.068c0-.296-.192-.832-.427-1.19-.393-.601-.393-.653 0-.653.552 0 .578-1.208.03-1.418-.218-.084-.396-.276-.396-.426 0-.15.178-.273.397-.273.605 0 .49-1.322-.178-2.032-.624-.664-.486-1.164.171-.619.352.292.403.178.403-.888 0-.673-.114-1.223-.255-1.223s-.389-.25-.552-.554c-.264-.495-.237-.536.256-.38.494.158.551.07.551-.847 0-.563-.13-1.155-.29-1.314-.16-.16-.21-.548-.11-.861.143-.451.257-.506.548-.265.276.23.327.7.202 1.894-.164 1.566-.158 1.583.392 1.24.847-.53.996-.085.214.64-.5.464-.691.905-.691 1.602 0 .529.12.962.265.962.145 0 .264-.12.264-.265 0-.145.179-.265.397-.265.566 0 .486.305-.27 1.02-.404.384-.656.918-.656 1.39 0 .878.16.941.84.328.45-.409.483-.407.483.028 0 .256-.298.7-.661.986-.384.302-.662.792-.662 1.168 0 .565.087.625.69.474.634-.16.666-.129.395.377-.162.302-.412.623-.557.713-.145.09-.263.393-.263.676 0 .282-.12.513-.265.513-.145 0-.265-.242-.265-.538zm-.264-15.601c0-.146.483-.265 1.074-.265.648 0 1.009.105.91.265-.09.145-.573.264-1.074.264-.5 0-.91-.119-.91-.264zm-.53-1.588c0-.145.663-.264 1.472-.264.913 0 1.408.1 1.307.264-.09.146-.752.265-1.471.265-.719 0-1.307-.12-1.307-.265zm40.591 26.79c.15-.478.233-11.41.193-25.314-.015-5.079-.121-8.015-.297-8.191-.29-.29-3.878-.314-4.77-.031-.519.165-.527.417-.527 17.083v16.915h2.628c2.272 0 2.648-.062 2.773-.463zm-3.68-1.654c.089-.146.75-.265 1.47-.265s1.307.12 1.307.265c0 .145-.662.264-1.47.264-.914 0-1.41-.1-1.308-.264zm.26-13.56c-.736-.844-.72-3.732.023-4.294.776-.587 1.345-.48 1.947.366 1.04 1.461.461 4.523-.856 4.523-.328 0-.83-.268-1.114-.595zm.665-1.918c0-.412.15-.662.397-.662.247 0 .397.25.397.662 0 .363.119.661.264.661.348 0 .341-1.744-.009-2.399-.771-1.442-2.303.361-1.682 1.98.247.645.633.497.633-.242zm-1.323-10.65c0-.228.494-.33 1.588-.33 2.063 0 2.063.455 0 .571-1.143.065-1.589-.003-1.588-.24zm.397-1.785c.683-.23 2.778-.307 2.778-.1 0 .127-.684.222-1.521.21-.837-.01-1.402-.06-1.257-.11zm-.397-1.52c0-.11.447-.21.992-.22.546-.012 1.217-.063 1.49-.115.274-.051.393.006.265.127-.302.286-2.747.47-2.747.208zm11.161 16.931c.049-14.757-.018-21.399-.219-21.615-.153-.165-5.34-.148-5.506.018-.16.16-.342 32.471-.195 34.694l.1 1.521h5.772l.048-14.618zm-4.017 12.237c0-.147.706-.264 1.587-.264s1.588.117 1.588.264c0 .147-.706.265-1.588.265s-1.587-.118-1.587-.265zm-.794-2.381c0-.151.789-.265 1.837-.265 1.01 0 1.91.12 2 .265.103.167-.57.264-1.837.264-1.157 0-2-.111-2-.264zm.794-24.077c0-.146.662-.265 1.47-.265.914 0 1.41.1 1.308.265-.09.145-.752.264-1.47.264-.72 0-1.308-.119-1.308-.264zm-.265-1.852c0-.147.706-.265 1.588-.265.882 0 1.587.118 1.587.265s-.705.264-1.587.264-1.588-.117-1.588-.264zm-.529-1.852c0-.153.838-.265 1.985-.265 1.146 0 1.984.112 1.984.265 0 .153-.838.264-1.984.264-1.147 0-1.985-.111-1.985-.264zm12.107 14.491.068-17.92-.73-.204c-.953-.266-5.085-.189-5.368.1-.275.282-.354 6.41-.3 23.054l.044 13.04 3.109-.075 3.109-.075zm-4.25 15.767c-.388-.388.2-.625 1.552-.625 1.103 0 1.44.093 1.44.397 0 .303-.334.397-1.412.397-.776 0-1.487-.076-1.58-.17zm-.448-1.813c0-.256.52-.38 1.852-.444 1.02-.048 1.853.005 1.852.119 0 .285-.417.389-2.183.546-1.165.103-1.521.052-1.521-.221zm0-24.741c0-.147.705-.265 1.587-.265s1.588.118 1.588.265c0 .147-.706.264-1.588.264-.882 0-1.587-.117-1.587-.264zm-.133-1.851c.2-.325 3.837-.299 3.837.028 0 .13-.9.235-2 .235-1.26 0-1.94-.097-1.837-.263zm-.397-1.853c0-.155.882-.265 2.117-.265 1.235 0 2.117.11 2.117.265 0 .154-.882.264-2.117.264-1.235 0-2.117-.11-2.117-.264zm12.436 32.147c0-.315-.378-.397-1.815-.397-2.27 0-4.27.264-4.27.565 0 .126 1.369.228 3.042.228 2.528 0 3.043-.067 3.043-.396zm6.549.066c-.075-.226-.896-.356-2.582-.408-2.597-.08-3.315.03-3.042.472.256.414 5.762.351 5.624-.064zm5.886-.076c0-.342-.386-.395-2.426-.331-1.649.051-2.46.182-2.535.407-.083.249.515.33 2.426.33 2.105 0 2.535-.069 2.535-.406zm6.92-6.274c.06-10.23-.058-29.117-.185-29.323-.198-.32-2.904-.544-4.315-.357l-1.361.18V37.3h5.82zm-2.422 4.624c-.946-.04-1.895-.136-2.11-.213-.784-.283.345-.633 2.052-.637 1.257-.003 1.7.096 1.819.404.205.536.23.53-1.76.446zm-2.381-2.32c0-.34.344-.395 2.03-.331 1.33.05 2.066.191 2.138.408.081.246-.436.33-2.03.33-1.75 0-2.138-.073-2.138-.407zm.97-24.904c-.42-.42-.097-.618 1.014-.618 1.181 0 1.577.325.772.634-.556.213-1.566.204-1.786-.016zm-.44-1.94c0-.148.71-.265 1.602-.265 1.002 0 1.542.1 1.44.264-.09.146-.812.265-1.603.265-.792 0-1.44-.119-1.44-.265zm-.145-1.29c-.396-.397.082-.563 1.621-.563 1.276 0 1.713.089 1.632.331-.106.314-2.966.518-3.253.231zm13.638 31.073c0-1.751-.118-1.81-3.639-1.81-1.8 0-2.748.128-3.514.473-.99.446-1.05.54-1.05 1.624v1.15h8.203zm-75.161.341c.789-1.325 2.27-3.725 2.727-4.422.253-.385.577-.967.721-1.295.144-.327.384-.595.533-.595.15 0 .271-.13.271-.29 0-.277 1.81-3.4 2.133-3.679.084-.073.62-.882 1.193-1.798l1.437-2.297c1.473-2.341 2.381-3.915 2.381-4.126 0-.135.111-.245.247-.245s.322-.238.414-.528c.092-.29.309-.68.481-.867.589-.638 1.504-2.023 1.504-2.277 0-.14.092-.293.204-.341.112-.049.914-1.28 1.784-2.734.87-1.456 1.73-2.804 1.915-2.997.709-.746.934-1.423.556-1.676-1.28-.86-2.593-1.518-3.333-1.672-.756-.158-.89-.098-1.118.503-.143.375-.381.682-.53.682-.15 0-.272.16-.272.356 0 .196-.238.572-.529.835-.29.263-.529.59-.529.727s-.536 1.048-1.19 2.024c-.655.976-1.191 1.907-1.191 2.07 0 .161-.09.334-.199.382-.3.134-1.389 1.749-1.389 2.062 0 .152-.1.276-.222.276s-.353.288-.514.64c-.16.352-.953 1.656-1.762 2.897-.809 1.24-1.47 2.326-1.47 2.413 0 .087-.125.301-.278.477-.152.176-1.075 1.572-2.05 3.104l-2.108 3.307c-.184.288-.464.85-.621 1.25-.158.4-.394.728-.526.728s-.238.126-.238.279c0 .153-.51 1.076-1.133 2.05-1.789 2.8-1.923 3.13-1.487 3.66.204.247.843.792 1.42 1.211 1.26.916 2.185.885 2.768-.094zm-1.436-1.566a17.45 17.45 0 0 0-1.123-.67c-.181-.09-.262-.272-.18-.406.083-.133.734.075 1.447.463.713.388 1.233.807 1.155.932-.193.313-.384.266-1.3-.319zm7.223-13.014c-.569-.896-.129-2.645.88-3.493 2.438-2.051 3.66 1.022 1.248 3.136-1.266 1.11-1.612 1.168-2.128.357zm2.714-1.588c.993-1.19.392-2.246-1.064-1.865-.639.167-1.687 1.845-1.302 2.083.26.16 1.002-.588 1.02-1.027.004-.118.127-.14.273-.05.147.09.193.454.104.81-.207.826.299.852.969.05zm4.277-8.548c-.917-.642-.69-.951.338-.46.93.443 1.219.872.588.872-.186 0-.603-.185-.926-.412zm1.396-1.112c-.436-.225-.833-.51-.882-.633-.048-.123-.256-.224-.463-.224-.206 0-.374-.119-.374-.265 0-.145.178-.264.396-.264s.399.09.4.198c.002.11.478.426 1.059.704.58.278 1.055.606 1.055.728 0 .295-.242.246-1.19-.244zm.596-1.694c-.4-.146-.728-.375-.728-.508 0-.412.704-.268 1.36.278.683.57.49.64-.632.23zM36.465 34.43c.608-1.288 1.11-2.449 1.115-2.58.005-.13.239-.714.52-1.296s.515-1.198.52-1.367c.005-.17.104-.349.22-.397.116-.049.487-.862.823-1.808.337-.946 1.299-3.149 2.138-4.895 1.473-3.064 2.402-5.095 2.965-6.482a65.624 65.624 0 0 1 1.543-3.557c.336-.72.61-1.464.61-1.654 0-.19.1-.346.22-.346.122 0 .221-.126.221-.281 0-.155.303-.944.673-1.753.628-1.371.644-1.503.238-1.951-.24-.265-.959-.66-1.599-.878l-1.163-.396-.637 1.373c-.35.755-.9 1.968-1.219 2.696-.32.727-.91 2.037-1.313 2.91a350.47 350.47 0 0 0-3.56 7.938l-.777 1.786c-.418.96-.851 1.97-1.672 3.902-.217.51-.562 1.263-.768 1.675-.205.412-.373.887-.373 1.055 0 .168-.288.902-.639 1.632-.742 1.543-1.539 3.357-1.993 4.54-.385 1-.041 1.724 1.019 2.146 1.527.607 1.71.48 2.888-2.012zm-2.4.338c-.62-.336-1-.907-.604-.907.337 0 1.993.92 1.993 1.107 0 .325-.574.242-1.389-.2zm.239-1.392c-.592-.654-.295-.87.574-.417.39.203.857.37 1.04.371.181 0 .33.12.33.266 0 .456-1.484.288-1.944-.22zm5.021-11.025c.05-.29.092-.797.094-1.124.002-.327.123-.595.268-.595s.265.178.265.397.179.396.397.396c.218 0 .397-.119.397-.264 0-.146.108-.265.24-.265.131 0 .102.297-.067.66-.188.405-.527.66-.881.661-.317.001-.627.151-.69.333-.063.182-.073.092-.023-.199zm1.253-2.976c.11-.182.073-.33-.081-.33-.356 0-.369-.973-.016-1.191.146-.09.265-.025.265.145s.178.24.397.156c.29-.112.397.034.397.545 0 .383-.079.619-.175.523-.095-.096-.356-.026-.58.154-.323.262-.365.262-.207-.002zm3.872-8.441c-.526-.236-.779-.472-.585-.544.187-.07.753.068 1.256.307 1.568.743.944.964-.671.237zm.728-1.23c-.4-.158-.728-.396-.728-.529s.19-.169.421-.08c.232.09.709.234 1.059.322s.637.266.637.395c0 .297-.455.262-1.39-.107zm.396-1.037c-.643-.31-.8-.742-.264-.724.182.006.747.239 1.257.518.855.468.875.506.264.5a3.54 3.54 0 0 1-1.257-.294zm76.343 25.918a268.64 268.64 0 0 1 1.455-2.434 1150.21 1150.21 0 0 0 1.959-3.185c.179-.291.41-.708.515-.926.104-.218.26-.456.346-.53.087-.072.303-.43.48-.793.364-.743.556-1.057 2.022-3.307.568-.873 1.104-1.647 1.191-1.72.087-.073.3-.37.475-.661 2.077-3.468 2.741-4.543 3.955-6.403.78-1.193 1.416-2.22 1.416-2.281 0-.062.774-1.279 1.72-2.704.946-1.424 1.72-2.694 1.72-2.822 0-.575-1.764-1.86-2.956-2.153-.772-.19-1.542.005-1.542.392 0 .229-2.337 4.005-2.842 4.593-.125.146-.46.682-.743 1.191a20.51 20.51 0 0 1-1.31 1.972c-.802 1.056-1.28 1.8-1.621 2.526-.103.218-.5.814-.883 1.323-.383.51-.988 1.491-1.345 2.183-.356.69-.737 1.256-.847 1.256-.11 0-.199.161-.199.358 0 .196-.334.821-.743 1.389-.409.567-.827 1.21-.929 1.428-.102.219-.42.755-.708 1.191a17.237 17.237 0 0 0-.79 1.323c-.294.581-.57 1.028-1.658 2.69-.4.61-.728 1.214-.728 1.343 0 .128-.222.472-.494.763-.272.292-.872 1.21-1.334 2.04l-.84 1.509.871.816c.904.846 2.168 1.529 2.855 1.541.219.004.908-.855 1.532-1.908zm-2.686-.63c-.744-.487-.943-.748-.731-.96.212-.212.459-.134.907.287.338.318.742.579.897.579.155 0 .43.178.61.397.546.657-.505.468-1.683-.303zm7.136-12.154c-.44-1.146-.061-2.755.882-3.749.69-.727 2.51-.844 2.765-.177.251.654.19 1.68-.137 2.29-.867 1.62-3.114 2.667-3.51 1.636zm2.886-1.632c.868-.986.857-1.858-.024-2.08-.86-.215-1.814.283-2.212 1.157-.45.985.077 1.363.66.474.321-.491.544-.62.738-.425.195.195.183.374-.04.596-.39.391-.415 1.005-.04 1.005.153 0 .566-.327.918-.727zm5.59-10.253c-.218-.218-.524-.397-.68-.397-.156 0-.284-.119-.284-.264 0-.434.499-.305 1.53.396.816.554.881.662.403.662-.315 0-.75-.179-.969-.397zm1.467-1.205c-.72-.29-1.495-1.01-1.297-1.208.169-.169 2.033 1.01 2.038 1.289.004.23.046.235-.74-.08zm37.815 27.04c.016-.094.07-1.979.12-4.189l.09-4.019-.957-.315c-.944-.312-4.52-.21-5.094.145-.17.105-.274 1.763-.274 4.364v4.196l3.043-.006c1.674-.003 3.056-.083 3.072-.176zm6.336-1.372c.054-5.547.018-6.677-.221-6.915-.147-.147-.995-.227-1.883-.177-.96.055-1.618-.016-1.62-.173-.002-.146-.094-.122-.205.053-.111.175-.489.424-.84.553-.633.235-.636.258-.653 4.235l-.017 4h5.424l.015-1.576zm6.165.606c.09-.545.165-2.564.167-4.486l.003-3.493-.952-.179c-1.043-.196-3.86-.009-4.34.287-.304.188-.35 5.749-.065 7.871l.133.992h4.89l.164-.992zm-91.151-1.011c.05-.043.014-.205-.082-.36-.22-.357-2.966-.373-3.186-.018-.36.582.2.79 1.67.625.828-.093 1.547-.204 1.598-.247zm-4.265-.008c-.088-.088-.317-.097-.508-.02-.21.084-.148.146.16.159.28.011.436-.051.348-.139zm10.5 0c.23-.09.42-.314.42-.502 0-.43-.596-.661-1.71-.661-.907 0-1.636.569-1.34 1.047.184.299 1.95.376 2.63.115zm98.54-.986c.57-.457-.385-.679-2.21-.513-1.56.142-2.362.467-2.12.86.18.29 3.907-.01 4.33-.347zm-154.345.088c.09-.146.447-.265.794-.265.347 0 .698-.11.781-.244.083-.135.497-.32.92-.413.422-.093.834-.34.914-.55.194-.505-.447-.49-1.462.036-.443.229-.87.35-.95.271-.08-.08.407-.382 1.082-.672.717-.307 1.228-.7 1.228-.942 0-.339-.1-.36-.551-.12-.304.163-.601.246-.661.186-.06-.06.188-.268.551-.463.364-.194.661-.452.661-.573 0-.312-.022-.305-1.748.57-.857.435-1.708.792-1.89.794-.181.002-.33.122-.33.268 0 .369.54.314 1.323-.132.363-.208.78-.377.926-.376.145.002-.301.298-.992.658-1.388.722-1.675 1.276-.53 1.021.715-.159.712-.152-.132.388-.473.302-.86.611-.86.686 0 .247.76.142.926-.128zm51.46-1.097c.001-.394-.18-.769-.417-.86-.542-.208-3.925-.202-5.204.01-.853.14-.992.26-.992.86v.697l3.307-.004 3.306-.004v-.7zm98.294.399c1.181-.64 4.52-.79 5.79-.259 1.295.542 1.222.563 1.222-.351 0-1.19-.811-1.603-3.155-1.603-1.101 0-2.659.202-3.513.456-1.465.434-1.534.494-1.534 1.323 0 .99.098 1.026 1.19.434zm-94.059-.223c.8-.003 1.783.086 2.183.198.649.181.727.134.727-.435 0-.847-.388-.96-3.329-.96H98.69v.823c0 .775.042.81.727.601.4-.122 1.383-.224 2.183-.227zm-15.06-.932c.254-.38.23-3.849-.03-4.025-.068-.046-8.495-.042-18.726.01l-18.602.093.416.635c.228.349.489 1.334.578 2.189l.163 1.554 17.967-.029c15.654-.026 18.002-.08 18.233-.426zm-33.094-1.323c0-.728.119-1.323.264-1.323s.265.595.265 1.323-.12 1.323-.265 1.323-.264-.595-.264-1.323zm3.777-.252c.032-.88.155-1.6.271-1.6.274 0 .162 2.894-.119 3.067-.116.072-.185-.588-.152-1.467zm-2.19-.013c0-1.041.091-1.322.428-1.322.315 0 .386.157.268.595a6.309 6.309 0 0 0-.163 1.323c-.002.4-.123.727-.268.727s-.265-.595-.265-1.323zm28.046.133c0-.655.115-1.19.255-1.19s.244.535.231 1.19c-.013.655-.128 1.19-.255 1.19s-.23-.535-.23-1.19zm1.588-.117c0-.736.119-1.338.264-1.338.146 0 .265.528.265 1.175 0 .646-.12 1.248-.265 1.338-.163.1-.264-.35-.264-1.175zm9.282.778c.931 0 1.301-.104 1.301-.366 0-.734-2.19-.928-3.12-.277-.63.44-.534 1.047.126.794.215-.083.977-.15 1.693-.15zm-46.68-.793c.923-.437 1.679-.913 1.679-1.059 0-.357-.154-.336-1.096.152-.443.229-.874.348-.957.265-.084-.084-.043-.155.09-.158.134-.003.54-.246.905-.539l.661-.533-.926.408-1.654.729c-.4.177-.727.414-.727.528 0 .277.199.26.81-.067.294-.158.513-.17.513-.03 0 .136-.298.32-.662.412-.364.091-.661.283-.661.426 0 .384.185.335 2.025-.534zm54.917.161c.24-.374-.446-.648-1.678-.672-.948-.018-1.741.522-1.452.99.2.323 2.893.05 3.13-.318zm96.45-.313c.912-.12 1.389-.306 1.389-.544 0-.275-.477-.363-1.969-.363-1.983 0-2.445.207-2.153.967.105.273.359.363.751.267.326-.08 1.218-.227 1.982-.327zM94.8 28.988l2.592.022-.048-9.62c-.03-6.101-.145-9.68-.313-9.783-.46-.285-3.714-.392-4.956-.163l-1.19.22-.23 3.693c-.125 2.031-.142 6.462-.036 9.847l.192 6.153.698-.196c.384-.108 1.865-.186 3.29-.173zm-1.931-8.093c0-.145.595-.264 1.323-.264.727 0 1.409-.01 1.514-.02.106-.011.235.108.287.264.06.183-.484.285-1.515.285-.896 0-1.61-.117-1.61-.265zm.992-1.254c-2.662-.138-2.238-.64.463-.55 1.237.042 2.249.155 2.249.25 0 .163-.784.558-.882.444-.024-.028-.848-.093-1.83-.144zm-1.257-2.088c0-.351.184-.4.992-.267.546.09 1.267.165 1.603.167.34.002.539.12.448.267-.09.146-.811.265-1.603.265-1.155 0-1.44-.086-1.44-.432zm12.138.36.033-7.614-.679-.258c-.903-.344-4.065-.33-5.076.023-1.03.359-1.01.144-.919 10.434l.074 8.202 2.176-.09c1.197-.05 2.593.018 3.102.15l.925.242.166-1.738c.09-.956.18-5.165.198-9.352zm-3.539 2.982c.09-.145.573-.264 1.074-.264.5 0 .91.119.91.264 0 .146-.483.265-1.073.265-.649 0-1.01-.105-.91-.265zm-1.72-1.391c0-.311.48-.393 2.421-.411 2.933-.028 2.784.354-.238.613-1.827.156-2.183.123-2.183-.202zm.676-1.76c-.082-.133.578-.282 1.466-.33 1.65-.093 2.292.12 1.229.405-.901.241-2.527.196-2.695-.075zm95.989 10.427c1.225-.512 4.152-.51 5.381.003.527.22.993.366 1.035.324.08-.08.165-7.958.128-11.738l-.021-2.151-.858-.356c-1.196-.495-4.288-.42-5.955.146l-1.39.471-.012 2.946a260.04 260.04 0 0 1-.156 6.85c-.162 4.394-.183 4.353 1.848 3.505zm1.664-5.821c-.138-.36.03-.413 1.091-.345 1.542.1 1.656.58.163.69-.808.059-1.133-.03-1.254-.345zm-.907-1.488c.124-.371 3.876-.448 3.98-.081.036.128-.868.27-2.01.315-1.517.06-2.047-.003-1.97-.234zm.276-1.2c-.883-.356-.125-.619 1.786-.619 1.234 0 2.116.11 2.116.265 0 .145-.645.264-1.433.264-.789 0-1.592.05-1.786.112a1.18 1.18 0 0 1-.683-.022zm-18.918 7.058c1.762-.003 2.183-.08 2.183-.4 0-.325-.45-.398-2.46-.398-1.562 0-2.578.116-2.779.318-.504.504-.37.816.278.643.327-.088 1.577-.161 2.778-.163zm-4.167-.467c0-.449-3.77-.438-5.07.015-.889.31-.72.336 2.05.327 2.233-.008 3.02-.097 3.02-.342zm10.517.066c2.097 0 2.656-.159 1.764-.5-.546-.21-3.254-.207-4.31.004-.468.094-.827.332-.827.547 0 .284.153.326.595.166.327-.12 1.577-.217 2.778-.217zM84.74 24.27c.073-1.055.22-2.189.326-2.518l.194-.6-18.355.165c-10.094.09-18.387.196-18.428.233-.213.195-.367 2.865-.213 3.688l.179.95h36.166zm-34.681-.53c.044-.764.19-1.389.325-1.389s.254.625.265 1.39c.014.976-.082 1.389-.325 1.389-.25 0-.323-.382-.265-1.39zm1.535-.05c0-.809.119-1.47.264-1.47.146 0 .265.587.265 1.306 0 .72-.12 1.381-.265 1.471-.164.102-.264-.394-.264-1.307zm25.639 1.175c-.188-.473.099-3.161.297-2.778.075.145.074.92-.001 1.72-.076.8-.21 1.276-.296 1.058zm1.877-1.19c0-.801.12-1.456.265-1.456.146 0 .265.655.265 1.455s-.12 1.456-.265 1.456c-.146 0-.265-.655-.265-1.456zm1.806 1.058c-.193-.587.107-3.067.32-2.646.074.145.071.92-.006 1.72-.093.967-.198 1.278-.314.926zm88.327.91c.406-.155 1.649-.28 2.761-.277l2.023.004.167-1.216c.091-.668.166-2.079.166-3.135 0-1.505-.09-1.953-.418-2.08-.676-.259-5.129-.183-5.651.096-.423.226-.478.642-.475 3.572.004 3.573.005 3.576 1.427 3.035zm1.149-2.498c0-.294.308-.397 1.19-.397.882 0 1.19.103 1.19.397s-.308.397-1.19.397c-.882 0-1.19-.103-1.19-.397zm-.377-1.423c-.13-.208 2.76-.61 2.983-.413.05.045.014.208-.082.363-.209.339-2.697.382-2.901.05zm-.417-1.62c0-.145.585-.264 1.301-.264s1.49-.072 1.72-.16c.275-.106.418-.015.418.264 0 .347-.316.425-1.72.425-.97 0-1.72-.115-1.72-.265zM86.5 22.594c-.171-.207-.416-.376-.544-.376-.394 0-.256.584.231.977.427.344.416.36-.132.21-.328-.09-.596-.055-.596.078s.268.38.596.548c.584.301.583.304-.064.135-.589-.154-.621-.125-.299.263.305.368.305.436-.002.444-.2.005-.065.175.299.377l.661.368.08-1.324c.046-.748-.054-1.488-.23-1.7zm91.894 2.696 2.05.029v-6.53l-.676-.17c-.373-.094-1.474-.098-2.448-.01-.973.088-1.919.162-2.1.165-.248.003-.331.872-.331 3.449v3.444l.727-.203c.4-.112 1.65-.19 2.778-.175zm-.992-1.484c-.1-.161.283-.263.977-.26.833.002 1.033.072.743.26-.52.335-1.512.335-1.72 0zm-.397-1.852c0-.146.536-.265 1.19-.265.656 0 1.191.12 1.191.265 0 .145-.535.264-1.19.264-.655 0-1.19-.119-1.19-.264zm-.464-1.919c.066-.199.705-.362 1.61-.41 1.213-.064 1.5 0 1.5.331 0 .325-.332.41-1.61.41-1.169 0-1.58-.09-1.5-.33zm10.254 1.955v-3.138l-1.293-.153c-.711-.084-1.961-.084-2.778 0l-1.485.154v6.276h5.556zm-3.175 1.551c0-.145.483-.265 1.074-.265.648 0 1.009.105.91.265-.09.146-.573.265-1.074.265-.5 0-.91-.12-.91-.265zm.661-1.852c.728-.107 1.436-.09 1.575.035.144.132-.421.214-1.323.194l-1.575-.035zm-.926-1.698c0-.268.34-.375 1.19-.375.852 0 1.191.107 1.191.375s-.34.375-1.19.375c-.851 0-1.19-.107-1.19-.375zm-96.308 2.087c0-.427-.704-.831-.975-.56-.189.188.41.965.743.965.127 0 .232-.183.232-.405zm-7.673-1.711 6.747-.002.005-1.653c.003-.91.09-1.96.192-2.336l.187-.683-2.706.103c-1.488.057-9.697.121-18.242.144l-15.536.041-.17 1.134c-.094.624-.087 1.689.014 2.367l.185 1.232 11.288-.173c6.21-.095 14.325-.173 18.036-.175zm-27.252-2.118c0-.873.09-1.587.198-1.587.11 0 .204.714.21 1.587.006.874-.084 1.588-.199 1.588s-.21-.714-.21-1.588zm1.764 1.147c-.283-.282-.203-2.734.088-2.734.146 0 .265.655.265 1.455 0 1.472-.035 1.597-.353 1.279zm24.196-1.213c-.017-.836.061-1.521.175-1.521.112 0 .166.506.118 1.124-.144 1.854-.26 2.012-.293.397zm1.821-.05c0-.792.12-1.513.265-1.603.165-.103.264.438.264 1.44 0 .892-.117 1.602-.264 1.602-.146 0-.265-.647-.265-1.44zm1.883.198c-.017-.755.088-1.447.234-1.537.312-.193.317.393.015 1.852l-.219 1.059-.03-1.374zm6.32 1.638c0-.252-.254-.397-.695-.397-.586 0-.643.062-.364.397.181.219.493.397.694.397.2 0 .364-.178.364-.397zm0-.898c0-.13-.19-.308-.42-.396-.59-.227-.64-.21-.64.236 0 .22.236.397.53.397.291 0 .53-.107.53-.237zm-.53-1.086c-.21-.13-.441-.176-.514-.104-.073.073.04.239.25.368.21.13.44.177.513.104.073-.073-.04-.238-.249-.368zm83.476.132c.873 0 1.975.099 2.448.22.52.133.86.12.86-.032 0-.376-3.013-.644-4.931-.439-.926.1-1.684.295-1.684.435 0 .156.333.17.86.036.473-.121 1.574-.22 2.447-.22zm9.393-.383c0-.312-1.002-.535-2.415-.54-1.647-.004-2.877.263-2.877.625-.001.207.812.272 2.645.214 1.456-.046 2.647-.18 2.647-.3zm6.263.119c-.143-.437-2.67-.747-4.034-.497-2.231.41-1.613.761 1.343.761 1.733 0 2.745-.1 2.691-.264zm-98.692-.513c-.08-.208-.004-.437.17-.509.228-.093.21-.203-.068-.396-.42-.292-.898-.135-.677.223.076.123-.011.284-.194.358-.251.102-.236.203.064.415.56.396.876.356.705-.09zm86.284-4.344c.085-4.972.38-4.596-3.58-4.572-1.768.011-2.599.12-2.746.357-.188.302-.269 8.08-.088 8.41.04.073 1.483.11 3.207.084l3.134-.048zm3.112 3.753c.587-.079 1.497-.025 2.022.12l.955.264.115-4.006c.135-4.72.162-4.669-2.425-4.664-3.139.007-2.926-.324-2.926 4.556v4.234l.595-.18c.328-.1 1.076-.245 1.664-.324zm6.282.113c.76-.013 1.768.065 2.24.173l.86.198V8.748l-.951-.178c-1.024-.192-3.858-.011-4.322.276-.18.111-.282 1.653-.282 4.277 0 4.005.013 4.1.537 3.933.296-.094 1.16-.181 1.918-.194zm-102.79-2.04c3.915-.012 4.036-.028 3.771-.524-.15-.281-.274-1.353-.274-2.382v-1.87l-17.396.163c-9.568.09-17.5.258-17.625.374-.336.312-.526 2.459-.316 3.575l.181.97 13.808-.148c7.594-.081 15.627-.152 17.852-.159zm-29.929-.718c-.283-.283-.203-2.998.089-2.998.147 0 .264.705.264 1.587 0 1.602-.032 1.732-.353 1.411zm24.96-1.675c0-.882.117-1.588.264-1.588s.265.706.265 1.588c0 .882-.118 1.587-.265 1.587-.147 0-.265-.705-.265-1.587zm2.116 0c0-.874.111-1.588.247-1.588.135 0 .235.714.221 1.588-.014.873-.125 1.587-.247 1.587-.121 0-.22-.714-.22-1.587zm-25.93 0c0-.728.12-1.323.265-1.323.146 0 .265.595.265 1.323 0 .727-.119 1.323-.265 1.323-.145 0-.264-.596-.264-1.323zm27.518 0c0-1.04.09-1.323.425-1.323.279 0 .37.144.264.418-.088.23-.16.826-.16 1.323 0 .498-.12.905-.265.905-.145 0-.264-.596-.264-1.323zm7.333 1.69c-.064-.483-.347-.799-.935-1.046-.722-.304-.842-.3-.842.03 0 .211.171.384.381.384s.448.108.53.24c.081.132-.102.174-.407.095-.509-.133-.526-.098-.202.421.195.312.627.567.961.567.502 0 .59-.12.514-.691zm111.641-.924c.922-.16 1.676-.394 1.676-.52 0-.699-2.464-1.033-3.82-.518-.776.296-.902.968-.215 1.148l.573.151c.061.017.865-.1 1.786-.26zm-52.38-.96c-.068-.257-.127-.11-.132.326-.005.436.05.647.122.468.072-.18.076-.536.01-.794zm-59.45.52c0-.112-.328-.407-.728-.655-.4-.248-.586-.454-.413-.458a.607.607 0 0 1 .479.257c.09.146.275.265.412.265.474 0 .246-.408-.478-.858-.447-.277-.57-.454-.318-.458.226-.004.553.136.728.31.174.175.317.205.316.067-.001-.139-.358-.454-.794-.702l-.792-.451v1.138c0 .918.115 1.193.595 1.425.732.353.992.384.992.12zm108.94-.996c.693-.486 5.29-.586 6.135-.134.46.246.558.193.702-.38.277-1.106-.02-1.407-1.572-1.601-1.763-.22-3.886.024-5.395.62-.94.373-1.123.563-1.124 1.172-.001.823.394.924 1.254.323zM86.166 9.153c.025-.018-.085-.598-.243-1.289-.203-.889-.205-1.522-.008-2.167.154-.502.21-.982.125-1.067-.234-.234-34.816-.136-35.198.1-.356.22-.747 3.685-.49 4.353.136.356 2.19.385 17.962.252 9.794-.083 17.828-.165 17.852-.182zM52.704 6.806c.099-1.71.578-1.603.596.132.01.863-.095 1.257-.331 1.257-.25 0-.322-.383-.265-1.389zm1.271.347c0-.574.12-1.117.265-1.207.161-.1.264.306.264 1.043 0 .663-.119 1.206-.264 1.206-.146 0-.265-.469-.265-1.042zm23.894-.413c.002-.873.051-1.198.11-.723.06.476.058 1.19-.003 1.588-.06.397-.108.008-.107-.865zm1.77 0c0-1.06.1-1.455.366-1.455.27 0 .356.377.33 1.455-.022.968-.144 1.454-.365 1.455-.224 0-.33-.467-.33-1.455zm1.764 1.014c-.097-.097-.176-.692-.176-1.323 0-.836.106-1.146.392-1.146.314 0 .36.249.227 1.257-.186 1.419-.199 1.456-.443 1.212zm21.18 1.349c.388-.08.535-.253.435-.514-.221-.575-3.6-.557-4.08.023-.686.826.924 1.043 3.645.49zm43.648-.428c-.085-.211-.147-.149-.16.16-.012.279.051.435.139.347.088-.088.097-.316.02-.507zm-51.84.052c1.024-.003 1.157-.576.23-.998-.764-.348-2.693-.126-3.094.357-.494.594.002.975 1.045.803.527-.087 1.345-.16 1.818-.162zm104.774.095c.687-.184.79-.76.177-.995-1.033-.397-3.55.155-3.55.778 0 .287.349.383 1.389.38.764-.002 1.657-.075 1.984-.163zM87.766 7.597c0-.62.085-1.395.188-1.721.135-.425.067-.64-.238-.757-.572-.22-.886.13-.396.44.214.136.255.249.09.25-.38.006-.362 1.919.02 2.184.182.126.159.196-.067.198-.19.002-.273.123-.183.269.35.565.586.216.586-.863zm83.816.156c.873.081 1.856.228 2.183.326.425.127.595.069.595-.205 0-.85-2.683-1.432-5.17-1.121-1.119.14-1.444.283-1.444.635 0 .695.216.778 1.274.486.536-.148 1.69-.203 2.562-.121zm9.128-.282c0-.33-.03-.6-.066-.603l-1.835-.165c-2.469-.224-3.655.028-3.655.777 0 .564.092.583 2.778.586 2.71.003 2.778-.011 2.778-.595zm6.03.073c-.066-.47-.3-.55-1.796-.621-2.305-.11-3.44.118-3.44.689 0 .394.335.452 2.657.461 2.526.01 2.653-.016 2.58-.529zm-84.677.065 2.183.052v-.763c0-.961-.328-1.085-2.866-1.08-2.9.005-3.22.128-3.22 1.239 0 .9.016.912.86.708.473-.114 1.842-.184 3.043-.156zm94.787-.256c1.424-.27 4.75-.143 5.684.216.427.164.46.03.354-1.443-.065-.893-.193-1.7-.286-1.791-.092-.093-.88-.317-1.75-.498-1.528-.32-2.623-.25-5.325.34l-.926.202-.079 1.809c-.072 1.65-.037 1.793.397 1.624.262-.101 1.13-.308 1.931-.46zM93.927 7.02c.364-.001 1.227.081 1.918.184 1.127.167 1.257.134 1.257-.32 0-.687-.83-.926-3.052-.877-2.133.046-3.298.402-3.298 1.006 0 .353.2.387 1.257.214.691-.112 1.554-.206 1.918-.207zm.48-1.63c.404-.082.584-.28.527-.579-.126-.663-3.361-.813-3.826-.177-.176.24-.255.606-.175.813.14.364 1.539.34 3.475-.056zm7.833-.267c.697-.267.47-.821-.408-.997-1.312-.262-1.92-.197-2.6.279-.6.42-.607.454-.125.642.628.246 2.567.293 3.133.076zM97.367 2.47c0-.918-.097-1.118-.596-1.236-1.285-.305-4.082-.44-4.96-.24-.872.198-.931.28-1.005 1.391l-.077 1.181h6.638zm6.879-.209c0-1.111-.025-1.143-.992-1.303-1.468-.243-3.38-.205-4.136.083-.471.179-.715.52-.837 1.173-.095.506-.113 1.018-.04 1.136.072.119 1.453.179 3.068.133l2.937-.082z"/></svg>