<svg xmlns="http://www.w3.org/2000/svg" viewBox="89.91 123.67 914.83 1229.33"><path d="M680.09 135.124c-39.941 46.662-44.745 102.814-11.533 134.807 7.669 7.388 13.622 14.426 13.229 15.642-.393 1.216 1.132 1.503 3.389.637 5.398-2.072 16.825 12.663 16.825 21.695 0 8.545-7.773 16.817-23.199 24.687-16.993 8.668-38.749 33.361-42.866 48.65-1.918 7.123-3.026 24.872-2.461 39.442l1.026 26.492-12 3.114c-6.6 1.713-17.4 4.453-24 6.091-6.6 1.637-14.174 3.602-16.832 4.367-3.558 1.024-16.285-15.822-48.297-63.929-23.906-35.925-47.172-71.731-51.702-79.568-9.492-16.418-12.88-19.24-17.524-14.596-4.343 4.343-.148 23.432 12.603 57.345 5.273 14.025 15.047 42.305 21.72 62.845 6.674 20.539 15.286 44.472 19.139 53.184l7.005 15.841-7.659 6.024c-4.212 3.313-9.058 5.159-10.769 4.102-1.711-1.058-2.221-.483-1.133 1.277 1.088 1.76-3.488 7.529-10.169 12.821l-12.147 9.62-12.915-4.933c-15.476-5.91-23.867-14.486-28.576-29.206-1.922-6.009-7.558-17.06-12.525-24.557-12.484-18.848-27.175-25.334-64.54-28.494-24.304-2.055-33.061-4.174-45.717-11.062-14.813-8.062-28.369-19.881-37.505-32.699-2.493-3.498-5.981-5.012-8.935-3.878-4.372 1.677-4.417 3.076-.454 14.307 2.415 6.846 3.509 13.991 2.431 15.877-1.079 1.887-.89 2.464.419 1.282s6.413 3.543 11.342 10.5c14.534 20.512 30.265 33.324 56.791 46.25 13.722 6.687 27.976 15.438 31.676 19.447 3.699 4.009 9.673 17.338 13.275 29.62 8.033 27.394 18.707 44.295 33.061 52.347l10.901 6.115-11.449 20.842-11.449 20.843-13.033-.812c-28.599-1.78-122.281-13.109-142.033-17.175-26.75-5.507-36.423-5.463-38.586.176-2.673 6.965 28.746 21.827 110.586 52.311 21.45 7.989 44.131 16.32 50.403 18.513 12.38 4.33 11.958 2.237 6.597 32.672-.436 2.475-1.771 10.391-2.968 17.59-2.127 12.808-2.387 13.056-12.035 11.491-5.424-.88-18.113-7.233-28.198-14.117-10.086-6.885-25.416-14.389-34.068-16.676-29.872-7.898-67.314 3.704-99.765 30.913-9.918 8.317-23.418 16.616-30 18.444-14.781 4.103-39.261 4.255-62.867.389-19.841-3.249-26.271-.689-20.845 8.299 4.096 6.784 36.505 22.939 62.055 30.933 27.664 8.655 48.008 5.164 79.657-13.671 35.479-21.114 48.537-18.998 76.757 12.439 17.622 19.631 33.926 26.421 58.164 24.223l17.348-1.573 6.191 22.093 6.19 22.094-18.308 11.596c-10.069 6.378-31.808 19.485-48.308 29.127-74.949 43.795-84.818 51.039-81.458 59.794 2.522 6.573 8.044 5.867 42.153-5.387 39.487-13.028 83.905-27.383 85.805-27.73.825-.151 5.55-1.985 10.5-4.078C401.521 924.69 420.404 918 422.915 918c1.188 0 8.433 10.267 16.101 22.815l13.94 22.814-11.45 13.008c-15.215 17.285-19.483 32.402-16.907 59.885 1.842 19.661 1.424 22.455-4.2 28.079-3.436 3.436-9.993 7.084-14.573 8.107-19.344 4.324-35.478 12.149-45.69 22.159-19.613 19.225-33.06 57.482-23.107 65.742 3.908 3.243 5.817 1.984 12.653-8.345 4.427-6.691 9.22-11.443 10.65-10.559 1.429.884 1.854-.336.943-2.709-3.332-8.684 19.405-19.025 54.059-24.588 37.632-6.04 70.587-41.02 70.649-74.99.02-10.729 7.09-21.859 16.088-25.327 8.675-3.343 47.846 17.077 46.036 23.999-.669 2.559-5.606 28.223-10.972 57.032-5.365 28.808-11.542 59.128-13.726 67.378-13.373 50.517-13.883 53.226-10.628 56.481 4.591 4.591 12.324-4.471 21.317-24.981 3.979-9.075 18.856-37.453 33.058-63.063 14.203-25.61 28.206-52.803 31.119-60.43 5.129-13.431 5.592-13.791 14.76-11.478 5.206 1.314 13.023 3.182 17.372 4.151 7.751 1.727 7.876 2.143 6.358 21.058-1.373 17.097-.513 21.457 7.548 38.279 10.837 22.613 19.718 32.906 33.052 38.309 18.745 7.595 20.778 23.157 4.855 37.18-15.813 13.928-19.22 22.55-19.22 48.644 0 36.318 20.735 106.35 31.488 106.35 7.017 0 8.084-6.116 3.674-21.072-8.293-28.122 1.832-92.23 13.433-85.06 1.937 1.197 2.493.701 1.328-1.184-1.145-1.852 5.485-8.497 15.45-15.487 38.443-26.966 41.506-69.64 7.5-104.471-14.049-14.39-15.868-17.693-15.829-28.742.081-22.689 3.787-26.058 38.956-35.403 32.588-8.66 67.176-20.218 74.969-25.052 5.582-3.462 31.203-16.499 32.458-16.516.51-.007-.036 1.546-1.213 3.451-1.337 2.163-.822 2.648 1.371 1.292 1.932-1.194 2.815-3.3 1.962-4.68-1.731-2.8 28.532-25.814 32.426-24.66 1.36.403 1.739-.455.842-1.906-2.146-3.473 11.484-16.211 14.316-13.379 1.202 1.202 1.39.111.417-2.424-1.085-2.828 2.724-9.754 9.848-17.909 28.591-32.725 56.597-85.056 68.4-127.807 9.453-34.236 12.792-94.949 7.282-132.414-14.795-100.611-70.261-176.27-163.578-223.13-32.915-16.529-63.904-25.48-107.167-30.955-10.865-1.376-14.23-5.618-14.27-17.992-.054-16.658 6.136-31.401 21.725-51.739C754.272 355.558 765 330.546 765 314.647c0-11.921-10.633-38.86-20.971-53.131-4.827-6.663-14.947-15.731-22.49-20.152-30.664-17.97-40.384-47.526-28.568-86.864 8.243-27.443 8.427-29.584 2.641-30.785-2.836-.589-9.352 4.2-15.522 11.409M678 162c-1.766 3.3-3.886 6-4.711 6-.825 0-.055-2.7 1.711-6s3.886-6 4.711-6c.825 0 .055 2.7-1.711 6m-7.681 18.75c-2.836 12.813-2.441 22.893 1.672 42.707 3.687 17.762 13.797 30.229 38.037 46.906C723.259 279.466 732 294.386 732 307.866c0 6.176-1.434 7.134-10.677 7.134-6.257 0-9.92-1.225-8.848-2.96 1.006-1.628.52-7.703-1.081-13.5-1.74-6.3-1.801-10.54-.152-10.54 1.517 0 2.758-1.35 2.758-3s-2.203-3-4.896-3c-7.11 0-25.449-12.015-23.4-15.331.958-1.55.629-2.624-.731-2.388-6.937 1.205-10.578-1.324-17.956-12.472-10.203-15.418-11.523-44.519-3.019-66.559 6.346-16.446 9.455-18.659 6.321-4.5m19.609 48.03c3.82 5.575 14.749 15.189 24.285 21.364 18.313 11.857 28.426 23.777 24.948 29.404-1.192 1.929-.751 2.553 1.027 1.454 4.964-3.068 11.312 16.01 11.312 33.998 0 18.256-6.978 34.427-23.845 55.262-15.926 19.671-20.757 31.482-20.961 51.238-.102 9.9.986 20.404 2.417 23.342 2.359 4.845 1.379 5.152-10.505 3.295-7.208-1.126-14.176-3.53-15.485-5.342-4.043-5.601-.804-40.893 4.034-43.954 2.39-1.512 3.219-2.77 1.843-2.795-1.376-.025 1.78-5.452 7.013-12.06 5.234-6.608 10.956-11.125 12.716-10.037 1.847 1.142 2.327.565 1.135-1.364-1.136-1.838 2.367-8.459 7.786-14.714C732.652 340.554 738 328.937 738 313.668c0-19.349-9.075-35.318-28.026-49.318C690.679 250.096 678 235.59 678 227.77c0-3.174-.066-6.107-.147-6.52-.081-.412-1.348-6.075-2.816-12.584-3.815-16.918.228-20.416 4.437-3.839 1.929 7.598 6.633 18.377 10.454 23.953M714 300c0 1.65 2.7 3 6 3s6-1.35 6-3-2.7-3-6-3-6 1.35-6 3m16.572 26.774c-1.622 5.109-4.445 6.226-15.739 6.226-13.442 0-13.64-.136-8.484-5.833 2.904-3.209 9.525-6.258 14.715-6.776 11.83-1.181 11.895-1.138 9.508 6.383m-7.587 14.476c-.008 1.238-3.187 6.214-7.063 11.059-6.6 8.248-8.511 8.844-29.985 9.359-35.044.84-29.11-7.359 6.498-8.977 10.413-.473 20.221-2.147 21.794-3.72 1.814-1.814-4.017-2.458-15.934-1.761-17.398 1.018-18.362.754-12.972-3.555 5.953-4.758 37.691-6.785 37.662-2.405m-225.276 20.43c3.466 5.874 4.939 9.839 3.275 8.81-3.251-2.009-12.989-19.49-10.857-19.49.704 0 4.116 4.806 7.582 10.68m201.164 8.647c-3.156 3.156-44.855 4.478-44.866 1.423-.018-4.582 5.686-5.704 25.943-5.1 14.738.44 20.953 1.647 18.923 3.677M523.5 402.569c4.95 7.745 17.208 26.198 27.239 41.008 18.194 26.86 18.222 26.933 11.248 30.111-6.266 2.855-7.711 2.024-13.919-8.001C540.716 453.815 504 378.704 504 375.536c0-2.216 7.073 7.588 19.5 27.033M499.5 381c1.02 1.65.424 3-1.323 3-1.747 0-3.177-1.35-3.177-3s.595-3 1.323-3 2.157 1.35 3.177 3m189 0c-1.02 1.65-10.549 3-21.177 3-10.882 0-19.323-1.311-19.323-3 0-1.717 9.059-3 21.177-3 13.354 0 20.492 1.108 19.323 3m-185.451 12.563c-.957 2.393-1.668 1.682-1.812-1.813-.13-3.162.579-4.934 1.576-3.937.996.996 1.103 3.584.236 5.75m6.951 8.26c0 1.553-1.35 3.657-3 4.677-1.65 1.02-3-.251-3-2.823s1.35-4.677 3-4.677 3 1.27 3 2.823m166.773 2.735c-1.476 2.388-28.769 1.184-31.523-1.39-.687-.642 6.48-1.168 15.927-1.168s16.466 1.151 15.596 2.558m-162.725 11.038c-1.498 3.905-7.048 6.385-7.048 3.149 0-4.457 4.056-10.447 6.183-9.132 1.405.869 1.794 3.561.865 5.983m3.549 14.154c-1.817 9.423-1.712 9.549 3.115 3.75 4.769-5.728 4.904-5.388 2.997 7.5-1.852 12.51-1.665 13.06 2.551 7.5 5.345-7.049 6.083-2.411 1.52 9.555-3.219 8.441-3.224 8.436-9.091-8.055-3.228-9.075-5.128-19.537-4.222-23.25 2.563-10.502 5.239-7.937 3.13 3M672 424.675c-11.36 2.472-27 2.89-27 .723 0-1.319 7.088-2.241 15.75-2.05 8.663.191 13.725.789 11.25 1.327m-345.998 18.228c6.242 2.608 22.51 5.25 36.152 5.87 13.642.621 29.286 3.002 34.766 5.292 12.635 5.279 27.494 23.903 31.785 39.84 1.823 6.771 5.967 15.682 9.207 19.802 3.24 4.119 5.261 8.12 4.49 8.891-.771.771.286 1.552 2.348 1.736 2.063.184 10.786 2.884 19.386 6.001l15.635 5.666-8.32 9.966c-6.986 8.368-9.638 9.636-16.533 7.906-14.256-3.578-28.301-19.714-36.074-41.443-3.948-11.038-9.99-24.018-13.426-28.844-6.985-9.809-28.007-19.841-48.418-23.104-15.161-2.425-47.077-19.043-55.782-29.045l-5.718-6.571 9.576 6.647c5.267 3.656 14.683 8.782 20.926 11.39M675 432c0 1.65-1.43 3-3.177 3s-2.343-1.35-1.323-3 2.449-3 3.177-3c.728 0 1.323 1.35 1.323 3m-12.715 2.061c-2.868.751-8.268.778-12 .061-3.732-.718-1.385-1.332 5.215-1.365 6.6-.034 9.653.553 6.785 1.304m15.465 5.04c-2.828 2.49-29.513 3.942-28.018 1.524.892-1.444 7.842-2.625 15.445-2.625 7.603 0 13.261.495 12.573 1.101m-2 6.886c-2.062.832-5.437.832-7.5 0-2.062-.832-.375-1.513 3.75-1.513s5.813.681 3.75 1.513m-320.566 20.616c6.105 1.216 7.742 2.671 5.511 4.902-3.821 3.821-32.788-8.581-43.341-18.556-5.587-5.281-3.528-4.778 11.146 2.724 9.9 5.06 21.908 9.979 26.684 10.93m301.004-17.79c-.997.996-3.585 1.103-5.75.236-2.394-.957-1.683-1.668 1.812-1.812 3.163-.13 4.934.579 3.938 1.576m57.562 9.112c.688.591-7.412 1.117-18 1.168-10.587.051-29.375 1.379-41.75 2.952s-29.25 3.472-37.5 4.221c-14.104 1.28-13.745 1.046 6-3.904 11.55-2.895 31.091-5.59 43.425-5.989 12.334-.398 22.917-1.215 23.518-1.816 1.229-1.229 22.368 1.7 24.307 3.368m-178.218 7.939c-5.082 7.256-5.775 11.136-1.99 11.136 1.397 0 4.006-3.037 5.797-6.75 1.79-3.712 3.346-4.974 3.458-2.803.112 2.171-1.194 6.559-2.903 9.75-3.873 7.237-.437 7.623 4.93.553 2.91-3.834 4.011-4.125 4.081-1.081.089 3.896-8.075 12.022-12.291 12.236-1.037.052-3.589-4.016-5.67-9.04-2.894-6.986-2.976-10.908-.351-16.669 1.888-4.144 4.791-6.695 6.452-5.668 1.901 1.175 1.341 4.262-1.513 8.336m198.718-3.082c-12.787 1.614-23.25 4.241-23.25 5.839 0 1.65 4.864 2.197 11.25 1.266 6.188-.902 22.725-2.252 36.75-3l25.5-1.36-20.25 3.209c-11.137 1.766-20.25 4.374-20.25 5.796 0 1.422 3.132 2.017 6.96 1.323 22.694-4.115 46.984-5.173 51.989-2.264 4.568 2.655 3.028 3.309-8.699 3.693-19.565.64-20.352.81-19.5 4.216.413 1.65 1.429 2.774 2.258 2.497.83-.276 12.057-1.305 24.95-2.287 15.487-1.178 22.805-.753 21.565 1.253-1.032 1.67-8.547 3.037-16.7 3.037-8.927 0-14.823 1.334-14.823 3.355 0 2.358 7.355 2.782 24.75 1.426 15.032-1.171 26.517-.739 29.25 1.1 3.338 2.245.819 3.039-9.75 3.073-7.837.025-14.25 1.141-14.25 2.479 0 1.339 7.746 2.126 17.213 1.751 9.468-.376 19.255.513 21.75 1.975 3.058 1.792-.54 2.688-11.036 2.75-8.565.05-16.407 1.441-17.427 3.091-1.174 1.9 6.528 3 21 3 14.472 0 22.174 1.1 21 3-1.02 1.65-5.149 3-9.177 3S858 517.022 858 518.272c0 1.249 6.199 1.778 13.776 1.176 7.595-.604 15.267.395 17.1 2.228 2.432 2.432 1.553 3.324-3.276 3.324-3.63 0-6.6 1.392-6.6 3.094s4.677 2.779 10.394 2.394c5.717-.385 11.342.248 12.5 1.406 1.158 1.158-1.157 2.217-5.144 2.353-9.875.336-24.852 2.855-26.446 4.449-2.921 2.921 2.127 3.287 20.152 1.463 10.426-1.056 19.618-.848 20.427.461.809 1.309-2.996 2.54-8.456 2.735l-9.927.355 9 2.158 9 2.159-9 2.249c-15.751 3.936-15.401 4.246 5.073 4.487 11.04.13 20.701 1.254 21.469 2.496.768 1.243-9.277 1.775-22.323 1.183-15.976-.726-23.719.006-23.719 2.24 0 2.152 9.75 3.476 27.75 3.767 15.263.248 23.7.928 18.75 1.511-4.95.584-16.106 1.831-24.791 2.772-24.705 2.675-16.068 5.938 11.3 4.268 21.841-1.333 24.921-.873 27.587 4.112 2.144 4.007 2.047 5.022-.338 3.547-3.927-2.427-51.256 1.246-51.262 3.978-.002 1.025 13.04 1.863 28.983 1.863 20.513 0 29.357 1.096 30.254 3.75.94 2.782-4.607 3.75-21.483 3.75-14.901 0-22.75 1.169-22.75 3.387 0 2.406 6.875 2.788 23.711 1.319 13.869-1.209 24.429-.906 25.441.731.988 1.599-9.82 3.702-25.211 4.906-14.818 1.159-26.941 3.097-26.941 4.306s12.25 1.613 27.222.897c18.642-.891 28.335-.175 30.75 2.271 2.725 2.759-.399 3.326-13.722 2.492-9.487-.594-17.25-.007-17.25 1.305 0 1.312 5.738 2.617 12.75 2.899 21.097.849 22.844 1.081 25.09 3.327 1.188 1.188-3.465 2.16-10.34 2.16s-12.5 1.35-12.5 3 5.931 3 13.179 3c8.947 0 13.734 1.445 14.906 4.5 1.33 3.467-.662 4.5-8.679 4.5-13.949 0-13.344 4.576.731 5.524 13.947.939 17.131 3.476 4.363 3.476-5.225 0-9.5 1.35-9.5 3s4.581 3 10.179 3c12.222 0 17.108 7.672 6.213 9.755-3.951.755-7.72-.118-8.377-1.941-.656-1.823-2.278-2.301-3.604-1.064-3.79 3.537.636 6.123 11.039 6.45 10.504.33 16.058 7.8 5.8 7.8-8.274 0-8.058 5.317.265 6.541 3.583.528 7.071 2.647 7.751 4.711.783 2.379-.503 3.085-3.515 1.929-2.613-1.003-4.751-.328-4.751 1.498 0 1.827 1.964 3.321 4.364 3.321 2.721 0 5.045 4.235 6.173 11.25.995 6.188 2.404 14.176 3.131 17.752.727 3.576-.363 7.185-2.423 8.021-2.427.985-2.689 2.393-.745 3.999 4.212 3.479 5.237 12.168 1.694 14.358-1.757 1.086-1.959 4.538-.494 8.476 4.537 12.202-1.835 25.887-9.77 20.983-1.572-.972-1.88-.185-.686 1.746 1.194 1.932 3.334 2.794 4.756 1.915 1.422-.879 3.433-.226 4.47 1.451 1.036 1.677-.221 3.049-2.793 3.049S984 787.35 984 789s1.35 3 3 3 3 2.116 3 4.702c0 3.268-1.753 4.146-5.748 2.878-3.161-1.003-6.615-.419-7.677 1.298-1.144 1.852 1.194 3.122 5.748 3.122 4.222 0 7.677 1.35 7.677 3s-5.4 3-12 3-12 1.35-12 3 4.725 3 10.5 3c7.333 0 10.5 1.357 10.5 4.5 0 2.475-1.409 4.5-3.132 4.5-1.722 0-2.734 1.95-2.25 4.333.485 2.383-1.818 6.39-5.118 8.904-5.523 4.209-5.568 4.58-.573 4.668 9.198.161 2.283 6.095-7.104 6.095-4.853 0-8.823 1.35-8.823 3s3.455 3 7.677 3c4.354 0 6.875 1.299 5.823 3-1.02 1.65-5.824 3-10.677 3S954 862.116 954 863.48c0 1.365 4.388 1.883 9.75 1.151 7.181-.979 8.907-.433 6.55 2.07-1.876 1.993-13.967 3.478-29.222 3.59-14.312.105-26.826 1.492-27.808 3.081-1.119 1.811 8.457 2.357 25.654 1.461 19.628-1.021 27.119-.462 26.31 1.965-.622 1.866-9.142 3.895-18.933 4.508-9.79.614-18.251 2.371-18.801 3.905-.55 1.534-2.87 2.789-5.156 2.789-2.461 0-3.452-1.835-2.429-4.5.95-2.475.811-4.5-.308-4.5-2.954 0-11.554 9.053-10.039 10.568.705.705 11.722 1.484 24.482 1.731 14.471.28 22.811 1.617 22.166 3.553-.993 2.979-45.892 3.32-50.642.385-1.188-.734-2.901-.135-3.807 1.331-1.882 3.045 13.76 6.091 35.733 6.958 11.017.435 8.228 1.092-10.5 2.474l-25.5 1.882 23.25.559c12.788.307 23.25 1.581 23.25 2.831 0 1.249-6.075 1.788-13.5 1.198-8.474-.674-13.5.155-13.5 2.228 0 1.823 5.712 3.479 12.75 3.697l12.75.395L936 921c-9.686 2.039-9.847 2.241-2.073 2.605 4.635.217 7.62 1.701 6.634 3.297-.987 1.596-5.791 2.102-10.677 1.125-5.634-1.127-8.884-.542-8.884 1.598 0 1.856 2.865 3.375 6.367 3.375 5.111 0 5.681.827 2.89 4.19-1.942 2.34-6.214 3.475-9.674 2.57-3.409-.891-7.071-.377-8.14 1.143-1.069 1.52-5.318 4.322-9.443 6.227-7.188 3.32-7.01 3.472 4.25 3.667 6.462.112 10.744 1.209 9.516 2.437-1.229 1.229-13.267 1.96-26.75 1.623-16.34-.407-22.515.278-18.516 2.055 3.3 1.466 13.987 2.761 23.75 2.877 9.762.116 16.818 1.143 15.68 2.281-1.139 1.139-8.935 1.706-17.325 1.26-10.33-.548-14.609.237-13.253 2.43 1.101 1.782 6.647 3.24 12.325 3.24 5.678 0 10.323 1.316 10.323 2.925 0 1.65-3.923 2.14-9 1.125-5.733-1.147-9-.575-9 1.575 0 1.856 2.78 3.375 6.177 3.375s5.343 1.35 4.323 3c-1.02 1.65-4.474 3-7.677 3-3.203 0-5.486 1.527-5.073 3.394.477 2.16-4.447 3.379-13.54 3.352-7.86-.023-15.027 1.149-15.927 2.606-.901 1.456 4.18 2.669 11.29 2.694 9.452.034 11.717.828 8.427 2.954-2.475 1.599-11.587 2.929-20.25 2.954-8.662.025-15.75 1.396-15.75 3.046s5.063 3.021 11.25 3.046c8.368.034 10.097.791 6.75 2.954-2.475 1.599-12.342 2.929-21.927 2.954-11.026.029-16.735 1.165-15.543 3.094 1.036 1.676 6.477 2.542 12.092 1.923 5.615-.619 9.561-.076 8.768 1.207-.793 1.282-13.791 2.428-28.884 2.546-15.094.117-28.133.903-28.975 1.745-.842.842 2.664 1.531 7.792 1.531s9.951 1.013 10.718 2.25c.767 1.238-12.654 1.798-29.823 1.246-21.056-.678-31.218.055-31.218 2.25 0 2.144 11.421 3.254 33.5 3.254 18.425 0 32.875.625 32.112 1.388-2.311 2.311-210.546 3.551-218.612 1.302-4.203-1.173 8.323-2.438 28.5-2.88 29.277-.641 32.919-1.166 19.5-2.81-12.388-1.518-6.594-2.144 23.25-2.511 22.481-.277 39.75-1.715 39.75-3.311 0-1.654-18.932-2.68-45.75-2.479-25.162.188-43.387.882-40.5 1.541 2.888.66 5.25 2.288 5.25 3.617 0 2.698-51.125 1.057-53.801-1.727-.935-.972 6.642-1.147 16.836-.389 10.194.758 20.319.247 22.5-1.135 2.481-1.573-1.65-2.706-11.035-3.026-28.537-.972-39.032-2.207-46.5-5.471l-7.5-3.278 7.5 1.672c12.874 2.869 88.522 5.02 85.951 2.443-1.343-1.345-17.518-3.225-35.946-4.177l-33.505-1.732 43.5-.17c23.925-.094 41.138.446 38.25 1.201-2.887.755-5.25 2.623-5.25 4.152 0 3.424 14.347 3.283 22.5-.22 5.21-2.239 4.848-2.606-2.75-2.789-4.812-.116-7.764-1.197-6.558-2.403 1.205-1.205 14.592-2.449 29.75-2.764 46.449-.965 53.461-1.994 27.558-4.044l-24-1.9 22.612-.55c20.018-.487 22.661-1.217 23.049-6.369.242-3.2-1.834-6.418-4.611-7.152-2.778-.733-.03-1.49 6.106-1.681 8.28-.258 10.737-1.438 9.533-4.577-2.903-7.566 10.317-9.046 16.176-1.811 3.19 3.94 10.051 7.069 17.771 8.105 11.139 1.494 13.618.643 21.719-7.459 9.523-9.523 11.31-18.522 6.295-31.711-1.649-4.338-1.719-7.895-.166-8.445 1.476-.523 3-8.037 3.386-16.7.386-8.662 1.811-15.75 3.166-15.75s2.464-1.366 2.464-3.035c0-1.845-4.559-2.307-11.623-1.177-13.103 2.095-18.816-2.634-11.735-9.715 3.802-3.802 6.508-3.671 21.435 1.038 15.187 4.79 16.902 6.139 15.446 12.139-.9 3.713-.419 6.75 1.07 6.75s3.521-3.037 4.516-6.75C831.987 897.512 831.285 879 828 879c-1.65 0-2.662 1.519-2.25 3.375.413 1.856-.805 3.95-2.705 4.652s-7.083-6.139-11.517-15.202c-5.362-10.958-10.234-16.901-14.545-17.743-5.371-1.048-5.103-1.335 1.565-1.673 4.927-.251 8.725-2.542 9.793-5.909 1.751-5.516 5.241-6.64 20.216-6.506 4.803.043 9.811-2.432 12.4-6.13 4-5.71 4.222-5.116 2.799 7.503C842.177 855.379 849.69 882 855.224 882c1.5 0 .815-5.062-1.523-11.25-2.338-6.187-4.844-21.375-5.57-33.75-.943-16.071-3.676-27.643-9.565-40.5-4.535-9.9-8.844-16.419-9.576-14.487-.733 1.931 2.143 10.369 6.39 18.75 10.046 19.825 7.461 19.768-3.339-.074-4.583-8.422-8.829-13.824-9.435-12.006-.606 1.818 1.843 8.371 5.442 14.561 6.202 10.667 6.218 10.863.311 3.756-3.429-4.125-7.75-11.988-9.603-17.473-3.189-9.443-2.759-10.585 8.111-21.52 13.723-13.805 16.366-22.035 12.665-39.439-3.598-16.918-3.552-14.723-.962-46.451 1.839-22.531 1.367-29.125-2.667-37.211-5.988-12.003-6.011-11.177.347-12.838 4.17-1.09 3.937-1.444-1.133-1.72-3.51-.191-8.012-2.312-10.004-4.712-3.095-3.729-1.84-4.149 8.633-2.887 7.415.894 12.254.248 12.254-1.636 0-1.712-5.995-3.113-13.323-3.113s-14.157-1.35-15.177-3c-1.12-1.812 2.969-3 10.323-3 6.697 0 12.177-1.161 12.177-2.579 0-1.419-5.666-2.176-12.592-1.682-6.925.493-14.688-.33-17.25-1.83-3.08-1.803 3.473-2.773 19.342-2.864 29.188-.167 25.171-4.579-4.994-5.485-25.303-.76-31.915-3.56-8.406-3.56 20.84 0 16.261-5.216-6.1-6.949-9.075-.703-1.312-.889 17.25-.412 18.563.477 33.75-.173 33.75-1.445 0-2.314-31.083-5.676-62.703-6.781-10.159-.355-4.349-1.248 14.703-2.258l31.5-1.671-37.5-2.992-37.5-2.992 30-1.669 30-1.669-24-.956c-44.195-1.759-52.274-3.096-37.5-6.206 10.181-2.143 10.045-2.233-4.5-2.96-12.459-.623-13.503-1.071-6.166-2.645 4.859-1.042 16.67-1.895 26.248-1.895 9.577 0 17.415-1.012 17.416-2.25.001-1.237-10.46-2.271-23.248-2.296-16.445-.032-21.933-.919-18.75-3.03 3.171-2.102-1.447-2.794-15.637-2.341-11.076.353-21.088-.308-22.25-1.47-1.162-1.162 2.162-2.113 7.387-2.113s9.5-1.358 9.5-3.019c0-1.762-7.431-2.739-17.848-2.347-9.816.369-18.816-.298-20-1.482-1.183-1.183 14.611-2.23 35.098-2.325 38.233-.177 59.473-1.55 61.925-4.002.765-.765-28.099-1.455-64.142-1.534-36.043-.079-70.072-1.476-75.621-3.105-5.548-1.628-10.948-2.852-12-2.718-1.051.133-9.337-.109-18.412-.538l-16.5-.781 12-2.149c9.949-1.781 7.641-2.303-13.5-3.054-14.025-.499-21.087-1.453-15.693-2.12 5.394-.668 9.056-2.43 8.137-3.916-.918-1.486-6.681-2.142-12.807-1.457-26.386 2.948-55.766 3.992-47.137 1.674 4.95-1.329 15.75-2.711 24-3.071 8.25-.36 18.375-1.8 22.5-3.2 4.74-1.61-2.988-2.117-21-1.38-22.683.929-25.439.645-13.5-1.392 21.607-3.685 53.258-3.738 51-.084-1.131 1.83 3.41 3 11.646 3 17.607 0 21.67-5.918 4.281-6.237-17.628-.323-11.529-1.928 16.323-4.297 12.788-1.088 23.25-3.146 23.25-4.574s-10.462-2.071-23.25-1.43c-16.202.813-20.067.433-12.75-1.253 5.775-1.33 9.15-2.747 7.5-3.147-4.873-1.182-44.235.048-54 1.688-6.352 1.066-7.676.685-4.5-1.298 2.475-1.544 14.625-3.464 27-4.266 23.114-1.497 76.449-6.78 111-10.993 10.725-1.308 25.575-2.371 33-2.361 9.427.012 6.485.902-9.75 2.95m-358.085 14.589c-3.886 4.293-6.032 4.814-9.157 2.22-5.628-4.67.318-11.467 8.222-9.4 5.673 1.483 5.726 1.886.935 7.18M699 471.177c0 1.747 1.35 2.343 3 1.323s3-2.449 3-3.177c0-.728-1.35-1.323-3-1.323s-3 1.43-3 3.177M643.5 474c-1.02 1.65.926 3 4.323 3 3.397 0 6.177-1.35 6.177-3s-1.945-3-4.323-3-5.157 1.35-6.177 3m-250.595 5.571c-.053 1.061-2.036 4.492-4.407 7.624-3.597 4.753-5.083 5.054-8.98 1.82-4.219-3.502-4.201-4.393.188-9.243 4.385-4.845 13.435-4.983 13.199-.201M612 482.64c0 1.246-14.113 3.525-31.363 5.063-17.249 1.538-30.282 1.722-28.961.408 1.321-1.314 12.397-3.142 24.613-4.063 12.216-.92 22.481-1.916 22.811-2.211 1.963-1.757 12.9-1.077 12.9.803m141 .36c0 1.65 3.455 3 7.677 3 4.354 0 6.875-1.299 5.823-3-1.02-1.65-4.474-3-7.677-3-3.203 0-5.823 1.35-5.823 3m-356.003 12.336c-7.723 7.724-11.498 3.142-5.025-6.1 3.422-4.886 5.627-5.837 8.009-3.455 2.381 2.381 1.56 5.011-2.984 9.555m477.631-6.543c-.949 1.536-.579 3.501.823 4.368 1.402.866 2.549-.391 2.549-2.793 0-5.058-.946-5.5-3.372-1.575M408.74 495.72c1.331 3.993-11.966 16.054-14.693 13.327-1.821-1.821 8.301-16.804 11.453-16.953 1.1-.052 2.558 1.58 3.24 3.626M609 504.317c0 1.476 3.375 2.683 7.5 2.683 9.774 0 9.772-4.369-.002-4.933-4.124-.238-7.498.775-7.498 2.25m21-.317c0 1.65 1.35 3 3 3s3-1.35 3-3-1.35-3-3-3-3 1.35-3 3m-223.674 12.192c-2.909 3.215-4.384 6.75-3.277 7.857 1.107 1.107 3.981-.588 6.387-3.768 3.104-4.103 4.401-4.543 4.469-1.517.052 2.345-2.181 6.779-4.963 9.852-4.891 5.405-5.175 5.314-8.604-2.763-3.072-7.233-2.703-9.282 2.748-15.281 3.597-3.959 6.774-5.492 7.412-3.577.615 1.844-1.263 5.982-4.172 9.197m120.862-7.379c-.997.996-3.585 1.103-5.75.236-2.394-.957-1.683-1.668 1.812-1.812 3.163-.13 4.934.579 3.938 1.576m116.349 1.128c-.808 1.307 1.214 3.079 4.494 3.936 3.28.858 6.624.49 7.432-.818.808-1.307-1.214-3.079-4.494-3.936-3.28-.858-6.624-.49-7.432.818m-61.787 1.201c-.687.627-14.75 1.861-31.25 2.741-17.665.942-25.066.648-18-.716 12.511-2.414 51.429-4.015 49.25-2.025m118.75 1.72c-23.991 1.008-36.114 2.488-31.5 3.847 16.751 4.934 85.941 1.271 77.469-4.101-2.183-1.384-4.644-2.261-5.469-1.95-.825.312-19.05 1.304-40.5 2.204M759 513c0 1.65 2.62 3 5.823 3 3.203 0 6.657-1.35 7.677-3 1.052-1.701-1.469-3-5.823-3-4.222 0-7.677 1.35-7.677 3m-184.5 7.458c-38.975 5.505-78.961 8.087-73.4 4.74 4.785-2.88 59.298-8.275 85.4-8.452 11.345-.077 8.421.828-12 3.712m-161.642 19.048c-5.061 5.061-7.858 6.349-7.858 3.619 0-5.929 13.077-19.394 14.548-14.98.643 1.927-2.368 7.039-6.69 11.361M639 528c0 1.722 9.908 3.101 23.25 3.237 12.788.13 21.563.918 19.5 1.75-8.115 3.274-3.132 6.75 7.537 5.258 6.208-.869 14.646-.239 18.75 1.398 7.277 2.902 7.219 2.981-2.287 3.167-5.362.104-9.75 1.716-9.75 3.58 0 2.214 4.426 2.891 12.762 1.952 7.019-.791 15.456-.387 18.75.899 4.842 1.89 4.122 2.378-3.762 2.548-5.362.116-9.75 1.628-9.75 3.359 0 1.848 5.892 2.88 14.259 2.498 7.842-.358 17.292.973 21 2.957 8.751 4.684 8.527 5.906-.759 4.131-4.125-.788-7.5-.202-7.5 1.303s5.06 3.077 11.244 3.494c16.825 1.133 19.601 6.396 3.606 6.835-13.332.366-13.325.371 4.93 3.75 12.268 2.271 17.859 4.617 17 7.134-.737 2.16 1.214 3.75 4.603 3.75 3.235 0 7.305 1.714 9.044 3.81 2.483 2.991.705 3.575-8.281 2.718-6.294-.6-12.356.385-13.472 2.19-1.374 2.224 3.292 3.282 14.472 3.282 9.236 0 17.442 1.525 18.64 3.464 1.2 1.94.835 2.656-.83 1.627-1.633-1.01-6.904-.659-11.713.779-8.321 2.488-8.136 2.627 3.83 2.872 6.915.142 13.536 1.817 14.713 3.722 1.327 2.145.823 2.649-1.322 1.322-1.905-1.177-3.464-.868-3.464.687 0 1.555 2.594 3.506 5.764 4.335 3.171.829 8.42 6.724 11.665 13.1 6.443 12.66 6.026 13.645-10.007 23.629-4.907 3.056-12.625 8.928-17.151 13.05-6.884 6.27-13.084 8.025-37.954 10.74-21.939 2.395-31.912 2.352-38.07-.165-4.589-1.876-26.009-4.347-47.6-5.491l-39.257-2.08-29.553 10.562c-16.254 5.81-30.161 11.171-30.904 11.914C568.849 699.151 581.748 723 584.96 723c1.561 0 .016-4.783-3.433-10.628-3.449-5.846-5.583-11.316-4.742-12.157.84-.84 4.407 4.28 7.926 11.378 7.566 15.262 14.653 25.043 16.679 23.017.798-.798-1.655-6.099-5.452-11.781C587.471 710.16 584.307 702 587.861 702c1.471 0 4.197 4.617 6.06 10.26 1.862 5.643 5.342 11.883 7.732 13.867 5.885 4.884 5.469 1.833-1.653-12.127-3.3-6.469-6-12.152-5.999-12.63 0-1.143 29-3.512 40.499-3.309 72.446 1.281 68.475.082 77.798 23.498 5.886 14.785 14.36 20.906 22.736 16.423 6.591-3.528 10.448-14.991 8.084-24.03-1.953-7.469 1.431-7.633 7.988-.388 4.35 4.807 6.659 5.131 16.965 2.381 15.553-4.152 15.19-6.774-.821-5.936-11.468.601-11.845.419-3.75-1.815 17.79-4.91 18.625-4.357 25.74 17.056 3.701 11.138 9.011 24.324 11.801 29.303 2.791 4.979 5.714 13.416 6.497 18.75 1.262 8.604.621 9.697-5.694 9.697-9.167 0-21.844 12.675-21.844 21.841 0 10.831 11.77 20.283 23.421 18.808 12.923-1.635 9.246 3.579-4.318 6.123-8.025 1.506-13.492.428-21.952-4.326-6.196-3.483-12.354-5.345-13.686-4.139-1.332 1.206-1.616-.058-.632-2.809 1.071-2.995-.04-5.703-2.768-6.75-6.471-2.483-7.065-2.267-7.065 2.575 0 2.378-1.404 5.191-3.12 6.251-2.03 1.255-2.469-1.043-1.258-6.573 1.427-6.508 1.114-7.446-1.333-4.001-2.705 3.808-3.237 3.577-3.454-1.5l-.257-6-2.72 6c-2.283 5.035-2.611 4.553-2.039-3 .579-7.655 2.048-9.134 9.827-9.895 9.319-.912 14.322-7.347 22.632-29.105 1.89-4.95 3.983-7.553 4.651-5.785.668 1.768-2.25 11.048-6.484 20.623-9.41 21.275-8.072 25.208 1.859 5.466 9.123-18.135 8.406-17.094 10.405-15.095.94.94-1.112 7.24-4.561 14-3.448 6.76-5.056 12.291-3.573 12.291s4.375-4.05 6.425-9 5.005-9 6.566-9 1.996-3.037.966-6.75c-3.283-11.836-20.934-47.123-23.603-47.188-1.414-.034-1.767 2.033-.784 4.594 1.024 2.67.521 3.874-1.179 2.823-1.631-1.008-2.966-.374-2.966 1.41 0 2.605-7.52 19.597-20.482 46.279-.713 1.467.358 1.645 2.38.395 2.022-1.249 8.404-11.9 14.183-23.667 5.779-11.768 9.591-17.346 8.471-12.396-4.019 17.756-14.518 37.779-22.964 43.793-12.808 9.12-15.725 16.259-11.023 26.974 4.399 10.026 12.794 13.271 27.961 10.81 7.388-1.199 12.23-.059 17.561 4.134 4.168 3.278 12.033 5.789 18.136 5.789 5.927 0 10.777 1.35 10.777 3s-1.012 3.154-2.25 3.342c-13.265 2.017-18.608 1.856-17.142-.516.96-1.554.316-2.826-1.431-2.826-1.759 0-3.177 5.944-3.177 13.315v13.316l-13.873-1.131c-11.127-.906-16.965.615-29.493 7.685-16.835 9.501-34.634 11.814-34.634 4.501 0-6.837-10.752-4.303-11.273 2.658-.253 3.386-1.185 9.051-2.071 12.589-1.546 6.171-.91 6.356 15.616 4.538 16.784-1.846 41.127-2.159 53.228-.685 3.3.402 8.872-.174 12.382-1.281 5.59-1.762 6.199-1.049 4.901 5.741-1.292 6.76-3.072 7.807-13.883 8.165-18.105.601-20.383.379-31.522-3.071-9.633-2.983-9.886-2.874-5.239 2.261 4.519 4.994 4.447 6.662-.966 22.397-3.218 9.351-4.792 17.002-3.499 17.002 1.293 0 4.875-7.425 7.96-16.5s6.679-16.5 7.987-16.5c1.309 0 2.379.474 2.379 1.052 0 4.195-7.917 22.884-12.459 29.411-6.198 8.908-7.054 18.105-2.479 26.652 2.659 4.97 1.182 6.655-11.25 12.828-25.585 12.705-39.638 15.096-67.372 11.466-13.717-1.795-44.991-3.982-69.497-4.859-24.506-.878-46.781-2.923-49.5-4.545-3.447-2.057.051-2.436 11.557-1.253 28.418 2.924 114.003 5.839 114.001 3.883 0-1.026-18.608-2.825-41.35-3.996-34.527-1.779-42.569-3.103-48.75-8.023l-7.401-5.892 28.5 1.83c53.129 3.411 87 3.858 87 1.147 0-1.486-10.462-2.755-23.25-2.82-12.787-.066-30.675-.626-39.75-1.246-9.075-.619-25.635-1.446-36.8-1.837-23.177-.811-38.259-7.38-16.484-7.18 7.046.065 14.208.981 15.914 2.035 3.951 2.442 48.882 3.835 51.131 1.586.927-.927-8.878-2.547-21.788-3.601-12.91-1.053-25.817-3.203-28.682-4.776-6.31-3.467-12.197-3.754-10.184-.498.803 1.3-4.854 1.631-12.573.736-11.648-1.352-13.868-2.588-13.059-7.272.676-3.91-.363-5.129-3.384-3.97-2.398.92-5.599.434-7.114-1.081-4.024-4.024-45.977-6.616-45.977-2.841 0 1.787 8.56 3.064 20.535 3.064 16.725 0 21.543 1.113 25.965 6 5.336 5.896 5.24 6-5.535 6-6.031 0-10.965 1.35-10.965 3s7.088 3.021 15.75 3.046c10.568.031 14.339.939 11.462 2.76-2.359 1.492-12.267 2.082-22.017 1.309-11.918-.944-17.091-.374-15.784 1.74 1.093 1.77 12.69 3.174 26.516 3.212 18.61.05 26.206 1.324 31.302 5.25 6.541 5.038 6.08 5.174-16.5 4.871-24.362-.328-50.373-8.101-46.746-13.969 1.14-1.845.5-2.253-1.548-.988-1.921 1.188-7.192-.815-11.714-4.449l-8.221-6.608 17.96 2.023c12.103 1.363 16.97 1.033 14.926-1.011-1.668-1.668-10.479-3.468-19.581-3.999-9.133-.533-19.75-3.209-23.695-5.972-7.138-5-7.133-5.004 3.872-3.218 7.249 1.176 11.018.628 11.018-1.604 0-1.866-4.05-3.562-9-3.768-12.746-.531-14.209-.834-16.872-3.497-1.305-1.305 7.357-1.543 19.25-.529 14.552 1.242 21.622.791 21.622-1.377 0-1.797-6.304-3.37-14.25-3.556-28.022-.658-31.761-1.215-32.997-4.916-.689-2.062 1.222-3.885 4.247-4.049 3.95-.215 3.448-.872-1.778-2.333-4.002-1.118-7.893-3.882-8.647-6.142-1.119-3.359 3.224-3.762 23.778-2.209 13.831 1.046 28.04 1.919 31.576 1.942 3.536.023 7.115 1.828 7.953 4.013 1.186 3.09-2.075 3.674-14.679 2.629-10.789-.895-16.203-.218-16.203 2.028 0 1.995 6.121 3.524 15 3.746 20.047.501 20.126.518 24.6 5.251 3.27 3.459 2.556 3.888-4.422 2.652-4.576-.81-9.044-.304-9.927 1.124-.883 1.429 6.511 2.598 16.431 2.598 23.501 0 41.828 8.066 29.568 13.013-2.062.832-.375 1.636 3.75 1.787 79.479 2.898 108 2.973 108 .283 0-1.862-10.99-3.229-27.75-3.451-57.637-.765-71.574-1.757-75.124-5.346-3.652-3.692 12.4-3.327 66.124 1.505 10.833.975 18.75.502 18.75-1.118 0-3.001-30.48-6.617-56.073-6.652-8.565-.011-16.407-1.371-17.427-3.021-1.02-1.65-3.204-3-4.854-3s-2.34 1.068-1.533 2.373c.806 1.305-3.072 1.843-8.619 1.196-5.547-.648-10.684-2.728-11.416-4.623-.955-2.475 7.232-3.304 29.046-2.942 19.815.329 27.247-.33 21.376-1.895-4.95-1.319-15.412-2.559-23.25-2.754-18.243-.454-18.775-6.355-.573-6.355 8.354 0 12.956-1.168 11.823-3-1.02-1.65-9.034-3-17.81-3-10.523 0-17.227-1.532-19.69-4.5-3.184-3.837-2.354-4.5 5.633-4.5 5.497 0 9.364-1.549 9.36-3.75-.005-2.798 6.949-3.503 27.377-2.777 15.062.535 28.66-.303 30.218-1.861 1.778-1.778-.877-2.743-7.127-2.589-36.109.887-58.9-1.235-60.591-5.64-1.463-3.812.704-4.488 12.429-3.88 7.811.405 16.226 2.145 18.701 3.867 3.809 2.649 3.916 2.382.7-1.738-2.322-2.974-10.683-5.647-21.482-6.869-9.724-1.1-19.316-3.972-21.316-6.382-3.1-3.734-1.589-4.381 10.231-4.381 18.206 0 18.001-4.871-.235-5.561-18.15-.686-23.075-7.16-7.557-9.934 6.137-1.097 16.897-1.251 23.909-.342 8.883 1.151 12.75.552 12.75-1.976 0-2.629-7.016-3.361-25.475-2.657-18.875.719-25.861-.042-26.966-2.936-.819-2.148-.249-3.138 1.268-2.201 1.517.938 3.606.333 4.643-1.344 1.036-1.677-.749-3.049-3.968-3.049-3.74 0-6.531-2.707-7.734-7.5-1.811-7.216-7.768-10.667-7.768-4.5 0 1.65-2.025 3-4.5 3s-4.5-.51-4.5-1.134c0-.623-1.967-5.841-4.371-11.595l-4.371-10.462 11.428.645c6.286.355 12.963 1.593 14.837 2.751 2.146 1.326 2.789.492 1.735-2.254-.92-2.398-4.401-5.073-7.735-5.945-4.547-1.189-5.569-3.136-4.09-7.795 1.153-3.633.642-6.211-1.231-6.211-1.761 0-3.202-2.025-3.202-4.5 0-6.372 13.812-5.749 16.652.75 1.262 2.888 2.064 6.754 1.784 8.591-.308 2.011 2.475 2.771 6.991 1.907 7.711-1.474 7.629-6.748-.104-6.748-2.378 0-4.323-2.116-4.323-4.702 0-3.905 2.672-4.392 15.75-2.875 11.221 1.302 14.456.942 11.25-1.252-2.475-1.694-10.237-3.1-17.25-3.125-9.191-.033-12.75-1.276-12.75-4.452 0-2.684 1.759-3.731 4.5-2.679 2.475.95 4.5.39 4.5-1.244s-2.7-3.677-6-4.54-6-3.046-6-4.85c0-2.047 7.525-3.281 20-3.281 24.212 0 23.401-2.522-1.734-5.393-29.248-3.34-22.716-7.115 12.541-7.245 17.769-.066 33.036-1.299 33.927-2.741.891-1.441-13.901-2.621-32.871-2.621-32.641 0-34.466-.322-34.038-6 .418-5.545 2.619-6.003 29.063-6.046 19.582-.031 27.192-.964 24.112-2.954-2.475-1.599-15.637-2.929-29.25-2.954-14.469-.027-24.75-1.292-24.75-3.046 0-1.765 10.5-3 25.5-3s25.5-1.235 25.5-3c0-1.791-11.567-3-28.702-3-27.337 0-28.612.285-26.798 6 1.351 4.258.539 6-2.798 6-3.224 0-4.702-2.828-4.702-9 0-8.039.98-9 9.177-9 5.879 0 8.448-1.179 7.149-3.282-1.12-1.812-7.283-2.78-13.77-2.162-9.294.887-11.556.164-10.855-3.468.722-3.741 6.001-4.549 28.592-4.377 15.239.115 27.707-.897 27.707-2.25 0-1.354-7.345-2.461-16.323-2.461-8.978 0-17.035-1.152-17.905-2.56-.871-1.409.021-6.809 1.98-12 3.232-8.562 4.759-9.44 16.406-9.44 7.063 0 12.842-1.35 12.842-3 0-1.667-8-3-18-3s-18-1.333-18-3c0-2.908 7.985-4.252 18.75-3.157 2.888.294 5.25-.901 5.25-2.654 0-1.754-4.05-3.189-9-3.189s-9-1.35-9-3 4.05-3 9-3 9-1.35 9-3-2.812-3-6.25-3c-10.372 0-4.694-7.415 6.481-8.464 5.648-.53 11.619-2.314 13.269-3.964 2-2 2-2.811 0-2.431-1.65.313-6.247.41-10.215.214-7.022-.346-7.07-.515-1.785-6.355 3.976-4.394 9.522-6.086 20.715-6.321l15.285-.322-12.811-2.867c-21.814-4.882-11.866-9.41 16.206-7.375 15.776 1.143 25.105.716 25.105-1.148 0-1.711-10.239-2.967-24.177-2.967-15.354 0-23.5-1.095-22.323-3 1.02-1.65.424-3-1.323-3-1.747 0-3.177 1.35-3.177 3s-2.7 3-6 3c-7.247 0-7.728-3.832-1.164-9.279 4.466-3.706 9.541-3.938 31.914-1.46 4.538.503 8.25-.25 8.25-1.674 0-1.423-3.712-2.605-8.25-2.628-11.907-.059-21.946-3.215-20.039-6.3.904-1.462 6.368-2.659 12.143-2.659s9.744-1.223 8.82-2.718c-.924-1.495-4.59-1.958-8.146-1.028-4.699 1.229-5.827.657-4.128-2.091 1.71-2.769 7.467-3.234 21.469-1.734 11.97 1.282 19.131.94 19.131-.913 0-3.405-24.171-5.613-57.604-5.26-15.41.163-22.102-.755-20.094-2.756 1.749-1.743 17.322-2.681 37.17-2.239 20.474.457 34.906-.445 36.021-2.25 1.18-1.909-6.074-3.011-19.816-3.011-34.53 0-21.657-3.44 18.863-5.041 20.328-.803 37.523-2.022 38.21-2.71 2.471-2.469 9.25-1.186 9.25 1.751m-114.324 4.324c-.728.728-8.041 2.065-16.25 2.97-10.328 1.139-13.078.796-8.926-1.113 5.999-2.759 27.676-4.357 25.176-1.857M747 534c-4 2.585-4 2.88 0 2.655 2.475-.139 7.875-1.334 12-2.655l7.5-2.402-7.5-.253c-4.125-.139-9.525 1.056-12 2.655m-142.963 3.75c-.765 1.238 13.089 2.25 30.786 2.25 17.697 0 31.164-1.012 29.927-2.25-1.238-1.237-15.092-2.25-30.786-2.25-15.695 0-29.162 1.013-29.927 2.25M426 539.477c0 4.064-14.808 16.715-17 14.523-1.113-1.113 1.142-5.393 5.011-9.512 7.085-7.542 11.989-9.591 11.989-5.011m345 .538c0 1.621 2.665 2.541 5.923 2.043 8.952-1.366 9.715-3.697 1.434-4.382-4.046-.335-7.357.718-7.357 2.339m-270.715 2.046c-2.868.751-8.268.778-12 .061-3.732-.718-1.385-1.332 5.215-1.365 6.6-.034 9.653.553 6.785 1.304M670.5 543c-1.02 1.65-7.512 3.095-14.427 3.211-6.915.116-15.273 1.445-18.573 2.953-3.926 1.795 2.762 2.24 19.352 1.288 13.943-.8 26.768-2.979 28.5-4.841 2.311-2.485.887-2.852-5.353-1.378-5.567 1.315-7.836.931-6.573-1.113 1.06-1.716 1.253-3.12.428-3.12s-2.334 1.35-3.354 3m-238.5.939c0 .516-4.387 4.904-9.75 9.75l-9.75 8.811 8.811-9.75c8.214-9.088 10.689-11.129 10.689-8.811M882 546c0 1.65 1.35 3 3 3s3-1.35 3-3-1.35-3-3-3-3 1.35-3 3m-335.158 9.296c-10.4 10.092-22.737 14.528-19.909 7.158 1.157-3.017 4.066-4.369 7.478-3.477 3.071.803 6.339.236 7.263-1.259.924-1.495-.425-2.718-2.997-2.718S534 553.485 534 551.633c0-2.267-1.225-2.404-3.75-.418-2.062 1.622-8.991 3.103-15.396 3.291-6.405.187-14.505 1.115-18 2.061-6.236 1.687-6.242 1.649-.354-2.088 6.018-3.819 26.144-6.849 47.342-7.128l11.341-.15-8.341 8.095M609 549c0 1.65 3.375 3 7.5 3s7.5-1.35 7.5-3-3.375-3-7.5-3-7.5 1.35-7.5 3m-176.4 3.6c-6.423 6.423-3.801 9.498 3.15 3.695 3.713-3.1 5.063-3.714 3-1.365-6.061 6.902-4.293 10.492 2.25 4.57 3.723-3.37 6-4.048 6-1.788 0 2.063 1.556 2.68 3.59 1.423 1.975-1.22.533 2.075-3.204 7.323-8.324 11.69-12.088 12.699-4.818 1.292l5.258-8.25-10.163 8.977c-5.59 4.937-8.475 7.029-6.413 4.65 6.301-7.27 4.171-10.409-3-4.422-3.712 3.1-5.062 3.714-3 1.365 4.806-5.473 4.941-11.461.15-6.67-8.036 8.036-8.886 2.936-.9-5.4 4.742-4.95 9.315-9 10.161-9 .847 0-.081 1.62-2.061 3.6m52.588-1.787c-.997.996-3.585 1.103-5.75.236-2.394-.957-1.683-1.668 1.812-1.812 3.163-.13 4.934.579 3.938 1.576m210.062 3.336c-4.537.687-8.25 2.667-8.25 4.4 0 1.803 2.887 2.377 6.75 1.342 3.713-.995 8.438-1.828 10.5-1.85 2.063-.023 3.75-1.391 3.75-3.041s-1.012-2.798-2.25-2.551c-1.237.248-5.962 1.012-10.5 1.7m98.25.851c-9.187 1.645-10.242 2.351-4.5 3.01 12.044 1.384 28.264-.309 31.35-3.273 3.26-3.13-8.544-3.015-26.85.263m-271.566 7.58c-2.018 2.431-7.443 4.42-12.056 4.42-10.019 0-17.878 2.696-17.878 6.132 0 1.37 5.063 1.731 11.25.803 10.793-1.619 11.04-1.466 6.067 3.764-2.85 2.999-8.925 5.605-13.5 5.792-28.992 1.185-33.817 1.779-33.817 4.164 0 1.46 8.804 1.947 19.565 1.084 17.262-1.386 19.344-.992 17.68 3.345-1.235 3.218-5.403 4.916-12.066 4.916-5.598 0-10.179 1.519-10.179 3.375 0 2.156 3.277 2.72 9.073 1.56 8.32-1.664 8.809-1.321 5.895 4.125-2.348 4.387-6.29 5.94-15.074 5.94-6.78 0-11.894 1.445-11.894 3.361 0 2.247 5.894 2.934 17.799 2.073 16.671-1.206 17.608-.931 14.781 4.35-2.359 4.408-6.077 5.534-17.048 5.16-25.577-.87-39.532.025-39.532 2.536 0 1.365 4.05 1.886 9 1.16 6.769-.994 9-.143 9 3.432 0 3.947-3.555 4.64-20.971 4.09-11.533-.364-20.983-1.674-21-2.912-.016-1.237 3.009-2.271 6.721-2.296 3.713-.025 8.775-1.355 11.25-2.954 3.494-2.258 2.616-2.918-3.927-2.954-11.255-.061-7.51-5.317 5.532-7.764 5.717-1.072 10.395-3.318 10.395-4.991 0-1.769-3.709-2.299-8.867-1.268-6.704 1.341-8.487.783-7.308-2.288 1.716-4.473 14.389-7.735 30.05-7.735 5.569 0 10.125-1.447 10.125-3.216 0-2.157-5.677-2.527-17.25-1.124-9.838 1.193-16.176.963-14.75-.534 1.375-1.444 3.738-2.795 5.25-3.001 1.513-.206 4.1-.544 5.75-.75 1.65-.206 3-1.869 3-3.696 0-1.855-2.317-2.519-5.25-1.503-2.887.999-1.2-1.55 3.75-5.665 6.474-5.381 12.579-7.485 21.75-7.496 7.013-.008 12.75-1.365 12.75-3.015 0-1.65-3.712-3.041-8.25-3.091-7.732-.086-7.873-.313-2.25-3.614 6.159-3.615 22.279-6.677 40.051-7.608 8.54-.448 9.499.138 6.383 3.893m64.596-1.531c1.037 1.677 3.141 2.272 4.677 1.323 4.161-2.572 3.386-4.372-1.884-4.372-2.572 0-3.829 1.372-2.793 3.049M609 561c0 1.65 1.35 3 3 3s3-1.35 3-3-1.35-3-3-3-3 1.35-3 3m225 3c0 1.65 1.35 3 3 3s3-1.35 3-3-1.35-3-3-3-3 1.35-3 3m-126 2.398c0 1.318 5.063 1.895 11.25 1.282 17.416-1.726 18.685-3.182 3-3.443-7.837-.13-14.25.842-14.25 2.161m-113.25 2.719c-3.712.715-6.75 2.725-6.75 4.467 0 1.946 3.612 2.444 9.375 1.291 5.156-1.031 10.556-1.875 12-1.875 1.444 0 2.625-1.35 2.625-3 0-3.024-4.844-3.272-17.25-.883m-66.94 5.612c-3.948 4.757-2.07 7.529 7.69 11.347 5.823 2.279-2.883 7.426-13.5 7.982-16.121.844-17.953.309-16.035-4.687.977-2.547 2.532-3.874 3.456-2.95.923.923 3.391-2.394 5.484-7.371 2.573-6.119 5.915-9.05 10.318-9.05 5.588 0 5.955.671 2.587 4.729M714 579c0 3.434 4.276 3.434 15 0 6.693-2.144 6.29-2.434-3.75-2.701-6.187-.164-11.25 1.051-11.25 2.701m-196.5 3c-1.02 1.65-.424 3 1.323 3 1.747 0 3.177-1.35 3.177-3s-.595-3-1.323-3-2.157 1.35-3.177 3m226.5 5.862c0 1.726 6.075 3.138 13.5 3.138s13.5-1.098 13.5-2.439c0-1.342-6.075-2.754-13.5-3.139-7.842-.406-13.5.617-13.5 2.44m-221.021 15.492c-3.495 3.495-8.025 5.797-10.068 5.116-5.046-1.682 4.743-11.47 11.47-11.47 4.162 0 3.938 1.014-1.402 6.354M507 606c-3.107 5.805-12 8.473-12 3.6 0-3.778 6.796-9.6 11.206-9.6 3.075 0 3.26 1.393.794 6m105.653-2.072c-1.533 1.965-3.44 6.272-4.239 9.572-1.17 4.829.19 6.121 6.969 6.622 9.624.71 12.798-2.674 10.196-10.872-2.27-7.153-9.255-10.028-12.926-5.322M621 610.5c0 2.475-1.27 4.5-2.823 4.5-3.783 0-6.492-4.685-4.095-7.082 3.378-3.378 6.918-2.057 6.918 2.582m226.5-1.5c-1.02 1.65.926 3 4.323 3 3.397 0 6.177-1.35 6.177-3s-1.945-3-4.323-3-5.157 1.35-6.177 3m16.5 0c0 1.65 1.43 3 3.177 3s2.343-1.35 1.323-3-2.449-3-3.177-3c-.728 0-1.323 1.35-1.323 3m-318 2.268c0 1.248 8.802 2.513 19.561 2.812 11.54.32 18.848-.61 17.823-2.268-2.059-3.331-37.384-3.844-37.384-.544M450 615c0 1.65 2.025 3 4.5 3s4.5-1.35 4.5-3-2.025-3-4.5-3-4.5 1.35-4.5 3m463.5 0c-5.317 2.285-5.061 2.602 2.25 2.789 4.538.116 8.25-1.139 8.25-2.789 0-3.521-2.306-3.521-10.5 0m-402.631 6c-.863 3.3-3.436 6-5.719 6-5.106 0-5.342-3.608-.55-8.4 5.376-5.376 8.036-4.357 6.269 2.4m385.569-.951c2.165.867 4.753.76 5.75-.236.996-.997-.775-1.706-3.938-1.576-3.495.144-4.206.855-1.812 1.812M577.5 624c-1.02 1.65.251 3 2.823 3s4.677-1.35 4.677-3-1.27-3-2.823-3-3.657 1.35-4.677 3m-299.312 1.813c-.997.996-3.585 1.103-5.75.236-2.394-.957-1.683-1.668 1.812-1.812 3.163-.13 4.934.579 3.938 1.576M537 627c0 1.65 6.67 3 14.823 3s15.657-1.35 16.677-3c1.151-1.863-4.469-3-14.823-3-9.172 0-16.677 1.35-16.677 3m373.5 0c-1.082 1.75 1.969 3 7.323 3 5.047 0 9.177-1.35 9.177-3s-3.295-3-7.323-3c-4.028 0-8.157 1.35-9.177 3m-573.216 4.655c78.098 8.041 70.795 6.222 67.133 16.729-2.764 7.929-4.163 8.809-11.041 6.953-4.332-1.17-12.601-3.223-18.376-4.563-5.775-1.341-15.9-3.897-22.5-5.681-6.6-1.785-25.5-6.496-42-10.471-35.944-8.658-32.354-9.055 26.784-2.967m134.953.159c6.07 2.329 3.15 7.186-4.32 7.186-3.86 0-5.165-1.468-4.002-4.5 1.969-5.132 1.958-5.128 8.322-2.686M492 634.238c0 1.629 1.62 1.342 3.6-.638s5.693-3.555 8.25-3.5c3.485.075 2.954 1.514-2.117 5.744-4.508 3.761-5.512 6.063-3.008 6.898 2.279.759.924 2.77-3.438 5.104-6.093 3.261-6.943 3.19-5.541-.462.913-2.379-.902-5.912-4.045-7.875-7.448-4.651-7.29-9.256.299-8.684 3.3.248 6 1.785 6 3.413m-202.521 1.728c1.051 1.7-.153 2.203-2.823 1.179-5.197-1.995-6.148-4.145-1.833-4.145 1.553 0 3.648 1.335 4.656 2.966m276.021.571c-14.85 1.257-28.687 1.693-30.75.969-2.062-.725-3.75.104-3.75 1.841 0 2.15 10.774 2.48 33.75 1.033 18.563-1.169 34.146-2.466 34.629-2.882 2.98-2.564-10.45-2.945-33.879-.961m-262.443 4.032c3.17 3.82 2.985 4.259-1.133 2.679-2.708-1.04-4.924-3.095-4.924-4.569 0-3.858 1.737-3.316 6.057 1.89M915 642.177c0 1.747 1.35 2.343 3 1.323s3-2.449 3-3.177c0-.728-1.35-1.323-3-1.323s-3 1.43-3 3.177m21-.177c10.724 3.434 15 3.434 15 0 0-1.65-5.062-2.865-11.25-2.701-10.04.267-10.443.557-3.75 2.701m-619.5 3c1.02 1.65.504 3-1.146 3s-3.834-1.35-4.854-3-.504-3 1.146-3 3.834 1.35 4.854 3m134.421-1.307c3.584 1.375 3.788 3.346 1.088 10.5-3.227 8.55-3.918 8.807-23.667 8.807-16.489 0-20.342-.893-20.342-4.712 0-3.818 3.273-4.579 17.25-4.008 9.488.387 17.25-.53 17.25-2.038 0-1.508-6.916-2.742-15.369-2.742-11.063 0-14.965-1.051-13.929-3.75 1.476-3.843 29.135-5.351 37.719-2.057m15.316.121c5.492 2.108 3.433 7.186-2.914 7.186-2.378 0-4.323-2.025-4.323-4.5 0-5.047.551-5.251 7.237-2.686m17.848 2.686c-.95 2.475-3.565 4.5-5.812 4.5-2.398 0-3.372-1.858-2.358-4.5.95-2.475 3.565-4.5 5.812-4.5 2.398 0 3.372 1.858 2.358 4.5m267.626.533c-1.093 2.847.071 7.034 2.679 9.642 4.147 4.147 5.103 4.117 9.52-.3 2.701-2.7 4.093-7.039 3.094-9.642-2.406-6.27-12.851-6.066-15.293.3M327 648c0 1.65-.595 3-1.323 3s-2.157-1.35-3.177-3-.424-3 1.323-3c1.747 0 3.177 1.35 3.177 3m11.964 2.932c2.547 4.759 2.317 5.604-1.163 4.269-5.046-1.937-8.945-10.201-4.812-10.201 1.54 0 4.229 2.67 5.975 5.932M555 648.013c-6.571 1.391 1.529 2.028 21.65 1.704 17.683-.284 33.095-1.462 34.25-2.617 2.72-2.72-42.204-1.987-55.9.913M351 654c2.065 3.859 2.141 6 .211 6-1.65 0-4.445-2.7-6.211-6-2.065-3.859-2.141-6-.211-6 1.65 0 4.445 2.7 6.211 6m585.983-4.017c2.777 2.777 20.017 3.007 20.017.267 0-1.237-4.95-2.25-11-2.25s-10.108.892-9.017 1.983M366 661.783c0 5.662-4.877 2.921-9.211-5.177-2.948-5.51-2.677-5.757 2.984-2.728 3.425 1.833 6.227 5.39 6.227 7.905M465 659c0 2.2-2.658 4-5.906 4-3.689 0-5.33-1.501-4.371-4 .844-2.2 3.502-4 5.906-4s4.371 1.8 4.371 4m13.085-.5c-.95 2.475-3.565 4.5-5.812 4.5-2.398 0-3.372-1.858-2.358-4.5.95-2.475 3.565-4.5 5.812-4.5 2.398 0 3.372 1.858 2.358 4.5m30 0c-1.837 4.786-25.085 6.64-25.085 2 0-4.783 4.069-6.5 15.406-6.5 8.906 0 11.027.986 9.679 4.5m-129.775 6.752c1.783 4.818 1.362 6.05-1.668 4.888-4.838-1.857-8.694-13.991-3.942-12.407 1.775.592 4.299 3.975 5.61 7.519m11.45-.002c1.697 2.914 3.098 3.581 3.149 1.5.05-2.062 1.412-3.75 3.027-3.75 1.788 0 1.604 2.922-.471 7.477-3.758 8.248-9.569 6.097-12.36-4.575-1.913-7.316 2.52-7.751 6.655-.652M516 663c0 1.733 9.5 3 22.5 3s22.5-1.267 22.5-3-9.5-3-22.5-3-22.5 1.267-22.5 3m54 0c0 3.759 3.184 3.759 9 0 3.639-2.352 3.208-2.917-2.25-2.954-3.712-.025-6.75 1.304-6.75 2.954m246.654 9.546c-1.879 1.879-2.297-.094-1.18-5.569 1.28-6.278 2.034-7.033 2.908-2.908.65 3.062-.128 6.877-1.728 8.477m9.718-9.753c.949 1.536.579 3.501-.823 4.368-1.402.866-2.549-.391-2.549-2.793 0-5.058.946-5.5 3.372-1.575M446.26 669.75c-.806 2.437-9.033 4.064-23.496 4.646-14.529.586-21.216-.121-19.26-2.036 2.975-2.911 14.812-4.959 33.996-5.88 6.814-.327 9.605.715 8.76 3.27m14.24-.75c-2.38 3.851.375 3.813 7.697-.106 4.826-2.582 5.803-2.108 5.803 2.812 0 5.146-1.466 5.691-11.25 4.181-6.187-.955-11.723-2.13-12.3-2.612-2.29-1.909 3.171-7.275 7.404-7.275 2.475 0 3.666 1.35 2.646 3m23.706 10c-2.436 7.15-6.156 13-8.266 13-2.987 0-2.801-2.88.838-13 2.571-7.15 6.291-13 8.266-13 2.66 0 2.443 3.373-.838 13m18.592-8.194c-.804 2.094.151 4.462 2.121 5.263 1.969.802-.854 1.564-6.275 1.694-8.655.208-9.497-.433-6.912-5.263 3.285-6.137 13.363-7.68 11.066-1.694M834 674.427c0 4.634-2.095 11.047-4.655 14.25-4.525 5.659-4.603 5.633-2.798-.927 1.085-3.944.526-6.75-1.345-6.75-1.761 0-3.202 2.62-3.202 5.823 0 3.203-1.547 6.779-3.438 7.947-5.968 3.689.235-14.397 7.404-21.585 3.594-3.604 6.872-6.694 7.284-6.869.413-.174.75 3.476.75 8.111m-24.951 1.136c-.957 2.393-1.668 1.682-1.812-1.813-.13-3.162.579-4.934 1.576-3.937.996.996 1.103 3.584.236 5.75m-255.636 2.024c-.687.687-.644 2.231.097 3.429 1.815 2.937 16.49-.029 16.49-3.332 0-2.536-14.066-2.618-16.587-.097m-113.858 5.85c-.869 2.266-2.396 7.37-3.393 11.342-1.681 6.698-3.219 7.221-21.237 7.221-14.226 0-19.081-1.004-18.139-3.75.802-2.337 7.012-3.75 16.485-3.75 8.359 0 16.218-1.012 17.464-2.25 1.969-1.956-9.403-3.372-26.485-3.297-2.887.013-5.249-2.109-5.248-4.715.002-3.859 3.912-4.755 21.068-4.829 16.656-.073 20.735.771 19.485 4.028m29.53 2.063c-.95 2.475-4.362 4.5-7.583 4.5-3.71 0-5.06-1.287-3.685-3.513 1.194-1.931-1.28-.919-5.498 2.25-4.924 3.7-6.474 6.51-4.331 7.85 4.356 2.723.773 6.234-5.03 4.928-3.927-.884-3.976-2.276-.379-10.765 3.685-8.696 5.434-9.75 16.182-9.75 9.479 0 11.682.96 10.324 4.5M637.5 687c2.986 3.3 4.755 6 3.93 6-.825 0-3.944-2.7-6.93-6-2.986-3.3-4.755-6-3.93-6 .825 0 3.944 2.7 6.93 6m14.854 3c1.309 0 .7-2.025-1.354-4.5-5.035-6.067-.333-5.731 6.514.465 6.37 5.765 7.55 12.482 1.278 7.277-3.004-2.493-4.524-2.547-5.31-.189-.605 1.817-4.449-.479-8.541-5.103-5.099-5.761-5.478-6.761-1.205-3.179 3.43 2.876 7.308 5.229 8.618 5.229m19.479 4.123c-.733.709-3.89-2.291-7.015-6.667l-5.682-7.956 7.015 6.667c3.859 3.666 6.416 7.247 5.682 7.956m140.154-3.373c-.832 2.063-1.513.375-1.513-3.75s.681-5.812 1.513-3.75c.832 2.063.832 5.438 0 7.5m-181.604-1.5c3.731 4.758 3.625 4.864-1.133 1.133-4.997-3.919-6.586-6.383-4.117-6.383.623 0 2.985 2.363 5.25 5.25m48 0c3.731 4.758 3.625 4.864-1.133 1.133-4.997-3.919-6.586-6.383-4.117-6.383.623 0 2.985 2.363 5.25 5.25m12.426-.031c-1.15 2.998-2.498 3.114-5.659.49-5.272-4.375-5.255-4.423 1.509-4.423 3.436 0 5.066 1.545 4.15 3.933m14.574.031c3.731 4.758 3.625 4.864-1.133 1.133-4.997-3.919-6.586-6.383-4.117-6.383.623 0 2.985 2.363 5.25 5.25m13.483-1.305c2.274-.873 4.134-.912 4.134-.087 0 4.307-9.081 4.097-12.386-.286-3.154-4.183-3.128-4.456.146-1.556 2.184 1.933 5.832 2.801 8.106 1.929m68.222-.833c-3.33 3.33-57.813 8.056-54.786 4.751 2.044-2.231 31.944-6.946 47.548-7.497 7.147-.253 9.387.597 7.238 2.746m19.866-.862c-.025 1.238-1.315 4.258-2.867 6.712-2.217 3.507-2.713 3.025-2.316-2.25.448-5.948 5.299-10.124 5.183-4.462m-273.704 3.181c-6.187.512-11.251 1.862-11.252 3-.002 2.302 35.499 2.072 37.815-.244 2.175-2.175-13.69-3.821-26.563-2.756m83.329 2.99c-.923.923-3.344.002-5.379-2.049-2.941-2.963-2.596-3.307 1.679-1.679 2.959 1.126 4.624 2.804 3.7 3.728m255.61-2.147c-2.92 1.701-7.983 2.244-11.25 1.207-5.116-1.624-5.939-.486-5.939 8.217 0 15.056 4.147 17.569 20.05 12.15 16.073-5.476 35.176-3.914 50.711 4.148 9.627 4.996 12.003 8.479 17.626 25.832 3.574 11.032 7.425 20.984 8.556 22.115 3.324 3.324 2.366-6.274-1.877-18.816-2.163-6.395-3.851-16.56-3.75-22.59.101-6.029-.632-10.458-1.63-9.842-.998.616-5.048-2.391-9-6.683-14.618-15.874-48.738-24.33-63.497-15.738m-89.626 10.113c-1.402 1.334-32.39 2.57-40.063 1.597-3.3-.419 4.125-2.291 16.5-4.161 18.937-2.862 28.201-1.854 23.563 2.564M463.5 699c-1.02 1.65-3.124 3-4.677 3-1.553 0-2.823-1.35-2.823-3s2.105-3 4.677-3c2.572 0 3.843 1.35 2.823 3m15 0c-1.02 1.65-3.799 3-6.177 3-2.378 0-4.323-1.35-4.323-3s2.78-3 6.177-3 5.343 1.35 4.323 3m11.964 2.25c-.553 2.888-1.108 6.938-1.234 9-.127 2.063-2.255 3.75-4.73 3.75-5.026 0-6.056-4.684-1.631-7.419 1.578-.975 2.108-3.755 1.179-6.177-1.029-2.68.093-4.404 2.866-4.404 2.721 0 4.15 2.114 3.55 5.25m390.585 1.313c-.957 2.393-1.668 1.682-1.812-1.813-.13-3.162.579-4.934 1.576-3.937.996.996 1.103 3.584.236 5.75m21.951-4.74c0 2.483-5.825 3.887-7.161 1.726-.866-1.402.391-2.549 2.793-2.549s4.368.37 4.368.823m-186.211 12.604c-.188 7.209-.487 7.431-2.789 2.073-3.582-8.335-3.582-14.214 0-12 1.65 1.02 2.905 5.487 2.789 9.927M822 701.666c0 1.466-5.062 3.612-11.25 4.769-6.187 1.156-12.937 3.496-15 5.201-2.434 2.011-3.75 2.046-3.75.099 0-5.082 7.034-9.186 18.012-10.51 5.768-.696 10.826-1.481 11.238-1.745.413-.264.75.72.75 2.186m46.035 1.963c-.977 2.547-2.42 3.986-3.206 3.2s-.54-2.87.548-4.629c2.958-4.787 4.687-3.857 2.658 1.429m-144.318 5.78c.779 4.075.261 6.696-1.15 5.823-2.486-1.536-3.738-13.232-1.417-13.232.633 0 1.788 3.334 2.567 7.409m-264.406 2.48c-3.85 3.85-7.755.874-4.904-3.738 1.104-1.787 3.382-2.399 5.062-1.361 2.049 1.266 1.997 2.944-.158 5.099M477 708.094c0 3.592-8.462 7.444-10.93 4.976-2.627-2.627 1.829-8.07 6.607-8.07 2.378 0 4.323 1.392 4.323 3.094M432 711c0 1.65-4.645 3-10.323 3-5.678 0-11.157 1.35-12.177 3-1.103 1.785 2.469 3 8.823 3 7.491 0 10.677 1.343 10.677 4.5 0 3.532-4.135 4.5-19.219 4.5-17.347 0-19.075-.55-17.741-5.651 1.001-3.829 3.33-5.168 7.219-4.151 3.157.826 5.741-.006 5.741-1.848 0-1.843-2.78-3.35-6.177-3.35s-5.343-1.35-4.323-3c1.02-1.65 9.874-3 19.677-3 9.882 0 17.823 1.337 17.823 3m15-.321c0 3.68-8.452 6.635-10.322 3.608-.833-1.347-.652-3.313.404-4.369 2.859-2.859 9.918-2.317 9.918.761m159.077 5.023c1.61 4.236 4.498 10.649 6.417 14.25 3.255 6.11 3.122 6.247-1.991 2.048-4.87-4-5.312-4-3.983 0 .823 2.475 3.648 4.517 6.277 4.538 2.629.021 5.775 1.034 6.991 2.25 5.567 5.567 7.579 1.453 2.22-4.538-3.32-3.712-7.769-11.137-9.886-16.5-2.118-5.362-5.003-9.75-6.412-9.75-1.409 0-1.244 3.466.367 7.702m55.983-1.152c-16.949 5.905-17.559 5.92-21.655.513-4.002-5.283-4.219-5.206-4.31 1.519l-.095 7.083-6.251-7.083c-4.868-5.515-5.864-5.866-4.5-1.587.963 3.023 1.751 6.735 1.751 8.25 0 4.725 22.285 3.022 39.937-3.051 15.876-5.462 17.247-5.507 23.121-.75 6.12 4.955 6.017 5.062-5.157 5.348-6.27.161-20.239 1.343-31.041 2.627-16.138 1.918-19.716 3.338-20.064 7.964-.368 4.88.45 5.163 6.14 2.132 6.133-3.267 6.268-3.135 2.064 2.014-4.132 5.061-3.986 5.379 1.794 3.891 3.461-.891 9.536.177 13.5 2.374 8.657 4.798 22.001 5.329 29.744 1.186 3.104-1.662 9.175-3.313 13.492-3.67 10.47-.867 14.888-6.399 9.007-11.279-2.495-2.071-4.537-5.85-4.537-8.398s-.862-3.771-1.916-2.717c-1.054 1.054-5.883-1.421-10.731-5.5-10.282-8.651-8.125-8.59-30.293-.866m75.335 7.335c-.99 7.93-1.199 7.721-2.632-2.632-.893-6.449-.435-10.125 1.074-8.616 1.448 1.448 2.149 6.509 1.558 11.248M615 712.398c0 3.824 10.431 22.602 12.556 22.602 3.56 0 3.125-1.502-3.852-13.329-5.76-9.762-8.704-12.898-8.704-9.273m116.068 15.852c-.755 2.888-1.372.525-1.372-5.25s.617-8.137 1.372-5.25c.755 2.888.755 7.613 0 10.5m71.017-6.75c2.241 5.842 9.244 5.743 15.201-.214 2.593-2.593 4.714-3.433 4.714-1.868 0 10.101-24.567 12.732-26.444 2.832-1.215-6.405 4.123-7.018 6.529-.75m31.869 16.661c.039 11.705-1.458 15.12-10.454 23.839-8.46 8.199-10.5 9.111-10.5 4.693 0-3.017-2.81-10.032-6.245-15.589L800.511 741l8.494-.067c8.951-.07 27.487-11.742 18.845-11.866-2.557-.037-6.463 1.621-8.679 3.683-2.216 2.063-.88-.64 2.969-6.006 8.425-11.747 11.747-8.536 11.814 11.417m-532.552-14.823c6.546 1.817 22.071 10.031 34.5 18.253 20.189 13.356 23.957 14.8 35.348 13.548 7.013-.771 12.75-.138 12.75 1.407 0 1.544-1.687 1.855-3.75.691-3-1.694-3-1.309 0 1.923 2.063 2.222 3.75 7.82 3.75 12.44 0 4.62-1.687 8.572-3.75 8.783-2.062.21-7.125.794-11.25 1.297-12.604 1.535-25.302-4.184-37.687-16.973-6.497-6.71-17.588-15.614-24.646-19.787-11.134-6.583-15.559-7.434-33.409-6.425-18.238 1.03-23.206 2.77-43.735 15.314-12.738 7.784-24.575 13.277-26.305 12.208-1.73-1.069-2.304-.583-1.276 1.081 3.275 5.298-13.715 10.667-36.942 11.674l-22.5.975 20.214-4.249c24.256-5.098 25.645-5.798 49.748-25.067 10.429-8.337 25.954-17.734 34.5-20.882a9604.927 9604.927 0 0 0 20.038-7.4c7.506-2.795 21.836-2.3 34.402 1.189m141.849.412c-.686 2.063-3.494 4.186-6.239 4.718-3.48.675-4.443-.46-3.181-3.75 2.129-5.546 11.257-6.484 9.42-.968m12.749.75c0 2.475-1.983 4.5-4.406 4.5-2.684 0-3.731-1.759-2.679-4.5.95-2.475 2.932-4.5 4.406-4.5 1.473 0 2.679 2.025 2.679 4.5m16.085 0c-.95 2.475-3.607 4.5-5.906 4.5-2.298 0-4.179-2.025-4.179-4.5 0-2.476 2.656-4.5 5.906-4.5 4.017 0 5.353 1.439 4.179 4.5m14.784 1.5c-.863 3.3-3.436 6-5.719 6-2.282 0-4.15-2.7-4.15-6 0-3.902 2-6 5.719-6 4.242 0 5.314 1.55 4.15 6M504 726c0 4-2 6-6 6s-6-2-6-6 2-6 6-6 6 2 6 6m220.987 3.75c-.832 2.063-1.513.375-1.513-3.75s.681-5.812 1.513-3.75c.832 2.063.832 5.438 0 7.5m202.14-8.1c.325 7.265 14.864 44.847 17.718 45.798 3.377 1.126-10.528-40.878-15.161-45.798-1.695-1.8-2.637-1.8-2.557 0m-65.149 9.6c.912 4.538 2.612 12.171 3.779 16.964 2.097 8.618 2.001 8.694-8.819 6.938-10.66-1.73-15.204 1.569-6.671 4.844 2.446.938 3.637 4.046 2.792 7.28-.812 3.104.643 7.402 3.232 9.551 5.455 4.527 6.444.108 1.159-5.177-4.254-4.254-3.373-5.226 6.987-7.707 5.493-1.315 8.449-.568 9.597 2.426 1.066 2.776.212 3.77-2.383 2.774-2.224-.854-4.935-.11-6.025 1.652-1.089 1.763-.454 3.205 1.412 3.205 1.93 0 2.976 3.532 2.427 8.194-.746 6.333.398 8.366 5.035 8.947 3.3.414 4.313-.01 2.25-.944-4.48-2.027-4.992-12.075-.75-14.697 1.65-1.02 3 .926 3 4.323 0 3.397 1.35 6.177 3 6.177s3-3.958 3-8.795c0-7.538 1.047-8.684 7.323-8.015 4.027.429 9.256 2.386 11.619 4.347 2.364 1.962 6.71 2.641 9.659 1.509 4.781-1.835 4.613-2.334-1.555-4.616-3.804-1.407-6.233-3.243-5.398-4.078.836-.836 5.07-.17 9.41 1.48 4.339 1.65 9.927 2.218 12.416 1.263 2.489-.955 4.526-.242 4.526 1.584 0 1.827 1.208 3.321 2.685 3.321 2.775 0-6.048-31.466-11.876-42.357-6.565-12.266-6.429-2.455.191 13.857 3.731 9.194 6.07 17.43 5.198 18.302-.873.873-3.858-5.251-6.633-13.608-2.776-8.357-6.289-15.194-7.806-15.194-3.718 0-3.626.481 3.134 16.251 3.242 7.562 4.929 13.747 3.75 13.745-1.178-.002-5.217-6.94-8.975-15.418-7.812-17.628-12.421-18.188-5.358-.652 3.985 9.894 4.011 10.729.176 5.751-2.467-3.203-4.486-7.141-4.486-8.75 0-1.61-.905-2.022-2.011-.916-1.105 1.105-5.239-.105-9.185-2.691-3.946-2.585-10.803-4.278-15.239-3.76-6.848.798-8.208-.304-9.014-7.31-.522-4.537-2.363-8.25-4.091-8.25-1.829 0-2.448 3.447-1.482 8.25M747.6 741.37c-4.902 15.707-2.143 19.057 3.861 4.687C756.486 734.03 757.155 729 753.73 729c-1.248 0-4.006 5.566-6.13 12.37M952.051 735c1.027 4.125 1.886 8.513 1.908 9.75.023 1.238 1.482 2.25 3.243 2.25 3.663 0 .833-11.83-3.947-16.5-2.085-2.037-2.472-.592-1.204 4.5M428 739.5c0 2.475-2.555 4.5-5.677 4.5-3.122 0-4.99 1.112-4.15 2.47.839 1.359 6.048 2.245 11.574 1.969 7.848-.391 10.139.722 10.468 5.085.389 5.174-1.392 5.441-24.147 3.619-13.513-1.082-25.204-2.53-25.981-3.218-3.127-2.769 7.939-7.029 15.663-6.031 4.538.587 8.25-.049 8.25-1.414 0-1.364-5.4-2.48-12-2.48-8.667 0-12-1.25-12-4.5 0-3.526 4.111-4.5 19-4.5s19 .974 19 4.5m13 0c0 2.475-2.025 4.5-4.5 4.5a4.513 4.513 0 0 1-4.5-4.5c0-2.475 2.025-4.5 4.5-4.5s4.5 2.025 4.5 4.5m15 0c0 2.475-2.025 4.5-4.5 4.5a4.513 4.513 0 0 1-4.5-4.5c0-2.475 2.025-4.5 4.5-4.5s4.5 2.025 4.5 4.5m15 7.5c0 8.667-1.25 12-4.5 12-2.543 0-4.5-2.686-4.5-6.177 0-3.397 1.35-5.343 3-4.323 1.65 1.02 3 .424 3-1.323 0-1.747-1.35-3.177-3-3.177s-3-2.025-3-4.5 2.025-4.5 4.5-4.5c3.25 0 4.5 3.333 4.5 12m13.581-8.869c1.065 1.723.404 4.978-1.468 7.233-2.34 2.82-2.421 4.71-.259 6.046 4.656 2.877 3.815 7.59-1.354 7.59-3.25 0-4.5-3.333-4.5-12 0-11.48 3.463-15.531 7.581-8.869m14.674-1.31c7.303 2.803 5.624 7.179-2.755 7.179-4.667 0-7.5-1.7-7.5-4.5 0-4.842 2.748-5.56 10.255-2.679m170.326 6.626c-3.525.521-8.81-.556-11.745-2.393-4.67-2.924-4.494-3.11 1.414-1.495 4.252 1.162 6.75.524 6.75-1.724 0-2.54 1.441-2.382 4.995.548 4.58 3.775 4.463 4.196-1.414 5.064M696 736.394c0 .767-2.67 2.824-5.932 4.57-4.841 2.59-5.61 2.333-4.18-1.395 1.554-4.049 10.112-6.736 10.112-3.175m198 1.252c0 1.65 1.35 3.834 3 4.854s3 .504 3-1.146-1.35-3.834-3-4.854-3-.504-3 1.146m-606 17.175c0 5.598-1.35 10.179-3 10.179s-3-1.181-3-2.625-.849-6.868-1.886-12.054c-1.578-7.892-1.089-9.123 3-7.554 3.186 1.223 4.886 5.416 4.886 12.054M275.41 753c.483 6.344-.657 9-3.862 9-2.502 0-4.548-1.915-4.548-4.255s-.819-6.39-1.821-9c-1.266-3.298-.088-4.745 3.862-4.745 4.162 0 5.866 2.409 6.369 9m27.36-4.76c3.999 2.216 7.617 6.555 8.041 9.644.424 3.089 1.609 11.016 2.633 17.616 1.491 9.603 1.114 11.251-1.889 8.251-2.064-2.061-4.038-9.299-4.386-16.082-.349-6.784-2.243-13.872-4.21-15.752-2.757-2.634-3.095-.324-1.474 10.083 1.861 11.941 1.59 12.98-2.342 9-4.887-4.948-9.845-27.064-6.029-26.894 1.312.059 5.658 1.919 9.656 4.134M561 747c0 1.65 2.025 3 4.5 3s4.5-1.35 4.5-3-2.025-3-4.5-3-4.5 1.35-4.5 3m324.786 2.264c-.393 1.936 1.042 2.846 3.189 2.022 2.147-.824 6.39 1.25 9.429 4.608 6.41 7.083 5.74 7.236-12.076 2.75-9.396-2.366-13.328-4.901-13.328-8.591 0-3.565 2.153-5.086 6.75-4.772 3.713.254 6.429 2.046 6.036 3.983m-625.337 5.755c-1.227 10.371-6.558 12.015-10.75 3.316l-3.293-6.835-.203 7.65c-.387 14.581-12.203 20.338-12.203 5.946 0-6.629 2.108-10.048 8.25-13.38 13.248-7.187 19.311-6.087 18.199 3.303M456.869 753c1.151 4.401.092 6-3.973 6-6.349 0-10.121-4.59-7.396-9 3.132-5.067 9.714-3.331 11.369 3M648 749.969c0 7.97 26.921 11.672 40.359 5.549 9.983-4.548 9.936-9.242-.054-5.444-10.057 3.824-27.189 3.734-34.502-.18-4.041-2.162-5.803-2.139-5.803.075m116.422 19.823c-3.807 9.494-8.594 17.808-10.638 18.474-2.05.668.641-8.089 6-19.526 11.455-24.45 14.578-23.742 4.638 1.052M507 753c0 1.65-4.05 3-9 3s-9-1.35-9-3 4.05-3 9-3 9 1.35 9 3m-163.004 43.5.496 15-2.539-14.543c-3.363-19.262-6.882-22.103-5.526-4.461.841 10.941.257 13.316-2.676 10.883-2.063-1.713-3.846-8.011-3.962-13.996-.116-5.986-1.472-13.583-3.014-16.883-1.965-4.205-2.419-.616-1.518 12 1.202 16.835 1.034 17.417-2.594 9-2.133-4.95-4.569-15.452-5.412-23.338l-1.534-14.337 13.892 12.837c12.714 11.75 13.933 14.109 14.387 27.838m77.308-33.636c28.24 1.52 24.334 7.522-5.636 8.661-24.443.928-25.682.669-25.675-5.359.005-4.874 1.563-6.095 6.757-5.297 3.713.57 14.762 1.467 24.554 1.995M531 762c0 1.65 3.295 3 7.323 3 4.028 0 8.157-1.35 9.177-3 1.082-1.75-1.969-3-7.323-3-5.047 0-9.177 1.35-9.177 3m-300 9.955c0 3.631-2.675 8.272-5.945 10.314-5.279 3.297-6.169 2.821-7.942-4.245-1.46-5.814-.547-9.018 3.387-11.895 6.695-4.896 10.5-2.784 10.5 5.826m223.255-8.134c6.703 2.572 5.898 7.179-1.255 7.179-3.333 0-6-2-6-4.5 0-5.049.549-5.252 7.255-2.679m18.987 9.621c1.045 9.157.643 9.558-9.575 9.558-5.867 0-11.646.101-12.842.225-1.196.124-2.659-1.226-3.25-3-.591-1.774 1.738-3.225 5.175-3.225 3.438 0 6.25-1.43 6.25-3.177s1.579-2.201 3.51-1.008c2.316 1.431 2.896.571 1.707-2.53-.992-2.584-.968-5.534.052-6.554 3.874-3.874 7.922.507 8.973 9.711m13.843-6.942c1.174 3.061-.162 4.5-4.179 4.5-5.895 0-7.69-3.216-3.906-7 3.24-3.24 6.238-2.313 8.085 2.5m21 0c1.296 3.377-.495 4.5-7.179 4.5-5.916 0-8.906-1.511-8.906-4.5 0-2.746 2.798-4.5 7.179-4.5 3.949 0 7.956 2.025 8.906 4.5m474.719 1.008c-.764 1.236 1.218 2.443 4.404 2.683 6.89.519 7.496-.895 1.388-3.239-2.422-.929-5.029-.679-5.792.556m-384.54 6.203c-12.989 5.876-24.315 17.964-27.053 28.874-2.616 10.423 3.916 29.479 12.991 37.9 31.007 28.769 76.294 4.291 67.172-36.308-3.097-13.783-9.767-22.713-21.367-28.604-13.958-7.089-19.472-7.413-31.743-1.862m244.83-4.024C842.979 773.605 854.59 798 856.57 798c.787 0 1.423-1.687 1.415-3.75-.019-4.65-14.762-28.969-14.891-24.563M888 778.323c0 4.222 1.35 7.677 3 7.677s3-2.62 3-5.823c0-3.203-1.35-6.657-3-7.677-1.701-1.052-3 1.469-3 5.823m9-3c0 2.572 1.35 4.677 3 4.677s3-1.27 3-2.823-1.35-3.657-3-4.677c-1.65-1.02-3 .251-3 2.823m-756.812.49c-.997.996-3.585 1.103-5.75.236-2.394-.957-1.683-1.668 1.812-1.812 3.163-.13 4.934.579 3.938 1.576m72.124 5.687c.341 4.125-.714 7.669-2.346 7.875-4.2.531-6.723 1.316-12.754 3.97-6.013 2.645-30.091.524-41.002-3.613-6.049-2.293-3.886-3.081 12.711-4.631 11-1.027 23.73-3.891 28.289-6.364 11.648-6.318 14.392-5.816 15.102 2.763m230.395-4.165c2.858 4.624-5.417 9.322-8.378 4.757-1.739-2.682-3.058-2.458-5.204.883-1.834 2.854-1.834 5.516 0 7.35 5.307 5.307 2.969 6.175-16.625 6.175-14.201 0-19.5-1.082-19.5-3.98 0-2.709 3.302-3.695 10.339-3.089 5.687.49 11.312-.082 12.5-1.27 1.189-1.189-.089-2.33-2.839-2.536-2.75-.206-7.7-.712-11-1.125l-9-1.125c-1.65-.206-3-1.644-3-3.194 0-5.28 49.549-7.955 52.707-2.846M489 778.5c0 2.475-2.025 4.5-4.5 4.5-7.807 0-5.277-5.912 3.75-8.763.413-.13.75 1.788.75 4.263m136.368 1.436c6.745 3.265 14.596 9.886 17.448 14.713 10.768 18.23 3.027 43.546-15.686 51.297-14.063 5.825-35.221-1.225-44.356-14.781-16.276-24.152-2.96-50.251 29.029-56.894.716-.149 6.821 2.4 13.565 5.665M834 778.254c0 3.473 15.746 32 16.981 30.765 2.123-2.123-11.275-32.019-14.35-32.019-1.447 0-2.631.564-2.631 1.254m-483.951 11.309c-.957 2.393-1.668 1.682-1.812-1.813-.13-3.162.579-4.934 1.576-3.937.996.996 1.103 3.584.236 5.75M531 786c0 1.65 1.35 3 3 3s3-1.35 3-3-1.35-3-3-3-3 1.35-3 3m189.705 5.25c-7.485 17.105-19.334 35.613-29.427 45.962C681.165 847.583 666.374 879 671.605 879c1.419 0 4.897-6.068 7.73-13.485 2.832-7.417 9.821-17.879 15.531-23.25 9.76-9.182 34.134-49.257 34.134-56.124 0-5.994-4.704-3.097-8.295 5.109M361.404 802.5c1.172 6.6 1.164 11.041-.018 9.869-1.181-1.172-3.165-7.693-4.408-14.491-1.244-6.799-1.236-11.24.017-9.869 1.252 1.37 3.236 7.891 4.409 14.491m533.751-9.853c-11.737 9.013-13.056 11.298-13.109 22.709-.092 19.623 16.765 31.605 37.235 26.467 10.167-2.552 19.914-17.421 20.706-31.588.365-6.538.105-11.327-.578-10.644-.683.683-5.208-2.096-10.056-6.175-10.92-9.189-22.885-9.458-34.198-.769M368.743 801c-.109 2.967-1.043 2.456-2.743-1.5-3.544-8.247-3.544-12.984 0-7.5 1.599 2.475 2.834 6.525 2.743 9m77.508-6.75c.733 2.2-1.335 3.75-5.001 3.75-3.685 0-6.25-1.937-6.25-4.72 0-5.514 9.361-4.707 11.251.97m14.33-2.119c1.065 1.723.304 5.098-1.69 7.5-2.921 3.52-2.68 4.369 1.242 4.369 2.677 0 4.867 1.35 4.867 3 0 3.478-8.036 4.086-9.908.75-.694-1.237-2.15-5.962-3.234-10.5-1.466-6.133-.849-8.25 2.408-8.25 2.409 0 5.251 1.409 6.315 3.131m15.684 2.119c1.826 5.545-10.292 4.612-12.429-.957-1.352-3.522-.17-4.466 4.694-3.75 3.575.526 7.056 2.645 7.735 4.707m18.084.252c.896 2.72-.876 3.682-5.53 3-3.767-.551-7.443-2.803-8.168-5.004-.896-2.72.876-3.682 5.53-3 3.767.551 7.443 2.803 8.168 5.004m319.83-.757C819.662 808.035 813.94 819 801 819c-14.407 0-19.955-13.553-10.035-24.514 6.132-6.776 20.72-7.241 23.214-.741m-213.813 2.089c-7.485 7.485-.76 17.718 7.265 11.057 2.403-1.994 4.369-5.341 4.369-7.437 0-5.318-7.578-7.676-11.634-3.62m325.624.596c8.726 6.112 11.08 17.799 5.685 28.232-5.084 9.832-10.001 12.338-24.203 12.338-7.269 0-11.751-2.179-16.254-7.905-8.464-10.76-7.816-17.958 2.551-28.326 9.807-9.806 22.059-11.456 32.221-4.339m-572.911 12.763c-.761 2.919-1.433 1.257-1.494-3.693-.061-4.95.561-7.338 1.383-5.307.822 2.031.872 6.081.111 9M516 801c0 1.65 3.375 3 7.5 3s7.5-1.35 7.5-3-3.375-3-7.5-3-7.5 1.35-7.5 3m90 0c0 1.65-1.43 3-3.177 3s-2.343-1.35-1.323-3 2.449-3 3.177-3c.728 0 1.323 1.35 1.323 3m189.193-.183c-3.513 2.223-3.604 3.573-.494 7.32 2.985 3.597 4.994 3.856 9.257 1.194 2.995-1.87 4.761-5.185 3.924-7.366-1.764-4.596-6.553-5.029-12.687-1.148m-410.048 4.839c1.024 2.67.521 3.874-1.179 2.823-1.631-1.008-2.966-3.103-2.966-4.656 0-4.315 2.15-3.364 4.145 1.833m47.94-.156c1.423 3.709-1.626 4.5-17.358 4.5-14.197 0-19.527-1.153-20.812-4.5-1.423-3.709 1.626-4.5 17.358-4.5 14.197 0 19.527 1.153 20.812 4.5m16.915 0c0 2.5-2.667 4.5-6 4.5s-6-2-6-4.5 2.667-4.5 6-4.5 6 2 6 4.5m30 1.5c0 1.65-2.7 3-6 3s-6-1.35-6-3 2.7-3 6-3 6 1.35 6 3m423.157 1.311c-3.962 4.774-2.411 13.689 2.382 13.689 1.499 0 4.463-2.093 6.586-4.651 3.173-3.822 3.059-5.451-.64-9.15-4-4-4.926-3.988-8.328.112M495 813c0 1.65 2.105 3 4.677 3 2.572 0 3.843-1.35 2.823-3s-3.124-3-4.677-3c-1.553 0-2.823 1.35-2.823 3m15 .3c0 1.485 4.725 2.7 10.5 2.7s10.5-1.215 10.5-2.7-4.725-2.7-10.5-2.7-10.5 1.215-10.5 2.7m-75 5.023c0 3.075-2.008 3.839-6.75 2.568-3.712-.995-12.487-1.828-19.5-1.85-7.012-.023-12.75-1.462-12.75-3.199 0-1.953 7.448-2.918 19.5-2.528 14.802.479 19.5 1.686 19.5 5.009m18 1.027c0 1.457-2.7 2.65-6 2.65s-6-1.899-6-4.219c0-2.742 2.1-3.67 6-2.65 3.3.863 6 2.761 6 4.219m16.085-1.85c1.174 3.061-.162 4.5-4.179 4.5-5.895 0-7.69-3.216-3.906-7 3.24-3.24 6.238-2.313 8.085 2.5m17.916 6.22c4.632 9.713 4.604 10.28-.494 10.28-3.149 0-7.359-4.117-10.111-9.887-4.382-9.19-4.347-9.915.494-10.28 3.189-.24 7.11 3.594 10.111 9.887m271.048-4.157c-.957 2.393-1.668 1.682-1.812-1.813-.13-3.162.579-4.934 1.576-3.937.996.996 1.103 3.584.236 5.75M837 825.024c0 7.796-4.629 9.883-11.878 5.356-8.84-5.521-7.523-10.427 2.878-10.723 6.889-.196 9 1.063 9 5.367m-318 .153c0 1.747 1.35 2.343 3 1.323s3-2.449 3-3.177c0-.728-1.35-1.323-3-1.323s-3 1.43-3 3.177m-81.001 3.573c0 2.312-3.739 3.598-9.75 3.354-5.362-.218-14.136-.556-19.499-.75-18.545-.673-9.827-6.354 9.75-6.354 13.6 0 19.5 1.135 19.499 3.75m19.547 4.094c.025 1.461 1.117 4.344 2.427 6.406 1.669 2.628.18 3.75-4.975 3.75-7.075 0-10.998-4.868-10.998-13.649 0-3.052 1.796-3.493 6.75-1.661 3.713 1.374 6.771 3.693 6.796 5.154m15.791-2.332c.64 1.918-1.649 3.488-5.087 3.488-3.437 0-6.25-1.906-6.25-4.235 0-4.979 9.64-4.344 11.337.747m32.051.306c.958 1.551-.987 2.613-4.323 2.362-3.336-.251-6.065-1.52-6.065-2.818 0-3.318 8.28-2.954 10.388.456M537 837.177c0 1.747 1.35 2.343 3 1.323s3-2.449 3-3.177c0-.728-1.35-1.323-3-1.323s-3 1.43-3 3.177m229.156.876c-1.839 2.104-5.048 7.008-7.13 10.898-3.249 6.071-3.017 7.636 1.635 11.037 4.576 3.347 6.281 3.185 10.95-1.041 4.157-3.762 4.607-5.576 1.811-7.305-2.047-1.264-5.791-.689-8.321 1.28-4.023 3.128-4.087 2.923-.511-1.639 2.249-2.869 4.949-4.686 6-4.038 1.05.649 2.105-2.066 2.343-6.033.477-7.964-1.692-8.975-6.777-3.159M441 840c0 1.692-8.5 3-19.5 3s-19.5-1.308-19.5-3 8.5-3 19.5-3 19.5 1.308 19.5 3m38.188 2.019c.637 1.935-1.958 3.961-5.765 4.501-4.431.629-6.773 2.872-6.506 6.231.289 3.65-1.767 5.249-6.75 5.249-3.942 0-7.167-.565-7.167-1.255s-.909-3.624-2.021-6.52c-1.561-4.069-.872-4.826 3.027-3.33 3.278 1.258 6.354-.171 8.771-4.075 3.918-6.327 14.424-6.84 16.411-.801m15.159.518c.86 2.581-.583 3.662-4.003 3-2.941-.571-5.952-2.853-6.691-5.074-.86-2.581.583-3.662 4.003-3 2.941.571 5.952 2.853 6.691 5.074M510 841.5c0 2.5-2.667 4.5-6 4.5s-6-2-6-4.5 2.667-4.5 6-4.5 6 2 6 4.5m-65.296 9c3.92 5.335 2.436 7.949-3.452 6.08-3.161-1.003-6.615-.419-7.677 1.298-1.174 1.9 1.622 3.122 7.142 3.122 6.154 0 10.16 2.032 12.454 6.32 3.299 6.164 2.988 6.267-12.644 4.194-11.489-1.523-15.149-1.203-12.926 1.132 1.706 1.791 9.407 3.495 17.114 3.786 7.707.292 14.581 2.001 15.275 3.799.861 2.228-5.709 2.957-20.63 2.29-15.479-.692-22.374-2.23-23.533-5.25-1.014-2.643.326-4.343 3.517-4.461 3.838-.142 3.43-.884-1.594-2.903-8.873-3.567-8.644-8.907.383-8.907 3.923 0 8.533-1.688 10.246-3.751 2.43-2.928.205-3.521-10.133-2.698-10.462.832-13.246.067-13.246-3.637 0-3.821 3.474-4.571 18.75-4.052 10.313.351 19.742 1.988 20.954 3.638m39.669 3.75c.831 2.165-.902 3.75-4.1 3.75-3.046 0-6.939-1.687-8.651-3.75-2.343-2.823-1.329-3.75 4.1-3.75 3.966 0 7.859 1.688 8.651 3.75m14.904-.25c.959 2.499-.682 4-4.371 4-3.248 0-5.906-1.8-5.906-4s1.967-4 4.371-4c2.404 0 5.062 1.8 5.906 4m16.723-.5c0 2.475-2.556 4.5-5.679 4.5-3.124 0-6.456-2.025-7.406-4.5-1.247-3.251.329-4.5 5.679-4.5 4.583 0 7.406 1.715 7.406 4.5m54 7.16c0 1.462 4.05 3.253 9 3.98 10.468 1.536 12.184-2.087 2.25-4.749-9.224-2.472-11.25-2.334-11.25.769m350.305.845c1.744 1.744 4.941 2.58 7.105 1.858 2.247-.749.887-2.109-3.17-3.169-4.99-1.305-6.161-.915-3.935 1.311m-448.473 5.127c1.696 1.696.181 3.594-3.905 4.891-6.145 1.95-11.743-1.867-11.881-8.101-.062-2.79 12.299-.277 15.786 3.21m322.155 4.118c-.832 2.063-1.513.375-1.513-3.75s.681-5.812 1.513-3.75c.832 2.063.832 5.438 0 7.5M938.4 864.6c2.8 2.8 4.4 2.8 7.2 0s2-3.6-3.6-3.6-6.4.8-3.6 3.6m-448.445 3.56c1.123 2.927-.131 3.709-4.226 2.638-8.099-2.118-10.321-6.798-3.227-6.798 3.221 0 6.574 1.872 7.453 4.16m32.4-.41c.196 2.063.174 5.274-.048 7.137-.222 1.864 2.318 4.1 5.645 4.97 8.462 2.213 7.599 7.607-.956 5.972-3.852-.736-9.495-5.557-12.54-10.712-3.046-5.155-6.081-7.741-6.747-5.745-1.666 4.998-8.21 4.549-12.709-.872-3.237-3.9-1.687-4.5 11.633-4.5 10.104 0 15.489 1.284 15.722 3.75m231.68 6.879c-.977 2.547-2.42 3.986-3.206 3.2s-.54-2.87.548-4.629c2.958-4.787 4.687-3.857 2.658 1.429m5.47 5.066c-2.226 2.226-2.616 1.055-1.311-3.935 1.06-4.057 2.42-5.417 3.169-3.17.722 2.164-.114 5.361-1.858 7.105m-349.724 12.009c-1.805 1.212-5.006 2.225-7.113 2.25-2.108.025-33.676 14.914-70.15 33.085-36.474 18.171-64.622 30.996-62.55 28.5 2.072-2.496 5.078-4.539 6.681-4.539 1.602 0 18.65-9.65 37.882-21.444 19.233-11.795 46.444-28.071 60.469-36.171 14.025-8.099 26.782-15.999 28.35-17.555 1.792-1.78 4.123.232 6.281 5.42 2.473 5.947 2.515 8.865.15 10.454m176.415-15.309c-10.24 2.232-6.05 3.136 17.766 3.834 9.604.281 18.041-.425 18.748-1.569 1.775-2.873-25.86-4.587-36.514-2.265m188.839 1.234c-.977 2.547-2.42 3.986-3.206 3.2s-.54-2.87.548-4.629c2.958-4.787 4.687-3.857 2.658 1.429M783 877.5c0 2.475-1.308 4.5-2.906 4.5s-2.129-2.025-1.179-4.5 2.257-4.5 2.906-4.5c.648 0 1.179 2.025 1.179 4.5m-301.901 3.037c1.388 3.616.083 4.147-6.429 2.613-12.485-2.941-15.188-7.15-4.591-7.15 5.514 0 9.985 1.841 11.02 4.537m14.986-.037c1.154 3.007-.126 4.5-3.858 4.5-3.072 0-6.362-2.025-7.312-4.5-1.154-3.007.126-4.5 3.858-4.5 3.072 0 6.362 2.025 7.312 4.5m303.175 1.112c.642 1.038-2.079 1.888-6.046 1.888-3.968 0-7.214-1.561-7.214-3.469 0-3.447 10.961-2.14 13.26 1.581M514.5 882c1.02 1.65-.846 3-4.146 3s-6.834-1.35-7.854-3c-1.02-1.65.846-3 4.146-3s6.834 1.35 7.854 3m185.548 1.404c.929 2.422.399 5.202-1.179 6.177-1.578.975-2.869-1.007-2.869-4.404 0-7.244 1.668-7.974 4.048-1.773m109.001 2.159c-.957 2.393-1.668 1.682-1.812-1.813-.13-3.162.579-4.934 1.576-3.937.996.996 1.103 3.584.236 5.75M894 888c0 1.65 2.025 3 4.5 3s4.5-1.35 4.5-3-2.025-3-4.5-3-4.5 1.35-4.5 3m59.25-.851c-4.537.687-11.962.687-16.5 0-4.537-.688-.825-1.25 8.25-1.25s12.788.562 8.25 1.25m-493.5 2.968c-9.587 1.847-8.38 6.883 1.65 6.883 4.62 0 10.218 1.688 12.44 3.75 3.251 3.018 3.599 2.973 1.781-.23-1.688-2.973-.151-3.732 6.078-3 4.586.539 8.892 2.668 9.57 4.73.919 2.8-5.142 3.75-23.919 3.75-15.965 0-26.625-1.369-29.19-3.75-3.232-3-3.617-3-1.923 0 2.979 5.276-2.727 4.684-7.237-.75-3.203-3.859-2.187-4.5 7.133-4.5 5.977 0 10.867-1.453 10.867-3.229 0-1.907-4.864-2.879-11.872-2.373-6.53.472-12.83-.1-14-1.27s8.56-1.944 21.622-1.719c13.063.224 20.713.993 17 1.708m24.553.564c.912 1.475-1.708 2.488-5.821 2.25-4.113-.237-7.479-1.443-7.48-2.681-.003-3.176 11.298-2.809 13.301.431m277.697.038c0 1.496-2.7 2.013-6 1.15s-6-2.086-6-2.719c0-.632 2.7-1.15 6-1.15s6 1.224 6 2.719m-260.25 2.268c-2.062.832-5.437.832-7.5 0-2.062-.832-.375-1.513 3.75-1.513s5.813.681 3.75 1.513m18.482.58c.873 1.411-1.748 1.929-5.823 1.15-4.075-.779-7.409-1.934-7.409-2.567 0-2.321 11.696-1.069 13.232 1.417M543 894c3.424 2.213 2.211 2.919-5.073 2.954-5.265.025-10.407-1.304-11.427-2.954-2.376-3.845 10.55-3.845 16.5 0m83.348.705c5.063 2.439 7.76 2.387 10.35-.203 2.669-2.669 1.041-3.454-6.848-3.299-9.72.191-9.933.404-3.502 3.502m-206.383 12.478c-1.544 1.574-6.504 1.079-12.001-1.198-6.46-2.676-8.192-4.608-5.578-6.223 2.085-1.289 6.196-1.056 9.135.517 4.373 2.34 5.01 1.894 3.508-2.46-1.518-4.396-1.02-4.278 2.865.681 2.709 3.457 3.587 7.137 2.071 8.683M888 897.094c0 1.598 2.025 2.906 4.5 2.906s4.5-.531 4.5-1.179c0-.649-2.025-1.956-4.5-2.906-2.475-.95-4.5-.419-4.5 1.179m-379.208 8.41c-2.828.552-7.426.069-10.217-1.072-4.537-1.856-4.439-2.321.925-4.383 3.485-1.34 7.768-.891 10.217 1.072 3.551 2.845 3.405 3.538-.925 4.383M739.5 900c-3.062 4.955 1.458 9.77 5.793 6.172 2.068-1.716 4.719-2.16 5.892-.987 1.172 1.172 1.241-.189.153-3.026-2.173-5.662-8.914-6.891-11.838-2.159M528 904.5c2.261 2.725 2.503 4.5.613 4.5-5.511 0-12.613-3.559-12.613-6.321 0-4.292 7.924-3.09 12 1.821m37.074-2.426c2.513 2.513 37.572 2.28 40.119-.267.994-.994-8.093-1.807-20.193-1.807-12.1 0-21.067.933-19.926 2.074m-163.736 4.935c6.804 3.777 6.784 3.821-3.902 8.918-10.995 5.243-22.436 3.008-22.436-4.382 0-3.105 3.277-2.736 16.5 1.86 5.581 1.939 5.637 1.785.797-2.207-2.862-2.36-4.325-5.17-3.25-6.245 2.648-2.648 4.323-2.368 12.291 2.056m139.143 10.272c2.523 2.523-1.329 3.325-15.029 3.131-12.433-.176-19.633-1.72-22.146-4.748-3.256-3.923-1.364-4.317 15.03-3.131 10.314.746 20.28 2.883 22.145 4.748M580.5 915c1.02 1.65 5.149 3 9.177 3s7.323-1.35 7.323-3-4.13-3-9.177-3c-5.354 0-8.405 1.25-7.323 3m137.82 1.821c-4.634 14.451-6.962 17.516-5.453 7.179 1.265-8.665.936-9.562-1.88-5.135-3.538 5.561-1.364 23.135 2.861 23.135 3.087 0 10.547-26.605 8.137-29.015-1.014-1.014-2.663.712-3.665 3.836m81.358 11.54c-1.125 7.502-2.528 13.639-3.116 13.639-.589 0-3.172-.806-5.74-1.791-4.181-1.605-4.191-2.268-.098-6.362 2.514-2.514 5.357-8.504 6.319-13.313 2.75-13.749 4.909-7.336 2.635 7.827M375 919.5c5.357 3.062 6.07 4.318 2.495 4.394-7.046.149-14.495-3.044-14.495-6.215 0-3.693 3.204-3.207 12 1.821m370.035 4.574c-1.736 8.681-1.487 8.949 5.753 6.197 7.501-2.852 20.212-1.363 20.212 2.368 0 1.066-3.037 3.271-6.75 4.9-3.712 1.628-10.147 9.578-14.299 17.665-8.918 17.37-16.67 23.573-20.99 16.796-4.835-7.583-3.363-15.533 6.789-36.685 5.363-11.173 10.054-20.314 10.425-20.314.371-.001-.142 4.082-1.14 9.073m9-4.445c-.977 2.547-2.42 3.986-3.206 3.2s-.54-2.87.548-4.629c2.958-4.787 4.687-3.857 2.658 1.429M765 918c0 1.65-1.35 3-3 3s-3-1.35-3-3 1.35-3 3-3 3 1.35 3 3m7.823 4.601c.358 2.435-.581 3.666-2.086 2.736-1.506-.93-2.737-3.861-2.737-6.514 0-5.685 3.881-2.646 4.823 3.778m-317.573-2.614c2.063.832 5.438.832 7.5 0 2.063-.832.375-1.513-3.75-1.513s-5.812.681-3.75 1.513M786 922.179c0 2.299-2.056 4.968-4.569 5.933-3.728 1.43-3.985.661-1.395-4.18 3.722-6.954 5.964-7.613 5.964-1.753m24.439.321c-.286 3.3-1.361 9.375-2.388 13.5-1.438 5.774-1.033 6.725 1.759 4.131 2.019-1.875 3.078-7.859 2.389-13.5-.681-5.572-1.473-7.431-1.76-4.131m-447.869 1.171c2.554 1.618 2.934 3.281 1.021 4.464-3.76 2.324-12.591-.801-12.591-4.456 0-3.383 6.238-3.387 11.57-.008M528 928.5c3.179 3.831 2.389 4.5-5.312 4.5-5.273 0-9.766-1.877-10.773-4.5-1.232-3.212.288-4.5 5.312-4.5 3.871 0 8.719 2.025 10.773 4.5m75-1.5c0 1.65 1.27 3 2.823 3s3.657-1.35 4.677-3c1.02-1.65-.251-3-2.823-3S603 925.35 603 927m-252.498 2.628c3.251 2.061 3.151 2.863-.531 4.276-2.493.957-6.146-.205-8.119-2.582-2.826-3.406-2.714-4.312.531-4.276 2.264.025 5.918 1.187 8.119 2.582M339 936c0 1.65-1.945 3-4.323 3s-5.157-1.35-6.177-3c-1.02-1.65.926-3 4.323-3 3.397 0 6.177 1.35 6.177 3m-15 3c0 1.65-1.43 3-3.177 3s-2.343-1.35-1.323-3 2.449-3 3.177-3c.728 0 1.323 1.35 1.323 3m473.332 14.664c6.307 18.792-7.005 32.941-27.394 29.116-21.441-4.022-21.045-27.479.648-38.314 12.355-6.171 22.792-2.582 26.746 9.198M315 943.179c0 .649-2.095 1.983-4.656 2.966-2.67 1.024-3.874.521-2.823-1.179 1.762-2.851 7.479-4.217 7.479-1.787m608.188 3.634c-.997.996-3.585 1.103-5.75.236-2.394-.957-1.683-1.668 1.812-1.812 3.163-.13 4.934.579 3.938 1.576m-155.461 6.016c-2.651 3.195-2.763 5.335-.402 7.696 4.368 4.368 11.488 1.339 13.32-5.666 1.84-7.037-7.539-8.512-12.918-2.03M633 965.852c0 1.82 7.035 3.148 16.677 3.148 9.172 0 15.994-1.105 15.159-2.457-2.31-3.737-31.836-4.378-31.836-.691M472.435 977.54c9.077 7.97 9.357 8.771 4.19 11.998-12.926 8.073-21.085 26.156-22.788 50.505-2.401 34.336-7.412 39.89-44.337 49.142-26.851 6.728-43.002 17.294-54.743 35.815-3.661 5.775-6.679 9.132-6.706 7.46-.028-1.672 4.499-9.797 10.061-18.055 10.16-15.087 26.515-25.236 48.186-29.9 4.838-1.042 14.124-7.221 20.634-13.731l11.837-11.837-2.08-23.844c-1.798-20.612-1.22-25.788 4.262-38.181C446.572 984.205 457.699 969 461.377 969c.732 0 5.708 3.843 11.058 8.54m35.315 11.447c-2.062.832-5.437.832-7.5 0-2.062-.832-.375-1.513 3.75-1.513s5.813.681 3.75 1.513m-14.271 3.979c1.074 1.738-.404 2.243-3.573 1.22-3.863-1.246-3.265.122 2.094 4.795 4.125 3.597 5.475 5.537 3 4.312-8.199-4.058-11.955-7.939-10.29-10.633 2.181-3.529 6.492-3.378 8.769.306m26.271 2.021c-2.062.832-5.437.832-7.5 0-2.062-.832-.375-1.513 3.75-1.513s5.813.681 3.75 1.513M712.5 996c-1.02 1.65-3.204 3-4.854 3s-2.166-1.35-1.146-3 3.204-3 4.854-3 2.166 1.35 1.146 3m-229.117 5.25c3.731 4.758 3.625 4.864-1.133 1.133-4.997-3.919-6.586-6.383-4.117-6.383.623 0 2.985 2.363 5.25 5.25m168.131.774c18.133 4.289-51.614 2.881-74.014-1.495-20.823-4.068-20.641-4.089 21.514-2.485 23.383.89 47.008 2.68 52.5 3.98m-128.187-.304c.925 1.496-1.021 2.014-4.323 1.15-7.005-1.832-7.89-3.87-1.681-3.87 2.378 0 5.079 1.224 6.004 2.72m-39.035 8.988c-.789.789-3.765-.998-6.613-3.972-4.948-5.166-4.884-5.23 1.435-1.435 3.637 2.185 5.967 4.618 5.178 5.407m71.515-6.74c-2.031.822-6.081.872-9 .111-2.919-.761-1.257-1.433 3.693-1.494 4.95-.061 7.338.561 5.307 1.383m-77.022 10.496 5.715 6.465-8.25-5.31c-8.507-5.474-10.115-7.619-5.715-7.619 1.394 0 5.107 2.909 8.25 6.464m72.465-4.315c-4.537.687-11.962.687-16.5 0-4.537-.688-.825-1.25 8.25-1.25s12.788.562 8.25 1.25M697.5 1014l-12 2.149 14.427.425c8.95.264 13.723-.713 12.573-2.574-1.02-1.65-2.112-2.808-2.427-2.574-.315.234-5.973 1.392-12.573 2.574m-220.5 9.211c0 1.93-2.141 1.854-6-.211-3.3-1.766-6-4.561-6-6.211 0-1.93 2.141-1.854 6 .211 3.3 1.766 6 4.561 6 6.211M669 1017c0 3.759 3.184 3.759 9 0 3.639-2.352 3.208-2.917-2.25-2.954-3.712-.025-6.75 1.304-6.75 2.954m-195 15.747c0 1.267-2.7.618-6-1.443s-6-4.784-6-6.051c0-1.267 2.7-.618 6 1.443s6 4.784 6 6.051m350.25-4.679c-2.887.755-7.612.755-10.5 0-2.887-.755-.525-1.372 5.25-1.372s8.138.617 5.25 1.372m-354.465 10.369c5.675 6.391 5.669 6.412-.868 2.983-7.292-3.824-11.782-9.42-7.559-9.42 1.492 0 5.284 2.896 8.427 6.437m185.865-3.637c1.668 1.639 7.205 1.766 13.35.307l10.5-2.493-13.35-.307c-8.298-.191-12.271.753-10.5 2.493m27.788-.751c2.165.867 4.753.76 5.75-.236.996-.997-.775-1.706-3.938-1.576-3.495.144-4.206.855-1.812 1.812m-115.688 5.127c6.922 5.255 6.863 5.667-4.789 33.713-5.521 13.29-12.533 33.379-15.581 44.642-6.66 24.602-9.57 21.493-3.274-3.498 2.43-9.643 6.785-31.37 9.678-48.283 2.893-16.912 6.038-30.707 6.988-30.655.951.053 4.091 1.889 6.978 4.081m-95.055 11.139c1.454 2.353.273 2.344-4.166-.032-3.407-1.823-7.108-4.793-8.224-6.598-1.454-2.353-.273-2.344 4.166.032 3.407 1.823 7.108 4.793 8.224 6.598M781.5 1044c-3.3 1.418-22.617 2.673-42.927 2.789-23.803.136-36.268 1.277-35.073 3.211 1.02 1.65-.926 3-4.323 3-3.397 0-6.177-1.35-6.177-3s-3.712-3.287-8.25-3.637c-4.537-.35 14.025-1.414 41.25-2.363 27.225-.949 52.2-1.918 55.5-2.152l6-.426-6 2.578m-190.5 5.402c-2.475.775-6.73 2.553-9.456 3.951-3.885 1.994-4.645 1.358-3.52-2.945 1.081-4.134 3.415-5.109 9.456-3.952 4.999.958 6.325 2.068 3.52 2.946m68.368-3.189c-9.423.594-25.623.599-36 .011-10.378-.587-2.668-1.073 17.132-1.079 19.8-.006 28.29.475 18.868 1.068M471 1059.131c0 1.617-2.676 1.248-6-.827-3.3-2.061-6-4.82-6-6.131s2.7-.939 6 .827 6 4.525 6 6.131m182.327-5.934c-3.351 1.953-8.633 2.016-15 .179-9.47-2.732-9.281-2.841 5.173-3.014 11.423-.137 13.767.539 9.827 2.835m28.423-1.21c-2.062.832-5.437.832-7.5 0-2.062-.832-.375-1.513 3.75-1.513s5.813.681 3.75 1.513m34.438-.174c-.997.996-3.585 1.103-5.75.236-2.394-.957-1.683-1.668 1.812-1.812 3.163-.13 4.934.579 3.938 1.576M744 1053c0 1.65-5.737 2.822-12.75 2.605l-12.75-.395L729 1053c5.775-1.216 11.513-2.388 12.75-2.605 1.238-.217 2.25.955 2.25 2.605m-151.674 3.873c-1.513 3.942-19.417 12.036-21.661 9.792-.677-.677 3.959-3.969 10.302-7.316 13.969-7.369 13.169-7.195 11.359-2.476m-124.825 12.626c-3.294 3.294-11.09-2.079-9.401-6.48 1.514-3.945 2.281-3.924 6.382.177 2.563 2.564 3.922 5.4 3.019 6.303m211.451-4.532c6.898.027 8.123 1.069 6.664 5.668-.984 3.099-1.97 12.887-2.193 21.75-.498 19.874 5.344 31.882 24.669 50.704 16.473 16.045 22.274 31.098 17.387 45.117-3.376 9.684-36.122 36.995-40.078 33.426-1.3-1.173-1.479-.585-.398 1.306s-.044 7.291-2.5 12c-2.593 4.971-4.474 16.637-4.485 27.812-.022 23.444-1.756 22.917-4.386-1.334-2.895-26.688 1.476-41.668 16.096-55.165 11.037-10.189 12.272-12.758 12.272-25.521 0-15.445-6.346-23.859-27.325-36.23-16.253-9.584-26.675-33.389-26.675-60.93v-22.355l11.25 1.859c6.188 1.023 15.053 1.875 19.702 1.893m-92.526 6.645c-.944 2.459-6.273 5.869-11.842 7.578-13.172 4.043-11.55-2.194 2.303-8.851 10.841-5.21 11.969-5.059 9.539 1.273m-127.689 7.205c-4.141 4.99-9.113 2.652-6.858-3.224.89-2.318 3.565-3.467 5.946-2.553 3.306 1.268 3.521 2.633.912 5.777m250.013-5.7c-3.712.715-9.787.715-13.5 0-3.712-.715-.675-1.3 6.75-1.3s10.463.585 6.75 1.3m3.75 6.883c-1.02 1.65-6.837 2.905-12.927 2.789-8.924-.17-9.909-.711-5.073-2.789 8.424-3.62 20.237-3.62 18 0m-132.174 3.873c-1.631 4.248-19.326 11.95-19.326 8.411 0-1.642 14.814-10.529 20.156-12.092.361-.106-.013 1.551-.83 3.681m-129.02 1.813c2.006 3.246-6.713 7.035-10.626 4.616-1.528-.944-2.001-2.973-1.052-4.509 2.198-3.556 9.505-3.623 11.678-.107M711 1089.293c0 2.295-10.954 5.605-18.75 5.666-7.673.06-6.423-5.372 1.5-6.518 11.019-1.593 17.25-1.285 17.25.852m-274.628 2.5c2.609 4.221-3.607 6.854-10.795 4.573-5.007-1.589-5.483-2.584-2.223-4.648 5.43-3.439 10.865-3.408 13.018.075m-18.339 10.194c-2.613 1.495-6.195.953-8.981-1.359-4.136-3.432-4.05-4.05.802-5.752 7.241-2.54 14.309 3.605 8.179 7.111M576 1096.28c0 .704-4.05 3.301-9 5.77-4.95 2.47-9 3.45-9 2.179 0-1.272 3.038-3.777 6.75-5.568 7.366-3.552 11.25-4.374 11.25-2.381M402 1101c2.475 1.599 3.15 3.029 1.5 3.177-9.034.81-17.793 3.338-25.66 7.406-13.313 6.884-10.613 2.819 3.91-5.885 14.491-8.684 14.19-8.615 20.25-4.698m309-.328c0 1.469-4.725 3.223-10.5 3.897-7.241.846-10.5.016-10.5-2.671 0-2.455 3.888-3.898 10.5-3.898 5.775 0 10.5 1.202 10.5 2.672m-148.286 14.042c-3.177 2.323-6.547 3.453-7.49 2.51-.943-.943.885-3.615 4.062-5.938 3.177-2.323 6.547-3.453 7.49-2.51.943.943-.885 3.615-4.062 5.938M711 1113c0 1.65-3.97 3-8.823 3s-9.657-1.35-10.677-3c-1.103-1.785 2.469-3 8.823-3 5.872 0 10.677 1.35 10.677 3m4.5 9c1.095 1.772-2.209 2.981-8.073 2.954-7.513-.035-8.833-.753-5.427-2.954 5.832-3.769 11.171-3.769 13.5 0m-159 6c-1.02 1.65-3.204 3-4.854 3s-2.166-1.35-1.146-3 3.204-3 4.854-3 2.166 1.35 1.146 3m169.5 4.16c0 .637-4.05 1.753-9 2.48-4.95.726-9 .205-9-1.16 0-1.364 4.05-2.48 9-2.48s9 .522 9 1.16M552 1137c0 1.65-1.43 3-3.177 3s-2.343-1.35-1.323-3 2.449-3 3.177-3c.728 0 1.323 1.35 1.323 3m184.5 6c1.079 1.745-1.91 3-7.146 3-4.95 0-9.834-1.35-10.854-3-1.079-1.745 1.91-3 7.146-3 4.95 0 9.834 1.35 10.854 3m9 12c1.101 1.782-2.41 3-8.646 3-5.775 0-11.334-1.35-12.354-3-1.101-1.782 2.41-3 8.646-3 5.775 0 11.334 1.35 12.354 3m-4.165 18.091c-5.342 1.085-8.419.13-9.67-3-1.297-3.245.462-5.057 6-6.182 5.342-1.085 8.419-.13 9.67 3 1.297 3.245-.462 5.057-6 6.182m6.869 10.098c-.884 2.304-4.891 4.816-8.906 5.584-5.616 1.074-7.298.108-7.298-4.189 0-4.191 2.221-5.584 8.906-5.584 6.39 0 8.452 1.183 7.298 4.189M744 1195.255c0 5.906-4.316 9.666-9.9 8.625-3.63-.677-9.3.85-12.6 3.392-5.663 4.363-5.411 4.512 4.5 2.669 9.549-1.776 10.127-1.5 6.383 3.053-2.555 3.106-8.533 5.006-15.75 5.006-6.565 0-11.633 1.459-11.633 3.35 0 1.978 2.764 2.653 6.75 1.649 6.152-1.551 6.033-1.171-1.336 4.281-11.933 8.828-20.812 25.014-23.388 42.637l-2.277 15.583-.375-20.447c-.206-11.246 1.093-23.396 2.885-27 5.551-11.161 42.698-43.807 49.991-43.935 3.713-.065 6.75.447 6.75 1.137" fill-rule="evenodd" style="--darkreader-inline-fill:var(--darkreader-background-000000, #000000);--darkreader-inline-stroke:none"/></svg>