<svg xmlns="http://www.w3.org/2000/svg" xmlns:xlink="http://www.w3.org/1999/xlink" xmlns:inkscape="http://www.inkscape.org/namespaces/inkscape" version="1.1" width="737.93" height="473.52" viewBox="0 0 337.93 173.52">
<path transform="matrix(1,0,0,-1,168.965,-3.947998)" d="M2.2545-14.17339C2.2545-12.92824 1.24515-11.91887 0-11.91887-1.24515-11.91887-2.2545-12.92824-2.2545-14.17339-2.2545-15.41853-1.24515-16.4279 0-16.4279 1.24515-16.4279 2.2545-15.41853 2.2545-14.17339ZM0-14.17339" fill="#008080"/>
<path transform="matrix(1,0,0,-1,168.965,-3.947998)" d="M-40.26569-42.5202C-40.26569-41.27505-41.27505-40.26569-42.5202-40.26569-43.76535-40.26569-44.77472-41.27505-44.77472-42.5202-44.77472-43.76535-43.76535-44.77472-42.5202-44.77472-41.27505-44.77472-40.26569-43.76535-40.26569-42.5202ZM-42.5202-42.5202" fill="#008080"/>
<path transform="matrix(1,0,0,-1,168.965,-3.947998)" d="M-62.94322-76.53629C-62.94322-75.29114-63.95259-74.28177-65.19774-74.28177-66.44289-74.28177-67.45226-75.29114-67.45226-76.53629-67.45226-77.78143-66.44289-78.7908-65.19774-78.7908-63.95259-78.7908-62.94322-77.78143-62.94322-76.53629ZM-65.19774-76.53629" fill="#008080"/>
<path transform="matrix(1,0,0,-1,168.965,-3.947998)" stroke-width=".89664" stroke-linecap="butt" stroke-miterlimit="10" stroke-linejoin="miter" fill="none" stroke="#ff6c00" d="M-43.88123-44.56177-63.8367-74.49472"/>
<path transform="matrix(1,0,0,-1,168.965,-3.947998)" d="M44.77472-42.5202C44.77472-41.27505 43.76535-40.26569 42.5202-40.26569 41.27505-40.26569 40.26569-41.27505 40.26569-42.5202 40.26569-43.76535 41.27505-44.77472 42.5202-44.77472 43.76535-44.77472 44.77472-43.76535 44.77472-42.5202ZM42.5202-42.5202" fill="#008080"/>
<path transform="matrix(1,0,0,-1,168.965,-3.947998)" d="M67.45226-76.53629C67.45226-75.29114 66.44289-74.28177 65.19774-74.28177 63.95259-74.28177 62.94322-75.29114 62.94322-76.53629 62.94322-77.78143 63.95259-78.7908 65.19774-78.7908 66.44289-78.7908 67.45226-77.78143 67.45226-76.53629ZM65.19774-76.53629" fill="#008080"/>
<path transform="matrix(1,0,0,-1,168.965,-3.947998)" stroke-width=".89664" stroke-linecap="butt" stroke-miterlimit="10" stroke-linejoin="miter" fill="none" stroke="#ff6c00" d="M43.88123-44.56177 63.8367-74.49472"/>
<path transform="matrix(1,0,0,-1,168.965,-3.947998)" d="M-111.13272-99.21382C-111.13272-97.96867-112.14209-96.9593-113.38724-96.9593-114.63239-96.9593-115.64174-97.96867-115.64174-99.21382-115.64174-100.45897-114.63239-101.46834-113.38724-101.46834-112.14209-101.46834-111.13272-100.45897-111.13272-99.21382ZM-113.38724-99.21382" fill="#008080"/>
<path transform="matrix(1,0,0,-1,168.965,-3.947998)" d="M-133.81024-133.2299C-133.81024-131.98476-134.81961-130.97539-136.06476-130.97539-137.3099-130.97539-138.31926-131.98476-138.31926-133.2299-138.31926-134.47505-137.3099-135.48442-136.06476-135.48442-134.81961-135.48442-133.81024-134.47505-133.81024-133.2299ZM-136.06476-133.2299" fill="#008080"/>
<path transform="matrix(1,0,0,-1,168.965,-3.947998)" d="M-156.48778-167.24599C-156.48778-166.00084-157.49715-164.99147-158.7423-164.99147-159.98744-164.99147-160.9968-166.00084-160.9968-167.24599-160.9968-168.49114-159.98744-169.5005-158.7423-169.5005-157.49715-169.5005-156.48778-168.49114-156.48778-167.24599ZM-158.7423-167.24599" fill="#008080"/>
<path transform="matrix(1,0,0,-1,168.965,-3.947998)" stroke-width=".89664" stroke-linecap="butt" stroke-miterlimit="10" stroke-linejoin="miter" fill="none" stroke="#ff6c00" d="M-114.74826-101.25539-134.70372-131.18834M-137.42578-135.27147-157.38126-165.20442"/>
<path transform="matrix(1,0,0,-1,168.965,-3.947998)" d="M-54.4391-99.21382C-54.4391-97.96867-55.44847-96.9593-56.69362-96.9593-57.93877-96.9593-58.94812-97.96867-58.94812-99.21382-58.94812-100.45897-57.93877-101.46834-56.69362-101.46834-55.44847-101.46834-54.4391-100.45897-54.4391-99.21382ZM-56.69362-99.21382" fill="#008080"/>
<path transform="matrix(1,0,0,-1,168.965,-3.947998)" d="M-77.11662-133.2299C-77.11662-131.98476-78.12599-130.97539-79.37114-130.97539-80.61629-130.97539-81.62564-131.98476-81.62564-133.2299-81.62564-134.47505-80.61629-135.48442-79.37114-135.48442-78.12599-135.48442-77.11662-134.47505-77.11662-133.2299ZM-79.37114-133.2299" fill="#008080"/>
<path transform="matrix(1,0,0,-1,168.965,-3.947998)" d="M-54.4391-167.24599C-54.4391-166.00084-55.44847-164.99147-56.69362-164.99147-57.93877-164.99147-58.94812-166.00084-58.94812-167.24599-58.94812-168.49114-57.93877-169.5005-56.69362-169.5005-55.44847-169.5005-54.4391-168.49114-54.4391-167.24599ZM-56.69362-167.24599" fill="#008080"/>
<path transform="matrix(1,0,0,-1,168.965,-3.947998)" stroke-width=".89664" stroke-linecap="butt" stroke-miterlimit="10" stroke-linejoin="miter" fill="none" stroke="#ff6c00" d="M-58.05464-101.25539-78.0101-131.18834"/>
<path transform="matrix(1,0,0,-1,168.965,-3.947998)" stroke-width=".89664" stroke-linecap="butt" stroke-miterlimit="10" stroke-linejoin="miter" fill="none" stroke="#ff6c00" d="M-78.0101-135.27147-58.05464-165.20442"/>
<path transform="matrix(1,0,0,-1,168.965,-3.947998)" d="M2.2545-99.21382C2.2545-97.96867 1.24515-96.9593 0-96.9593-1.24515-96.9593-2.2545-97.96867-2.2545-99.21382-2.2545-100.45897-1.24515-101.46834 0-101.46834 1.24515-101.46834 2.2545-100.45897 2.2545-99.21382ZM0-99.21382" fill="#008080"/>
<path transform="matrix(1,0,0,-1,168.965,-3.947998)" d="M-20.423-133.2299C-20.423-131.98476-21.43236-130.97539-22.67752-130.97539-23.92267-130.97539-24.93202-131.98476-24.93202-133.2299-24.93202-134.47505-23.92267-135.48442-22.67752-135.48442-21.43236-135.48442-20.423-134.47505-20.423-133.2299ZM-22.67752-133.2299" fill="#008080"/>
<path transform="matrix(1,0,0,-1,168.965,-3.947998)" d="M24.93202-133.2299C24.93202-131.98476 23.92267-130.97539 22.67752-130.97539 21.43236-130.97539 20.423-131.98476 20.423-133.2299 20.423-134.47505 21.43236-135.48442 22.67752-135.48442 23.92267-135.48442 24.93202-134.47505 24.93202-133.2299ZM22.67752-133.2299" fill="#008080"/>
<path transform="matrix(1,0,0,-1,168.965,-3.947998)" stroke-width=".89664" stroke-linecap="butt" stroke-miterlimit="10" stroke-linejoin="miter" fill="none" stroke="#ff6c00" d="M-1.36102-101.25539-21.31648-131.18834"/>
<path transform="matrix(1,0,0,-1,168.965,-3.947998)" stroke-width=".89664" stroke-linecap="butt" stroke-miterlimit="10" stroke-linejoin="miter" fill="none" stroke="#ff6c00" d="M1.36102-101.25539 21.31648-131.18834"/>
<path transform="matrix(1,0,0,-1,168.965,-3.947998)" d="M58.94812-99.21382C58.94812-97.96867 57.93877-96.9593 56.69362-96.9593 55.44847-96.9593 54.4391-97.96867 54.4391-99.21382 54.4391-100.45897 55.44847-101.46834 56.69362-101.46834 57.93877-101.46834 58.94812-100.45897 58.94812-99.21382ZM56.69362-99.21382" fill="#008080"/>
<path transform="matrix(1,0,0,-1,168.965,-3.947998)" d="M81.62564-133.2299C81.62564-131.98476 80.61629-130.97539 79.37114-130.97539 78.12599-130.97539 77.11662-131.98476 77.11662-133.2299 77.11662-134.47505 78.12599-135.48442 79.37114-135.48442 80.61629-135.48442 81.62564-134.47505 81.62564-133.2299ZM79.37114-133.2299" fill="#008080"/>
<path transform="matrix(1,0,0,-1,168.965,-3.947998)" d="M58.94812-167.24599C58.94812-166.00084 57.93877-164.99147 56.69362-164.99147 55.44847-164.99147 54.4391-166.00084 54.4391-167.24599 54.4391-168.49114 55.44847-169.5005 56.69362-169.5005 57.93877-169.5005 58.94812-168.49114 58.94812-167.24599ZM56.69362-167.24599" fill="#008080"/>
<path transform="matrix(1,0,0,-1,168.965,-3.947998)" stroke-width=".89664" stroke-linecap="butt" stroke-miterlimit="10" stroke-linejoin="miter" fill="none" stroke="#ff6c00" d="M58.05464-101.25539 78.0101-131.18834"/>
<path transform="matrix(1,0,0,-1,168.965,-3.947998)" stroke-width=".89664" stroke-linecap="butt" stroke-miterlimit="10" stroke-linejoin="miter" fill="none" stroke="#ff6c00" d="M78.0101-135.27147 58.05464-165.20442"/>
<path transform="matrix(1,0,0,-1,168.965,-3.947998)" d="M115.64174-99.21382C115.64174-97.96867 114.63239-96.9593 113.38724-96.9593 112.14209-96.9593 111.13272-97.96867 111.13272-99.21382 111.13272-100.45897 112.14209-101.46834 113.38724-101.46834 114.63239-101.46834 115.64174-100.45897 115.64174-99.21382ZM113.38724-99.21382" fill="#008080"/>
<path transform="matrix(1,0,0,-1,168.965,-3.947998)" d="M138.31926-133.2299C138.31926-131.98476 137.3099-130.97539 136.06476-130.97539 134.81961-130.97539 133.81024-131.98476 133.81024-133.2299 133.81024-134.47505 134.81961-135.48442 136.06476-135.48442 137.3099-135.48442 138.31926-134.47505 138.31926-133.2299ZM136.06476-133.2299" fill="#008080"/>
<path transform="matrix(1,0,0,-1,168.965,-3.947998)" d="M160.9968-167.24599C160.9968-166.00084 159.98744-164.99147 158.7423-164.99147 157.49715-164.99147 156.48778-166.00084 156.48778-167.24599 156.48778-168.49114 157.49715-169.5005 158.7423-169.5005 159.98744-169.5005 160.9968-168.49114 160.9968-167.24599ZM158.7423-167.24599" fill="#008080"/>
<path transform="matrix(1,0,0,-1,168.965,-3.947998)" stroke-width=".89664" stroke-linecap="butt" stroke-miterlimit="10" stroke-linejoin="miter" fill="none" stroke="#ff6c00" d="M114.74826-101.25539 134.70372-131.18834M137.42578-135.27147 157.38126-165.20442"/>
</svg>
