<svg xmlns="http://www.w3.org/2000/svg" width="737.93" height="473.52" viewBox="0 0 337.93 173.52"><path d="M171.22 10.225a2.254 2.254 0 1 0-4.51 0 2.254 2.254 0 0 0 4.51 0zM128.7 38.572a2.254 2.254 0 1 0-4.51 0 2.254 2.254 0 0 0 4.51 0zM106.022 72.588a2.255 2.255 0 1 0-4.51 0 2.255 2.255 0 0 0 4.51 0zm-2.255 0" fill="teal"/><path stroke-width=".897" stroke-miterlimit="10" fill="none" stroke="#ff6c00" d="m125.084 40.614-19.956 29.933"/><path d="M213.74 38.572a2.254 2.254 0 1 0-4.51 0 2.254 2.254 0 0 0 4.51 0zM236.417 72.588a2.255 2.255 0 1 0-4.509 0 2.255 2.255 0 0 0 4.51 0zm-2.254 0" fill="teal"/><path stroke-width=".897" stroke-miterlimit="10" fill="none" stroke="#ff6c00" d="m212.846 40.614 19.956 29.933"/><path d="M57.832 95.266a2.255 2.255 0 1 0-4.509 0 2.255 2.255 0 0 0 4.51 0zM35.155 129.282a2.255 2.255 0 1 0-4.51 0 2.255 2.255 0 0 0 4.51 0zM12.477 163.298a2.255 2.255 0 1 0-4.509 0 2.255 2.255 0 0 0 4.51 0zm-2.254 0" fill="teal"/><path stroke-width=".897" stroke-miterlimit="10" fill="none" stroke="#ff6c00" d="M54.217 97.307 34.26 127.24m-2.722 4.083-19.955 29.933"/><path d="M114.526 95.266a2.255 2.255 0 1 0-4.51 0 2.255 2.255 0 0 0 4.51 0zM91.848 129.282a2.255 2.255 0 1 0-4.509 0 2.255 2.255 0 0 0 4.51 0zM114.526 163.298a2.255 2.255 0 1 0-4.51 0 2.255 2.255 0 0 0 4.51 0zm-2.255 0" fill="teal"/><path stroke-width=".897" stroke-miterlimit="10" fill="none" stroke="#ff6c00" d="M110.91 97.307 90.955 127.24M90.955 131.323l19.955 29.933"/><path d="M171.22 95.266a2.254 2.254 0 1 0-4.51 0 2.254 2.254 0 0 0 4.51 0zM148.542 129.282a2.254 2.254 0 1 0-4.509 0 2.254 2.254 0 0 0 4.509 0zM193.897 129.282a2.254 2.254 0 1 0-4.509 0 2.254 2.254 0 0 0 4.509 0zm-2.254 0" fill="teal"/><path stroke-width=".897" stroke-miterlimit="10" fill="none" stroke="#ff6c00" d="m167.604 97.307-19.955 29.933M170.326 97.307l19.955 29.933"/><path d="M227.913 95.266a2.254 2.254 0 1 0-4.509 0 2.254 2.254 0 0 0 4.51 0zM250.59 129.282a2.254 2.254 0 1 0-4.508 0 2.254 2.254 0 0 0 4.509 0zM227.913 163.298a2.254 2.254 0 1 0-4.509 0 2.254 2.254 0 0 0 4.51 0zm-2.254 0" fill="teal"/><path stroke-width=".897" stroke-miterlimit="10" fill="none" stroke="#ff6c00" d="m227.02 97.307 19.955 29.933M246.975 131.323l-19.955 29.933"/><path d="M284.607 95.266a2.254 2.254 0 1 0-4.51 0 2.254 2.254 0 0 0 4.51 0zM307.284 129.282a2.254 2.254 0 1 0-4.509 0 2.254 2.254 0 0 0 4.51 0zM329.962 163.298a2.254 2.254 0 1 0-4.51 0 2.254 2.254 0 0 0 4.51 0zm-2.255 0" fill="teal"/><path stroke-width=".897" stroke-miterlimit="10" fill="none" stroke="#ff6c00" d="m283.713 97.307 19.956 29.933m2.722 4.083 19.955 29.933"/></svg>